<svg style="width: 45.6px; height: 43.7306px;" aria-label="AC Hotels by Marriott" role="img" preserveAspectRatio="" fill="none" viewBox="0 0 139 133" height="133" width="139" xmlns="http://www.w3.org/2000/svg">
  <path fill="#656B71" d="M127.972 105.954H3.44383V128.769H127.972V105.954ZM127.972 4.23328H3.44383V103.981H127.972V4.23328ZM130.207 131H1.20703V2H130.207V131ZM108.395 51.0902C107.852 52.0969 106.901 53.4218 105.554 55.0346C104.226 56.6385 102.316 58.085 99.8593 59.3884C97.4151 60.6794 94.2592 61.3606 90.3953 61.4447C86.3347 61.4041 82.866 60.5507 79.9908 58.8825C77.1211 57.225 74.9272 55.0346 73.402 52.2846C71.8643 49.5525 71.1026 46.5523 71.0919 43.2606C71.1122 39.6166 71.9591 36.416 73.5987 33.6285C75.2401 30.8428 77.4966 28.6685 80.3807 27.0861C83.2701 25.5055 86.6047 24.6992 90.3953 24.6741C93.1954 24.6589 95.8899 25.1516 98.4592 26.1546C101.05 27.1738 103.257 28.7812 105.082 30.9429C105.658 31.6349 106.105 32.2464 106.432 32.7523C106.774 33.2655 107.108 33.8001 107.442 34.3812L110.82 32.2749C110.096 31.0001 109.22 29.7682 107.923 28.2644C106.648 26.7464 104.832 25.3142 102.47 23.9642C100.716 23.0112 98.7936 22.28 96.7249 21.7418C94.6276 21.2196 92.4426 20.9515 90.1575 20.9515C85.7143 20.9819 81.7163 21.9509 78.1939 23.839C74.6644 25.7451 71.8643 28.327 69.817 31.6224C67.7608 34.9374 66.7166 38.7065 66.6612 42.9673C66.6307 46.3896 67.4354 49.7869 69.0428 53.1537C70.6449 56.5258 73.1803 59.3384 76.6401 61.5949C80.1089 63.8388 84.6075 65.0118 90.1575 65.1047C93.5708 65.1554 96.9341 64.5487 100.247 63.3167C103.548 62.083 106.536 59.9141 109.22 56.8316C109.867 56.0663 110.401 55.3565 110.82 54.7253C111.246 54.0781 111.642 53.4469 112.009 52.7907L108.395 51.0902ZM54.1689 49.8951H30.4776L42.2106 25.9785L54.1689 49.8951ZM39.9541 22.2506L19.417 64.0437H23.5544L28.8809 53.2047H55.8317L61.2083 64.0437H65.5335L44.4546 22.2506H39.9541ZM39.3572 83.7425C38.6259 82.9325 38.2701 81.9205 38.2701 80.667C38.2701 79.4136 38.6259 78.3766 39.3572 77.5827C40.1833 76.6975 41.3205 76.2632 42.7956 76.2632C44.2779 76.2632 45.4275 76.6976 46.2429 77.5827C46.9813 78.3766 47.3372 79.4136 47.3372 80.667C47.3372 81.9205 46.9813 82.9325 46.2429 83.7425C45.4275 84.6366 44.2779 85.0781 42.7956 85.0781C41.3205 85.0781 40.1833 84.6365 39.3572 83.7425ZM38.0109 76.3549C36.829 77.4331 36.2354 78.8546 36.2354 80.6265C36.2354 82.3716 36.829 83.7931 38.0109 84.8713C39.1802 85.9405 40.7984 86.4841 42.7956 86.4841C44.8089 86.4841 46.4092 85.9405 47.6 84.8713C48.7711 83.7931 49.3558 82.3716 49.3558 80.6265C49.3558 78.8546 48.7711 77.4331 47.6 76.3549C46.4092 75.2857 44.8089 74.7511 42.7956 74.7511C40.7984 74.7511 39.1802 75.2857 38.0109 76.3549ZM111.704 78.2516L109.97 78.3358C109.93 77.6009 109.595 77.0323 108.947 76.6389C108.373 76.2704 107.61 76.1043 106.66 76.1043C105.929 76.1043 105.291 76.197 104.79 76.4296C104.122 76.6978 103.807 77.1163 103.807 77.6831C103.807 78.4198 104.51 78.9543 105.918 79.2798C107.213 79.5712 108.52 79.8555 109.838 80.1326C111.223 80.6583 111.935 81.5452 111.935 82.7968C111.935 83.8517 111.426 84.8959 110.389 85.4967C109.469 86.0402 108.341 86.2995 107.016 86.2995C105.375 86.2995 104.079 86.0405 103.118 85.4627C102.044 84.837 101.447 83.6586 101.355 82.3801L103.181 82.2464C103.265 84.0433 104.518 84.9534 106.932 84.9534C107.819 84.9534 108.55 84.7943 109.126 84.4526C109.775 84.0842 110.097 83.5425 110.097 82.8398C110.097 82.0459 109.407 81.4863 107.998 81.168C107.244 80.9989 106.492 80.8441 105.739 80.6892L105.738 80.689C105.185 80.5753 104.632 80.4615 104.079 80.342C102.68 79.8808 101.981 79.0869 101.981 77.9765C101.981 77.0235 102.462 76.0382 103.422 75.4857C104.3 74.985 105.332 74.7509 106.566 74.7509C107.957 74.7509 109.106 75.0098 109.984 75.5287C110.973 76.1044 111.551 77.1645 111.704 78.2516ZM30.7698 75.101H28.8476L28.8477 79.5889H21.431V75.0348H19.4463V86.2331H21.3809L21.4524 81.1355H28.7565V86.2331H30.7698V75.101ZM54.837 75.1009H65.2826V76.5546H61.0754V86.233H59.2033L59.1531 76.5546H54.8279L54.837 75.1009ZM80.9652 75.1009H70.7485V86.233H81.4123V84.6024H72.4489V81.2195H80.2537V79.5888H72.3988V76.5546H80.9652V75.1009ZM86.8768 75.1009H88.6952V84.6614H95.8813V86.233H86.8768V75.1009ZM22.3001 111.637C22.3502 111.369 22.4467 111.236 22.5718 111.236C22.697 111.236 22.781 111.312 22.9902 111.721L27.1974 120.413L31.3957 111.603C31.5137 111.362 31.5977 111.237 31.7301 111.237C31.8695 111.237 31.9607 111.394 32.0144 111.721L33.4144 121.248C33.561 122.217 33.7076 122.667 34.1743 122.81C34.4583 122.891 34.6894 122.93 34.8738 122.948C34.9147 122.944 34.9563 122.941 34.996 122.937H34.9962L35.0278 122.934L35.0878 122.929L35.1365 122.925C35.8374 122.833 36.1306 122.308 36.431 121.539L40.3092 111.853C40.497 111.401 40.5881 111.235 40.7473 111.235C40.8724 111.235 40.9654 111.369 41.1317 111.728C41.295 112.102 41.8721 113.549 42.5496 115.248L42.5497 115.249C43.4001 117.381 44.4089 119.911 44.9563 121.214C45.541 122.599 45.9791 122.817 46.3134 122.893C46.5423 122.933 46.764 122.959 46.9535 122.959C47.0858 122.959 47.1609 122.969 47.1609 123.068C47.1609 123.193 47.0233 123.227 46.46 123.227C45.895 123.227 44.7667 123.227 43.5348 123.192L43.4924 123.19C43.2362 123.181 43.0753 123.176 43.0753 123.066C43.0753 122.982 43.1289 122.957 43.2845 122.932C43.3882 122.897 43.5062 122.766 43.4293 122.581L42.1974 119.304C42.1563 119.238 42.1133 119.206 42.0311 119.206L38.5838 119.209C38.5212 119.209 38.4908 119.239 38.4586 119.334L37.6218 121.54C37.468 121.925 37.4054 122.3 37.4054 122.476C37.4054 122.76 37.5306 122.96 38.0116 122.96H38.2405C38.4282 122.96 38.4711 122.985 38.4711 123.069C38.4711 123.194 38.3871 123.228 38.219 123.228C37.9663 123.228 37.673 123.218 37.3826 123.208L37.3823 123.208C37.0976 123.198 36.8157 123.188 36.5776 123.188C36.5219 123.188 36.3993 123.192 36.2321 123.197L36.2313 123.197C35.9376 123.207 35.5066 123.222 35.0583 123.226C35.03 123.228 35.0004 123.229 34.97 123.229C34.936 123.229 34.8878 123.229 34.8277 123.228L34.7592 123.228C34.744 123.228 34.7294 123.228 34.7154 123.228C34.7048 123.227 34.6946 123.227 34.6847 123.226C33.9749 123.216 32.3655 123.181 31.8356 123.136C31.4798 123.111 31.3957 123.061 31.3957 122.97C31.3957 122.895 31.4512 122.852 31.5638 122.811C31.6479 122.77 31.7015 122.561 31.6389 122.142L30.7074 115.357H30.6572L27.2939 122.351C26.9381 123.07 26.8541 123.22 26.7164 123.22C26.5823 123.22 26.416 122.902 26.1854 122.46C26.1402 122.373 26.0826 122.262 26.016 122.133L25.9178 121.944C25.4101 120.964 24.552 119.308 24.3973 118.951C24.3214 118.765 23.9895 118.06 23.6196 117.274L23.6194 117.273C23.3363 116.672 23.0308 116.023 22.8007 115.523H22.7381L21.9442 121.667C21.9031 121.933 21.8906 122.142 21.8906 122.385C21.8906 122.686 22.0908 122.82 22.3501 122.886C22.6343 122.937 22.8435 122.961 22.9973 122.961C23.1225 122.961 23.2279 122.987 23.2279 123.062C23.2279 123.196 23.0938 123.23 22.8722 123.23C22.4764 123.23 22.069 123.215 21.7455 123.203L21.7446 123.203C21.5321 123.196 21.356 123.189 21.2433 123.189C21.1154 123.189 20.9004 123.197 20.658 123.206C20.3446 123.217 19.9854 123.23 19.7092 123.23C19.5625 123.23 19.4374 123.194 19.4374 123.062C19.4374 122.987 19.5214 122.961 19.677 122.961H19.6771C19.8147 122.961 19.9185 122.961 20.1365 122.902C20.5746 122.82 20.6997 122.218 20.7837 121.692L22.3001 111.637ZM41.8219 118.347C41.8415 118.39 41.8219 118.431 41.7503 118.431L38.9092 118.431C38.8466 118.431 38.834 118.39 38.8466 118.331L40.2681 114.529C40.2752 114.478 40.3091 114.394 40.3593 114.394C40.4001 114.394 40.4151 114.442 40.4293 114.488C40.4338 114.503 40.4382 114.517 40.4433 114.529L41.8219 118.347ZM50.6085 117.278C50.6085 117.428 50.6298 117.494 50.7337 117.546C51.0555 117.662 51.5275 117.703 51.912 117.703C52.5306 117.703 52.7273 117.629 53.0116 117.428C53.4782 117.093 53.9092 116.383 53.9092 115.121C53.9092 112.933 52.468 112.305 51.5561 112.305C51.161 112.305 50.8892 112.315 50.7337 112.364C50.63 112.399 50.6085 112.448 50.6085 112.573V117.278ZM48.7794 116.049V116.043C48.7794 113.708 48.7794 113.274 48.7581 112.781C48.717 112.246 48.59 111.996 48.0804 111.896C47.9642 111.86 47.705 111.855 47.4832 111.855C47.308 111.855 47.224 111.82 47.224 111.721C47.224 111.605 47.3367 111.571 47.5584 111.571C48.0642 111.571 48.6275 111.59 49.0611 111.605H49.0614H49.0615L49.0626 111.605C49.3334 111.614 49.5535 111.622 49.6771 111.622C49.9512 111.622 50.3887 111.608 50.8149 111.595L50.8153 111.595H50.8156L50.8165 111.595L50.8173 111.595C51.2217 111.583 51.6156 111.571 51.8496 111.571C52.8241 111.571 53.8557 111.662 54.6907 112.24C55.1217 112.533 55.735 113.316 55.735 114.353C55.735 115.49 55.2558 116.534 53.7091 117.804L53.731 117.832C55.0777 119.549 56.1386 120.902 57.0438 121.857C57.8917 122.742 58.5302 122.856 58.7709 122.899L58.7853 122.902C58.9534 122.937 59.091 122.96 59.2162 122.96C59.2351 122.96 59.2526 122.962 59.2687 122.964C59.2922 122.962 59.3189 122.961 59.3493 122.961C59.5925 122.961 59.7677 122.925 59.9053 122.894C60.2058 122.835 60.2898 122.485 60.3523 122.05C60.4364 121.398 60.4364 120.178 60.4364 118.757V118.757V116.049V116.045C60.4364 113.708 60.4364 113.274 60.3953 112.781C60.374 112.246 60.2487 111.996 59.7391 111.896C59.614 111.86 59.3493 111.855 59.133 111.855C58.9649 111.855 58.8701 111.82 58.8701 111.721C58.8701 111.605 58.9863 111.571 59.217 111.571C59.7147 111.571 60.2713 111.59 60.703 111.605L60.7039 111.605L60.7047 111.605C60.9778 111.614 61.2008 111.622 61.3269 111.622C61.5837 111.622 62.0113 111.609 62.4349 111.596L62.4354 111.596H62.4357L62.4373 111.596C62.8535 111.583 63.2657 111.571 63.5082 111.571C64.4684 111.571 65.5126 111.662 66.3405 112.24C66.7785 112.533 67.3846 113.316 67.3846 114.353C67.3846 115.49 66.9249 116.534 65.3463 117.804L65.4378 117.919C66.7639 119.595 67.8109 120.919 68.7006 121.857C69.5417 122.744 70.1707 122.857 70.4098 122.899L70.4225 122.902C70.6029 122.937 70.7281 122.96 70.8533 122.96C70.8731 122.96 70.8916 122.962 70.9086 122.964C70.9203 122.963 70.9327 122.961 70.9459 122.961C70.9629 122.96 70.9811 122.959 71.0008 122.959C71.2299 122.959 71.4175 122.924 71.5516 122.893C71.8643 122.834 71.9484 122.558 72.0021 122.124C72.0863 121.48 72.0863 120.261 72.0863 118.755L72.0855 116.049C72.0855 113.708 72.0855 113.274 72.05 112.781C72.0095 112.248 71.8625 111.997 71.519 111.913C71.3527 111.862 71.1525 111.854 70.9647 111.854C70.8091 111.854 70.7128 111.819 70.7128 111.704C70.7128 111.604 70.84 111.57 71.1025 111.57C71.4061 111.57 71.823 111.584 72.2142 111.597L72.2147 111.597H72.2149H72.2153L72.2157 111.597C72.5612 111.609 72.8867 111.62 73.0962 111.62C73.27 111.62 73.548 111.61 73.8547 111.599L73.8551 111.599H73.8553H73.8556H73.8558H73.8559H73.8561L73.8564 111.599C74.2334 111.585 74.6532 111.57 74.9753 111.57C75.1755 111.57 75.3007 111.605 75.3007 111.704C75.3007 111.82 75.206 111.854 75.0595 111.854C74.9059 111.854 74.766 111.859 74.5998 111.895C74.174 111.979 74.0562 112.238 74.0276 112.78C73.9871 113.273 73.9871 113.707 73.9871 116.044V116.048V118.755V118.756C73.9871 120.261 73.9871 121.48 74.0585 122.14C74.0991 122.549 74.205 122.834 74.6647 122.893C74.8862 122.923 75.2208 122.959 75.4496 122.959C75.625 122.959 75.7 123.01 75.7 123.068C75.7 123.184 75.5748 123.227 75.4085 123.227C74.792 123.227 74.1953 123.212 73.7263 123.201C73.4227 123.193 73.1727 123.187 73.0055 123.187C72.8539 123.187 72.5884 123.194 72.2862 123.203L72.2845 123.203L72.2797 123.203L72.2792 123.203C71.8775 123.214 71.4122 123.227 71.0637 123.227C71.0023 123.227 70.95 123.224 70.9065 123.216C70.8625 123.225 70.8092 123.228 70.7479 123.228H69.2871C68.4163 123.228 68.0319 123.153 67.6349 122.935C66.9752 122.584 66.3815 121.857 65.5251 120.671C65.229 120.267 64.91 119.816 64.6372 119.431C64.3401 119.012 64.0978 118.67 63.9999 118.549C63.9177 118.456 63.8211 118.431 63.7085 118.431L62.371 118.416C62.3084 118.416 62.2459 118.431 62.2459 118.532V118.75V118.751C62.2459 120.179 62.2459 121.398 62.3174 122.05C62.371 122.485 62.4622 122.835 62.9217 122.894C63.1524 122.925 63.5082 122.961 63.687 122.961C63.8122 122.961 63.8748 123.011 63.8748 123.07C63.8748 123.186 63.7711 123.229 63.5618 123.229C62.964 123.229 62.2596 123.211 61.7872 123.199C61.5489 123.193 61.3696 123.188 61.2929 123.188C61.1743 123.188 60.9432 123.195 60.6693 123.203L60.6687 123.203H60.6683H60.6681L60.6676 123.203H60.6673L60.6667 123.203L60.6662 123.203H60.6658C60.2671 123.215 59.7785 123.229 59.4136 123.229C59.3528 123.229 59.3007 123.225 59.2578 123.216C59.217 123.225 59.1676 123.228 59.1107 123.228H57.6374C56.772 123.228 56.384 123.153 55.987 122.935C55.3183 122.584 54.7461 121.857 53.8754 120.671C53.6449 120.353 53.4007 120.008 53.1746 119.687L53.1745 119.687C52.7992 119.155 52.4736 118.694 52.343 118.549C52.2679 118.456 52.1768 118.431 52.0713 118.431L50.7214 118.416C50.6391 118.416 50.6087 118.431 50.6087 118.532V118.75C50.6087 120.178 50.6087 121.398 50.6803 122.05C50.7213 122.485 50.8179 122.835 51.2774 122.894C51.5152 122.925 51.8496 122.961 52.0373 122.961C52.1553 122.961 52.2179 123.011 52.2179 123.07C52.2179 123.186 52.1125 123.229 51.9122 123.229C51.3165 123.229 50.6154 123.211 50.1441 123.199L50.143 123.199L50.1423 123.199C49.9044 123.193 49.7253 123.188 49.6485 123.188C49.5289 123.188 49.2957 123.195 49.02 123.203L49.0186 123.203C48.6189 123.215 48.1301 123.229 47.7675 123.229C47.5583 123.229 47.4546 123.188 47.4546 123.07C47.4546 123.011 47.5172 122.961 47.7049 122.961C47.9338 122.961 48.1108 122.925 48.2556 122.894C48.5703 122.835 48.6329 122.485 48.708 122.05C48.7795 121.398 48.7795 120.179 48.7795 118.758V118.757L48.7794 116.049ZM62.3924 117.546C62.2869 117.494 62.2458 117.428 62.2458 117.278V112.573C62.2458 112.448 62.287 112.399 62.3924 112.364C62.5462 112.315 62.818 112.305 63.206 112.305C64.1125 112.305 65.568 112.933 65.568 115.121C65.568 116.383 65.1156 117.093 64.6561 117.428C64.3754 117.629 64.1876 117.703 63.5618 117.703C63.1738 117.703 62.7054 117.662 62.3924 117.546ZM83.1382 112.096C85.6736 112.096 87.6582 114.244 87.6582 117.704C87.6582 122.15 85.164 122.685 84.0769 122.685C81.1195 122.685 79.3439 120.126 79.3439 116.926C79.3439 113.082 81.3698 112.096 83.1382 112.096ZM83.5851 111.361C78.9667 111.361 77.2126 114.771 77.2126 117.41C77.2126 120.126 79.0006 123.461 83.4296 123.461C87.3453 123.461 89.8235 120.661 89.8235 117.128C89.8235 113.6 87.4276 111.361 83.5851 111.361ZM94.9706 112.439L92.673 112.496C91.7737 112.532 91.4107 112.605 91.1675 112.949C91.0226 113.183 90.9511 113.367 90.9171 113.484C90.8766 113.609 90.833 113.668 90.7509 113.668C90.6242 113.668 90.6044 113.602 90.6044 113.417C90.6044 113.183 90.8959 111.771 90.9298 111.654C90.9805 111.452 91.0226 111.361 91.1265 111.361C91.1645 111.361 91.2099 111.382 91.2711 111.411C91.377 111.461 91.5301 111.532 91.7737 111.554C92.2243 111.595 92.8179 111.62 93.3114 111.62H99.4336C99.7794 111.62 100.048 111.594 100.262 111.574L100.262 111.574C100.35 111.566 100.428 111.558 100.499 111.554C100.728 111.495 100.853 111.47 100.903 111.47C101.021 111.47 101.043 111.561 101.043 111.786C101.043 111.942 101.03 112.267 101.017 112.607L101.017 112.608C101.002 112.98 100.987 113.37 100.987 113.574C100.977 113.733 100.947 113.826 100.853 113.826C100.728 113.826 100.694 113.751 100.674 113.517L100.664 113.349C100.623 112.948 100.213 112.522 98.8456 112.489L96.9038 112.438V118.755V118.755C96.9038 120.177 96.9038 121.396 96.9753 122.057C97.029 122.483 97.1131 122.833 97.5796 122.892C97.7889 122.923 98.1446 122.959 98.3663 122.959C98.5326 122.959 98.6167 123.009 98.6167 123.068C98.6167 123.184 98.4915 123.227 98.3233 123.227C97.7019 123.227 97.0983 123.212 96.6248 123.2H96.6246L96.6241 123.2C96.3186 123.193 96.0674 123.186 95.9005 123.186C95.7475 123.186 95.4806 123.194 95.1762 123.202L95.1758 123.202C94.7722 123.214 94.3028 123.227 93.9462 123.227C93.7566 123.227 93.6441 123.186 93.6441 123.068C93.6441 123.009 93.7069 122.959 93.8945 122.959C94.1251 122.959 94.3126 122.923 94.438 122.892C94.7599 122.834 94.8441 122.483 94.8978 122.048C94.9692 121.396 94.9692 120.177 94.9692 118.755V118.755L94.9706 112.439ZM103.62 112.496L105.93 112.439L105.933 118.755C105.933 120.176 105.933 121.396 105.848 122.048C105.807 122.483 105.711 122.834 105.398 122.892C105.264 122.923 105.085 122.959 104.854 122.959C104.666 122.959 104.604 123.009 104.604 123.068C104.604 123.186 104.707 123.227 104.917 123.227C105.269 123.227 105.732 123.214 106.131 123.202L106.132 123.202C106.434 123.194 106.699 123.186 106.851 123.186C107.019 123.186 107.27 123.193 107.575 123.2C108.049 123.212 108.655 123.227 109.283 123.227C109.451 123.227 109.576 123.184 109.576 123.068C109.576 123.009 109.492 122.959 109.326 122.959C109.095 122.959 108.754 122.923 108.532 122.892C108.064 122.833 107.979 122.483 107.939 122.057C107.854 121.396 107.854 120.176 107.854 118.755V112.438L109.798 112.489C111.177 112.522 111.583 112.948 111.624 113.349V113.517C111.645 113.751 111.686 113.826 111.803 113.826C111.896 113.826 111.937 113.733 111.937 113.574C111.937 113.37 111.948 112.981 111.958 112.609L111.958 112.608V112.608V112.608L111.958 112.607C111.968 112.267 111.977 111.942 111.977 111.786C111.977 111.561 111.977 111.47 111.865 111.47C111.8 111.47 111.684 111.495 111.455 111.554C111.392 111.558 111.321 111.565 111.241 111.573L111.24 111.573C111.025 111.593 110.744 111.62 110.381 111.62H104.28C103.767 111.62 103.173 111.595 102.735 111.554C102.488 111.532 102.331 111.461 102.222 111.411C102.159 111.382 102.112 111.361 102.074 111.361C101.982 111.361 101.94 111.452 101.886 111.654C101.845 111.771 101.552 113.183 101.552 113.417C101.552 113.602 101.594 113.668 101.698 113.668C101.794 113.668 101.823 113.609 101.878 113.484C101.898 113.367 101.982 113.183 102.136 112.949C102.367 112.605 102.735 112.532 103.62 112.496ZM111.12 122.091H111.445L111.458 122.091C111.551 122.092 111.76 122.094 111.76 121.841C111.76 121.682 111.601 121.631 111.467 121.631H111.12L111.12 122.091ZM111.467 121.413C111.579 121.413 111.976 121.434 111.976 121.85C111.986 122.1 111.872 122.209 111.704 122.266L111.976 122.894H111.726L111.488 122.292H111.132V122.894H110.911V121.414L111.467 121.413ZM111.431 120.997C110.775 120.997 110.233 121.523 110.221 122.182C110.21 122.844 110.743 123.404 111.402 123.42C112.078 123.42 112.643 122.819 112.615 122.15C112.594 121.506 112.071 121.004 111.431 120.997ZM111.411 120.788C112.162 120.788 112.789 121.388 112.823 122.141C112.844 122.926 112.196 123.613 111.411 123.613C110.637 123.613 110.002 122.944 110.011 122.175C110.021 121.413 110.649 120.788 111.411 120.788ZM134.668 127.936H134.019V126.999H134.716C134.992 126.999 135.305 127.119 135.305 127.445C135.305 127.943 134.876 127.938 134.696 127.937C134.686 127.936 134.676 127.936 134.668 127.936ZM135.737 127.468C135.725 126.615 134.933 126.579 134.704 126.579H133.586V129.558H134.031V128.333H134.752L135.233 129.558H135.737L135.185 128.296C135.521 128.165 135.747 127.959 135.737 127.468ZM132.206 128.129C132.217 126.808 133.322 125.727 134.645 125.737C135.931 125.751 136.972 126.771 137.023 128.056C137.084 129.413 135.941 130.614 134.584 130.604C133.263 130.592 132.196 129.451 132.206 128.129ZM137.433 128.046C137.384 126.531 136.124 125.319 134.609 125.319C133.072 125.319 131.812 126.567 131.786 128.105C131.763 129.655 133.049 130.999 134.599 130.999C136.17 130.999 137.483 129.619 137.433 128.046Z" clip-rule="evenodd" fill-rule="evenodd"></path>
</svg>