<svg style="width: 68px; height: 35.7311px;" aria-label="Apartments by Marriott Bonvoy" role="img" preserveAspectRatio="" fill="none" viewBox="0 0 300 157" height="157" width="300" xmlns="http://www.w3.org/2000/svg">
  <g clip-path="url(#clip0_7_516)">
    <path fill="#1C1C1C" d="M119.574 78.0914V0H180.426V78.0914H119.574ZM137.041 74.8561V29.8849L131.548 21.1383V74.8561H137.041ZM159.715 63.912V58.4181H140.277V63.912H159.715ZM140.277 49.689V55.1828H159.715V49.689H140.277ZM152.546 46.4537H159.715V35.0474L152.546 46.4537ZM140.277 35.0474V46.4537H147.445L140.277 35.0474ZM159.715 74.8648V67.1647H140.277V74.8648H159.715ZM168.444 21.1557L162.95 29.9023V74.8648H168.444V21.1557ZM159.706 28.8908H159.758L159.767 28.8733L175.873 3.23528H169.08L149.991 33.6172L130.911 3.25272H124.118L140.224 28.8908H140.277V28.9692L149.991 44.4306L159.706 28.9692V28.8908ZM149.996 16.6229L149.991 16.6298H150L149.996 16.6229ZM158.398 3.25272L149.996 16.6229L141.594 3.25272H134.739L149.991 27.5304L165.252 3.25272H158.398ZM145.413 3.25272L149.991 10.543L154.569 3.25272H145.413ZM128.304 16.002L122.81 7.25539V74.8736H128.304V16.002ZM171.688 15.9845V74.8474H177.182V7.23795L171.688 15.9845ZM5.47643 116.305H18.7315L21.5918 122.662H24.2428L13.3597 98.8638H10.8744L0 122.662H2.61613L5.47643 116.305ZM12.1039 101.48L17.8158 114.264H6.39207L12.1039 101.48ZM53.8574 107.017C53.8574 112.083 50.1861 115.144 44.1341 115.144H37.742V122.653H35.2305V98.8545H44.1341C50.1861 98.8545 53.8574 101.915 53.8574 107.017ZM51.3459 107.017C51.3459 103.206 48.8344 101.035 44.073 101.035H37.7507V112.938H44.073C48.8344 112.938 51.3459 110.758 51.3459 107.026V107.017ZM66.8158 116.305H80.0709L82.9225 122.662H85.5735L74.6991 98.8638H72.2138L61.3394 122.662H63.9555L66.8158 116.305ZM73.4434 101.48L79.1552 114.264H67.7315L73.4434 101.48ZM112.816 122.662L107.375 115.014C106.764 115.084 106.154 115.119 105.473 115.119H99.0814V122.662H96.5699V98.8638H105.473C111.525 98.8638 115.197 101.925 115.197 107.026C115.197 110.767 113.226 113.383 109.755 114.508L115.572 122.671H112.816V122.662ZM112.677 107.026C112.677 103.215 110.165 101.044 105.404 101.044H99.0814V112.973H105.404C110.165 112.973 112.677 110.767 112.677 107.026ZM124.109 101.035H132.472V122.662H134.992V101.035H143.355V98.8638H124.109V101.035ZM179.117 98.8638V122.662H176.711V103.616L167.354 119.636H166.168L156.819 103.721V122.662H154.404V98.8638H156.479L166.813 116.505L177.042 98.8638H179.117ZM210.746 122.662V120.482H196.428V111.639H208.741V109.503H196.428V101.035H210.232V98.8638H193.916V122.662H210.746ZM243.588 98.8638V122.662H241.512L226.217 103.346V122.662H223.705V98.8638H225.78L241.111 118.171V98.8638H243.588ZM254.645 101.035H263.008V122.662H265.519V101.035H273.882V98.8638H254.645V101.035ZM282.289 119.766L283.274 117.831C284.975 119.496 288.001 120.717 291.131 120.717C295.587 120.717 297.523 118.851 297.523 116.505C297.523 113.482 294.385 112.717 291.014 111.896C287.101 110.943 282.873 109.912 282.873 105.186C282.873 101.68 285.594 98.6543 291.646 98.6543C294.332 98.6543 297.122 99.4391 299.023 100.765L298.169 102.77C296.128 101.445 293.747 100.8 291.637 100.8C287.286 100.8 285.35 102.735 285.35 105.116C285.35 108.15 288.511 108.923 291.897 109.749C295.8 110.703 300 111.728 300 116.374C300 119.871 297.209 122.871 291.131 122.871C287.565 122.871 284.059 121.615 282.289 119.775V119.766ZM134.696 146.215C134.696 148.823 136.823 150.951 139.431 150.951C142.038 150.951 144.166 148.823 144.166 146.215C144.166 143.608 142.038 141.48 139.431 141.48C136.823 141.48 134.696 143.608 134.696 146.215ZM132.376 146.215C132.376 142.317 135.533 139.161 139.431 139.161C143.329 139.161 146.486 142.317 146.486 146.215C146.486 150.113 143.329 153.27 139.431 153.27C135.533 153.27 132.376 150.113 132.376 146.215ZM262.947 139.431L259.005 145.047L255.064 139.431H252.36L257.819 147.157V153.009H260.191V147.157L260.2 147.149L265.65 139.431H262.947ZM188.213 141.41H184.219V145.003H188.213C189.32 145.003 190.227 144.201 190.227 143.207C190.227 142.212 189.32 141.41 188.213 141.41ZM191.317 145.814L191.501 145.953L191.509 145.945C192.521 146.712 193.105 147.82 193.105 148.997C193.105 151.194 191.073 152.991 188.579 152.991H181.847V139.422H188.213C190.567 139.422 192.486 141.122 192.486 143.207C192.486 144.096 192.128 144.959 191.474 145.648L191.317 145.814ZM184.219 151.011H188.579C189.826 151.011 190.838 150.104 190.838 148.997C190.838 147.889 189.826 146.982 188.579 146.982H184.219V151.011ZM232.696 148.483L228.772 139.431H226.155L232.146 153H233.236L239.227 139.431H236.611L232.696 148.483ZM197.823 146.215C197.823 148.823 199.951 150.951 202.558 150.951C205.165 150.951 207.293 148.823 207.293 146.215C207.293 143.608 205.165 141.48 202.558 141.48C199.951 141.48 197.823 143.608 197.823 146.215ZM195.503 146.215C195.503 142.317 198.66 139.161 202.558 139.161C206.456 139.161 209.613 142.317 209.613 146.215C209.613 150.113 206.456 153.27 202.558 153.27C198.66 153.27 195.503 150.113 195.503 146.215ZM221.324 148.178L213.615 139.431H212.438V153H214.81V144.254L222.51 153H223.696V139.431H221.324V148.178ZM240.082 151.021H252.003V153H240.082V151.021ZM246.038 146.617C244.529 146.617 243.309 145.396 243.309 143.887C243.309 142.378 244.529 141.158 246.038 141.158C247.547 141.158 248.768 142.387 248.768 143.887C248.768 145.387 247.547 146.617 246.038 146.617ZM246.038 139.152C243.431 139.152 241.303 141.28 241.303 143.887C241.303 146.494 243.422 148.622 246.038 148.622C248.654 148.622 250.773 146.494 250.773 143.887C250.773 141.28 248.654 139.152 246.038 139.152ZM61.9586 139.431V153H64.3218V143.399L68.1065 150.358H69.8418L73.6265 143.399V153H75.9897V139.431H73.2777L68.9698 147.157L64.6706 139.431H61.9586ZM83.8207 148.343L85.9834 143.687L88.1373 148.343H83.8207ZM86.5415 139.431H85.4253L79.1378 153.009H81.6668L82.8963 150.358H89.0791L90.3087 153.009H92.8289L86.5415 139.431ZM102.639 141.41H98.2792V145.439H102.639C103.886 145.439 104.898 144.532 104.898 143.425C104.898 142.317 103.886 141.41 102.639 141.41ZM103.29 147.374C105.476 147.093 107.157 145.429 107.157 143.425C107.157 141.218 105.125 139.422 102.631 139.422H95.9072V152.991H98.2705V147.419H100.616L104.453 152.982H107.157L103.29 147.374ZM113.453 141.419H117.813C119.06 141.419 120.072 142.326 120.072 143.433C120.072 144.541 119.06 145.448 117.813 145.448H113.453V141.419ZM118.458 147.384C120.647 147.105 122.33 145.439 122.33 143.433C122.33 141.227 120.298 139.439 117.804 139.439H111.081V153.008H113.444V147.436H115.79L119.627 153H122.33L118.458 147.384ZM126.35 139.431H128.722V153H126.35V139.431ZM158.686 139.431H148.204V141.603H152.259V153.009H154.631V141.603H158.686V139.431ZM161.04 139.431H171.531V141.603H167.467V153.009H165.095V141.603H161.04V139.431ZM32.7888 151.979V152.982H30.6959V139.439H32.9196V144.428C33.4429 143.887 34.5242 143.381 35.8061 143.381C38.2827 143.381 40.393 145.317 40.393 148.282C40.393 151.247 38.2653 153.174 35.7102 153.174C34.2626 153.174 33.3469 152.633 32.7888 151.979ZM38.1693 148.282C38.1693 146.599 36.9921 145.491 35.4747 145.491C33.9574 145.491 32.7801 146.599 32.7801 148.282C32.7801 149.965 33.9574 151.064 35.4747 151.064C36.9921 151.064 38.1693 149.965 38.1693 148.282ZM41.9976 143.573L45.8084 151.779H45.8171L43.262 156.968H45.6601L52.2179 143.573H49.8023L47.0728 149.242L44.5178 143.573H41.9976ZM267.211 139.902H266.409V139.414H268.589V139.902H267.778V142.152H267.211V139.902ZM269.749 139.414H268.912H268.903V142.152H269.435V139.946L270.002 142.152H270.577L271.135 139.946V142.152H271.667V139.414H270.83L270.29 141.498L269.749 139.414Z" clip-rule="evenodd" fill-rule="evenodd"></path>
  </g>
  <defs>
    <clipPath id="clip0_7_516">
      <rect fill="white" height="157" width="300"></rect>
    </clipPath>
  </defs>
</svg>