<svg style="width: 80px; height: 34.1312px;" aria-label="Autograph Collection Hotels" role="img" preserveAspectRatio="" fill="none" viewBox="0 0 252 108" height="108" width="252" xmlns="http://www.w3.org/2000/svg">
  <path fill="#221E1F" d="M68.5231 87.4392V95.6425H59.6269V87.4392H57.2873V106.015H59.6269V97.8119H68.5231V106.015H70.8675V87.4392H68.5231ZM21.8759 48.3146C19.8429 46.2297 17.0505 44.9572 14.1024 44.9572C8.44198 44.9572 3.84764 49.8594 3.84764 55.4332C3.84764 61.0069 8.48443 65.9186 14.1825 65.9186C17.0505 65.9186 19.8429 64.5568 21.8759 62.5565V66.0454C19.6873 67.6231 16.9844 68.5294 14.2863 68.5294C7.08821 68.5294 1.01745 62.7114 1.01745 55.5318C1.01745 48.2864 6.99858 42.3417 14.2863 42.3417C17.1165 42.3417 19.6165 43.1493 21.8759 44.821V48.3146ZM31.9547 55.4318C31.9547 61.1464 36.6198 65.9172 42.3887 65.9172C48.1717 65.9172 52.8179 61.1464 52.8179 55.4318C52.8179 49.6984 48.233 44.9605 42.3887 44.9605C36.5585 44.9605 31.9547 49.6984 31.9547 55.4318ZM55.6481 55.4646C55.6481 62.7523 49.6528 68.5279 42.3887 68.5279C35.1387 68.5279 29.1292 62.7523 29.1292 55.4646C29.1292 48.2192 35.1387 42.3403 42.3887 42.3403C49.6528 42.3403 55.6481 48.2192 55.6481 55.4646ZM141.401 48.3146C139.368 46.2297 136.576 44.9572 133.647 44.9572C127.963 44.9572 123.387 49.8594 123.387 55.4332C123.387 61.0069 128 65.9186 133.708 65.9186C136.576 65.9186 139.368 64.5568 141.401 62.5565V66.0454C139.208 67.6231 136.515 68.5294 133.802 68.5294C126.623 68.5294 120.538 62.7114 120.538 55.5318C120.538 48.2864 126.519 42.3417 133.802 42.3417C136.637 42.3417 139.137 43.1493 141.401 44.821V48.3146ZM66.542 65.4603H73.5561V68.0758H63.7165V42.7662H66.542V65.4603ZM84.9425 65.4603H91.9566V68.0758H82.1028V42.7662H84.9425V65.4603ZM99.9665 42.7685H113.141V45.3981H102.792V52.9018H112.849V55.5266H102.792V65.4626H113.141V68.0781H99.9665V42.7685ZM157.641 68.0762H154.811V45.3962H148.674V42.7667H163.853V45.3962H157.641V68.0762ZM170.722 68.0748H173.566V42.7652H170.722V68.0748ZM184.059 55.4318C184.059 61.1464 188.71 65.9172 194.479 65.9172C200.248 65.9172 204.908 61.1464 204.908 55.4318C204.908 49.6984 200.314 44.9605 194.479 44.9605C188.644 44.9605 184.059 49.6984 184.059 55.4318ZM207.738 55.4646C207.738 62.7523 201.738 68.5279 194.479 68.5279C187.219 68.5279 181.215 62.7523 181.215 55.4646C181.215 48.2192 187.219 42.3403 194.479 42.3403C201.738 42.3403 207.738 48.2192 207.738 55.4646ZM215.385 41.6862L235.234 62.3799V42.7568H238.059V69.2262L218.234 48.5606V68.0758H215.385V41.6862ZM246.561 44.5731H245.689V46.1931H246.561C247.066 46.1931 247.443 45.8456 247.443 45.3807C247.443 44.9252 247.066 44.5731 246.561 44.5731ZM247.458 48.6066L246.401 46.7331H245.689V48.6066H245.057V44.0002H246.632C247.443 44.0002 248.09 44.6106 248.09 45.3807C248.09 46.0522 247.66 46.4795 247.09 46.6486L248.208 48.6066H247.458ZM246.434 42.723C244.472 42.723 242.877 44.3383 242.877 46.3058C242.877 48.292 244.472 49.9026 246.434 49.9026C248.392 49.9026 249.981 48.292 249.981 46.3058C249.981 44.3383 248.392 42.723 246.434 42.723ZM246.434 50.5037C244.104 50.5037 242.226 48.6395 242.226 46.3058C242.226 44.0002 244.104 42.1126 246.434 42.1126C248.764 42.1126 250.642 44.0002 250.642 46.3058C250.642 48.6395 248.764 50.5037 246.434 50.5037ZM33.634 18.277C33.634 20.1458 33.5585 22.3105 34.7377 23.9211C35.8509 25.4613 38.016 26.3488 39.8698 26.3488C41.6858 26.3488 43.6811 25.5083 44.8557 24.0855C46.2094 22.4749 46.1104 20.2632 46.1104 18.277V3.2086H48.9358V19.0423C48.9358 21.8034 48.7425 23.9869 46.7236 26.0717C44.9641 27.95 42.4406 28.9502 39.8698 28.9502C37.4689 28.9502 35.0113 28.0533 33.2896 26.377C31.0679 24.2592 30.7991 21.949 30.7991 19.0423V3.2086H33.634V18.277ZM65.5472 28.5163H62.7075V5.8222H56.5708V3.20673H71.7547V5.8222H65.5472V28.5163ZM80.1797 15.8714C80.1797 21.5766 84.8259 26.3474 90.5995 26.3474C96.3637 26.3474 101.015 21.5766 101.015 15.8714C101.015 10.1239 96.4297 5.39067 90.5995 5.39067C84.7646 5.39067 80.1797 10.1239 80.1797 15.8714ZM103.859 15.9042C103.859 23.1825 97.8542 28.9675 90.5995 28.9675C83.3495 28.9675 77.3401 23.1825 77.3401 15.9042C77.3401 8.65415 83.3495 2.7752 90.5995 2.7752C97.8542 2.7752 103.859 8.65415 103.859 15.9042ZM200.656 14.8191H202.548C205.684 14.8191 208.354 13.8846 208.354 10.2549C208.354 6.12742 205 5.8222 201.694 5.8222H200.656V14.8191ZM200.656 28.5163H197.831V3.20673H202C204.194 3.20673 206.449 3.26777 208.317 4.54968C210.203 5.86447 211.18 8.07142 211.18 10.3159C211.18 12.3632 210.335 14.4575 208.75 15.7676C207.024 17.1763 204.84 17.4392 202.713 17.4392H200.656V28.5163ZM235.209 14.8491V3.2086H238.044V28.5182H235.209V17.4834H222.185V28.5182H219.365V3.2086H222.185V14.8491H235.209ZM156.891 28.5163H160.249L153.325 16.8006C153.966 16.5565 154.57 16.2137 155.141 15.7676C156.725 14.4575 157.56 12.3632 157.56 10.3159C157.56 8.07142 156.584 5.86447 154.692 4.54968C152.839 3.26777 150.584 3.20673 148.391 3.20673H144.197V28.5163H147.042V17.4392V14.8285V5.8222H148.084C151.386 5.8222 154.73 6.12742 154.73 10.2549C154.73 13.8189 152.145 14.7815 149.084 14.8191L156.891 28.5163ZM135.834 15.8099H125.24C126.25 16.5424 127.16 17.4252 127.915 18.4253H132.797C132.797 20.5525 131.839 22.3838 130.372 23.7455C129.622 24.4405 128.726 25.0321 127.764 25.4641C126.495 26.0276 125.094 26.3469 123.726 26.3469C121.056 26.3469 118.358 24.9758 116.504 23.1163C114.759 21.3507 113.702 19.0311 113.556 16.5752C113.542 16.3733 113.533 16.1714 113.533 15.9695C113.533 15.2135 113.613 14.4575 113.773 13.7344C114.787 9.05281 118.9 5.3902 123.924 5.3902C127.665 5.3902 130.198 7.17455 132.334 10.1657L134.386 8.24516C131.674 4.75629 128.41 2.77942 123.957 2.77942C116.948 2.77942 111.226 8.18412 110.735 15.0163C110.717 15.3215 110.702 15.6267 110.702 15.9413C110.702 16.6786 110.773 17.4017 110.891 18.106C111.952 24.2292 117.377 28.9671 123.787 28.9671C125.08 28.9671 126.367 28.7605 127.599 28.366C128.669 28.0139 129.688 27.5537 130.627 26.962C131.584 26.3469 132.452 25.5909 133.198 24.7269C135.528 22.041 135.891 19.233 135.834 15.8099ZM8.94811 17.2359L12.7406 8.57245L18.3538 22.1523C15.6132 19.95 12.4292 18.2596 8.94811 17.2359ZM1 28.5149H4.10849L7.93868 19.6166C12.0896 20.7764 15.8019 22.9787 18.7689 25.9417C19.5802 26.7493 20.3396 27.6086 21.033 28.5149H21.0377H24.1698H24.1745L12.7406 1.99854L6.28774 16.5973C5.41038 16.4283 4.51887 16.3156 3.61321 16.217C4.25472 17.0716 4.80189 18.0107 5.21226 19.0062L1 28.5149ZM175.189 17.2359L178.901 8.57245L184.595 22.1523C181.84 19.95 178.656 18.2596 175.189 17.2359ZM178.967 1.99854L172.51 16.5973C171.642 16.4283 170.736 16.3156 169.84 16.217C170.477 17.0716 171.033 18.0107 171.444 19.0062L167.232 28.5149H168.618H170.34L174.166 19.6166C178.317 20.7764 182.033 22.9787 185.01 25.9417C185.821 26.7493 186.562 27.6086 187.255 28.5149H190.401L178.967 1.99854ZM98.5156 96.7479C98.5156 92.6533 95.4495 89.216 91.0533 89.216C86.6712 89.216 83.6005 92.6533 83.6005 96.7479C83.6005 100.988 87.0156 104.266 91.0533 104.266C95.0957 104.266 98.5156 100.988 98.5156 96.7479ZM100.846 96.7479C100.846 102.265 96.459 106.435 91.0533 106.435C85.6571 106.435 81.2703 102.265 81.2703 96.7479C81.2703 91.4136 85.7042 87.0561 91.0533 87.0561C96.4071 87.0561 100.846 91.4136 100.846 96.7479ZM116.474 106.043H114.148V89.5706H109.709V87.4481H120.917V89.5706H116.474V106.043ZM131.099 87.4481H141.123V89.5706H133.425V94.7734H140.91V96.9005H133.425V103.916H141.123V106.043H131.099V87.4481ZM154.682 103.918H160.356V106.045H152.347V87.45H154.682V103.918ZM178.538 90.9769C177.845 89.8171 176.953 89.216 175.543 89.216C174.052 89.216 172.425 90.2303 172.425 91.8644C172.425 93.3154 173.864 94.0854 175.019 94.5268L176.354 95.0434C179.01 96.0764 180.996 97.5321 180.996 100.641C180.996 104.021 178.373 106.435 175.019 106.435C171.996 106.435 169.647 104.214 169.25 101.237L171.609 100.739C171.576 102.786 173.217 104.266 175.213 104.266C177.222 104.266 178.666 102.594 178.666 100.641C178.666 98.6496 177.048 97.7809 175.449 97.1094L174.156 96.5741C172.024 95.6632 170.09 94.447 170.09 91.8644C170.09 88.8592 172.769 87.0561 175.59 87.0561C177.68 87.0561 179.378 88.0703 180.401 89.8687L178.538 90.9769Z" clip-rule="evenodd" fill-rule="evenodd"></path>
</svg>