<svg aria-label="cm" role="img" preserveAspectRatio="" fill="none" viewBox="0 0 131 135" height="135" width="131" xmlns="http://www.w3.org/2000/svg">
  <g clip-path="url(#clip0_14223_28329)">
    <path fill="#FF0038" d="M31.6211 134.114H0.637695V85.2148L31.6211 134.114ZM130.244 38.2988V134.114H75.8516V78.2158L101.253 38.2988H130.244ZM72.2236 83.877L40.6094 133.401L0.637695 70.3828V38.2988H43.5859L72.2236 83.877Z"></path>
    <path fill="#1C1C1C" d="M12.8457 8.76367C18.7756 8.76371 23.2724 12.0803 24.7051 17.6523H17.9619C17.463 16.7267 16.7258 15.9505 15.8262 15.4053C14.9266 14.8602 13.8976 14.565 12.8457 14.5508C9.34973 14.5508 6.52837 17.807 6.52832 21.7705C6.52832 25.6401 9.3497 28.8467 12.8457 28.8467C13.9136 28.8478 14.9612 28.5532 15.8721 27.9961C16.7829 27.439 17.5219 26.6403 18.0068 25.6895H24.7549C23.3167 31.2782 18.8198 34.5791 12.8457 34.5791C5.42792 34.5791 0.123287 28.8411 0.123047 21.7158C0.123047 14.5903 5.43329 8.76367 12.8457 8.76367ZM94.1768 8.78516C101.445 8.78516 107.453 14.424 106.568 24.1807L87.96 24.1592C88.2769 25.553 89.0609 26.7968 90.1826 27.6836C91.3045 28.5704 92.6966 29.0469 94.127 29.0342C95.1802 29.083 96.2271 28.8411 97.1514 28.334C98.0756 27.8268 98.8422 27.0745 99.3662 26.1602H106.109C104.677 31.1795 100.323 34.5732 94.1992 34.5732C90.8195 34.544 87.5895 33.1759 85.2178 30.7695C82.8461 28.3631 81.5257 25.1148 81.5479 21.7373C81.548 14.6176 87.2403 8.78535 94.1768 8.78516ZM44.2764 9.38281H48.7021V14.9766H44.2764V23.6777C44.2764 27.1214 45.8528 28.4095 49.0166 28.2217L49.0283 33.96C41.8373 34.7228 37.965 30.3721 37.9648 23.6338V14.9766H35.0166V9.38281H37.9648V0.825195H44.2764V9.38281ZM32.6758 34.0039H26.3477V9.38281H32.6758V34.0039ZM57.8779 34.0039H51.583V9.38281H57.8779V34.0039ZM81.1123 15.0264L68.3398 28.2939H81.5547V34.0039H60.0312V28.5537L73.041 15.1035H60.5566V9.38281H81.1123V15.0264ZM120.939 8.76367C126.725 8.76367 130.554 13.1136 130.554 19.6143L130.565 34.0039H124.259V19.6309C124.259 18.199 123.827 14.7561 119.668 14.7559C119.026 14.7364 118.387 14.849 117.791 15.0869C117.195 15.3249 116.655 15.6829 116.203 16.1387C115.752 16.5945 115.399 17.1384 115.167 17.7363C114.935 18.3343 114.829 18.9735 114.855 19.6143V33.9873H108.561V9.38281H114.584V11.7871C115.349 10.8394 116.318 10.0751 117.418 9.55176C118.518 9.0286 119.721 8.75969 120.939 8.76367ZM94.127 14.2861C91.2562 14.2863 88.9612 16.1048 88.043 18.9736H100.301C99.9617 17.6055 99.164 16.3947 98.041 15.542C96.918 14.6893 95.5368 14.2461 94.127 14.2861Z"></path>
  </g>
  <defs>
    <clipPath id="clip0_14223_28329">
      <rect fill="white" height="135" width="131"></rect>
    </clipPath>
  </defs>
</svg>