<svg aria-label="xe" role="img" preserveAspectRatio="" fill="none" viewBox="0 0 284 88" height="88" width="284" xmlns="http://www.w3.org/2000/svg">
  <g clip-path="url(#clip0_9786_33974)">
    <path fill="#024DA1" d="M230.185 40.0434V45.9193C232.454 47.7156 234.725 48.6882 238.509 48.6882C244.814 48.6882 249.428 45.7316 249.428 40.4544C249.428 35.5029 244.784 33.1274 240.703 31.0398C237.505 29.4035 234.652 27.9441 234.652 25.5599C234.652 23.4643 236.923 22.6778 238.833 22.6778C241.608 22.6778 243.806 22.94 246.328 24.2119V18.9736C244.346 17.8877 241.535 17.4395 238.833 17.4395C234.004 17.4395 228.887 20.2456 228.887 25.5599C228.887 31.3084 234.095 33.8715 238.335 35.9577C241.244 37.3894 243.697 38.5966 243.697 40.4544C243.697 42.4756 242.256 43.4482 238.509 43.4482C234.761 43.4482 232.454 41.9141 230.185 40.0434ZM10.5664 33.2911C10.5664 42.0848 14.6383 48.634 23.539 48.634C26.1326 48.634 28.4392 47.9235 29.6646 46.5755V41.1867C28.4392 42.4959 26.3854 43.394 23.539 43.394C18.1331 43.394 16.2236 38.7901 16.2236 33.2896C16.2236 27.7891 18.1331 23.1851 23.539 23.1851C26.3498 23.1851 27.9351 23.9716 29.6646 25.4685V20.0797C28.115 18.6572 25.8456 17.9468 23.539 17.9468C14.6383 17.9468 10.5664 24.4975 10.5664 33.2911ZM41.0136 48.2585V18.3206H35.3564V48.2585H41.0136ZM66.38 23.5605H58.6691V48.2601H52.9762V23.5605H45.2637V18.3206H66.38V23.5605ZM77.0785 37.4451V48.26H82.7342V37.4451L91.7078 18.322H85.4022L79.8893 30.2972L74.412 18.322H68.1064L77.0785 37.4451ZM122.817 18.1903V23.4286H109.664V30.1639H120.654V35.4038H109.664V42.8883H122.998V48.1282H104.007V18.1903H122.817ZM141.479 31.923L149.408 18.1887H143.102L138.344 26.4597L133.551 18.1887H127.246L135.174 31.923L125.805 48.1267H132.11L138.344 37.349L144.543 48.1267H150.849L141.479 31.923ZM165.872 18.1887C171.349 18.1887 174.99 22.0062 174.99 27.7689C174.99 33.5315 171.351 37.2746 165.872 37.2746H160.394V48.1267H154.737V18.1887H165.872ZM165.872 32.0346C167.926 32.0346 169.295 30.35 169.295 27.8061C169.295 25.2621 167.926 23.4286 165.872 23.4286H160.394V32.0362H165.872V32.0346ZM199.923 26.6086C199.923 21.6696 197.075 18.1887 192.211 18.1887L192.214 18.1903H179.241V48.1282H184.898V35.4038H188.97L195.744 48.1282H201.402L194.446 35.1044C197.941 34.1675 199.923 30.9504 199.923 26.6086ZM194.264 26.6458C194.264 28.7415 193.76 30.1639 192.211 30.1639V30.1624H184.895V23.4271H192.211C193.76 23.4271 194.264 24.7378 194.264 26.6458ZM224.819 18.1903V23.4286H211.666V30.1639H222.656V35.4038H211.666V42.8883H225V48.1282H206.009V18.1903H224.819ZM254.252 45.9193V40.0434C256.522 41.9141 258.828 43.4482 262.576 43.4482C266.324 43.4482 267.765 42.4756 267.765 40.4544C267.765 38.5966 265.312 37.3894 262.402 35.9577C258.163 33.8715 252.954 31.3084 252.954 25.5599C252.954 20.2456 258.071 17.4395 262.9 17.4395C265.602 17.4395 268.413 17.8877 270.396 18.9736V24.2119C267.873 22.94 265.675 22.6778 262.9 22.6778C260.991 22.6778 258.72 23.4643 258.72 25.5599C258.72 27.9441 261.572 29.4035 264.771 31.0398C268.851 33.1274 273.495 35.5029 273.495 40.4544C273.495 45.7316 268.882 48.6882 262.576 48.6882C258.793 48.6882 256.522 47.7156 254.252 45.9193ZM182.771 62.6287V62.593C182.771 58.9865 185.615 56.0315 189.529 56.0315C193.443 56.0315 196.253 58.9493 196.253 62.5558V62.593C196.253 66.1995 193.407 69.153 189.493 69.153C185.58 69.153 182.771 66.2352 182.771 62.6287ZM193.334 62.6287V62.593C193.334 60.4183 191.741 58.6049 189.492 58.6049C187.243 58.6049 185.687 60.381 185.687 62.5558V62.593C185.687 64.7678 187.281 66.5796 189.529 66.5796C191.777 66.5796 193.334 64.8035 193.334 62.6287ZM130.087 56.1587H132.659L138.096 68.9358H135.178L134.018 66.0894H128.654L127.494 68.9358H124.647L130.084 56.1587H130.087ZM133.022 63.6261L131.338 59.5124L129.652 63.6261H133.022ZM110.273 56.2486H107.264V68.9342H110V60.7067L113.535 66.0723H113.606L117.177 60.654V68.9358H119.949V56.2486H116.942L113.606 61.6142L110.273 56.2486ZM68.0709 56.2488H73.9608C75.4111 56.2488 76.5528 56.6474 77.2772 57.3734C77.8589 57.9535 78.1474 58.6593 78.1474 59.5295V59.5668C78.1474 60.9985 77.3858 61.7958 76.4799 62.3031C77.9473 62.8646 78.8532 63.7162 78.8532 65.4194V65.4566C78.8532 67.7772 76.9685 68.936 74.1035 68.936H68.0693V56.2488H68.0709ZM73.3635 61.3786C74.5952 61.3786 75.3754 60.9799 75.3754 60.0368V59.9996C75.3754 59.1666 74.7224 58.695 73.545 58.695H70.7901V61.377H73.3635V61.3786ZM74.1066 66.4897C75.3398 66.4897 76.0828 66.0554 76.0828 65.1123V65.0751C76.0828 64.2234 75.4468 63.6976 74.015 63.6976H70.7901V66.4882H74.1066V66.4897ZM86.9271 63.9334L82.0518 56.2488H85.3139L88.3403 61.3413L91.4209 56.2488H94.5931L89.7177 63.8791V68.936H86.9256V63.9334H86.9271ZM148.597 56.2488H142.797H142.796V68.936H145.588V64.8765H147.781L150.501 68.936H153.763L150.664 64.4049C152.278 63.8077 153.383 62.5202 153.383 60.4727V60.4354C153.383 59.2395 153.003 58.2436 152.295 57.5363C151.461 56.7017 150.211 56.2488 148.597 56.2488ZM150.555 60.6185C150.555 61.6872 149.776 62.4117 148.416 62.4117H145.59V58.7695H148.362C149.72 58.7695 150.555 59.3853 150.555 60.5812V60.6185ZM158.645 56.2488H164.445C166.058 56.2488 167.309 56.7017 168.143 57.5363C168.85 58.2436 169.23 59.2395 169.23 60.4354V60.4727C169.23 62.5202 168.126 63.8077 166.511 64.4049L169.61 68.936H166.348L163.629 64.8765H161.436V68.936H158.644V56.2488H158.645ZM164.264 62.4117C165.624 62.4117 166.403 61.6872 166.403 60.6185V60.5812C166.403 59.3853 165.568 58.7695 164.209 58.7695H161.437V62.4117H164.264ZM177.412 56.2488H174.62V68.936H177.412V56.2488ZM200.03 58.8237H203.89V68.9359H206.682V58.8237H210.541V56.2502H200.03V58.8237ZM218.378 58.8237H214.519V56.2502H225.029V58.8237H221.17V68.9359H218.378V58.8237Z" clip-rule="evenodd" fill-rule="evenodd"></path>
    <path fill="#024DA1" d="M19.4081 2.26966C9.99511 2.26966 2.36439 9.90038 2.36439 19.3134V67.9959C2.36439 77.4088 9.99511 85.0396 19.4081 85.0396H264.595C274.008 85.0396 281.639 77.4088 281.639 67.9959V19.3134C281.639 9.90038 274.008 2.26966 264.595 2.26966H19.4081ZM0.212891 19.3134C0.212891 8.71214 8.80687 0.118164 19.4081 0.118164H264.595C275.196 0.118164 283.79 8.71214 283.79 19.3134V67.9959C283.79 78.5971 275.196 87.1911 264.595 87.1911H19.4081C8.80687 87.1911 0.212891 78.5971 0.212891 67.9959V19.3134Z" clip-rule="evenodd" fill-rule="evenodd"></path>
  </g>
  <defs>
    <clipPath id="clip0_9786_33974">
      <rect fill="white" height="88" width="284"></rect>
    </clipPath>
  </defs>
</svg>