<svg style="width: 80px; height: 7.9995px;" aria-label="Courtyard" role="img" preserveAspectRatio="" fill="none" viewBox="0 0 292 29" height="29" width="292" xmlns="http://www.w3.org/2000/svg">
  <g clip-path="url(#clip0_9512_33913)">
    <path fill="#DD9C28" d="M5.05205 14.0468C5.05205 19.1442 8.50879 23.6382 14.1309 23.6382C18.8034 23.6382 21.9557 20.2395 21.9557 20.2395L24.5394 23.752C24.5394 23.752 20.8166 28.0947 13.9409 28.0947C5.69773 28.0947 0 22.0143 0 14.122C0 6.34341 5.92556 0.376709 13.8653 0.376709C20.437 0.376709 23.8176 4.03951 23.8176 4.03951L21.4622 7.66523C21.4622 7.66523 18.3856 4.8327 14.0931 4.8327C8.39488 4.8327 5.05205 9.0622 5.05205 14.0468ZM37.3421 14.0468C37.3421 19.5596 41.2928 23.6382 46.2309 23.6382C51.1691 23.6382 55.1198 19.5596 55.1198 14.0468C55.1198 8.76006 51.1691 4.8327 46.2309 4.8327C41.2928 4.8327 37.3421 8.76006 37.3421 14.0468ZM32.29 14.0468C32.29 6.38149 38.2917 0.376709 46.2309 0.376709C54.1706 0.376709 60.1723 6.38149 60.1723 14.0468C60.1723 21.9391 54.1706 28.0947 46.2309 28.0947C38.2917 28.0947 32.29 21.9391 32.29 14.0468ZM86.8534 17.9738C86.8534 21.5991 84.4607 23.6384 80.8517 23.6384C77.2428 23.6384 74.8879 21.5991 74.8879 18.0119V0.829834H69.9875V18.0119C69.9875 24.0162 74.3561 28.0949 80.8895 28.0949C87.3852 28.0949 91.7537 24.0162 91.7537 18.0119V0.829834H86.8534V17.9738ZM108.878 13.4046H113.283C115.905 13.4046 117.538 11.8563 117.538 9.1756C117.538 6.60813 116.437 5.02225 112.6 5.02225H108.878V13.4046ZM117.956 16.2371V16.3128C117.956 16.3128 118.336 16.6901 118.868 17.6346L124.414 27.6414H118.944L113.587 17.6346H108.878V27.6414H103.977V0.829834H112.676C115.601 0.829834 116.931 1.05632 118.108 1.58544C120.805 2.79401 122.515 5.36198 122.515 8.91154C122.515 12.1209 120.805 15.1042 117.956 16.2371ZM131.656 5.02225H140.507V27.6414H145.407V5.02225H154.258V0.829834H131.656V5.02225ZM177.5 16.4255V27.6414H172.6V16.4255L163.635 0.829834H169.182L173.398 8.72214C173.962 9.79593 174.464 10.9959 174.758 11.7005L174.758 11.7007L174.758 11.701L174.758 11.7017L174.758 11.7022L174.759 11.704C174.919 12.0876 175.018 12.3234 175.031 12.3103H175.107C175.107 12.3103 175.867 10.3837 176.741 8.72214L180.919 0.829834H186.465L177.5 16.4255ZM237.288 13.4046H232.881V5.02225H236.604C240.441 5.02225 241.542 6.60813 241.542 9.1756C241.542 11.8563 239.909 13.4046 237.288 13.4046ZM241.96 16.3128V16.2371C244.81 15.1042 246.519 12.1209 246.519 8.91154C246.519 5.36198 244.81 2.79401 242.112 1.58544C240.935 1.05632 239.605 0.829834 236.68 0.829834H227.981V27.6414H232.881V17.6346H237.592L242.948 27.6414H248.418L242.872 17.6346C242.34 16.6901 241.96 16.3128 241.96 16.3128ZM263.777 5.02225V23.4495H267.803C273.274 23.4495 276.769 20.2397 276.769 14.1978C276.769 8.23159 273.198 5.02225 267.803 5.02225H263.777ZM268.069 0.829834C276.389 0.829834 281.82 5.73879 281.82 14.1978C281.82 22.6573 276.389 27.6414 268.069 27.6414H258.877V0.829834H268.069ZM202.088 17.8908C201.927 17.9748 201.767 18.0614 201.609 18.1489L204.806 10.4242H204.882L207.139 15.9652C205.395 16.388 203.691 17.0288 202.088 17.8908ZM216.886 27.6414L204.9 0.829834H204.751L192.765 27.6414H197.679L197.682 27.6335L197.694 27.6414C197.893 27.2849 198.092 26.9956 198.343 26.6752C198.343 26.6752 199.357 25.2579 199.823 24.7263C200.288 24.1937 200.961 23.5543 201.557 22.9876C201.753 22.8213 201.958 22.6678 202.165 22.5141C202.289 22.4215 202.413 22.3288 202.535 22.233C202.855 21.9699 203.208 21.7543 203.563 21.5392C204.965 20.6565 206.508 19.9548 208.131 19.4737L208.525 19.3693L211.893 27.6414H216.886ZM289.025 3.21863C289.025 3.72006 288.716 4.02616 288.243 4.02616H287.379V2.44226H288.243C288.716 2.44226 289.025 2.72759 289.025 3.21863ZM288.294 2.03281H286.926V6.12237H287.379V4.41534H288.263L289.138 6.12237H289.642L288.829 4.55825C288.737 4.38468 288.695 4.33374 288.695 4.33374V4.31248C289.117 4.21012 289.487 3.82242 289.487 3.21863C289.487 2.50308 288.993 2.03281 288.294 2.03281ZM291.318 4.07808C291.318 5.92803 289.93 7.34973 288.119 7.34973C286.34 7.34973 284.962 5.92803 284.962 4.07808C284.962 2.23753 286.34 0.806434 288.119 0.806434C289.93 0.806434 291.318 2.23753 291.318 4.07808ZM291.781 4.07808C291.781 2.01253 290.156 0.376709 288.119 0.376709C286.114 0.376709 284.5 2.01253 284.5 4.07808C284.5 6.15352 286.114 7.77847 288.119 7.77847C290.156 7.77847 291.781 6.15352 291.781 4.07808Z" clip-rule="evenodd" fill-rule="evenodd"></path>
  </g>
  <defs>
    <clipPath id="clip0_9512_33913">
      <rect fill="white" height="29" width="292"></rect>
    </clipPath>
  </defs>
</svg>