<svg style="width: 50.4px; height: 47.997px;" aria-label="Delta Hotels" role="img" preserveAspectRatio="" fill="none" viewBox="0 0 127 121" height="121" width="127" xmlns="http://www.w3.org/2000/svg">
  <path fill="#2C308B" d="M61.5046 0.369141C67.0816 0.369141 72.3509 2.57092 76.3246 6.55676C80.2983 10.547 82.4779 15.8338 82.4779 21.4384C82.4779 27.0429 80.2983 32.3342 76.3246 36.32C72.3509 40.3102 67.0816 42.5076 61.5046 42.5076H46.7453C45.4193 42.5076 44.3879 41.472 44.3879 40.1927V18.9755C44.3879 18.1836 45.2893 17.6962 46.7453 17.6962C48.1969 17.6962 49.1026 18.1836 49.1026 18.9755V36.5376C49.1026 37.2164 49.6529 37.7777 50.3333 37.7777H61.5046C65.8249 37.7777 69.9026 36.0676 72.9879 32.9738C76.0689 29.88 77.7676 25.781 77.7676 21.4384C77.7676 17.0957 76.0689 12.9968 72.9879 9.9073C69.9026 6.80914 65.8249 5.10776 61.5046 5.10776H45.8873C45.0986 5.10776 44.6176 4.19833 44.6176 2.74063C44.6176 1.27422 45.0986 0.369141 45.8873 0.369141H61.5046ZM18.2843 80.7804C18.2843 86.1804 14.4016 90.1184 9.05864 90.1184H4.26164V71.512H9.05864C14.4016 71.512 18.2843 75.4151 18.2843 80.7804ZM1.21097 68.0483C0.846974 68.0483 0.556641 68.3747 0.556641 68.7402V92.8902C0.556641 93.26 0.846974 93.582 1.21097 93.582H9.56564C16.5813 93.582 22.323 87.8557 22.323 80.7804C22.323 73.779 16.5813 68.0483 9.56564 68.0483H1.21097ZM32.9067 68.7397C32.9067 68.3742 33.1927 68.0479 33.5914 68.0479H48.1297C48.5241 68.0479 48.8187 68.3742 48.8187 68.7397V70.7805C48.8187 71.146 48.5241 71.4724 48.1297 71.4724H36.6464V78.9175H46.3444C46.7084 78.9175 47.0334 79.2439 47.0334 79.6094V81.6545C47.0334 82.0548 46.7084 82.3464 46.3444 82.3464H36.6464V90.1919H48.1297C48.5241 90.1919 48.8187 90.5182 48.8187 90.8837V92.8941C48.8187 93.2596 48.5241 93.5816 48.1297 93.5816H33.5914C33.1927 93.5816 32.9067 93.2596 32.9067 92.8941V68.7397ZM61.1596 68.0479C60.7566 68.0479 60.4663 68.3742 60.4663 68.7397V92.8941C60.4663 93.2596 60.7566 93.5816 61.1596 93.5816H74.0903C74.4846 93.5816 74.7793 93.2596 74.7793 92.8941V90.8837C74.7793 90.5182 74.4846 90.1919 74.0903 90.1919H64.245V68.7397C64.245 68.3742 63.9156 68.0479 63.5516 68.0479H61.1596ZM86.7223 71.4741H80.803C80.4 71.4741 80.1053 71.1434 80.1053 70.7823V68.7415C80.1053 68.376 80.4 68.0453 80.803 68.0453H96.4247C96.8233 68.0453 97.1137 68.376 97.1137 68.7415V70.7823C97.1137 71.1434 96.8233 71.4741 96.4247 71.4741H90.501V92.8958C90.501 93.257 90.176 93.5833 89.812 93.5833H87.4113C87.0517 93.5833 86.7223 93.257 86.7223 92.8958V71.4741ZM114.397 74.9051L118.869 84.9002H109.782L114.21 74.9051H114.397ZM113.565 68.0822L102.406 92.6369C102.185 93.1112 102.476 93.5855 103.026 93.5855H105.31C105.752 93.5855 106.038 93.294 106.146 93.0372C106.496 92.2326 106.854 91.435 107.213 90.6377C107.601 89.775 107.989 88.9125 108.365 88.0419H120.247L122.491 93.0372C122.647 93.3679 122.899 93.5855 123.332 93.5855H125.624C126.162 93.5855 126.461 93.1112 126.24 92.6369L115.155 68.0822C115.055 67.8647 114.717 67.6776 114.544 67.6776H114.176C113.994 67.6776 113.664 67.8647 113.565 68.0822ZM19.4838 106.933C19.4838 106.737 19.6614 106.555 19.8608 106.555H21.1738C21.3904 106.555 21.5508 106.737 21.5508 106.933V112.52H28.8438V106.933C28.8438 106.737 28.9998 106.555 29.2294 106.555H30.5381C30.7374 106.555 30.9151 106.737 30.9151 106.933V120.179C30.9151 120.379 30.7374 120.562 30.5381 120.562H29.2294C28.9998 120.562 28.8438 120.379 28.8438 120.179V114.4H21.5508V120.179C21.5508 120.379 21.3904 120.562 21.1738 120.562H19.8608C19.6614 120.562 19.4838 120.379 19.4838 120.179V106.933ZM49.0601 113.579C49.0601 116.438 46.7288 118.757 43.8818 118.757C41.0564 118.757 38.7164 116.438 38.7164 113.579C38.7164 110.733 41.0564 108.353 43.8818 108.353C46.7288 108.353 49.0601 110.733 49.0601 113.579ZM51.0534 113.579C51.0534 109.575 47.8684 106.351 43.8818 106.351C39.8951 106.351 36.7274 109.575 36.7274 113.579C36.7274 117.578 39.8951 120.758 43.8818 120.758C47.8684 120.758 51.0534 117.578 51.0534 113.579ZM58.5787 108.433H55.3287C55.1163 108.433 54.9517 108.255 54.9517 108.055V106.932C54.9517 106.736 55.1163 106.553 55.3287 106.553H63.9C64.121 106.553 64.277 106.736 64.277 106.932V108.055C64.277 108.255 64.121 108.433 63.9 108.433H60.65V120.182C60.65 120.382 60.4723 120.565 60.273 120.565H58.96C58.7563 120.565 58.5787 120.382 58.5787 120.182V108.433ZM70.5825 106.555C70.3615 106.555 70.2054 106.737 70.2054 106.933V120.179C70.2054 120.379 70.3615 120.562 70.5825 120.562H78.5514C78.7768 120.562 78.9285 120.379 78.9285 120.179V119.082C78.9285 118.882 78.7768 118.704 78.5514 118.704H72.2638V114.4H77.5808C77.7758 114.4 77.9534 114.239 77.9534 114.017V112.895C77.9534 112.699 77.7758 112.52 77.5808 112.52H72.2638V108.435H78.5514C78.7768 108.435 78.9285 108.256 78.9285 108.056V106.933C78.9285 106.737 78.7768 106.555 78.5514 106.555H70.5825ZM85.717 106.933C85.717 106.737 85.8817 106.555 86.1027 106.555H87.4114C87.6107 106.555 87.7927 106.737 87.7927 106.933V118.704H93.192C93.4044 118.704 93.569 118.882 93.569 119.082V120.179C93.569 120.379 93.4044 120.562 93.192 120.562H86.1027C85.8817 120.562 85.717 120.379 85.717 120.179V106.933ZM98.8135 118.109C98.7254 118.256 98.637 118.404 98.5437 118.538C98.3401 118.882 98.4787 119.021 98.6607 119.178C98.9814 119.478 100.515 120.762 102.942 120.762C105.529 120.762 107.388 119.061 107.388 116.981C107.388 114.539 105.416 113.439 103.102 112.499C101.447 111.815 100.572 111.115 100.572 109.979C100.572 109.235 101.148 108.178 102.821 108.178C103.902 108.178 105.191 108.979 105.469 109.152C105.488 109.164 105.503 109.173 105.512 109.179C105.793 109.357 106.053 109.235 106.218 108.974C106.374 108.735 106.552 108.456 106.708 108.213C106.911 107.917 106.751 107.634 106.586 107.534L106.586 107.533C106.383 107.392 104.898 106.355 102.903 106.355C99.7397 106.355 98.5437 108.491 98.5437 110.058C98.5437 112.377 100.134 113.439 102.166 114.296C104.138 115.118 105.174 115.88 105.174 117.081C105.174 118.099 104.303 118.943 102.925 118.943C101.391 118.943 99.8524 117.659 99.7397 117.559C99.5144 117.377 99.2414 117.464 99.0551 117.72C98.9727 117.842 98.8932 117.975 98.8135 118.109Z" clip-rule="evenodd" fill-rule="evenodd"></path>
</svg>