<svg aria-label="de" role="img" preserveAspectRatio="" fill="none" viewBox="0 0 128 160" height="160" width="128" xmlns="http://www.w3.org/2000/svg">
  <path fill="#2C308B" d="M62.5046 1.36914C68.0816 1.36914 73.3509 3.57092 77.3246 7.55676C81.2983 11.547 83.4779 16.8338 83.4779 22.4384C83.4779 28.0429 81.2983 33.3342 77.3246 37.32C73.3509 41.3102 68.0816 43.5076 62.5046 43.5076H47.7453C46.4193 43.5076 45.3879 42.472 45.3879 41.1927V19.9755C45.3879 19.1836 46.2893 18.6962 47.7453 18.6962C49.1969 18.6962 50.1026 19.1836 50.1026 19.9755V37.5376C50.1026 38.2164 50.6529 38.7777 51.3333 38.7777H62.5046C66.8249 38.7777 70.9026 37.0676 73.9879 33.9738C77.0689 30.88 78.7676 26.781 78.7676 22.4384C78.7676 18.0957 77.0689 13.9968 73.9879 10.9073C70.9026 7.80914 66.8249 6.10776 62.5046 6.10776H46.8873C46.0986 6.10776 45.6176 5.19833 45.6176 3.74063C45.6176 2.27422 46.0986 1.36914 46.8873 1.36914H62.5046ZM81.527 157.115C81.9906 157.115 82.424 157.028 82.8053 156.846C83.191 156.663 83.5073 156.419 83.7716 156.101C84.036 155.788 84.2483 155.431 84.387 155.018C84.5256 154.605 84.6036 154.183 84.6036 153.726C84.6036 153.269 84.5256 152.842 84.387 152.429C84.2483 152.029 84.036 151.672 83.7716 151.367C83.5073 151.058 83.191 150.815 82.8053 150.645C82.424 150.471 81.9906 150.379 81.527 150.379C81.0546 150.379 80.6213 150.471 80.2486 150.645C79.876 150.815 79.551 151.058 79.2953 151.367C79.0223 151.672 78.81 152.029 78.6713 152.429C78.5283 152.842 78.4633 153.269 78.4633 153.726C78.4633 154.183 78.5283 154.605 78.6713 155.018C78.81 155.431 79.0223 155.788 79.2953 156.101C79.551 156.419 79.876 156.663 80.2486 156.846C80.6213 157.028 81.0546 157.115 81.527 157.115ZM81.527 158.83C80.838 158.83 80.1836 158.686 79.5856 158.429C78.9876 158.173 78.4633 157.803 78.0213 157.346C77.5663 156.889 77.2153 156.349 76.9553 155.74C76.6953 155.131 76.574 154.478 76.574 153.773C76.574 153.082 76.6953 152.425 76.9553 151.811C77.2153 151.197 77.5663 150.662 78.0083 150.214C78.4546 149.757 78.9703 149.396 79.5813 149.135C80.1836 148.874 80.838 148.748 81.527 148.748C82.2246 148.748 82.8703 148.874 83.464 149.135C84.0663 149.396 84.595 149.757 85.0456 150.214C85.4876 150.662 85.843 151.197 86.0986 151.811C86.35 152.425 86.48 153.082 86.48 153.773C86.48 154.478 86.35 155.131 86.0986 155.74C85.843 156.349 85.4876 156.889 85.0456 157.346C84.595 157.803 84.0663 158.173 83.464 158.429C82.8703 158.686 82.2246 158.83 81.527 158.83ZM20.9427 148.999H22.6067L25.4667 153.516L28.2834 148.999H29.9691L30.4241 158.563H28.6734L28.3527 151.936L25.8437 155.844H24.9987L22.4767 152.041L22.1647 158.563H20.4834L20.9427 148.999ZM39.7827 154.653L38.5261 150.932L37.2564 154.653H39.7827ZM37.6507 149H39.5097L43.1237 158.56H41.1347L40.2941 156.141H36.7581L35.9261 158.56H34.0454L37.6507 149ZM51.5759 152.899C51.3245 153.169 50.9649 153.304 50.5142 153.304H48.6249V150.527H50.5142C50.9389 150.527 51.2855 150.662 51.5542 150.915C51.8272 151.18 51.9485 151.511 51.9485 151.924C51.9485 152.307 51.8272 152.633 51.5759 152.899ZM50.4969 149H46.8872V158.56H48.6249V154.792H50.4275L52.3515 158.56H54.3795L52.1825 154.565C52.7242 154.291 53.1229 153.908 53.3872 153.456C53.6515 152.99 53.7815 152.459 53.7815 151.855C53.7815 151.55 53.7252 151.232 53.6039 150.897C53.4869 150.562 53.3005 150.253 53.0405 149.966C52.7805 149.688 52.4469 149.457 52.0309 149.279C51.6019 149.096 51.1035 149 50.4969 149ZM62.0608 153.304C62.5202 153.304 62.8798 153.169 63.1225 152.899C63.3825 152.633 63.5038 152.307 63.5038 151.924C63.5038 151.511 63.3782 151.18 63.1095 150.915C62.8452 150.662 62.4942 150.527 62.0608 150.527H60.1758V153.304H62.0608ZM58.4425 149H62.0522C62.6588 149 63.1572 149.096 63.5775 149.279C63.9935 149.457 64.3358 149.688 64.5915 149.966C64.8472 150.253 65.0378 150.562 65.1592 150.897C65.2762 151.232 65.3368 151.55 65.3368 151.855C65.3368 152.459 65.2025 152.99 64.9382 153.456C64.6825 153.908 64.2795 154.291 63.7378 154.565L65.9348 158.56H63.9112L61.9828 154.792H60.1758V158.56H58.4425V149ZM72.2455 158.565H70.4471V149H72.2455V158.565ZM88.8269 150.586H92.0596V158.562H93.8622V150.586H97.0819V149.002H88.8269V150.586ZM103.363 150.586H100.126V149.002H108.385V150.586H105.165V158.562H103.363V150.586ZM10.0586 91.1184C15.4016 91.1184 19.2843 87.1804 19.2843 81.7804C19.2843 76.4151 15.4016 72.512 10.0586 72.512H5.26164V91.1184H10.0586ZM1.55664 69.7402C1.55664 69.3747 1.84697 69.0483 2.21097 69.0483H10.5656C17.5813 69.0483 23.323 74.779 23.323 81.7804C23.323 88.8557 17.5813 94.582 10.5656 94.582H2.21097C1.84697 94.582 1.55664 94.26 1.55664 93.8902V69.7402ZM34.5914 69.0479C34.1927 69.0479 33.9067 69.3742 33.9067 69.7397V93.8941C33.9067 94.2596 34.1927 94.5816 34.5914 94.5816H49.1297C49.5241 94.5816 49.8187 94.2596 49.8187 93.8941V91.8837C49.8187 91.5182 49.5241 91.1919 49.1297 91.1919H37.6464V83.3464H47.3444C47.7084 83.3464 48.0334 83.0548 48.0334 82.6545V80.6094C48.0334 80.2439 47.7084 79.9175 47.3444 79.9175H37.6464V72.4724H49.1297C49.5241 72.4724 49.8187 72.146 49.8187 71.7805V69.7397C49.8187 69.3742 49.5241 69.0479 49.1297 69.0479H34.5914ZM61.4663 69.7397C61.4663 69.3742 61.7566 69.0479 62.1596 69.0479H64.5516C64.9156 69.0479 65.245 69.3742 65.245 69.7397V91.1919H75.0903C75.4846 91.1919 75.7793 91.5182 75.7793 91.8837V93.8941C75.7793 94.2596 75.4846 94.5816 75.0903 94.5816H62.1596C61.7566 94.5816 61.4663 94.2596 61.4663 93.8941V69.7397ZM81.803 72.4741H87.7223V93.8958C87.7223 94.257 88.0517 94.5833 88.4113 94.5833H90.812C91.176 94.5833 91.501 94.257 91.501 93.8958V72.4741H97.4247C97.8233 72.4741 98.1137 72.1434 98.1137 71.7823V69.7415C98.1137 69.376 97.8233 69.0453 97.4247 69.0453H81.803C81.4 69.0453 81.1053 69.376 81.1053 69.7415V71.7823C81.1053 72.1434 81.4 72.4741 81.803 72.4741ZM119.869 85.9002L115.397 75.9051H115.21L110.782 85.9002H119.869ZM103.406 93.6369L114.565 69.0822C114.664 68.8647 114.994 68.6776 115.176 68.6776H115.544C115.717 68.6776 116.055 68.8647 116.155 69.0822L127.24 93.6369C127.461 94.1112 127.162 94.5855 126.624 94.5855H124.332C123.899 94.5855 123.647 94.3679 123.491 94.0372L121.247 89.0419H109.365C108.989 89.9125 108.601 90.775 108.213 91.6377C107.854 92.435 107.496 93.2326 107.146 94.0372C107.038 94.294 106.752 94.5855 106.31 94.5855H104.026C103.476 94.5855 103.185 94.1112 103.406 93.6369ZM20.8608 107.555C20.6614 107.555 20.4838 107.737 20.4838 107.933V121.179C20.4838 121.379 20.6614 121.562 20.8608 121.562H22.1738C22.3904 121.562 22.5508 121.379 22.5508 121.179V115.4H29.8438V121.179C29.8438 121.379 29.9998 121.562 30.2294 121.562H31.5381C31.7374 121.562 31.9151 121.379 31.9151 121.179V107.933C31.9151 107.737 31.7374 107.555 31.5381 107.555H30.2294C29.9998 107.555 29.8438 107.737 29.8438 107.933V113.52H22.5508V107.933C22.5508 107.737 22.3904 107.555 22.1738 107.555H20.8608ZM44.8818 119.757C47.7288 119.757 50.0601 117.438 50.0601 114.579C50.0601 111.733 47.7288 109.353 44.8818 109.353C42.0564 109.353 39.7164 111.733 39.7164 114.579C39.7164 117.438 42.0564 119.757 44.8818 119.757ZM44.8818 107.351C48.8684 107.351 52.0534 110.575 52.0534 114.579C52.0534 118.578 48.8684 121.758 44.8818 121.758C40.8951 121.758 37.7274 118.578 37.7274 114.579C37.7274 110.575 40.8951 107.351 44.8818 107.351ZM56.3287 109.433H59.5787V121.182C59.5787 121.382 59.7563 121.565 59.96 121.565H61.273C61.4723 121.565 61.65 121.382 61.65 121.182V109.433H64.9C65.121 109.433 65.277 109.255 65.277 109.055V107.932C65.277 107.736 65.121 107.553 64.9 107.553H56.3287C56.1163 107.553 55.9517 107.736 55.9517 107.932V109.055C55.9517 109.255 56.1163 109.433 56.3287 109.433ZM71.2054 107.933C71.2054 107.737 71.3615 107.555 71.5825 107.555H79.5514C79.7768 107.555 79.9285 107.737 79.9285 107.933V109.056C79.9285 109.256 79.7768 109.435 79.5514 109.435H73.2638V113.52H78.5808C78.7758 113.52 78.9534 113.699 78.9534 113.895V115.017C78.9534 115.239 78.7758 115.4 78.5808 115.4H73.2638V119.704H79.5514C79.7768 119.704 79.9285 119.882 79.9285 120.082V121.179C79.9285 121.379 79.7768 121.562 79.5514 121.562H71.5825C71.3615 121.562 71.2054 121.379 71.2054 121.179V107.933ZM87.1027 107.555C86.8817 107.555 86.717 107.737 86.717 107.933V121.179C86.717 121.379 86.8817 121.562 87.1027 121.562H94.192C94.4044 121.562 94.569 121.379 94.569 121.179V120.082C94.569 119.882 94.4044 119.704 94.192 119.704H88.7927V107.933C88.7927 107.737 88.6107 107.555 88.4114 107.555H87.1027ZM99.8134 119.109L99.8135 119.109C99.8932 118.975 99.9727 118.842 100.055 118.72C100.241 118.464 100.514 118.377 100.74 118.559C100.852 118.659 102.391 119.943 103.925 119.943C105.303 119.943 106.174 119.099 106.174 118.081C106.174 116.88 105.138 116.118 103.166 115.296C101.134 114.439 99.5437 113.377 99.5437 111.058C99.5437 109.491 100.74 107.355 103.903 107.355C105.898 107.355 107.383 108.392 107.586 108.533L107.586 108.534C107.751 108.634 107.911 108.917 107.708 109.213C107.552 109.456 107.374 109.735 107.218 109.974C107.053 110.235 106.793 110.357 106.512 110.179C106.503 110.173 106.488 110.164 106.469 110.152C106.191 109.979 104.902 109.178 103.821 109.178C102.148 109.178 101.572 110.235 101.572 110.979C101.572 112.115 102.447 112.815 104.102 113.499C106.416 114.439 108.388 115.539 108.388 117.981C108.388 120.061 106.529 121.762 103.942 121.762C101.515 121.762 99.9814 120.478 99.6607 120.178C99.4787 120.021 99.3401 119.882 99.5437 119.538C99.6369 119.404 99.7254 119.256 99.8134 119.109ZM115.327 136.242H13.5504V135.698H115.327V136.242Z" clip-rule="evenodd" fill-rule="evenodd"></path>
</svg>