<svg aria-label="ds" role="img" preserveAspectRatio="" fill="none" viewBox="0 0 300 32" height="32" width="300" xmlns="http://www.w3.org/2000/svg">
  <g clip-path="url(#clip0_5482_26604)">
    <path fill="black" d="M300 4.81773V1.23283H299.245L298.302 3.11962L297.358 1.23283H296.604V4.81773H297.358V2.74226L298.113 4.06301H298.491L299.245 2.74226V4.81773H300ZM296.226 1.79887V1.23283H293.585V1.79887H294.528V4.81773H295.283V1.79887H296.226ZM283.396 13.497C288.679 15.5724 291.509 17.8366 291.509 22.3649C291.509 27.8366 287.359 31.2328 281.887 31.2328C278.113 31.2328 274.528 29.9121 271.321 26.8932L271.132 26.7045L274.34 22.3649L274.717 22.7423C276.792 24.6291 279.057 25.9498 281.887 25.9498C284.528 25.9498 285.849 24.6291 285.849 22.7423C285.849 21.2328 285.094 20.1008 280.566 18.4026C275.094 16.3272 272.076 14.2517 272.076 9.34603C272.076 4.44037 276.038 0.855469 281.509 0.855469C284.906 0.855469 288.113 1.98754 290.755 4.25169L291.132 4.44037L287.925 8.78L287.547 8.40264C285.66 6.8932 283.585 5.76113 281.321 5.76113C278.868 5.76113 277.547 7.08188 277.547 8.59132C277.736 10.6668 278.491 11.6102 283.396 13.497ZM253.585 30.8555H268.302V25.7611H259.434V1.23283H253.774V30.8555H253.585ZM229.434 1.23283H247.547V6.32717H234.717V13.3083H245.66V18.4026H234.717V25.5725H247.547V30.8555H229.434V1.23283ZM218.302 6.32717H225.283V1.23283H205.472V6.32717H212.453V30.8555H218.113C218.302 30.8555 218.302 6.32717 218.302 6.32717ZM195.66 7.45924C194.906 6.51585 193.585 5.76113 191.887 5.76113C190.189 5.76113 188.868 6.32717 188.113 7.45924C186.981 8.78 186.604 10.1008 186.604 15.7611C186.604 21.4215 186.981 22.9309 188.113 24.2517C188.868 25.1951 190.189 25.7611 191.887 25.7611C193.585 25.7611 194.717 25.1951 195.66 24.2517C196.792 22.9309 197.17 21.6102 197.17 15.7611C197.17 9.91207 196.792 8.78 195.66 7.45924ZM191.887 31.0441C188.491 31.0441 185.849 29.9121 183.774 27.8366C180.755 24.8177 180.755 21.0441 180.755 15.9498C180.755 10.8555 180.755 7.08188 183.774 4.06301C185.849 1.98754 188.491 0.855469 191.887 0.855469C195.283 0.855469 197.736 1.98754 199.811 4.06301C202.83 7.08188 202.83 10.8555 202.83 15.9498C202.83 21.0441 202.83 24.8177 199.811 27.8366C197.736 29.9121 195.283 31.0441 191.887 31.0441ZM169.623 30.8555H175.283V1.23283H169.623V13.3083H159.623V1.23283H153.962V30.8555H159.623V18.4026H169.623V30.8555ZM120.943 12.7423V30.8555H115.283V1.23283H120.377L132.075 19.346V1.23283H137.736V30.8555H132.641L120.943 12.7423ZM107.17 27.8366C109.245 25.7611 110 23.1196 110 18.78V13.497H98.8679V18.5913H104.528V20.4781C104.528 22.1762 104.151 23.497 103.208 24.4404C102.075 25.5724 100.566 26.1385 98.8679 26.1385C97.3585 26.1385 96.0377 25.5725 95.283 24.6291C94.1509 23.3083 93.9623 22.1762 93.9623 16.3272C93.9623 10.4781 94.3396 9.34603 95.283 8.02528C96.0377 7.08188 96.9811 6.70453 98.3019 6.51585C98.4906 6.51585 98.8679 6.51585 99.0566 6.51585C101.132 6.51585 103.208 7.45924 105.283 8.96868L105.66 9.34603L108.868 5.00641L108.302 4.44037C105.66 1.98754 102.453 1.04415 99.0566 1.04415H98.4906C95.4717 1.23283 93.0189 2.3649 90.9434 4.44037C89.6226 5.76113 88.8679 7.27057 88.4906 8.96868C88.1132 10.6668 87.9245 13.1196 87.9245 16.3272C87.9245 19.5347 88.1132 21.9875 88.4906 23.6857C88.8679 25.3838 89.6226 26.8932 90.9434 28.214C93.0189 30.2894 95.6604 31.4215 98.8679 31.4215C102.075 31.0441 104.906 30.1008 107.17 27.8366ZM75.283 1.23283H80.9434V30.8555H75.283V1.23283ZM55.283 8.96868C55.283 7.45924 56.6038 6.13849 59.0566 6.13849C61.1321 6.13849 63.2075 7.08188 65.283 8.59132L65.6604 8.96868L68.8679 4.62905L68.4906 4.44037C65.849 1.98754 62.6415 1.04415 59.2453 1.04415C53.7736 1.04415 49.8113 4.44037 49.8113 9.53471C49.8113 14.6291 52.8302 16.5158 58.3019 18.5913C62.8302 20.2894 63.5849 21.4215 63.5849 22.9309C63.5849 24.8177 62.0755 26.1385 59.434 26.1385C56.6038 26.1385 54.3396 24.8177 52.2641 22.9309L51.6981 22.3649L48.3019 26.7045L48.6792 26.8932C51.8868 29.9121 55.4717 31.2328 59.2453 31.2328C64.717 31.2328 68.8679 27.8366 68.8679 22.3649C68.8679 17.8366 66.2264 15.5724 60.7547 13.497C55.8491 11.6102 55.0943 10.6668 55.283 8.96868ZM26.4151 1.23283H44.5283V6.32717H31.6981V13.3083H42.6415V18.4026H31.6981V25.5725H44.5283V30.8555H26.4151V1.23283ZM15.6604 15.9498C15.6604 20.4781 15.4717 22.5536 14.3396 23.8743C13.3962 25.0064 12.0755 25.7611 10 25.7611H5.66038V6.32717H10C11.8868 6.32717 13.3962 6.8932 14.3396 8.21396C15.4717 9.53471 15.6604 11.4215 15.6604 15.9498ZM21.3208 15.9498C21.3208 11.4215 21.6981 7.45924 18.3019 4.06301C16.4151 2.17622 13.5849 1.23283 10.566 1.23283H0V30.8555H10.566C13.5849 30.8555 16.4151 29.9121 18.3019 28.0253C21.6981 24.6291 21.3208 20.2894 21.3208 15.9498Z"></path>
  </g>
  <defs>
    <clipPath id="clip0_5482_26604">
      <rect fill="white" height="32" width="300"></rect>
    </clipPath>
  </defs>
</svg>