<svg aria-label="eb" role="img" preserveAspectRatio="" fill="none" viewBox="0 0 251 47" height="47" width="251" xmlns="http://www.w3.org/2000/svg">
  <g clip-path="url(#clip0_7_180)">
    <path fill="#1E1E1E" d="M246.782 2.21606C247.077 2.21606 247.292 2.2586 247.433 2.33424C247.559 2.4146 247.634 2.56115 247.634 2.78333C247.634 3.02442 247.531 3.18042 247.33 3.26551C247.203 3.31751 247.039 3.3317 246.796 3.3317H246.318V2.21606H246.782ZM247.686 1.96079C247.512 1.88515 247.231 1.85206 246.847 1.85206H245.779V4.92951H246.318V3.7146H246.739C247.039 3.7146 247.231 3.7477 247.339 3.81388C247.531 3.92733 247.634 4.15897 247.634 4.51351V4.76879V4.86333C247.634 4.86991 247.637 4.87548 247.64 4.88144C247.644 4.88833 247.648 4.89574 247.648 4.90588V4.92951H248.164L248.15 4.88697C248.131 4.86333 248.121 4.8066 248.121 4.73097C248.121 4.68953 248.116 4.64935 248.112 4.61042C248.107 4.57386 248.103 4.5384 248.103 4.50406V4.27715C248.103 4.12115 248.056 3.9557 247.948 3.80442C247.836 3.62951 247.648 3.53497 247.423 3.50188C247.611 3.46879 247.765 3.41679 247.854 3.3506C248.056 3.21824 248.164 3.0197 248.164 2.74079C248.164 2.34842 247.995 2.09315 247.686 1.96079ZM244.519 3.39788C244.519 2.73606 244.753 2.15933 245.221 1.69606C245.681 1.22333 246.238 0.982241 246.913 0.982241C247.559 0.982241 248.131 1.22333 248.599 1.69606C249.068 2.15933 249.297 2.73606 249.297 3.39788C249.297 4.06915 249.068 4.64588 248.599 5.1186C248.131 5.59133 247.573 5.8277 246.913 5.8277C246.238 5.8277 245.681 5.59133 245.221 5.1186C244.753 4.64588 244.519 4.06915 244.519 3.39788ZM246.913 6.2106C247.667 6.2106 248.337 5.93642 248.876 5.38806C249.419 4.8397 249.682 4.16842 249.682 3.39788C249.682 2.6226 249.419 1.96551 248.876 1.42188C248.337 0.873514 247.667 0.594604 246.913 0.594604C246.135 0.594604 245.479 0.873514 244.945 1.42188C244.402 1.96551 244.135 2.62733 244.135 3.39788C244.135 4.17788 244.402 4.8397 244.945 5.38806C245.479 5.93642 246.135 6.2106 246.913 6.2106ZM179.22 45.0499C191.771 45.0499 202.017 35.7702 202.017 23.0208C202.017 10.1957 191.771 1.02478 179.22 1.02478C166.65 1.02478 156.404 10.1957 156.404 23.0208C156.404 35.7702 166.65 45.0499 179.22 45.0499ZM159.389 14.247C162.222 10.6508 168.595 7.7113 179.232 7.70915C189.869 7.7113 196.213 10.6508 199.056 14.247C200.958 16.6437 201.553 19.4942 201.553 23.0208C201.553 26.467 200.958 29.3222 199.056 31.7237C196.212 35.3211 189.864 38.3324 179.22 38.3324C168.576 38.3324 162.223 35.3211 159.389 31.7237C157.463 29.3222 156.868 26.467 156.868 23.0208C156.868 19.4942 157.463 16.6437 159.389 14.247ZM179.232 7.70915L179.243 7.70914H179.22L179.232 7.70915ZM0.0898438 44.5871V45.0551H34.7961V32.2489H34.2713C34.2713 39.718 29.7738 44.5871 20.5163 44.5871H12.6502V22.5722H15.4237C20.4554 22.5722 23.2945 25.5078 23.2945 29.8428H23.7583V14.8337H23.2945C23.2945 19.2395 20.4554 22.1042 15.4237 22.1042H12.6502V1.48857H20.2539C27.9888 1.48857 31.0949 6.4333 31.0949 12.4369H31.5541V1.03003H0.0898438V1.48857H5.90388V44.5871H0.0898438ZM37.3513 45.0551H56.9157C68.155 45.0551 76.8221 35.6526 76.8221 23.0402C76.8221 10.4326 68.155 1.03003 56.9157 1.03003H37.3513V1.48857H43.1654V44.5871H37.3513V45.0551ZM56.9157 1.48857C59.6939 1.48857 62.5377 2.09367 64.6553 3.89476C67.9535 6.76421 69.6776 13.4391 69.6776 23.0402C69.6776 33.8468 67.9535 39.3162 64.585 42.1809C62.5377 43.982 59.6939 44.5871 56.9157 44.5871H49.907V1.48857H56.9157ZM78.1377 45.0551V44.5871H83.8908V1.48857H78.1377V1.03003H96.4512V1.48857H90.6981V44.5871H96.4512V45.0551H78.1377ZM122.246 1.48857C131.176 1.48857 134.479 7.36457 134.479 14.6351H135.008V1.03003H99.571V14.6351H100.105C100.105 7.36457 103.342 1.48857 112.328 1.48857H113.916V44.5871H108.163V45.0551H126.416V44.5871H120.658V1.48857H122.246ZM138.13 45.0551V44.5871H143.883V1.48857H138.13V1.03003H156.443V1.48857H150.69V44.5871H156.443V45.0551H138.13ZM237.688 1.48952V46.1906H237.158L208.392 1.56043V44.5881H214.342V45.0561H202.25V44.5881H207.943V1.48952H202.25V1.02625H215.931L237.219 33.6444V1.48952H231.4V1.02625H243.3V1.48952H237.688Z" clip-rule="evenodd" fill-rule="evenodd"></path>
  </g>
  <defs>
    <clipPath id="clip0_7_180">
      <rect fill="white" height="47" width="251"></rect>
    </clipPath>
  </defs>
</svg>