<svg style="width: 59.2px; height: 47.997px;" aria-label="Element" role="img" preserveAspectRatio="" fill="none" viewBox="0 0 170 137" height="137" width="170" xmlns="http://www.w3.org/2000/svg">
  <path fill="#585642" d="M127.322 34.908L123.243 37.3797C123.678 39.6824 123.9 42.188 123.9 44.6597C123.9 66.49 106.181 84.188 84.3249 84.188C74.5084 84.188 65.4459 80.4997 58.5245 74.5183C53.638 70.299 49.781 64.9693 47.4659 58.8769C45.7645 54.5321 44.8172 49.719 44.8172 44.6597C44.8172 22.8052 62.5265 5.17969 84.3249 5.17969C96.7755 5.17969 107.95 10.9293 115.166 19.9956L119.222 17.7169C111.16 7.31831 98.5735 0.612793 84.3249 0.612793C59.9697 0.612793 40.2207 20.3093 40.2207 44.6597C40.2207 50.5059 41.3807 56.1107 43.43 61.2521C45.9385 67.248 49.607 72.6162 54.305 76.9225C62.1495 84.2797 72.7007 88.6583 84.3249 88.6583C108.685 88.6583 128.429 69.0004 128.429 44.6597C128.429 41.3721 128.023 38.099 127.322 34.908Z" clip-rule="evenodd" fill-rule="evenodd"></path>
  <path fill="#58AA40" d="M84.3224 12.9434C66.7678 12.9434 52.5723 27.1027 52.5723 44.6558C52.5723 48.4937 53.2151 52.0661 54.3896 55.4454L108.687 24.3075C102.829 17.3316 94.1438 12.9434 84.3224 12.9434Z" clip-rule="evenodd" fill-rule="evenodd"></path>
  <path fill="#58AA40" d="M28.1025 135.218H30.9252V110.144H28.1025V135.218ZM109.198 120.659C110.227 119.987 111.411 119.688 112.513 119.688C114.147 119.688 115.872 120.48 117.202 121.832C115.133 123.111 108.709 127.147 106.742 128.397C106.399 127.576 106.211 126.775 106.211 125.998C106.211 123.758 107.317 121.832 109.198 120.659ZM104.857 131.173C106.607 133.987 109.376 135.561 112.591 135.561C114.427 135.561 116.322 135.001 118.105 133.959C121.455 131.859 122.61 128.769 122.953 126.645L123.089 125.747L120.227 125.592L120.111 126.355C119.802 128.508 118.555 130.425 116.718 131.714C115.442 132.438 114.103 132.839 112.866 132.839C111.073 132.839 109.357 132.1 108.096 130.603C110.749 129.01 120.619 122.778 120.619 122.778L121.112 122.45L120.503 121.421C118.734 118.476 115.776 116.792 112.784 116.792C111.136 116.792 109.42 117.313 107.859 118.303C105.084 120.132 103.311 123.039 103.311 126.263C103.311 127.929 103.808 129.594 104.857 131.173ZM48.1909 119.688C47.1179 119.688 46.0497 119.988 44.9767 120.659C43.0047 121.832 41.9221 123.758 41.9221 125.998C41.9221 126.77 42.1009 127.557 42.4441 128.378C44.4499 127.147 50.9266 123.111 52.8937 121.832C51.6516 120.48 49.8971 119.688 48.1909 119.688ZM48.2682 135.547C47.6012 135.547 46.9052 135.47 46.2672 135.32C43.8554 134.837 41.9221 133.37 40.5591 131.173C39.1864 129.039 38.7852 126.635 39.3217 124.173C39.8486 121.793 41.4049 119.765 43.5606 118.303C45.7839 116.965 48.0604 116.507 50.3127 117.019C52.7004 117.55 54.7981 119.162 56.1901 121.402L56.9102 122.45L56.3351 122.778C56.3351 122.778 46.4267 129.01 43.8022 130.594C45.1217 132.061 46.8086 132.79 48.5824 132.79C49.8971 132.79 51.2746 132.433 52.4201 131.714C54.2471 130.449 55.4844 128.508 55.8082 126.355L55.9194 125.592L58.7662 125.747L58.6212 126.645C58.3457 128.769 57.2679 131.859 53.7637 133.959C52.1252 135.001 50.1387 135.547 48.2682 135.547ZM9.65169 120.018C8.49652 120.018 7.33169 120.332 6.26835 121.008C4.42685 122.19 3.33935 124.063 3.33935 126.352C3.33935 127.1 3.50369 127.916 3.83719 128.727C5.78019 127.491 12.2279 123.45 14.224 122.205C12.9674 120.81 11.2999 120.018 9.65169 120.018ZM9.70002 135.91C6.47135 135.91 3.70185 134.341 1.88935 131.585C0.913021 129.929 0.429688 128.254 0.429688 126.593C0.429688 125.903 0.516687 125.198 0.623021 124.508C1.19335 122.176 2.76902 120.11 4.93919 118.608C6.52452 117.648 8.20652 117.15 9.90302 117.15C12.8997 117.15 15.7997 118.859 17.6364 121.766L18.2695 122.794L17.7572 123.122C17.7572 123.122 7.77152 129.354 5.21952 130.972C6.41335 132.377 8.19685 133.139 10.0239 133.139C11.2999 133.139 12.571 132.758 13.7214 132.063C15.645 130.798 16.9162 128.867 17.24 126.675L17.3754 125.922L20.0869 126.12L19.937 126.994C19.6325 129.123 18.5499 132.183 15.1714 134.317C13.3782 135.336 11.5367 135.91 9.70002 135.91ZM92.3296 135.218H95.2634V124.698C95.2634 120.069 92.1846 116.969 87.5977 116.969C84.1806 116.969 82.2231 118.91 81.2419 120.324C79.8547 118.171 77.6411 116.969 74.8571 116.969C72.7884 116.969 70.9324 117.756 69.6129 119.098V117.341H66.7129V135.218H69.6129V124.988C69.6129 122.125 71.9087 119.702 74.7797 119.702C77.7232 119.702 79.5067 121.565 79.5067 124.771V135.218H82.4406V124.944C82.4406 121.671 85.0312 119.702 87.5494 119.702C90.6234 119.702 92.3296 121.522 92.3296 124.804V135.218ZM148.188 135.218H145.244V125.089C145.244 121.628 143.262 119.702 139.705 119.702C136.447 119.702 133.808 122.149 133.808 125.287V135.218H131.02V117.341H133.808V119.34C135.036 118.22 136.916 116.969 139.85 116.969C144.848 116.969 148.188 120.151 148.188 124.901V135.218ZM159.009 130.214C159.009 133.507 161.121 135.496 164.616 135.496C165.81 135.496 166.781 135.298 167.729 134.921L168.236 134.723V131.918L167.081 132.377C166.274 132.72 165.529 132.879 164.746 132.879C162.741 132.879 161.808 132.02 161.808 130.118V120.062H168.309V117.339H161.808V111.918H159.009V117.339H156.235V120.062H159.009V130.214Z" clip-rule="evenodd" fill-rule="evenodd"></path>
</svg>