<svg style="width: 77.6px; height: 16.5323px;" aria-label="Fairfield" role="img" preserveAspectRatio="" fill="none" viewBox="0 0 254 55" height="55" width="254" xmlns="http://www.w3.org/2000/svg">
  <g clip-path="url(#clip0_9515_33654)">
    <path fill="#4F718D" d="M162.045 32.9059H179.227C179.216 29.5764 179.029 25.8538 177.881 23.0428C176.615 19.9409 174.363 18.4329 170.997 18.4329C163.666 18.4329 162.161 23.5165 162.045 32.9059ZM158.903 21.9129C161.927 19.0339 166.222 17.4483 170.997 17.4483C181.6 17.4483 187.439 23.1672 187.439 33.5511V33.8907H162.041V35.389C162.041 43.9999 163.438 52.8027 173.799 52.8027C180.688 52.8027 184.774 49.8832 186.29 43.877L186.369 43.5662L187.431 43.7705L187.351 44.1148C185.774 50.844 180.534 54.401 172.197 54.401C166.536 54.401 161.757 52.4305 158.375 48.7023C155.34 45.3576 153.669 40.8463 153.669 36.0005C153.669 30.0433 155.479 25.172 158.903 21.9129ZM61.3743 47.3147V37.3681C58.6041 36.1502 56.2485 35.6509 53.2992 35.6509C47.9425 35.6509 45.2262 38.6261 45.2262 44.4934C45.2262 49.9819 47.7885 52.65 53.0591 52.65C56.2571 52.65 59.5884 50.5096 61.3743 47.3147ZM108.582 17.4478C112.818 17.4478 115.892 20.0679 115.892 23.6778C115.892 25.7059 114.754 28.0744 111.548 28.0744C109.2 28.0744 107.362 26.4126 107.362 24.2916C107.362 22.3036 108.453 21.3921 109.33 20.6602C109.947 20.1452 110.325 19.8047 110.325 19.3177C110.325 18.8773 109.712 18.4326 108.342 18.4326C104.917 18.4326 102.147 20.4568 100.108 24.4498V42.5809C100.108 47.063 100.232 49.9094 100.864 51.1946C101.39 52.2632 102.263 52.3426 104.188 52.42L106.92 52.5073V53.4043H89.8531V53.4065H72.1069V53.4062H61.5327V48.8879C58.9327 52.4462 55.36 54.2486 50.8972 54.2486C42.5137 54.2486 37.0967 50.2702 37.0967 44.1132C37.0967 40.9139 38.4013 38.4896 40.9737 36.9073C43.4747 35.3691 47.2713 34.5893 52.2578 34.5893C55.8473 34.5893 58.2936 35.0308 61.3743 36.2597V26.283C61.3743 21.147 58.4433 18.4321 52.8986 18.4321C49.2431 18.4321 47.2299 19.0729 47.2299 20.2363C47.2299 20.6042 47.4899 20.9941 47.8189 21.4877L47.8196 21.4887L47.82 21.4892L47.82 21.4892C48.3429 22.2732 48.9935 23.2487 48.9935 24.7507C48.9935 27.0874 47.0841 28.9183 44.6468 28.9183C41.9462 28.9183 40.0601 27.2045 40.0601 24.7507C40.0601 20.3821 45.1877 17.4473 52.8192 17.4473C60.7251 17.4473 68.7025 21.268 68.7025 29.8034V42.5806C68.7025 52.2515 69.2681 52.2805 71.9863 52.4198L71.9865 52.4198L73.02 52.4693L74.0357 52.4219C76.7506 52.281 77.316 52.2516 77.316 42.5809V29.1901C77.316 19.5192 76.7507 19.4903 74.0341 19.351L74.0339 19.3509L72.1069 19.2588V18.3666H84.6463V42.5809C84.6463 52.2516 85.212 52.281 87.9305 52.4222L88.7027 52.4583L89.4972 52.42L89.4973 52.42C92.2147 52.281 92.7803 52.2521 92.7803 42.5809V29.1904C92.7803 19.5196 92.2148 19.4905 89.4964 19.351L89.4962 19.3509L87.5713 19.259V18.3645H99.9499V22.7153C102.155 19.1739 104.989 17.4478 108.582 17.4478ZM17.7259 2.13193H23.7342C31.0717 2.13193 35.7712 2.72319 39.7597 14.3747L40.7184 17.209H41.5417V1.14683H0V2.04211L2.0083 2.13167C5.50447 2.26862 6.32981 2.70617 6.32981 13.3493V41.2035C6.32981 51.8466 5.50447 52.2842 2.00646 52.4212L0 52.5104V53.4056H23.0325V52.5104L21.0271 52.4213C15.0606 52.1333 14.2985 51.6932 14.2985 41.2035V28.612H20.1302C23.9566 28.612 27.5709 29.2368 29.7396 36.7826L30.2898 38.7109H31.1256V19.054H30.2898L29.7399 20.9844C27.9792 27.117 24.1895 27.6248 20.1302 27.6248H14.2985V13.3493C14.2985 2.97065 14.5546 2.13193 17.7259 2.13193ZM80.8612 9.4018C83.2865 9.4018 85.047 7.61778 85.047 5.15949C85.047 2.7012 83.2865 0.916924 80.8612 0.916924C78.4445 0.916924 76.7566 2.6614 76.7566 5.15949C76.7566 7.61778 78.4828 9.4018 80.8612 9.4018ZM149.865 42.5806V18.3667H127.109V8.98728C127.109 3.45298 129.97 0.984741 136.384 0.984741C139.982 0.984741 142.696 2.12145 142.696 3.62895C142.696 4.08327 142.403 4.54047 142.063 5.06968L142.062 5.07158C141.558 5.8576 140.932 6.83575 140.932 8.29703C140.932 10.6325 142.841 12.4624 145.279 12.4624C147.979 12.4624 149.865 10.7496 149.865 8.29703C149.865 6.02021 148.335 3.89133 145.557 2.30187C143 0.83889 139.657 -9.53674e-05 136.384 -9.53674e-05C131.836 -9.53674e-05 127.638 1.27776 124.561 3.59805C121.477 5.92384 119.779 9.08783 119.779 12.5077V18.3667H114.09V19.3515H119.779V42.5806C119.779 52.2515 119.214 52.2805 116.498 52.4198L116.498 52.4198L114.57 52.512V53.4062H132.318V52.512L130.393 52.4198L130.393 52.4198C127.675 52.2805 127.109 52.2515 127.109 42.5806V19.3515H139.268C141.908 19.3515 142.535 19.3515 142.535 29.1901V42.5806C142.535 52.2515 141.969 52.2805 139.252 52.4198L139.252 52.4198L137.326 52.512V53.4062H155.072V52.512L153.147 52.4198L153.147 52.4198C150.43 52.2807 149.865 52.2517 149.865 42.5806ZM201.218 42.5816V1.14656H188.681V2.04079L190.606 2.13296L190.606 2.13297C193.324 2.27227 193.89 2.30126 193.89 11.9724V42.5816C193.89 52.2503 193.324 52.2797 190.607 52.4208L188.681 52.5133V53.4051H206.427V52.5133L204.502 52.4208C201.784 52.2797 201.218 52.2503 201.218 42.5816ZM232.347 52.4206V19.351C229.821 18.7086 227.825 18.4334 225.716 18.4334C218.073 18.4334 214.198 24.1895 214.198 35.5412C214.198 43.3279 217.277 52.4206 225.956 52.4206H232.347ZM239.677 42.5819C239.677 52.2506 240.243 52.28 242.959 52.4211L244.886 52.5135V53.4054H226.038C216.228 53.4054 205.747 48.7124 205.747 35.5412C205.747 24.8887 213.959 17.4488 225.716 17.4488C227.857 17.4488 230.248 17.7453 232.347 18.2666V11.9724C232.347 2.3016 231.781 2.27228 229.063 2.13114L227.138 2.04158V1.14682H239.677V42.5819ZM248.378 3.46687C248.378 2.52288 248.41 2.48648 248.659 2.48648H249.47C249.981 2.48648 250.262 2.8756 250.262 3.58261C250.262 4.33125 250.023 4.65097 249.463 4.65097H248.378V3.46687ZM251.005 6.2352L250.986 6.20351C250.901 6.06604 250.703 5.74422 250.622 5.62455C250.342 5.20715 250.033 4.97148 249.492 4.79211C249.763 4.78007 249.984 4.73975 250.202 4.6659C250.768 4.4682 251.106 4.05813 251.106 3.56873C251.106 2.82768 250.464 2.34874 249.47 2.34874H247.045V2.48072L247.249 2.48648C247.534 2.49957 247.611 2.50298 247.611 3.46687V5.96417C247.611 6.9278 247.535 6.93094 247.249 6.9422L247.045 6.9511V7.08229H248.944V6.9511L248.739 6.9422C248.455 6.93094 248.378 6.9278 248.378 5.96417V4.79132H248.781C249.25 4.79132 249.374 4.89057 249.802 5.60858C249.888 5.75129 250.018 5.98957 250.133 6.19984C250.189 6.30301 250.243 6.402 250.29 6.48553C250.417 6.70915 250.495 6.86312 250.557 6.98698L250.605 7.08229H251.889V6.95163L251.707 6.9422C251.463 6.92937 251.245 6.61462 251.005 6.2352ZM249.127 8.87967C251.535 8.87967 253.494 7.01186 253.494 4.71619C253.494 2.41893 251.535 0.550339 249.127 0.550339C246.719 0.550339 244.76 2.41893 244.76 4.71619C244.76 7.01186 246.719 8.87967 249.127 8.87967ZM244.414 4.71619C244.414 2.22988 246.528 0.20705 249.127 0.20705C251.726 0.20705 253.84 2.22988 253.84 4.71619C253.84 7.19987 251.726 9.22087 249.127 9.22087C246.528 9.22087 244.414 7.19987 244.414 4.71619Z" clip-rule="evenodd" fill-rule="evenodd"></path>
  </g>
  <defs>
    <clipPath id="clip0_9515_33654">
      <rect fill="white" height="55" width="254"></rect>
    </clipPath>
  </defs>
</svg>