<svg aria-label="fp" role="img" preserveAspectRatio="" fill="none" viewBox="0 0 196 131" height="131" width="196" xmlns="http://www.w3.org/2000/svg">
  <g clip-path="url(#clip0_16796_28569)">
    <g clip-path="url(#clip1_16796_28569)">
      <path fill="#A0DBE7" d="M195.647 1.08899L176.918 19.8995C176.918 19.8995 199.05 34.5995 195.647 1.08899Z"></path>
      <path fill="#E2E477" d="M154.677 42.3034L173.406 23.4929C173.406 23.4929 151.301 8.8201 154.677 42.3034Z"></path>
      <path fill="#4493C5" d="M195.756 42.1672L176.946 23.4383C176.946 23.4383 162.246 45.57 195.756 42.1672Z"></path>
      <path fill="#E31B23" d="M154.568 1.19774L173.379 19.9266C173.379 19.9266 188.052 -2.17782 154.568 1.19774Z"></path>
      <path fill="#002631" d="M8.22111 120.241C9.8 119.424 10.6983 117.981 10.6983 116.212C10.6983 113.244 8.35722 111.393 4.60056 111.393H0V130.422H5.55333C9.74556 130.422 12.2228 128.407 12.2228 125.004C12.2228 121.956 9.99056 120.649 8.22111 120.213V120.241ZM1.76944 113.054H4.60056C6.56056 113.054 8.87444 113.598 8.87444 116.212C8.87444 118.553 6.83278 119.614 4.79111 119.614H1.76944V113.027V113.054ZM5.55333 128.816H1.76944V121.302H5.36278C7.21389 121.302 10.4261 122.092 10.4261 125.059C10.4261 128.462 7.02333 128.843 5.58056 128.843L5.55333 128.816Z"></path>
      <path fill="#002631" d="M30.6526 111.421H29.1826C29.1826 111.421 23.9288 119.07 23.466 119.751C22.976 119.07 17.6949 111.421 17.6949 111.421H15.626C15.626 111.421 22.4043 121.302 22.5132 121.438V130.449H24.2826V121.466C24.3915 121.275 31.2515 111.421 31.2515 111.421H30.6526Z"></path>
      <path fill="#002631" d="M45.923 115.858C45.923 118.934 48.2913 120.186 50.3874 121.275C52.538 122.391 54.4708 123.426 54.4708 125.821C54.4708 127.672 52.8919 129.088 50.823 129.088C49.4347 129.088 48.0735 128.543 46.903 127.509L46.658 127.291L45.5146 128.571L45.7324 128.788C47.0663 130.041 48.9446 130.776 50.7958 130.776C53.8174 130.776 56.2674 128.516 56.2674 125.767C56.2674 122.364 53.6813 121.03 51.6124 119.941L51.4491 119.859C49.4346 118.798 47.6924 117.899 47.6924 115.885C47.6924 113.871 49.2985 112.836 50.7958 112.836C52.1569 112.836 53.2458 113.081 54.3619 114.388L54.5524 114.633L55.8863 113.489L55.6685 113.244C54.3891 111.774 52.8646 111.148 50.7685 111.148C47.9646 111.148 45.8685 113.163 45.8685 115.885L45.923 115.858Z"></path>
      <path fill="#002631" d="M77.0111 111.421H75.5684V119.696H65.4961V111.421H63.7539V130.449H65.4961V121.329H75.5684V130.449H77.3378V111.421H77.0111Z"></path>
      <path fill="#002631" d="M95.8759 111.421H86.2393V130.449H96.6654V128.816H88.0087V121.248H95.3859V119.587H88.0087V113.054H96.2026V111.421H95.8759Z"></path>
      <path fill="#002631" d="M108.752 122.418H108.942C112.699 122.418 115.34 120.132 115.34 116.838C115.34 113.544 112.754 111.421 109.215 111.421H104.369V130.449H106.139V122.146C107.119 123.208 113.57 130.449 113.57 130.449H115.884C115.884 130.449 109.569 123.344 108.752 122.391V122.418ZM106.139 113.054H109.215C111.202 113.054 113.543 114.061 113.543 116.838C113.543 119.614 111.175 120.785 108.942 120.785H106.139V113.081V113.054Z"></path>
      <path fill="#002631" d="M129.387 111.121H128.299L121.248 130.449H123.126C123.126 130.449 125.522 123.779 125.658 123.398H132.028C132.164 123.807 134.532 130.449 134.532 130.449H136.438L129.415 111.121H129.387ZM126.23 121.765C126.475 121.084 128.38 115.776 128.816 114.497C129.279 115.776 131.184 121.084 131.402 121.765H126.202H126.23Z"></path>
      <path fill="#002631" d="M150.484 111.421H139.649V113.054H144.359V130.449H146.128V113.054H150.811V111.421H150.484Z"></path>
      <path fill="#002631" d="M163.524 111.121C158.243 111.121 154.133 115.422 154.133 120.948C154.133 126.474 158.271 130.776 163.524 130.776C168.778 130.776 172.916 126.447 172.916 120.921C172.916 115.395 168.806 111.121 163.524 111.121ZM163.524 129.061C159.196 129.061 155.929 125.576 155.929 120.921C155.929 116.266 159.196 112.782 163.524 112.782C167.853 112.782 171.092 116.293 171.092 120.921C171.092 125.549 167.853 129.061 163.524 129.061Z"></path>
      <path fill="#002631" d="M193.143 111.421H191.7V127.264C191.7 127.264 191.7 127.454 191.7 127.563C190.584 125.984 180.348 111.448 180.348 111.448H178.497V130.476H180.239V114.578C180.239 114.578 180.239 114.388 180.239 114.279C181.328 115.858 191.673 130.476 191.673 130.476H193.469V111.448H193.143V111.421Z"></path>
      <path fill="#002631" d="M4.24667 5.06343V19.6545H20.0083V23.384H4.24667V42.2218H0V1.25232H22.4039V5.06343H4.24667Z"></path>
      <path fill="#002631" d="M104.289 42.2218V35.7973C103.2 37.3218 99.3621 42.9295 91.0866 42.9295C82.811 42.9295 77.666 36.859 77.666 28.284V1.25232H81.9943V28.284C81.9943 34.7629 85.751 39.2273 91.6582 39.2273C99.226 39.2273 102.765 32.7484 104.289 30.2168V1.25232H108.536V42.1945H104.289V42.2218Z"></path>
      <path fill="#002631" d="M144.005 42.9295C140.548 42.9295 139.187 41.1329 137.663 38.9007L128.298 24.9901H123.48V42.2218H119.206V1.25232H128.761C137.472 1.25232 142.59 5.85288 142.59 13.0668C142.59 19.5457 137.989 23.3023 133.008 24.5273L141.528 36.9407C142.672 38.6012 143.76 39.5268 144.985 39.5268C146.374 39.5268 147.218 38.7373 147.735 38.1657L149.314 39.7445C148.96 40.3162 147.517 42.9295 144.06 42.9295H144.005ZM128.271 5.00899H123.453V21.5873H127.972C132.817 21.5873 138.153 19.4912 138.153 13.0123C138.153 7.67676 134.832 5.00899 128.271 5.00899Z"></path>
      <path fill="#002631" d="M49.1356 43.4467C36.45 43.4467 27.0039 33.7011 27.0039 21.7233C27.0039 9.74556 36.45 0 49.1356 0C61.8211 0 71.2945 9.74556 71.2945 21.7233C71.2945 33.7011 61.8484 43.4467 49.1356 43.4467ZM49.1356 3.75667C38.9545 3.75667 31.3867 11.8417 31.3867 21.7233C31.3867 31.605 38.9545 39.69 49.1356 39.69C59.3167 39.69 66.8845 31.605 66.8845 21.7233C66.8845 11.8417 59.3167 3.75667 49.1356 3.75667Z"></path>
      <path fill="#002631" d="M10.3172 76.3312H4.24667V94.08H0V53.1106H10.1811C18.7561 53.1106 23.7378 57.575 23.7378 64.6528C23.7378 72.8195 16.66 76.3312 10.3172 76.3312ZM9.88167 56.8673H4.24667V72.8739H9.58222C14.21 72.8739 19.3278 70.7778 19.3278 64.5711C19.3278 59.4534 16.0883 56.84 9.88167 56.84V56.8673Z"></path>
      <path fill="#002631" d="M49.1364 95.305C36.4236 95.305 26.9775 85.5595 26.9775 73.5817C26.9775 61.6039 36.4236 51.8583 49.1364 51.8583C61.8492 51.8583 71.2953 61.6039 71.2953 73.5817C71.2953 85.5595 61.8492 95.305 49.1364 95.305ZM49.1364 55.6422C38.9825 55.6422 31.3875 63.7272 31.3875 73.6089C31.3875 83.4906 38.9825 91.5756 49.1364 91.5756C59.2903 91.5756 66.8853 83.4906 66.8853 73.6089C66.8853 63.7272 59.3175 55.6422 49.1364 55.6422Z"></path>
      <path fill="#002631" d="M80.7412 94.08V53.1106H85.0151V94.08H80.7412Z"></path>
      <path fill="#002631" d="M126.175 94.08V85.5867L101.13 60.5423V94.08H96.8838V53.1106H99.4699L126.175 79.7884V53.1106H130.422V94.08H126.175Z"></path>
      <path fill="#002631" d="M155.166 56.8673V94.08H150.919V56.8673H136.491V53.1106H169.621V56.8673H155.166Z"></path>
      <path fill="#002631" d="M182.961 95.2505C179.15 95.2505 175.23 94.1072 171.909 92.3105V87.6011C173.733 88.6899 178.633 91.4394 182.961 91.4394C187.725 91.4394 191.482 88.9077 191.482 84.6611C191.482 81.3399 188.079 78.6722 185.575 77.0116L179.314 72.9011C176.21 70.8866 172.454 67.8649 172.454 62.6655C172.454 55.6694 177.599 51.9944 184.078 51.9944C188.406 51.9944 191.591 53.4372 193.442 54.3627V58.691C191.21 57.4116 187.698 55.751 184.078 55.751C179.613 55.751 176.646 58.5005 176.646 62.3116C176.646 65.6872 179.531 67.7833 182.335 69.6616L188.324 73.636C191.346 75.6505 195.81 78.8355 195.81 84.5249C195.81 91.1672 190.393 95.2777 182.961 95.2777V95.2505Z"></path>
    </g>
  </g>
  <defs>
    <clipPath id="clip0_16796_28569">
      <rect fill="white" height="131" width="196"></rect>
    </clipPath>
    <clipPath id="clip1_16796_28569">
      <rect fill="white" height="130.776" width="196"></rect>
    </clipPath>
  </defs>
</svg>