<svg style="width: 80px; height: 20.7987px;" aria-label="Four Points Flex" role="img" preserveAspectRatio="" fill="none" viewBox="0 0 301 77" height="77" width="301" xmlns="http://www.w3.org/2000/svg">
  <g clip-path="url(#clip0_10913_24697)">
    <path fill="#FFAD3E" d="M49.1999 15.9401C49.1999 22.1362 44.6985 26.1609 39.4028 26.1609C34.1071 26.1609 29.6057 22.1362 29.6057 15.9401C29.6057 9.74414 34.1071 5.71939 39.4028 5.71939C44.6985 5.71939 49.1999 9.74414 49.1999 15.9401ZM39.4028 0C30.7788 0 23.5291 6.44876 23.5156 15.9137L23.5156 15.8872V15.9401L23.5156 15.9137C23.5291 25.3785 30.7788 31.7744 39.4028 31.7744C48.0349 31.7744 55.343 25.3665 55.343 15.8872C55.343 6.40783 48.0349 0 39.4028 0ZM0 31.3505V0.476435H17.37V5.93104H5.93122V13.2921H16.5756V18.429H5.93122V31.3505H0ZM62.9648 19.8588V0.47644H68.949V19.8588C68.949 24.6779 71.9146 26.1607 74.6684 26.1607C77.4222 26.1607 80.3878 24.6779 80.3878 19.8588V0.47644H86.372V19.8588C86.372 27.5906 81.1822 31.7742 74.7214 31.7742C68.2606 31.7742 63.0708 27.5906 63.0708 19.8588H62.9648ZM110.099 10.962C110.099 14.616 107.875 15.9929 104.592 15.9929H100.302V5.984H104.592C107.875 5.984 110.099 7.30793 110.099 10.962ZM100.355 21.1298H104.91L111.264 31.3505H117.619L110.417 20.1236C114.018 18.6408 116.137 15.4104 116.137 10.962C116.137 4.66007 111.794 0.47644 105.227 0.47644H94.3711V31.3505H100.355V21.1298ZM147.962 15.9929C151.193 15.9929 153.47 14.616 153.47 11.0149C153.47 7.41385 151.14 5.984 147.962 5.984H143.514V15.9929H147.962ZM137.53 0.47644H148.439C155.164 0.47644 159.507 4.66007 159.507 10.962C159.507 17.2639 155.164 21.4475 148.439 21.4475H143.461V31.3505H137.477V0.47644H137.53ZM191.812 15.9401C191.812 22.1362 187.311 26.1609 182.015 26.1609C176.719 26.1609 172.218 22.1362 172.218 15.9401C172.218 9.74414 176.719 5.71939 182.015 5.71939C187.311 5.71939 191.812 9.74414 191.812 15.9401ZM182.015 0C173.391 0 166.141 6.44876 166.128 15.9137C166.141 25.3785 173.391 31.7744 182.015 31.7744C190.647 31.7744 197.955 25.3665 197.955 15.8872C197.955 6.40783 190.647 0 182.015 0ZM211.566 0.476435H205.582V31.3505H211.566V0.476435ZM225.6 0.47644H219.669V31.3505H225.6V10.2735H225.865L240.005 31.3505H245.989V0.47644H240.005V21.6064H239.793L225.6 0.47644ZM260.498 5.98399H253.031V0.476435H273.897V5.98399H266.43V31.3505H260.498V5.98399ZM283.321 21.8714L278.502 24.0956C279.561 28.5969 284.221 31.7744 289.358 31.7744C294.495 31.7744 300.003 28.7029 300.003 22.4539C300.003 18.0584 297.302 15.6224 291.9 13.4512L289.835 12.6038C286.446 11.2799 285.545 10.0089 285.545 8.42021C285.545 6.40783 287.187 5.29573 289.411 5.29573C291.635 5.29573 293.33 6.51375 294.654 9.00274L299.102 6.51375C297.725 3.28335 294.442 0 289.199 0C283.957 0 279.667 3.2304 279.667 8.42021C279.667 13.1334 283.109 15.4635 287.346 17.1582L289.305 17.8996C292.483 19.1176 293.807 20.1238 293.807 22.4009C293.807 25.1018 291.741 26.3727 289.305 26.3727C286.128 26.3727 284.168 24.2544 283.321 21.8714ZM99.3467 45.3841H116.717V50.8387H105.278V58.2527H115.922V63.3366H105.278V76.3112H99.3467V45.3841ZM130.113 45.3841H124.129V76.3112H142.134V70.8036H130.113V45.3841ZM149.393 45.3842H166.868V50.8917H155.324V58.041H165.068V63.4426H155.324V70.8037H167.292V76.3112H149.393V45.3842ZM179.737 76.3112L186.728 65.8257L193.718 76.3112H200.709L190.223 60.6359L200.391 45.3842H193.4L186.728 55.446L179.949 45.3842H173.012L183.233 60.6359L172.747 76.3112H179.737Z" clip-rule="evenodd" fill-rule="evenodd"></path>
  </g>
  <defs>
    <clipPath id="clip0_10913_24697">
      <rect fill="white" height="77" width="301"></rect>
    </clipPath>
  </defs>
</svg>