<svg style="width: 62.4px; height: 30.9314px;" aria-label="Four Points" role="img" preserveAspectRatio="" fill="none" viewBox="0 0 196 96" height="96" width="196" xmlns="http://www.w3.org/2000/svg">
  <g clip-path="url(#clip0_7_216)">
    <path fill="#3896D2" d="M195.317 42.6093L176.584 23.9426C176.584 23.9426 161.944 45.996 195.317 42.6093Z" clip-rule="evenodd" fill-rule="evenodd"></path>
    <path fill="#E21B23" d="M154.275 1.79525L173.022 20.4553C173.022 20.4553 187.642 -1.58475 154.275 1.79525Z" clip-rule="evenodd" fill-rule="evenodd"></path>
    <path fill="#9FDAE6" d="M195.208 1.68457L176.555 20.4246C176.555 20.4246 198.588 35.0646 195.208 1.68457Z" clip-rule="evenodd" fill-rule="evenodd"></path>
    <path fill="#E1E376" d="M154.386 42.7266L173.046 23.9799C173.046 23.9799 151.013 9.35328 154.386 42.7266Z" clip-rule="evenodd" fill-rule="evenodd"></path>
    <path fill="#1E627E" d="M31.5641 22.2213C31.5641 12.368 39.1041 4.3213 49.2374 4.3213C59.3774 4.3213 66.9174 12.368 66.9174 22.2213C66.9174 32.068 59.3774 40.1213 49.2374 40.1213C39.1041 40.1213 31.5641 32.068 31.5641 22.2213ZM27.1841 22.2213C27.1841 34.1546 36.5908 43.868 49.2374 43.868C61.8841 43.868 71.3108 34.1546 71.3108 22.2213C71.3108 10.288 61.8841 0.581299 49.2374 0.581299C36.5908 0.581299 27.1841 10.288 27.1841 22.2213ZM128.085 5.57127H123.285V22.0979H127.798C132.612 22.0979 137.938 20.0179 137.938 13.5513C137.938 8.23794 134.625 5.57127 128.085 5.57127ZM143.752 43.3579C140.298 43.3579 138.938 41.5579 137.425 39.3379L128.085 25.4646H123.285V42.6513H119.025V1.8446H128.532C137.212 1.8446 142.305 6.44461 142.305 13.6246C142.305 20.0846 137.712 23.8179 132.758 25.0446L141.245 37.3979C142.392 39.0446 143.458 39.9846 144.678 39.9846C146.058 39.9846 146.898 39.1913 147.412 38.6246L148.985 40.1979L148.948 40.2588C148.545 40.9336 147.095 43.3579 143.752 43.3579ZM104.179 36.2486V42.6486H108.405V1.84863H104.179V30.722C104.13 30.8019 104.08 30.8859 104.028 30.9734L103.972 31.067C102.35 33.784 98.8154 39.702 91.5987 39.702C85.7054 39.702 81.972 35.2486 81.972 28.782V1.84863H77.6587V28.782C77.6587 37.3286 82.972 43.3553 91.0254 43.3553C99.0883 43.3553 102.907 38.0234 104.099 36.3602L104.179 36.2486ZM4.51671 20.1632V5.64991H22.6167V1.84991H0.290039V42.6499H4.51671V23.8966H20.23V20.1632H4.51671ZM10.1385 57.2379H4.52516V73.1979H9.84516C14.4452 73.1979 19.5518 71.1179 19.5518 64.9313C19.5518 59.8246 16.3118 57.2379 10.1385 57.2379ZM10.5585 76.6446H4.52516V94.3246H0.285156V53.5046H10.4252C18.9652 53.5046 23.9318 57.9646 23.9318 65.0046C23.9318 73.1313 16.8852 76.6446 10.5585 76.6446ZM31.5509 73.9206C31.5509 64.0673 39.1042 56.0206 49.2376 56.0206C59.3709 56.0206 66.9176 64.0673 66.9176 73.9206C66.9176 83.7539 59.3709 91.8139 49.2376 91.8139C39.1042 91.8139 31.5509 83.7539 31.5509 73.9206ZM27.1709 73.9206C27.1709 85.8539 36.5842 95.5539 49.2376 95.5539C61.8842 95.5539 71.3042 85.8539 71.3042 73.9206C71.3042 61.9873 61.8842 52.2739 49.2376 52.2739C36.5842 52.2739 27.1709 61.9873 27.1709 73.9206ZM80.7266 94.3266H84.9799V53.5066H80.7266V94.3266ZM126.001 85.8546V94.3279H130.235V53.5079H126.001V80.0946L99.3946 53.5079H96.8213V94.3279H101.055V60.9079L126.001 85.8546ZM154.895 57.2379V94.3246H150.648V57.2379H136.275V53.5046H169.268V57.2379H154.895ZM171.561 92.5406C174.867 94.3273 178.754 95.4806 182.561 95.4806C189.947 95.4806 195.347 91.3873 195.347 84.7739C195.347 79.0939 190.894 75.9206 187.881 73.9206L181.907 69.9606C179.107 68.0939 176.241 66.0073 176.241 62.6339C176.241 58.8206 179.181 56.1006 183.641 56.1006C187.241 56.1006 190.754 57.7473 192.974 59.0339V54.7273C191.121 53.7873 187.941 52.3539 183.641 52.3539C177.181 52.3539 172.061 56.0206 172.061 62.9873C172.061 68.1673 175.807 71.1806 178.901 73.1939L185.147 77.2939C187.661 78.9473 191.041 81.6073 191.041 84.9206C191.041 89.1539 187.314 91.674 182.561 91.674C178.254 91.674 173.361 88.9406 171.561 87.8539V92.5406Z" clip-rule="evenodd" fill-rule="evenodd"></path>
  </g>
  <defs>
    <clipPath id="clip0_7_216">
      <rect fill="white" height="96" width="196"></rect>
    </clipPath>
  </defs>
</svg>