<svg aria-label="xf" role="img" preserveAspectRatio="" fill="none" viewBox="0 0 300 100" height="100" width="300" xmlns="http://www.w3.org/2000/svg">
  <g clip-path="url(#clip0_7_548)">
    <path fill="#003B5C" d="M221.351 96.6531L222.406 96.1589C222.698 97.2596 223.63 98.0345 224.888 98.0345C226 98.0345 226.966 97.428 226.966 96.2263C226.966 95.1369 226.191 94.6652 224.956 94.1711L224.259 93.9015C222.709 93.2726 221.777 92.419 221.777 91.0489C221.777 89.4092 223.103 88.3759 224.81 88.3759C226.517 88.3759 227.572 89.4316 227.988 90.5772L227.011 91.0826C226.595 90.1279 225.91 89.5552 224.843 89.5552C223.833 89.5552 223.058 90.1167 223.058 91.0713C223.058 91.8126 223.507 92.3966 224.754 92.8795L225.461 93.1603C227.179 93.8454 228.269 94.6203 228.269 96.2376C228.269 98.1805 226.652 99.225 224.877 99.225C223.103 99.225 221.699 98.1693 221.339 96.6531H221.351ZM203.785 95.9568C203.785 97.2034 202.999 97.9334 201.393 97.9334V97.9222H199.271V93.8566H201.382C202.999 93.8566 203.785 94.7102 203.785 95.9568ZM203.201 91.2061C203.201 92.172 202.55 92.8571 201.326 92.8571H199.259V89.6787H201.36C202.595 89.6787 203.201 90.2403 203.201 91.2061ZM201.607 88.5219H197.99V99.0677H201.472C203.898 99.0677 205.054 97.8099 205.054 96.0579C205.054 94.5417 204.19 93.5309 202.887 93.2164C203.898 92.8795 204.448 92.026 204.448 91.004C204.448 89.6675 203.493 88.5219 201.607 88.5219ZM210.456 93.3287L213.399 88.5219H214.859L211.096 94.5305V99.079H209.816V94.5305L206.054 88.5219H207.514L210.456 93.3287ZM237.354 93.2838V88.5219H238.635V99.079H237.354V94.4743H232.121V99.079H230.852V88.5219H232.121V93.2838H237.354ZM241.577 88.5219V99.079H247.372V97.8885H242.857V94.362H246.586V93.194H242.857V89.7124H247.237V88.5219H241.577ZM255.784 91.9586C255.784 93.4411 254.829 94.2048 253.347 94.2048H251.37V89.7124H253.347C254.829 89.7124 255.784 90.4761 255.784 91.9586ZM251.37 95.3278H253.617L253.605 95.3391L256.076 99.079H257.469L254.841 95.1369C256.256 94.6877 257.087 93.5309 257.087 91.9586C257.087 89.9482 255.717 88.5219 253.493 88.5219H250.09V99.0677H251.37V95.3278ZM264.208 90.1729L266.24 95.4514H262.164L264.196 90.1729H264.208ZM263.579 88.5219L259.39 99.0677H260.771L261.726 96.6306H266.723L267.678 99.0677H269.059L264.87 88.5219H263.59H263.579ZM269.385 89.7124V88.5219H276.248V89.7124H273.462V99.079H272.182V89.7124H269.385ZM283.3 97.9896C285.422 97.9896 287.343 96.3499 287.343 93.8004C287.343 91.251 285.422 89.6113 283.3 89.6113C281.177 89.6113 279.245 91.251 279.245 93.8004C279.245 96.3499 281.166 97.9896 283.3 97.9896ZM277.931 93.8004C277.931 90.5659 280.425 88.3759 283.3 88.3759C286.175 88.3759 288.646 90.5547 288.646 93.8004C288.646 97.0462 286.153 99.225 283.3 99.225C280.447 99.225 277.931 97.0349 277.931 93.8004ZM298.72 96.9339V88.5219H300.001V99.079H298.709L292.79 90.667H292.723V99.079H291.443V88.5219H292.734L298.653 96.9339H298.72Z" clip-rule="evenodd" fill-rule="evenodd"></path>
    <path fill="#FFAD3E" d="M49.0677 15.8468C49.0677 22.0575 44.5978 26.0557 39.2968 26.0557C34.0408 26.0557 29.5259 22.0575 29.5259 15.8468C29.5259 9.63612 33.9958 5.63792 39.2968 5.63792C44.5978 5.63792 49.0677 9.63612 49.0677 15.8468ZM39.2968 0C30.7052 0 23.45 6.37915 23.45 15.8468C23.45 25.3145 30.6939 31.6936 39.2968 31.6936C47.8997 31.6936 55.1885 25.3145 55.1885 15.8468C55.1885 6.37915 47.8885 0 39.2968 0ZM0 31.2669V0.438022H17.3293V5.86255H5.95238V13.2413H16.5431V18.3289H5.95238V31.2669H0ZM62.8371 19.8001V0.438022H68.7895V19.8001C68.7895 24.6182 71.7433 26.1006 74.4724 26.1006C77.2015 26.1006 80.1664 24.6294 80.1664 19.8001V0.438022H86.1188V19.8001C86.1188 27.527 80.9526 31.6936 74.4836 31.6936C68.0146 31.6936 62.8484 27.527 62.8484 19.8001H62.8371ZM109.861 10.894C109.861 14.4991 107.649 15.8917 104.392 15.8917V15.8805H100.135V5.89624H104.392C107.649 5.89624 109.861 7.28887 109.861 10.894ZM100.135 21.058H104.74L104.751 21.0692L111.085 31.2781H117.42L110.209 20.0696C113.781 18.5535 115.903 15.3302 115.903 10.9052C115.903 4.60469 111.557 0.438022 104.998 0.438022H94.1828V31.2669H100.135V21.058ZM147.641 15.8917C150.854 15.8917 153.156 14.4991 153.156 10.894C153.156 7.28887 150.854 5.89624 147.641 5.89624H143.216V15.8805H147.641V15.8917ZM137.264 0.438022H148.158C154.84 0.438022 159.187 4.60469 159.187 10.9052C159.187 17.2058 154.84 21.3724 148.158 21.3724H143.205V31.2669H137.253V0.438022H137.264ZM191.408 15.8468C191.408 22.0575 186.939 26.0557 181.638 26.0557C176.382 26.0557 171.867 22.0575 171.867 15.8468C171.867 9.63612 176.337 5.63792 181.638 5.63792C186.939 5.63792 191.408 9.63612 191.408 15.8468ZM181.638 0C173.046 0 165.791 6.37915 165.791 15.8468C165.791 25.3145 173.035 31.6936 181.638 31.6936C190.24 31.6936 197.529 25.3145 197.529 15.8468C197.529 6.37915 190.229 0 181.638 0ZM211.13 0.438022H205.178V31.2669H211.13V0.438022ZM225.146 0.438022H219.204V31.2669H225.146V10.2089H225.37L239.521 31.2669H245.474V0.438022H239.521V21.496H239.308L225.146 0.438022ZM259.928 5.90747H252.505V0.438022H273.304V5.90747H265.881V31.2669H259.928V5.90747ZM277.914 24.0094L277.909 24.0117V23.9892L277.914 24.0094ZM277.914 24.0094L282.727 21.7992C283.592 24.1914 285.546 26.314 288.679 26.314C291.117 26.314 293.194 25.0562 293.194 22.3607C293.194 20.1033 291.847 19.1038 288.724 17.8459L286.77 17.1047C282.559 15.4088 279.088 13.0615 279.088 8.37826C279.088 3.21204 283.378 0 288.59 0C293.801 0 297.103 3.25696 298.484 6.51393L294.059 8.98473C292.756 6.51393 291.06 5.28976 288.803 5.28976C286.546 5.28976 284.94 6.37916 284.94 8.41195C284.94 10.018 285.849 11.2758 289.241 12.5786L291.33 13.3985C296.71 15.566 299.405 18.0031 299.405 22.3832C299.405 28.6388 293.936 31.6712 288.769 31.6712C283.611 31.6712 279.012 28.5135 277.914 24.0094ZM198.708 45.2606H216.026V50.6851H204.649V58.0639H215.251V63.1514H204.649V76.0895H198.708V45.2606ZM229.402 45.2606H223.461V76.0895H241.431V70.62H229.402V45.2606ZM248.641 45.2606H266.094V50.7301H254.593V57.8954H264.274V63.275H254.593V70.62H266.487V76.0895H248.641V45.2606ZM278.909 76.0895L285.894 65.6672L292.891 76.0895H299.843L289.376 60.456L299.529 45.2606H292.588L285.894 55.2898L279.167 45.2606H272.226L282.424 60.456L271.957 76.0895H278.909Z" clip-rule="evenodd" fill-rule="evenodd"></path>
  </g>
  <defs>
    <clipPath id="clip0_7_548">
      <rect fill="white" height="100" width="300"></rect>
    </clipPath>
  </defs>
</svg>