<svg style="width: 56.8px; height: 53.33px;" aria-label="Gaylord Hotels" role="img" preserveAspectRatio="" fill="none" viewBox="0 0 179 169" height="169" width="179" xmlns="http://www.w3.org/2000/svg">
  <path fill="#045057" d="M105.571 59.2102C99.1941 64.4108 102.419 73.9146 102.419 73.9146L102.426 73.9123C106.859 86.9056 99.0988 88.354 99.0988 88.354C103.813 81.9421 97.6969 74.3888 97.6969 74.3888C92.852 66.975 94.2423 60.7957 94.2423 60.7957C85.9171 61.8 85.0732 73.6263 85.0732 73.6263C83.4924 85.8757 77.1503 83.5858 77.1503 83.5858C83.1948 80.8797 81.0676 72.3384 81.0676 72.3384C78.8381 59.3055 83.8225 56.0066 83.8225 56.0066C75.7298 54.3978 69.8132 63.2577 69.8132 63.2577C63.6315 72.7219 58.8703 68.0468 58.8703 68.0468C64.2453 68.27 66.6538 60.7097 66.6538 60.7097C72.4821 46.5005 79.1008 47.0631 79.1008 47.0631C74.2978 41.9671 64.2313 45.7263 64.2313 45.7263C51.6797 50.1458 49.9361 43.6572 49.9361 43.6572C54.9042 46.3261 62.2157 41.5626 62.2157 41.5626C72.6843 33.7001 79.2054 37.2361 79.2054 37.2361C78.3266 31.1474 67.9347 29.2551 67.9347 29.2551C56.3154 26.3142 58.3426 19.8814 58.3426 19.8814C60.321 24.9472 71.3336 24.8891 71.3336 24.8891C84.0038 25.0936 86.224 30.7708 86.224 30.7708C88.8696 22.4364 81.9347 17.1335 81.9347 17.1335C72.3589 9.43841 77.1758 3.89375 77.1758 3.89375C77.4827 10.1986 86.3286 14.6692 86.3286 14.6692C97.5249 20.9671 95.9835 28.7413 95.9835 28.7413C102.746 23.443 98.2061 13.7602 98.2061 13.7602C93.9679 2.74296 100.573 0.75293 100.573 0.75293C96.853 5.70942 104.02 15.6247 104.02 15.6247C110.323 24.7845 105.522 32.0425 105.522 32.0425V38.5752L104.069 38.5566C100.824 32.9864 94.6909 33.1259 94.6909 33.1259C83.0204 33.9465 83.146 44.7383 83.146 44.7383C83.2157 53.1099 90.9248 56.4971 94.7816 56.3065C99.2708 56.0833 101.135 54.4002 101.256 54.2886V48.7625L96.5973 46.9492V46.261H108.265V46.9003L105.571 48.7183V59.2102ZM22.4035 124.328V125.372L22.4058 125.374C22.4058 127.218 22.4755 128.122 22.615 129.061C20.1763 130.419 17.003 131.149 13.8993 131.149C6.57852 131.149 0.754883 125.755 0.754883 118.797C0.754883 111.839 6.78543 106.725 15.0501 106.725C17.6632 106.725 20.174 107.213 22.615 108.222L21.6735 114.901C21.6735 115.11 21.5689 115.215 21.3945 115.215C21.2201 115.215 21.0807 115.11 21.0109 114.936L20.2437 111.874C19.6858 109.821 18.1863 109.091 14.5596 109.091C8.63365 109.091 4.30951 113.406 4.30951 118.867C4.30951 124.328 8.42442 128.747 13.5134 128.747C17.5935 128.747 19.1627 127.911 19.1627 125.755V123.842C19.1627 122.901 18.9535 122.659 17.977 122.345L15.6755 121.58C15.5011 121.51 15.3965 121.371 15.3965 121.197C15.3965 120.99 15.5709 120.85 15.815 120.85L25.0886 120.885C25.3676 120.885 25.5071 120.987 25.5071 121.231C25.5071 121.371 25.4373 121.51 25.3327 121.545L23.2404 122.45C22.5081 122.761 22.4035 123.005 22.4035 124.328ZM27.7482 130.452H36.4639C36.7429 130.452 36.8824 130.312 36.8824 130.103C36.8824 129.963 36.8126 129.859 36.6034 129.756L34.4762 128.817L33.9531 128.541L33.9366 128.535C33.8447 128.505 33.8117 128.494 33.7788 128.296C33.7788 128.192 33.7788 128.087 33.8485 127.948L34.0926 127.183L36.2547 121.338C37.8239 121.269 38.9747 121.234 39.7419 121.234C40.5091 121.234 41.6947 121.269 43.264 121.373L45.5307 127.253C45.6701 127.671 45.7748 128.087 45.7748 128.296C45.7748 128.575 45.705 128.68 45.0424 128.922L42.9152 129.756C42.706 129.861 42.6363 129.966 42.6363 130.103C42.6363 130.312 42.7758 130.452 43.0896 130.452H52.2935C52.5725 130.452 52.712 130.312 52.712 130.103C52.712 129.963 52.6422 129.859 52.433 129.756L50.6197 128.957C49.8525 128.61 49.7827 128.575 49.5735 128.192C49.2596 127.566 48.353 125.514 47.516 123.391L43.1222 112.362C42.3898 110.554 41.8319 108.919 41.3786 107.213L41.2739 106.832H38.7283L38.5888 107.317C38.1354 109.021 37.2288 111.667 36.3918 113.755L31.8585 125.342L31.3005 126.697L30.8123 127.811C30.5333 128.401 30.4636 128.471 29.6267 128.854L27.6389 129.759C27.4297 129.863 27.3251 129.968 27.3251 130.105C27.3251 130.314 27.4995 130.454 27.7436 130.454L27.7482 130.452ZM39.707 112.36L42.3573 118.969C42.1316 118.977 41.917 118.985 41.7141 118.993L41.7078 118.993L41.7059 118.993C41.0348 119.019 40.4911 119.039 40.0906 119.039C39.3583 119.039 38.626 119.004 37.1614 118.934L39.707 112.358V112.36ZM65.2928 116.047L64.9452 115.389L63.6549 113.092C62.2252 110.516 60.7605 108.673 59.3656 107.838C58.2149 107.143 56.0877 106.655 54.2743 106.655C53.5769 106.655 53.263 106.829 53.263 107.178C53.263 107.422 53.3328 107.492 53.7164 107.631L54.1 107.806L54.4836 107.91C55.7738 108.364 57.2384 109.51 58.2149 110.8C59.819 112.923 61.5975 115.915 63.2713 119.358L63.2016 126.455C63.1667 126.836 63.1667 127.046 63.1667 127.081C63.1667 127.29 63.1667 127.534 63.1318 127.776C63.097 128.436 63.0272 128.508 62.0159 128.854L59.2262 129.898L59.1964 129.91L59.1677 129.921C59.0355 129.971 58.9779 129.993 58.9472 130.175C58.9472 130.349 59.0867 130.454 59.3308 130.454H70.2085C70.4526 130.454 70.5921 130.349 70.5921 130.175C70.5921 130.067 70.5507 130.043 70.4361 129.974L70.4357 129.974C70.4016 129.954 70.361 129.93 70.3132 129.898L67.3142 128.82C66.7213 128.61 66.6167 128.471 66.5818 128.02V127.357L66.547 126.558L66.5121 118.972L71.2896 111.423C72.3009 109.824 72.7891 109.3 73.3819 109.056L73.8701 108.882L76.625 107.803C76.8342 107.734 76.9389 107.629 76.9389 107.492C76.9389 107.248 76.7645 107.143 76.4855 107.143H67.5234C67.2444 107.143 67.1049 107.248 67.1049 107.492C67.1049 107.596 67.1747 107.701 67.349 107.803L68.9531 108.708C69.1973 108.882 69.3367 109.019 69.3367 109.126C69.3367 109.233 69.1624 109.649 68.6742 110.414L65.2928 116.047ZM87.5748 110.9V109.717C87.6096 109.194 87.7142 109.126 88.4466 108.847L91.2015 107.803C91.4107 107.734 91.4804 107.664 91.4804 107.492C91.4804 107.283 91.3409 107.143 91.0968 107.143L80.777 107.248C80.5329 107.248 80.4283 107.352 80.4283 107.527C80.4283 107.643 80.4595 107.666 80.5322 107.72C80.5683 107.747 80.6146 107.781 80.6724 107.838L83.2529 108.847C83.8109 109.091 83.9853 109.231 84.055 109.473C84.1247 109.751 84.1945 111.005 84.2294 112.778V115.006L84.334 122.347V126.523L84.3311 126.645V126.645C84.299 127.997 84.2941 128.2 84.1247 128.471C84.0201 128.61 83.8109 128.75 83.4273 128.889L80.9514 129.898C80.9358 129.904 80.9211 129.91 80.9071 129.915L80.8929 129.921C80.7608 129.971 80.7031 129.993 80.6724 130.175C80.6724 130.349 80.8119 130.454 81.056 130.454H95.8394C96.3277 130.454 96.6764 130.14 96.6764 129.584L96.8856 124.749C96.8856 124.505 96.8159 124.4 96.6066 124.4C96.4671 124.4 96.3625 124.47 96.2579 124.609L94.8979 127.185C94.4445 127.987 94.1307 128.194 92.5266 128.194H92.422L88.7255 128.159C88.2025 128.159 87.9583 128.124 87.8537 127.95C87.7491 127.811 87.7142 127.499 87.6794 126.49V126.49C87.6794 126.315 87.6794 125.723 87.6445 124.681C87.6445 124.376 87.6371 124.049 87.6291 123.696L87.6291 123.696C87.6198 123.284 87.6096 122.837 87.6096 122.35L87.5399 114.731V112.992V112.992C87.5399 112.401 87.5399 111.739 87.5748 110.905V110.9ZM104.369 109.647C106.878 107.768 110.086 106.725 113.259 106.725V106.722C120.443 106.722 125.881 111.976 125.881 118.934C125.881 125.893 120.094 131.147 112.666 131.147C105.239 131.147 99.8359 126.032 99.8359 118.934C99.8359 115.073 101.407 111.839 104.369 109.647ZM103.286 118.521C103.286 124.295 107.679 128.851 113.188 128.852C118.451 128.851 122.426 124.746 122.426 119.388C122.426 113.613 118.067 109.091 112.734 109.091C107.401 109.091 103.286 113.162 103.286 118.521ZM141.747 126.625C143.84 128.852 144.465 129.408 145.479 129.896C146.281 130.245 147.466 130.452 148.896 130.452C150.047 130.452 150.396 130.312 150.396 129.896C150.396 129.582 150.256 129.477 149.594 129.236C148.059 128.68 147.048 127.913 145.025 125.758L139.239 119.53C142.759 118.765 144.956 116.331 144.956 113.232C144.956 111.144 144.014 109.266 142.445 108.082C141.085 107.073 139.585 106.69 136.865 106.69L128.603 106.794C128.359 106.794 128.219 106.934 128.219 107.143C128.219 107.283 128.289 107.422 128.463 107.457L131.009 108.396C131.393 108.501 131.602 108.64 131.707 108.745C131.776 108.849 131.811 108.989 131.811 109.163C131.846 109.303 131.846 109.651 131.846 110.207L131.881 111.667L131.916 112.955L131.986 122.452V124.749L131.951 126.383C131.951 126.717 131.938 126.989 131.928 127.206C131.921 127.35 131.916 127.469 131.916 127.566C131.916 127.706 131.881 127.843 131.811 127.913C131.741 128.052 131.707 128.087 131.183 128.296L128.463 129.445C128.443 129.453 128.423 129.46 128.406 129.467C128.273 129.518 128.215 129.54 128.184 129.724C128.184 129.898 128.324 130.001 128.568 130.001H138.646C138.89 130.001 139.065 129.861 139.065 129.654C139.065 129.48 138.96 129.375 138.82 129.305L136.205 128.401C135.821 128.262 135.473 128.09 135.403 127.948C135.302 127.813 135.298 127.743 135.267 127.078L135.263 127.008L135.194 119.806L135.368 119.841L141.75 126.625H141.747ZM135.157 117.753V110.1C135.157 108.987 135.401 108.812 137.04 108.812C139.585 108.812 141.538 110.656 141.538 113.057C141.538 115.98 139.481 117.684 135.924 117.753H135.157ZM164.37 107.073C167.474 107.073 169.287 107.352 171.031 108.013C175.39 109.751 178.249 113.959 178.249 118.588C178.249 123.598 174.901 128.192 170.019 129.791C168.383 130.347 167.302 130.452 165.07 130.452H163.256L161.339 130.382L159.386 130.347H154.399C154.155 130.347 154.015 130.242 154.015 130.033C154.015 129.896 154.12 129.756 154.259 129.687L156.352 128.919C157.291 128.573 157.396 128.466 157.43 127.841C157.447 127.689 157.456 127.536 157.465 127.388L157.465 127.387C157.474 127.231 157.482 127.079 157.5 126.936C157.5 126.762 157.5 126.137 157.535 125.058C157.57 123.703 157.57 122.904 157.57 122.659V122.659L157.535 115.18C157.535 112.953 157.465 110.726 157.396 109.717C157.326 109.126 157.221 109.019 156.489 108.743L153.943 107.734C153.898 107.698 153.861 107.672 153.829 107.65C153.738 107.587 153.699 107.561 153.699 107.457C153.699 107.248 153.804 107.178 154.083 107.178H159.941L161.615 107.143L163.394 107.108C163.707 107.073 164.056 107.073 164.37 107.073H164.37ZM160.885 126.904C160.885 128.052 161.583 128.329 164.791 128.329V128.331C170.682 128.331 174.936 124.537 174.936 118.937C174.936 113.336 170.647 109.3 164.721 109.3C161.583 109.3 160.781 109.684 160.781 111.005L160.885 126.904ZM48.8481 166.781L46.3722 165.807C45.7445 165.563 45.6748 165.531 45.5702 165.284C45.4656 165.11 45.4307 164.624 45.4307 163.475C45.4307 163.451 45.4296 163.415 45.4279 163.366L45.4244 163.27C45.4143 163.001 45.3958 162.507 45.3958 161.771C45.3609 161.181 45.3609 160.518 45.3609 159.753L45.2912 151.856V149.768C45.3261 148.725 45.3261 148.134 45.3261 148.029V147.506C45.3261 146.186 45.3609 146.081 46.0584 145.802L48.6738 144.793C48.6936 144.785 48.7121 144.778 48.7292 144.772C48.8631 144.721 48.9179 144.7 48.9179 144.517C48.9179 144.31 48.7784 144.203 48.5343 144.203H38.7027C38.4586 144.203 38.354 144.307 38.354 144.482C38.354 144.598 38.3851 144.621 38.4579 144.675C38.4939 144.702 38.5403 144.736 38.5981 144.793L41.074 145.732C41.4227 145.872 41.7366 146.046 41.8063 146.116C41.9458 146.256 42.0155 146.672 42.0155 147.646L42.1202 154.153C41.2484 154.258 40.3417 154.292 38.4237 154.292H33.0185C31.5539 154.292 30.4031 154.258 29.3918 154.153L29.4267 147.822V147.267L29.431 147.165C29.4618 146.423 29.466 146.322 29.5662 146.188C29.636 146.084 29.8452 145.944 30.2288 145.805L32.7396 144.761L32.7741 144.747L32.795 144.739C32.9289 144.688 32.9837 144.667 32.9837 144.484C32.9837 144.31 32.8442 144.205 32.6001 144.205H22.7685C22.4895 144.205 22.3849 144.31 22.3849 144.519C22.3849 144.658 22.4895 144.796 22.629 144.865L25.1746 145.839C25.5582 145.979 25.8023 146.118 25.907 146.258C26.0116 146.432 26.0464 146.848 26.0813 148.032L26.1162 149.875L26.1511 151.824L26.2208 160.209L26.1859 162.088L26.1511 163.864C26.1162 165.082 26.0813 165.324 25.9418 165.533C25.8415 165.667 25.6771 165.736 25.2333 165.924L25.1746 165.949L22.8033 166.818C22.629 166.888 22.5592 166.993 22.5592 167.167C22.5592 167.342 22.6639 167.444 22.908 167.444H32.7744C33.0534 167.444 33.158 167.339 33.158 167.095C33.158 166.956 33.0883 166.818 32.9488 166.749L30.4031 165.844C29.5662 165.533 29.4965 165.391 29.4965 163.722L29.3918 156.799C30.2288 156.694 31.3447 156.659 32.9139 156.659L38.4237 156.694L40.2022 156.729C40.9694 156.729 41.4576 156.729 41.632 156.764C41.7366 156.764 41.9109 156.764 42.1202 156.799L42.0853 163.027C42.0853 163.131 42.0853 163.445 42.0504 164.001C42.0504 164.319 42.0356 164.562 42.0253 164.731C42.0198 164.822 42.0155 164.891 42.0155 164.94C42.0155 165.114 41.9807 165.286 41.9109 165.356C41.8412 165.531 41.6668 165.635 41.2135 165.81L38.7376 166.784C38.5981 166.853 38.5283 166.993 38.5283 167.13C38.5283 167.339 38.6329 167.444 38.9119 167.444H48.7087C48.9528 167.444 49.0923 167.339 49.0923 167.13C49.0923 166.991 48.9876 166.853 48.8481 166.784V166.781ZM55.9295 146.637C58.4403 144.758 61.6462 143.715 64.8196 143.715V143.712C72.0009 143.712 77.4409 148.966 77.4409 155.924C77.4409 162.883 71.6522 168.137 64.2268 168.137C56.8013 168.137 51.3961 163.022 51.3961 155.924C51.3961 152.063 52.9654 148.829 55.9295 146.637ZM54.8485 155.511C54.8485 161.285 59.24 165.842 64.7498 165.842C70.0132 165.842 73.9886 161.736 73.9886 156.378C73.9886 150.603 69.6296 146.081 64.2965 146.081C58.9634 146.081 54.8485 150.152 54.8485 155.511ZM98.499 143.192C98.3969 143.192 98.3288 143.192 98.2944 143.226L98.0503 143.401C97.1436 144.061 96.5159 144.166 93.8308 144.166L85.4963 144.131C82.846 144.131 81.9743 144.061 81.5558 143.747L81.2071 143.401L80.963 143.261C80.8932 143.192 80.8235 143.192 80.7537 143.192C80.5794 143.192 80.4399 143.366 80.4399 143.645L80.5445 150.603C80.5445 150.812 80.6142 150.949 80.8235 150.949C80.963 150.949 81.0327 150.949 81.1024 150.705L82.4973 147.192C82.7414 146.53 82.9158 146.425 83.8573 146.425H88.1117L88.0769 162.917L88.042 163.996C88.042 164.379 88.0233 164.649 88.0133 164.793C88.0096 164.846 88.0071 164.882 88.0071 164.901C88.0071 165.04 87.9723 165.18 87.9025 165.319C87.8328 165.493 87.7281 165.563 87.2051 165.737L84.2758 166.886C84.2636 166.891 84.2519 166.895 84.2407 166.9L84.2179 166.908C84.0853 166.959 84.0276 166.981 83.9968 167.165C83.9968 167.339 84.1363 167.442 84.4153 167.442H94.8746C95.1187 167.442 95.2582 167.372 95.2582 167.165C95.2582 167.058 95.2171 167.033 95.1034 166.964C95.0689 166.943 95.0278 166.918 94.9792 166.886L92.2941 165.842C91.771 165.633 91.6315 165.531 91.5269 165.319C91.4223 165.075 91.3874 164.205 91.3525 162.536L91.3176 146.393L94.7002 146.463C96.3369 146.497 96.5485 146.602 96.9669 147.541L98.2921 150.742C98.3434 150.871 98.4136 150.905 98.4879 150.941C98.5146 150.953 98.5417 150.966 98.5687 150.984C98.778 150.984 98.8477 150.88 98.8477 150.638L98.8128 143.645C98.8128 143.298 98.7431 143.192 98.499 143.192ZM118.727 161.806C118.797 161.562 118.867 161.562 119.006 161.562L119.009 161.56C119.218 161.56 119.322 161.667 119.322 161.908L119.218 165.598C119.183 167.197 119.009 167.442 117.683 167.442H102.726C102.447 167.442 102.342 167.339 102.342 167.165C102.342 166.975 102.384 166.954 102.486 166.904L102.486 166.904L102.487 166.904C102.505 166.895 102.526 166.885 102.548 166.873C102.56 166.866 102.573 166.859 102.586 166.851L104.469 166.191C105.829 165.668 106.108 165.424 106.108 164.624L106.143 163.057V161.004L106.178 158.221V153.874L106.108 151.263L106.073 148.515L106.062 148.218C106.003 146.579 105.996 146.381 105.864 146.184C105.794 146.079 105.69 145.974 105.515 145.905C105.271 145.765 105.027 145.663 104.504 145.488L102.551 144.756C102.506 144.721 102.469 144.695 102.437 144.673C102.346 144.61 102.307 144.583 102.307 144.479C102.307 144.235 102.412 144.166 102.9 144.166H102.9C103.04 144.166 103.214 144.166 103.388 144.2H105.411L107.956 144.235C110.014 144.235 112.664 144.166 115.105 144.026C116.637 143.956 117.091 143.921 118.346 143.782L118.416 149.557C118.416 149.801 118.311 149.94 118.137 149.94C118.131 149.936 118.125 149.933 118.119 149.929C118.112 149.925 118.104 149.921 118.097 149.917C118.094 149.915 118.092 149.914 118.089 149.913C118.085 149.91 118.081 149.908 118.077 149.906L118.054 149.895C117.979 149.858 117.909 149.824 117.858 149.696L117.16 147.957C116.846 147.262 116.498 146.741 116.149 146.602C115.696 146.358 115.068 146.323 112.139 146.323H109.349L109.419 154.325H109.872C110.604 154.36 111.651 154.395 112.383 154.395C114.894 154.395 115.312 154.255 115.87 153.421L116.567 152.307C116.707 152.063 116.742 152.063 116.846 152.063C116.986 152.063 117.091 152.202 117.091 152.447L117.125 159.649C117.125 159.893 117.021 159.997 116.846 159.997C116.819 159.979 116.791 159.965 116.763 159.952C116.688 159.915 116.619 159.881 116.567 159.753L115.696 157.84C115.207 156.761 115.103 156.657 114.231 156.622C114.196 156.622 114.022 156.622 113.673 156.587C113.499 156.587 112.871 156.587 111.895 156.552H109.419V162.466C109.419 164.275 109.488 164.868 109.733 165.007C109.905 165.147 111.509 165.217 113.81 165.217C116.914 165.217 117.263 165.077 117.855 163.72L118.727 161.806ZM138.751 161.388C138.611 161.388 138.507 161.457 138.402 161.597L137.042 164.171C136.589 164.97 136.275 165.179 134.671 165.179H134.566L130.87 165.145C130.347 165.145 130.102 165.11 129.998 164.935C129.893 164.796 129.858 164.482 129.824 163.473C129.824 163.299 129.824 162.708 129.789 161.664C129.789 161.359 129.781 161.032 129.773 160.68L129.773 160.679C129.764 160.267 129.754 159.82 129.754 159.333L129.684 151.714V149.975C129.684 149.385 129.684 148.722 129.719 147.888V146.704C129.754 146.181 129.858 146.114 130.591 145.835L133.346 144.791C133.555 144.721 133.625 144.651 133.625 144.479C133.625 144.27 133.485 144.131 133.241 144.131L122.921 144.235C122.677 144.235 122.572 144.34 122.572 144.514C122.572 144.631 122.604 144.654 122.676 144.708C122.712 144.734 122.759 144.769 122.817 144.826L125.397 145.835C125.955 146.079 126.129 146.218 126.199 146.46C126.269 146.739 126.339 147.992 126.374 149.766V151.993L126.478 159.335V163.51L126.475 163.632V163.632C126.443 164.984 126.438 165.187 126.269 165.458C126.164 165.598 125.955 165.737 125.571 165.877L123.096 166.886C123.075 166.894 123.056 166.902 123.038 166.908C122.905 166.959 122.847 166.981 122.817 167.165C122.817 167.339 122.956 167.442 123.2 167.442H137.984C138.472 167.442 138.821 167.128 138.821 166.572L139.03 161.736C139.03 161.492 138.96 161.388 138.751 161.388ZM149.133 154.081L151.4 155.194H151.398C155.059 157.005 156.384 158.71 156.384 161.492C156.384 165.491 153.42 168.137 148.991 168.137C147.041 168.137 144.774 167.753 142.821 167.197L142.752 160.795C142.752 160.516 142.856 160.411 143.031 160.411C143.062 160.427 143.092 160.439 143.12 160.451L143.12 160.451C143.216 160.49 143.291 160.521 143.344 160.655L144.67 163.682C145.297 165.075 146.762 165.735 149.133 165.735C151.505 165.735 153.248 164.203 153.248 162.15C153.248 160.551 152.237 159.367 149.726 158.149L147.634 157.105C145.297 155.957 144.181 155.157 143.31 154.009C142.542 153 142.194 151.817 142.194 150.461C142.194 146.53 145.469 143.852 150.282 143.852C151.886 143.852 153.316 144.059 154.92 144.547V150.775C154.92 151.019 154.815 151.159 154.641 151.159C154.615 151.141 154.591 151.129 154.569 151.116C154.5 151.078 154.441 151.046 154.362 150.914L152.932 147.853C152.374 146.707 151.4 146.184 149.656 146.184C147.215 146.184 145.332 147.853 145.332 149.975C145.332 151.577 146.378 152.691 149.133 154.081ZM163.554 141.02C161.631 141.02 160.081 142.552 160.081 144.442C160.081 146.332 161.629 147.881 163.554 147.881C165.479 147.881 167.009 146.332 167.009 144.442C167.009 142.552 165.46 141.02 163.554 141.02ZM163.554 147.165C162.038 147.165 160.813 145.956 160.813 144.442C160.813 142.929 162.038 141.72 163.554 141.72C165.07 141.72 166.276 142.945 166.276 144.442C166.276 145.939 165.051 147.165 163.554 147.165ZM165.035 145.633C165.051 145.716 165.051 145.786 165.051 145.802H165.054C165.059 145.82 165.063 145.837 165.067 145.855C165.074 145.89 165.082 145.928 165.105 145.972C165.105 146.017 165.112 146.032 165.122 146.052C165.126 146.062 165.132 146.073 165.137 146.091H164.405C164.321 145.97 164.303 145.886 164.286 145.579C164.235 144.882 164.133 144.763 163.538 144.763H162.908V146.091H162.143V142.703H163.759C164.593 142.703 165.054 143.045 165.054 143.691C165.054 143.963 164.986 144.117 164.73 144.372C164.677 144.44 164.644 144.491 164.644 144.507C164.644 144.526 164.696 144.577 164.798 144.679C164.933 144.782 165 145.105 165.035 145.633ZM162.906 144.203H163.57L163.568 144.205C164.08 144.205 164.3 144.068 164.3 143.745C164.3 143.438 164.098 143.301 163.622 143.301H162.906V144.203Z" clip-rule="evenodd" fill-rule="evenodd"></path>
</svg>