<svg style="width: 80px; height: 34.6645px;" aria-label="Homes &amp; Villas by Marriott Bonvoy" role="img" preserveAspectRatio="" fill="none" viewBox="0 0 400 176" height="176" width="400" xmlns="http://www.w3.org/2000/svg">
  <g clip-path="url(#clip0_7_499)">
    <path fill="#F68353" d="M223.94 84.4222V18.2051H223.831L230.068 8.16518V84.4222H223.94ZM169.438 8.16518L175.676 18.2051H175.567V84.4222H169.438V8.16518ZM194.648 3.65263H204.86L199.753 11.8726L194.648 3.65263ZM199.753 18.7374L209.124 3.65263H216.764L199.753 31.0323L182.743 3.65263H190.382L199.753 18.7374ZM199.753 50.0939L170.9 3.65263H178.478L199.753 37.8985L221.028 3.65263H228.608L199.753 50.0939ZM214.145 33.7965L220.328 23.8425V84.4222H214.202V33.7965H214.145ZM188.917 75.7346H210.59V84.4222H188.917V75.7346ZM188.917 52.3807V39.518L196.908 52.3807H188.917ZM210.59 52.3807H202.6L210.59 39.518V52.3807ZM210.59 62.2302H188.917V56.0327H210.59V62.2302ZM188.917 65.8829H210.59V72.0828H188.917V65.8829ZM185.362 33.7965H185.306V84.4222H179.178V23.8425L185.362 33.7965ZM165.827 2.28882e-05V88.075H233.68V2.28882e-05H165.827Z"></path>
    <path fill="#231F20" d="M79.4347 162.284L83.695 171.557L80.8416 177.42H83.5228L90.8534 162.284H88.15L85.1019 168.693L82.247 162.284H79.4347ZM188.312 157.292C183.955 157.292 180.424 160.863 180.424 165.27C180.424 169.677 183.955 173.248 188.312 173.248C192.669 173.248 196.199 169.677 196.199 165.27C196.199 160.863 192.669 157.292 188.312 157.292ZM188.312 170.62C185.395 170.62 183.022 168.22 183.022 165.27C183.022 162.32 185.395 159.92 188.312 159.92C191.228 159.92 193.601 162.32 193.601 165.27C193.601 168.22 191.228 170.62 188.312 170.62ZM45.7625 117.504C44.498 118.258 43.5002 119.287 42.7674 120.59C42.0338 121.895 41.6682 123.326 41.6682 124.886C41.6682 126.471 42.0408 127.915 42.7865 129.219C43.5322 130.523 44.5307 131.559 45.7814 132.326C47.0329 133.093 48.3918 133.476 49.8574 133.476C51.3236 133.476 52.6694 133.099 53.8957 132.345C55.1215 131.591 56.0949 130.557 56.8146 129.239C57.5353 127.923 57.8954 126.471 57.8954 124.886C57.8954 123.326 57.5353 121.895 56.8146 120.59C56.0949 119.287 55.1215 118.258 53.8957 117.504C52.6694 116.749 51.3236 116.372 49.8574 116.372C48.3918 116.372 47.0269 116.749 45.7625 117.504ZM57.024 112.883C59.1972 114.085 60.9103 115.74 62.1609 117.848C63.4132 119.958 64.0378 122.305 64.0378 124.886C64.0378 127.47 63.4132 129.82 62.1609 131.942C60.9103 134.065 59.1972 135.734 57.024 136.947C54.8502 138.161 52.4364 138.769 49.7819 138.769C47.1281 138.769 44.7136 138.161 42.5404 136.947C40.3651 135.734 38.6534 134.072 37.4021 131.962C36.1512 129.852 35.5253 127.494 35.5253 124.886C35.5253 122.305 36.1512 119.958 37.4021 117.848C38.6534 115.74 40.3596 114.085 42.5207 112.883C44.6822 111.681 47.1023 111.079 49.7819 111.079C52.4364 111.079 54.8502 111.681 57.024 112.883ZM196.894 115.761C196.894 113.96 197.993 112.08 199.928 112.08C202.125 112.08 203.073 113.767 203.073 116.26C203.073 118.178 202.162 120.362 199.663 122.126C197.765 119.788 196.894 118.254 196.894 115.761ZM194.052 131.405C194.052 128.951 195.113 126.575 196.248 125.423L204.021 135.164C202.58 136.544 200.645 137.197 198.941 137.197C195.872 137.197 194.052 134.896 194.052 131.405ZM197.159 138.731C199.169 138.731 202.125 138.117 204.588 135.854L206.675 138.347H213.534V137.733C212.4 137.503 211.678 136.966 210.844 135.93L207.772 132.135C208.494 130.945 209.404 129.221 210.2 126.997C210.957 125.003 211.413 124.006 214.445 123.623V123.009H205.538V123.623C209.137 124.083 209.744 125.463 209.137 127.458C208.683 128.76 207.772 130.448 207.205 131.444L200.154 122.779C204.588 120.899 205.801 118.445 205.801 116.298C205.801 113.077 202.884 111.122 199.548 111.122C195.49 111.122 192.117 113.423 192.117 117.488C192.117 119.902 193.445 122.126 195.72 124.81C192.761 126.153 189.388 128.224 189.388 132.212C189.388 136.161 192.421 138.731 197.159 138.731ZM5.99075 111.501H0V138.347H5.99075V127.762H18.0096V138.347H24.0011V111.501H18.0096V122.701H5.99075V111.501ZM82.2384 111.501H75.5651V138.347H80.9497V120.208L88.5322 135.623H92.3993L99.9456 120.208V138.347H105.329V111.501H98.6934L90.5044 127.992L82.2384 111.501ZM118.789 111.501H138.998V116.525H124.78V122.355H137.557V127.379H124.78V133.323H139.415V138.347H118.789V111.501ZM160.913 116.217C162.001 116.217 163.307 116.468 164.837 116.967C166.366 117.465 167.814 118.137 169.178 118.98L171.491 113.956C170.127 113.061 168.56 112.346 166.789 111.807C165.021 111.27 163.225 111.003 161.406 111.003C159.359 111.003 157.564 111.329 156.021 111.981C154.48 112.633 153.28 113.565 152.419 114.78C151.561 115.995 151.13 117.407 151.13 119.018C151.13 120.757 151.548 122.151 152.382 123.198C153.216 124.247 154.207 125.026 155.358 125.538C156.508 126.05 157.992 126.56 159.814 127.072C161.077 127.431 162.069 127.749 162.79 128.032C163.509 128.313 164.104 128.677 164.571 129.125C165.041 129.572 165.273 130.139 165.273 130.83C165.273 131.7 164.925 132.365 164.231 132.825C163.534 133.285 162.568 133.515 161.33 133.515C159.89 133.515 158.298 133.144 156.552 132.403C154.808 131.66 153.267 130.676 151.927 129.449L149.538 134.396C151.054 135.727 152.849 136.775 154.923 137.543C156.995 138.309 159.105 138.693 161.255 138.693C163.25 138.693 165.033 138.372 166.6 137.733C168.168 137.095 169.399 136.155 170.298 134.915C171.193 133.674 171.644 132.2 171.644 130.485C171.644 128.722 171.225 127.302 170.391 126.228C169.557 125.155 168.553 124.349 167.378 123.812C166.202 123.275 164.705 122.739 162.883 122.201C161.064 121.664 159.719 121.147 158.846 120.647C157.975 120.151 157.538 119.428 157.538 118.481C157.538 117.741 157.841 117.177 158.45 116.794C159.056 116.411 159.875 116.217 160.913 116.217ZM228.243 111.501H234.689L241.931 131.751L249.21 111.501H255.392L244.85 138.347H238.671L228.243 111.501ZM272.15 111.501H266.159V138.347H272.15V111.501ZM285.876 111.501H291.866V133.055H303.242V138.347H285.876V111.501ZM320.643 111.501H314.653V138.347H332.019V133.055H320.643V111.501ZM350.785 128.262H359.164L354.995 117.83L350.785 128.262ZM363.183 138.347L361.098 133.132H348.812L346.729 138.347H340.546L352.074 111.501H358.255L369.592 138.347H363.183ZM389.269 116.217C390.358 116.217 391.664 116.468 393.195 116.967C394.723 117.465 396.17 118.137 397.535 118.98L399.848 113.956C398.483 113.061 396.917 112.346 395.147 111.807C393.378 111.27 391.582 111.003 389.763 111.003C387.715 111.003 385.921 111.329 384.379 111.981C382.837 112.633 381.637 113.565 380.775 114.78C379.918 115.995 379.487 117.407 379.487 119.018C379.487 120.757 379.906 122.151 380.738 123.198C381.573 124.247 382.564 125.026 383.716 125.538C384.865 126.05 386.35 126.56 388.172 127.072C389.433 127.431 390.426 127.749 391.147 128.032C391.867 128.313 392.461 128.677 392.928 129.125C393.397 129.572 393.63 130.139 393.63 130.83C393.63 131.7 393.282 132.365 392.588 132.825C391.892 133.285 390.925 133.515 389.687 133.515C388.246 133.515 386.655 133.144 384.909 132.403C383.166 131.66 381.624 130.676 380.284 129.449L377.895 134.396C379.411 135.727 381.206 136.775 383.279 137.543C385.352 138.309 387.462 138.693 389.611 138.693C391.607 138.693 393.39 138.372 394.957 137.733C396.525 137.095 397.756 136.155 398.655 134.915C399.551 133.674 400 132.2 400 130.485C400 128.722 399.583 127.302 398.748 126.228C397.914 125.155 396.909 124.349 395.735 123.812C394.56 123.275 393.062 122.739 391.241 122.201C389.422 121.664 388.076 121.147 387.202 120.647C386.331 120.151 385.894 119.428 385.894 118.481C385.894 117.741 386.198 117.177 386.807 116.794C387.413 116.411 388.232 116.217 389.269 116.217ZM321.934 163.949L326.339 157.598H329.361L323.267 166.32L323.262 166.33V172.942H320.608V166.33L314.506 157.598H317.531L321.934 163.949ZM243.23 170.698H238.363V166.142H243.23C244.623 166.142 245.757 167.163 245.757 168.422C245.757 169.677 244.623 170.698 243.23 170.698ZM246.5 164.975L246.292 164.815L246.473 164.629C247.202 163.855 247.604 162.877 247.604 161.871C247.604 159.514 245.459 157.598 242.827 157.598H235.711V172.939H243.23C246.019 172.939 248.288 170.913 248.288 168.422C248.288 167.092 247.635 165.836 246.5 164.975ZM238.363 159.839H242.827C244.063 159.839 245.073 160.749 245.073 161.871C245.073 162.987 244.063 163.898 242.827 163.898H238.363V159.839ZM288.147 157.598L292.533 167.833L296.914 157.598H299.837L293.143 172.939H291.923L285.226 157.598H288.147ZM258.855 157.292C254.499 157.292 250.969 160.863 250.969 165.27C250.969 169.677 254.499 173.248 258.855 173.248C263.213 173.248 266.742 169.677 266.742 165.27C266.742 160.863 263.213 157.292 258.855 157.292ZM258.855 170.62C255.94 170.62 253.567 168.22 253.567 165.27C253.567 162.32 255.94 159.92 258.855 159.92C261.772 159.92 264.145 162.32 264.145 165.27C264.145 168.22 261.772 170.62 258.855 170.62ZM271.219 157.6L279.828 167.489V157.6H282.477V172.94H281.154L272.547 163.05V172.94H269.901V157.6H271.219ZM300.785 172.941H314.103V170.7H300.785V172.941ZM302.155 162.642C302.155 159.692 304.528 157.292 307.446 157.292C310.361 157.292 312.734 159.692 312.734 162.642C312.734 165.592 310.361 167.992 307.446 167.992C304.528 167.992 302.155 165.592 302.155 162.642ZM304.396 162.642C304.396 164.343 305.763 165.725 307.446 165.725C309.126 165.725 310.493 164.343 310.493 162.642C310.493 160.944 309.126 159.559 307.446 159.559C305.763 159.559 304.396 160.944 304.396 162.642ZM101.742 172.936V157.602H104.777L109.584 166.334L114.391 157.602H117.423V172.936H114.78V162.084L110.552 169.948H108.616L104.388 162.084V172.936H101.742ZM127.968 157.598H129.212L136.237 172.935L136.208 172.942H133.418L132.044 169.949H125.131L123.758 172.935L123.736 172.942H120.936L127.961 157.601L127.968 157.598ZM128.588 162.411L126.173 167.673H130.999L128.588 162.411ZM147.928 166.585C150.371 166.27 152.259 164.39 152.259 162.116C152.259 159.625 149.992 157.596 147.201 157.596H139.684V172.933H142.327V166.637H144.944L149.236 172.927L149.24 172.933H152.259L147.928 166.585ZM142.333 159.84H147.201C148.597 159.84 149.728 160.861 149.728 162.116C149.728 163.372 148.597 164.397 147.201 164.397H142.333V159.84ZM169.215 162.119C169.215 164.393 167.327 166.273 164.884 166.588L169.215 172.936H166.196L166.192 172.93L161.899 166.64H159.282V172.936H156.64V157.602H164.157C166.948 157.602 169.215 159.628 169.215 162.119ZM164.157 159.843H159.289V164.399H164.157C165.553 164.399 166.684 163.374 166.684 162.119C166.684 160.864 165.553 159.843 164.157 159.843ZM173.698 172.944H176.344V157.604H173.698V172.944ZM198.114 157.601H209.836V160.057H205.298V172.942H202.652V160.057H198.114V157.601ZM224.181 157.601H212.462V160.057H217V172.942H219.646V160.057H224.181V157.601ZM331.988 159C331.947 159.045 331.878 159.068 331.789 159.068H331.496V158.59H331.769C331.869 158.59 331.941 158.609 331.982 158.648C332.027 158.688 332.05 158.742 332.05 158.821C332.05 158.896 332.03 158.957 331.988 159ZM331.802 158.339H331.2V159.917H331.496V159.306H331.744L332.095 159.917H332.432L332.05 159.266C332.151 159.224 332.229 159.162 332.28 159.081C332.329 158.997 332.354 158.905 332.354 158.804C332.354 158.749 332.344 158.697 332.323 158.641C332.303 158.587 332.27 158.534 332.224 158.492C332.177 158.447 332.12 158.411 332.052 158.382C331.982 158.353 331.898 158.339 331.802 158.339ZM332.216 160.3C332.071 160.366 331.912 160.398 331.734 160.398C331.561 160.398 331.399 160.366 331.252 160.3C331.106 160.236 330.978 160.148 330.868 160.034C330.763 159.92 330.679 159.786 330.619 159.634C330.556 159.481 330.529 159.315 330.529 159.139C330.529 158.964 330.556 158.798 330.619 158.645C330.679 158.492 330.763 158.359 330.872 158.245C330.981 158.131 331.11 158.044 331.258 157.975C331.407 157.91 331.566 157.877 331.74 157.877C331.912 157.877 332.071 157.91 332.216 157.975C332.364 158.044 332.493 158.131 332.598 158.245C332.709 158.359 332.791 158.492 332.853 158.645C332.914 158.798 332.943 158.964 332.943 159.139C332.943 159.315 332.914 159.481 332.853 159.634C332.791 159.786 332.709 159.92 332.598 160.034C332.493 160.148 332.364 160.236 332.216 160.3ZM331.134 160.577C331.319 160.658 331.518 160.697 331.734 160.697C331.949 160.697 332.151 160.658 332.339 160.577C332.526 160.495 332.69 160.385 332.828 160.242C332.963 160.102 333.072 159.936 333.152 159.748C333.232 159.556 333.271 159.354 333.271 159.136C333.271 158.918 333.232 158.713 333.152 158.524C333.072 158.336 332.963 158.17 332.828 158.03C332.69 157.89 332.528 157.777 332.342 157.695C332.155 157.614 331.956 157.572 331.74 157.572C331.522 157.572 331.319 157.614 331.134 157.695C330.942 157.777 330.783 157.89 330.644 158.03C330.51 158.17 330.4 158.336 330.318 158.524C330.238 158.713 330.199 158.918 330.199 159.136C330.199 159.354 330.238 159.556 330.318 159.748C330.4 159.936 330.51 160.102 330.644 160.242C330.783 160.385 330.942 160.495 331.134 160.577ZM75.1591 167.599C75.1591 165.696 73.8392 164.448 72.1527 164.448C70.4656 164.448 69.1463 165.696 69.1463 167.599C69.1463 169.502 70.4656 170.748 72.1527 170.748C73.8392 170.748 75.1591 169.502 75.1591 167.599ZM69.1463 171.778V172.914H66.8111V157.602H69.298V163.245C69.8822 162.632 71.0925 162.063 72.5199 162.063C75.288 162.063 77.6453 164.251 77.6453 167.599C77.6453 170.945 75.2666 173.133 72.4119 173.133C70.7893 173.133 69.774 172.52 69.1463 171.778Z" clip-rule="evenodd" fill-rule="evenodd"></path>
  </g>
  <defs>
    <clipPath id="clip0_7_499">
      <rect fill="white" height="176" width="400"></rect>
    </clipPath>
  </defs>
</svg>