<svg aria-label="lc" role="img" preserveAspectRatio="" fill="none" viewBox="0 0 256 143" height="143" width="256" xmlns="http://www.w3.org/2000/svg">
  <path fill="#414141" d="M126.044 124.844L125.939 128.4L119.137 128.187L119.037 131.397L125.016 131.577L124.916 135.054L118.934 134.878L118.843 137.832L125.869 138.046L125.755 141.598L114.681 141.266L115.188 124.521L126.044 124.844ZM141.132 124.202C144.123 124.055 146.83 125.459 148.471 127.688C148.748 127.457 145.209 130.211 145.209 130.211C144.375 128.992 142.919 128.205 141.345 128.29C138.866 128.404 137.021 130.519 137.145 133.022C137.268 135.526 139.312 137.423 141.791 137.305C143.389 137.229 144.735 136.323 145.475 135.023L148.921 137.19C147.503 139.571 144.976 141.236 141.994 141.383C137.282 141.62 133.272 137.94 133.039 133.231C132.802 128.466 136.424 124.439 141.132 124.202ZM102.411 123.476L101.046 136.602L107.043 137.228L106.673 140.75L96.5986 139.707L98.3242 123.049L102.411 123.476ZM166.815 125.313L162.529 125.902L164.308 138.976L160.287 139.521L158.51 126.442L154.224 127.03L153.745 123.517L166.337 121.796L166.815 125.313ZM85.7061 121.072L83.3359 134.056L89.2617 135.142L88.6309 138.632L78.6611 136.806L81.667 120.342L85.7061 121.072ZM180.516 136.048L176.548 136.887L173.102 120.494L177.069 119.66L180.516 136.048ZM56.1729 122.229C57.5192 117.667 62.2653 115.053 66.7832 116.391C71.3484 117.733 73.903 122.485 72.5566 127.056C71.2244 131.575 66.4979 134.206 61.9326 132.869C57.4103 131.532 54.8456 126.752 56.1729 122.229ZM191.916 115.473C196.458 114.045 201.232 116.569 202.659 121.116C204.072 125.607 201.616 130.429 197.074 131.866C192.58 133.279 187.782 130.738 186.369 126.247C184.937 121.7 187.427 116.891 191.916 115.473ZM65.6309 120.303C63.2511 119.601 60.814 120.981 60.1123 123.395C59.406 125.789 60.7052 128.255 63.085 128.947C65.4601 129.649 67.9351 128.307 68.6367 125.903C69.3477 123.499 68.0059 121 65.6309 120.303ZM198.767 122.339C198.017 119.949 195.504 118.627 193.144 119.371C190.783 120.111 189.532 122.619 190.285 125.009C191.034 127.394 193.48 128.712 195.851 127.968C198.216 127.223 199.516 124.724 198.767 122.339ZM225.178 119.786L221.902 121.417L211.377 115.343L215.896 124.424L212.235 126.239L204.778 111.25L208.13 109.571L218.503 115.594L214.037 106.632L217.716 104.802L225.178 119.786ZM35.8154 113.201C37.8635 108.901 42.9598 107.066 47.2168 109.095C49.9189 110.38 51.6356 112.888 52.0244 115.634C52.3822 115.563 47.9609 116.312 47.9609 116.312C47.8045 114.838 46.8947 113.462 45.4678 112.784C43.2207 111.722 40.6035 112.704 39.5273 114.976C38.4516 117.233 39.3478 119.869 41.5947 120.936C43.0406 121.628 44.6522 121.471 45.918 120.675L47.9238 124.213C45.5488 125.645 42.5381 125.905 39.8359 124.625C35.574 122.6 33.7911 117.464 35.8154 113.201ZM59.1064 53.6396H56.6836C55.086 53.6397 53.8821 54.024 53.1094 54.7969C52.3367 55.5651 51.9434 56.7693 51.9434 58.3721V71.8008C51.9434 73.446 52.3317 74.9873 53 76.04C53.7063 77.1353 54.7352 77.989 56.0576 78.5723C57.4656 79.2077 58.8175 79.4688 60.5811 79.4688C62.2164 79.4687 63.7522 79.241 65.1553 78.7764C66.5538 78.3164 68.1613 77.6619 68.9814 76.8652C70.5883 75.2008 71.0342 72.7161 71.0342 70.0371L70.7588 60.7197C70.7588 57.6802 69.8725 55.5933 68.1279 54.5264C67.6254 54.2134 67.0989 53.9954 66.5537 53.8721C65.9992 53.7393 65.473 53.6634 64.3877 53.6396L64.1504 53.625V52.1455H78.8984V53.6162L78.6758 53.6396C77.8985 53.6918 77.5475 53.8006 77.0498 53.957C76.5948 54.1087 76.1161 54.3603 75.6279 54.7158C74.9263 55.2469 74.3812 55.9585 74.002 56.8594C73.6275 57.7602 73.4327 58.8365 73.4326 60.0645V70.9951C73.4326 74.0489 72.565 76.5857 70.9863 78.1221C70.0857 78.9802 69.1187 79.6012 68.0996 79.9854C65.9853 80.7725 63.4442 81.1806 60.543 81.1807C58.3148 81.1807 55.1097 80.9393 53.4268 80.541C51.6727 80.1143 50.1938 79.502 49.0371 78.7148C46.8896 77.2401 45.709 74.8075 45.709 71.877V58.3721C45.709 55.1855 44.1632 53.6396 40.9727 53.6396H39.6123V52.1455H59.1064V53.6396ZM150.926 53.6396H148.508C146.91 53.6396 145.706 54.024 144.934 54.7969C144.161 55.5651 143.767 56.7693 143.767 58.3721V71.8008C143.767 73.4461 144.151 74.9873 144.824 76.04C145.531 77.1353 146.559 77.989 147.882 78.5723C149.29 79.2076 150.641 79.4687 152.404 79.4688C154.035 79.4688 155.571 79.2411 156.975 78.7764C158.373 78.3164 159.981 77.6619 160.801 76.8652C162.412 75.2008 162.858 72.7161 162.858 70.0371L162.578 60.7197C162.578 57.6802 161.697 55.5933 159.952 54.5264C159.454 54.2134 158.923 53.9954 158.373 53.8721C157.819 53.7393 157.292 53.6634 156.212 53.6396L155.975 53.625V52.1455H170.723V53.6162L170.5 53.6396C169.718 53.6918 169.362 53.8006 168.874 53.957C168.419 54.1087 167.935 54.3603 167.447 54.7158C166.75 55.2469 166.201 55.9585 165.821 56.8594C165.452 57.7602 165.257 58.8365 165.257 60.0645V70.9951C165.257 74.0489 164.389 76.5857 162.806 78.1221C161.91 78.9802 160.938 79.6012 159.919 79.9854C157.805 80.7725 155.268 81.1806 152.362 81.1807C150.139 81.1807 146.929 80.9393 145.251 80.541C143.492 80.1143 142.018 79.5019 140.861 78.7148C138.709 77.2401 137.533 74.8075 137.533 71.877V58.3721C137.533 55.1855 135.983 53.6396 132.792 53.6396H131.432V52.1455H150.926V53.6396ZM198.282 52.1455C201.136 52.1455 203.436 52.3591 205.104 52.7764C206.801 53.1984 208.162 53.9286 209.162 54.9385C209.736 55.5075 210.201 56.2003 210.542 56.9922C210.883 57.7841 211.059 58.5808 211.059 59.3584C211.059 61.4873 209.945 63.2132 207.75 64.5029L207.408 64.6934C206.631 65.1248 205.664 65.6555 204.46 65.959C203.095 66.2909 201.715 66.5231 200.368 66.6416C199.448 66.7127 198.102 66.7559 196.362 66.7559C197.163 67.268 197.918 67.6999 198.591 68.0508C199.42 68.4869 200.264 68.8566 201.107 69.1553C201.951 69.4588 202.924 69.7336 203.99 69.9707L204.085 69.9941L204.777 71.0518C205.209 71.6635 205.527 72.1335 205.73 72.4512C205.934 72.7593 206.176 73.1098 206.446 73.5127C207.167 74.5986 207.854 75.557 208.508 76.3584C209.143 77.155 209.679 77.7188 210.082 78.0176C210.874 78.5344 212.04 78.8095 213.552 78.8096H214.553V80.6025H204.004L203.934 80.498L194.622 66.7559H188.891V74.1104C188.891 75.6988 189.28 76.8889 190.043 77.6523C190.811 78.4205 192.005 78.8095 193.584 78.8096H194.622V80.6025H177.006V78.8096H177.982C179.585 78.8096 180.775 78.4256 181.538 77.6621C182.292 76.9034 182.681 75.7083 182.681 74.1104V58.3154C182.681 56.708 182.302 55.5079 181.548 54.7539C180.794 53.9999 179.594 53.6162 177.982 53.6162H177.006V52.1455H198.282ZM236.041 53.5879H233.779C233.026 53.5879 232.442 53.7247 232.034 53.9902C231.655 54.2415 231.471 54.593 231.471 55.0576C231.471 55.2899 231.523 55.5032 231.637 55.707C231.722 55.8731 231.992 56.2906 232.77 57.4189L239.041 66.1865L244.887 58.5C245.716 57.4426 246.062 56.8971 246.062 56.2617C246.062 55.3136 245.788 54.6499 245.229 54.2373C244.66 53.8105 243.806 53.6211 242.45 53.6211H240.705V52.1455H255.137V53.834L254.923 53.8574C254.017 53.957 253.197 54.1281 252.481 54.3652C251.766 54.5976 251.097 54.9055 250.49 55.2754C249.893 55.6452 249.253 56.148 248.604 56.7881C247.945 57.4188 247.305 58.1446 246.688 58.9365L239.904 67.9033V74.1104C239.904 75.6989 240.293 76.8889 241.057 77.6523C241.825 78.4253 243.014 78.8096 244.603 78.8096H246.665V80.6025H226.853V78.8096H228.996C230.594 78.8095 231.789 78.4255 232.552 77.6621C233.31 76.9034 233.694 75.7177 233.694 74.1104V68.3447L225.62 57.3096C224.601 55.9252 223.606 54.9481 222.644 54.417C221.691 53.8859 220.425 53.6211 218.898 53.6211H218.168V52.1455H236.041V53.5879ZM104.248 53.6377H103.655C102.717 53.6377 101.963 53.7792 101.403 54.0684C100.887 54.3291 100.64 54.6803 100.64 55.1211C100.64 55.3866 100.73 55.7236 100.9 56.1123C101.081 56.5201 101.327 56.9237 101.626 57.3125L106.698 63.2109L110.833 59.0049C111.824 57.9713 112.331 57.0225 112.331 56.1738C112.331 55.3299 111.989 54.6756 111.278 54.1777C110.586 53.6941 109.837 53.6804 108.458 53.6377L108.098 53.6279V52.1436H123.296V53.6045L123.092 53.6328C121.651 53.8699 120.57 54.4342 119.532 54.9795C119.343 55.0743 119.153 55.1688 118.968 55.2637C116.73 56.3875 114.644 57.9287 112.776 59.835L108.026 64.6904L116.726 74.9004C117.868 76.2184 119.067 77.2662 120.295 78.0059C121.504 78.736 122.642 79.1112 123.68 79.1113H124.415V80.5996H105.685V79.1113H107.5C108.581 79.1113 109.42 78.9587 109.998 78.6553C110.524 78.3802 110.785 78.0202 110.785 77.5508C110.785 76.9961 110.482 76.3939 109.89 75.7539L103.996 68.7881L99.6729 73.2119C99.2321 73.6718 98.8578 74.108 98.5781 74.4873C98.3032 74.8524 98.1088 75.2083 97.9902 75.5449C97.8812 75.8769 97.8193 76.2184 97.8193 76.5693C97.8193 77.4939 97.9285 77.854 98.6016 78.3281C99.3316 78.845 100.375 79.1113 101.707 79.1113H102.755V80.5996H85.8916V79.1396L86.1045 79.1152C86.7872 79.0251 87.2759 78.8025 87.75 78.5986C88.0154 78.4801 88.2669 78.3617 88.5371 78.2764C89.2624 78.0582 90.1017 77.7261 91.0498 77.2852C93.2636 76.2467 95.3782 74.7297 97.3408 72.7998L102.669 67.3652L94.0127 57.3359C91.9221 54.8844 89.5183 53.6377 86.8398 53.6377H85.8916V52.1436H104.248V53.6377ZM19.8486 53.3555H17.625C16.0181 53.3555 14.814 53.7442 14.0508 54.498C13.2923 55.2615 12.9033 56.4713 12.9033 58.1025V78.834H19.7637C21.124 78.8339 22.418 78.5259 23.6172 77.9238C24.8261 77.3216 25.8889 76.468 26.7754 75.3916C27.3158 74.7136 27.7946 74.026 28.207 73.3574C28.6147 72.6984 29.0122 71.8777 29.3867 70.9199C29.7612 69.9573 30.1358 68.8423 30.4961 67.6094L30.5488 67.4395H31.6963V80.5977H0.676758L0.625 78.834H1.89551C5.08114 78.834 6.63169 77.2693 6.63184 74.0498V58.1025C6.63184 54.9065 5.08129 53.3555 1.89551 53.3555H0.667969V52.1465H19.8486V53.3555ZM188.891 65.0059H196.381C198.168 65.0059 199.652 64.7828 200.795 64.3418C201.904 63.9198 202.753 63.2702 203.293 62.4072C203.895 61.4636 204.123 60.591 204.123 59.2822C204.123 55.4225 201.705 53.6163 196.5 53.6162H188.891V65.0059ZM114.14 5.04883H109.783V18.3398H105.696V5.04883H101.34V1.47754H114.14V5.04883ZM154.198 5.04688H147.348V8.28125H153.364V11.7803H147.348V14.7686H154.417V18.3389H143.257V1.47656H154.198V5.04688ZM125.507 8.12891H130.646V1.47559H134.803V18.3379H130.646V11.7803H125.507V18.3379H121.42V1.47559H125.507V8.12891Z"></path>
</svg>