<svg style="width: 54.4px; height: 41.0641px;" aria-label="Marriott Hotels" role="img" preserveAspectRatio="" fill="none" viewBox="0 0 152 114" height="114" width="152" xmlns="http://www.w3.org/2000/svg">
  <path fill="#252223" d="M115.298 110.108C114.78 110.352 114.2 110.477 113.56 110.477C112.91 110.477 112.329 110.352 111.821 110.108C111.3 109.857 110.861 109.519 110.496 109.097C110.131 108.672 109.853 108.181 109.662 107.616C109.464 107.062 109.37 106.473 109.37 105.86C109.37 105.232 109.464 104.643 109.662 104.089C109.853 103.535 110.131 103.047 110.496 102.633C110.861 102.214 111.3 101.887 111.821 101.643C112.329 101.402 112.91 101.281 113.56 101.281C114.2 101.281 114.78 101.402 115.298 101.643C115.82 101.887 116.262 102.214 116.623 102.633C116.988 103.047 117.274 103.535 117.465 104.089C117.666 104.643 117.76 105.232 117.76 105.86C117.76 106.473 117.666 107.062 117.465 107.616C117.274 108.181 116.988 108.672 116.623 109.097C116.262 109.519 115.82 109.857 115.298 110.108ZM110.91 112.265C111.724 112.624 112.617 112.801 113.56 112.801C114.513 112.801 115.396 112.624 116.22 112.265C117.034 111.906 117.75 111.414 118.365 110.787C118.974 110.163 119.457 109.435 119.808 108.599C120.156 107.766 120.33 106.87 120.33 105.919C120.33 104.964 120.156 104.072 119.808 103.236C119.457 102.406 118.974 101.681 118.365 101.058C117.75 100.437 117.034 99.9493 116.22 99.5904C115.396 99.2314 114.513 99.0537 113.56 99.0537C112.617 99.0537 111.724 99.2314 110.896 99.5904C110.072 99.9493 109.356 100.437 108.754 101.058C108.149 101.681 107.673 102.406 107.318 103.236C106.963 104.072 106.79 104.964 106.79 105.919C106.79 106.87 106.963 107.766 107.318 108.599C107.673 109.435 108.149 110.163 108.765 110.787C109.377 111.414 110.086 111.906 110.91 112.265ZM71.1687 105.274C71.7981 105.274 72.271 105.089 72.6257 104.727C72.97 104.357 73.1369 103.915 73.1369 103.395C73.1369 102.834 72.9561 102.374 72.5979 102.026C72.2293 101.674 71.7529 101.5 71.1687 101.5H68.5886V105.274H71.1687ZM66.2275 99.4053H71.1479C71.9685 99.4053 72.6709 99.5308 73.2377 99.7782C73.8115 100.026 74.2739 100.343 74.6252 100.726C74.9764 101.109 75.2302 101.531 75.3971 101.984C75.5605 102.444 75.6405 102.88 75.6405 103.298C75.6405 104.12 75.4597 104.845 75.105 105.476C74.7434 106.11 74.1974 106.619 73.4498 106.992L76.4577 112.453H73.6898L71.0505 107.305H68.5886V112.453H66.2275V99.4053ZM33.0285 99.4067H30.7474L30.125 112.451H32.427L32.8547 103.55L36.3041 108.736H37.4551L40.8837 103.414L41.3079 112.451H43.7142L43.0883 99.4067H40.8002L36.9509 105.564L33.0285 99.4067ZM54.7861 102.046L56.5039 107.11H53.0475L54.7861 102.046ZM56.1318 99.4081H53.5969L48.6592 112.452H51.2289L52.366 109.145H57.2063L58.3399 112.452H61.0696L56.1318 99.4081ZM88.4123 104.727C88.0681 105.089 87.5813 105.274 86.9588 105.274H84.3787V101.5H86.9588C87.5396 101.5 88.0159 101.674 88.388 102.026C88.7462 102.374 88.927 102.834 88.927 103.395C88.927 103.915 88.7601 104.357 88.4123 104.727ZM86.938 99.4053H82.0142V112.453H84.3787V107.305H86.8406L89.4799 112.453H92.2443L89.2399 106.992C89.9806 106.619 90.5335 106.11 90.8882 105.476C91.2428 104.845 91.4271 104.12 91.4271 103.298C91.4271 102.88 91.3506 102.444 91.1837 101.984C91.0203 101.531 90.763 101.109 90.4153 100.726C90.064 100.343 89.5981 100.026 89.0278 99.7782C88.4541 99.5308 87.7551 99.4053 86.938 99.4053ZM98.4072 112.449H100.866V99.4053H98.4072V112.449ZM127.96 101.578H123.547V99.4067H134.827V101.578H130.421V112.451H127.96V101.578ZM138.996 101.578H143.409V112.451H145.864V101.578H150.276V99.4067H138.996V101.578Z" clip-rule="evenodd" fill-rule="evenodd"></path>
  <path fill="#9F1C2D" d="M96.6521 86.364H118.601L81.8737 2.89488L63.4476 11.4293L76.2926 40.4825L70.2978 54.0211L47.3235 1.5567L28.7062 9.68337L43.6549 43.2076C43.6376 43.2529 43.6202 43.2947 43.5993 43.34C34.3706 64.4861 23.0452 70.2884 21.9463 70.7066C19.321 71.7241 16.4975 72.2956 13.514 72.2956C12.6099 72.2956 11.7092 72.2434 10.8399 72.1597L1.81641 90.5667C4.79991 92.215 8.14157 93.1525 11.7092 93.1525C16.2297 93.1525 20.3572 91.6575 23.7858 89.1797L23.7545 89.2459C23.7545 89.2459 32.2669 85.1234 41.3808 62.5694C41.3808 62.552 44.7259 55.3419 46.5202 50.7628L46.701 50.2435L62.7382 86.364H84.6729L73.3717 60.9559L79.3631 47.4382L96.6521 86.364Z" clip-rule="evenodd" fill-rule="evenodd"></path>
</svg>