<svg aria-label="mvc" role="img" preserveAspectRatio="" fill="none" viewBox="0 0 264 160" height="160" width="264" xmlns="http://www.w3.org/2000/svg">
  <path fill="#1C1C1C" d="M65.5952 153.289C67.2484 153.289 68.6755 152.968 69.8653 152.323C71.0517 151.68 72.2323 150.805 73.3947 149.704L76.4626 152.854C75.7617 153.618 75.0303 154.293 74.2715 154.883C73.5065 155.474 72.6846 155.987 71.8056 156.42C70.9254 156.851 69.9599 157.18 68.9127 157.403C67.8655 157.626 66.7056 157.739 65.4381 157.739C63.4449 157.739 61.6105 157.371 59.9296 156.637C58.2441 155.9 56.7915 154.897 55.5631 153.622C54.3314 152.35 53.369 150.847 52.6702 149.113C51.9725 147.378 51.6231 145.516 51.6231 143.52C51.6231 141.55 51.9654 139.7 52.6521 137.967C53.3354 136.232 54.3009 134.717 55.5407 133.417C56.7835 132.118 58.2583 131.093 59.9675 130.344C61.6728 129.596 63.561 129.223 65.6338 129.223C66.8735 129.223 68.0051 129.327 69.0267 129.537C70.0505 129.749 70.9898 130.044 71.8432 130.423C72.6988 130.805 73.4852 131.258 74.2105 131.782C74.9357 132.308 75.6212 132.885 76.267 133.517L73.2022 137.101C72.1131 136.076 70.9643 135.249 69.7461 134.617C68.5307 133.988 67.1477 133.673 65.5952 133.673C64.3004 133.673 63.1026 133.929 62.0028 134.442C60.9017 134.953 59.953 135.65 59.1514 136.528C58.3488 137.408 57.7265 138.44 57.2897 139.621C56.8475 140.802 56.6295 142.076 56.6295 143.442C56.6295 144.807 56.8475 146.087 57.2897 147.28C57.7265 148.476 58.3488 149.52 59.1514 150.413C59.953 151.306 60.9017 152.009 62.0028 152.519C63.1026 153.032 64.3004 153.289 65.5952 153.289ZM95.5344 105.412C94.8356 106.173 94.1053 106.847 93.3466 107.436C92.5847 108.027 91.7621 108.538 90.8851 108.97C90.008 109.402 89.0427 109.728 87.9985 109.952C86.9527 110.175 85.7956 110.287 84.5314 110.287C82.5407 110.287 80.7109 109.92 79.0318 109.186C77.3514 108.452 75.8998 107.45 74.6736 106.179C73.4449 104.907 72.4846 103.407 71.7856 101.678C71.0899 99.9461 70.7406 98.0856 70.7406 96.096C70.7406 94.1289 71.0828 92.2811 71.7683 90.5505C72.4498 88.821 73.4135 87.3083 74.652 86.0094C75.8927 84.7127 77.3647 83.6914 79.0697 82.9436C80.7717 82.1968 82.6574 81.8244 84.7262 81.8244C85.9636 81.8244 87.0922 81.9279 88.1136 82.1377C89.1342 82.3491 90.0704 82.6439 90.9229 83.0216C91.7763 83.4027 92.5642 83.8553 93.2859 84.3775C94.0107 84.9037 94.696 85.4801 95.3388 86.1095L92.2811 89.687C91.1927 88.6641 90.0475 87.8382 88.8297 87.2097C87.6175 86.5803 86.2365 86.2663 84.6883 86.2663C83.3949 86.2663 82.1992 86.522 81.1021 87.0332C80.0035 87.5449 79.0563 88.2381 78.256 89.1176C77.4552 89.9945 76.8329 91.0232 76.3958 92.2012C75.9558 93.3812 75.7389 94.6533 75.7389 96.0169C75.7389 97.3792 75.9558 98.6569 76.3958 99.8494C76.8329 101.042 77.4552 102.084 78.256 102.974C79.0563 103.865 80.0035 104.567 81.1021 105.078C82.1992 105.589 83.3949 105.845 84.6883 105.845C86.3383 105.845 87.7603 105.524 88.9488 104.882C90.135 104.239 91.311 103.366 92.4727 102.268L95.5344 105.412ZM13.4435 103.446L21.5778 82.2954H26.7312L15.4581 110.012H11.2728L0 82.2954H5.2713L13.4435 103.446ZM197.987 54.3433C198.687 52.6121 199.032 50.7792 199.032 48.8398C199.032 46.8988 198.687 45.0643 197.987 43.3347C197.292 41.6051 196.323 40.0979 195.082 38.8131C193.842 37.5292 192.356 36.5149 190.626 35.7656C188.895 35.0195 186.986 34.6465 184.893 34.6465C182.803 34.6465 180.89 35.0266 179.159 35.7854C177.43 36.5457 175.93 37.5749 174.665 38.8723C173.4 40.1705 172.421 41.6848 171.722 43.4136C171.026 45.1432 170.675 46.9777 170.675 48.9179C170.675 50.8565 171.026 52.691 171.722 54.4214C172.421 56.151 173.389 57.659 174.626 58.9422C175.867 60.2254 177.352 61.242 179.084 61.9881C180.814 62.735 182.726 63.1088 184.816 63.1088C186.907 63.1088 188.819 62.7279 190.548 61.9692C192.28 61.2104 193.779 60.1804 195.044 58.8838C196.309 57.5864 197.292 56.0729 197.987 54.3433ZM193.359 52.7115C192.905 53.904 192.28 54.938 191.479 55.8166C190.679 56.696 189.716 57.3908 188.594 57.8995C187.469 58.4114 186.235 58.6669 184.893 58.6669C183.551 58.6669 182.31 58.4059 181.174 57.8806C180.037 57.3569 179.063 56.6479 178.251 55.759C177.436 54.8662 176.804 53.8243 176.35 52.6342C175.899 51.4393 175.675 50.1758 175.675 48.8398C175.675 47.5022 175.899 46.2371 176.35 45.0454C176.804 43.8513 177.43 42.8166 178.23 41.9395C179.031 41.0601 179.991 40.3669 181.117 39.8558C182.24 39.3439 183.473 39.0892 184.816 39.0892C186.158 39.0892 187.399 39.3518 188.535 39.8747C189.671 40.3992 190.647 41.1067 191.461 41.9987C192.273 42.8899 192.905 43.9318 193.359 45.1235C193.81 46.3152 194.038 47.581 194.038 48.9179C194.038 50.2547 193.81 51.5182 193.359 52.7115ZM13.9296 48.13L22.1792 35.1174H27.254V62.638H22.5286V42.9026L13.9684 55.8758H13.8144L5.32548 42.9807V62.638H0.601341V35.1174H5.67485L13.9296 48.13ZM101.03 2.92761V-1.52588e-05H115.396V2.92761H109.782V17.9672H106.646V2.92761H101.03ZM135.328 7.46968V-1.52588e-05H138.413V17.9672H135.328V10.395H126.828V17.9672H123.743V-1.52588e-05H126.828V7.46968H135.328ZM148.023 -1.52588e-05V17.9672H161.254V15.1176H151.11V10.3184H159.988V7.46968H151.11V2.84874H161.127V-1.52588e-05H148.023ZM47.3269 55.9941H60.149L62.8993 62.638H67.9371L56.0023 34.9226H51.5877L39.6538 62.638H44.5378L47.3269 55.9941ZM53.7165 40.7006L58.4041 51.7083H49.0707L53.7165 40.7006ZM91.0395 53.0444H85.0549V62.638H80.3282V35.1174H92.4165C93.9647 35.1174 95.3662 35.3225 96.6218 35.7279C97.8727 36.1348 98.9319 36.7106 99.7948 37.4582C100.663 38.2051 101.327 39.1224 101.792 40.2092C102.257 41.2968 102.491 42.509 102.491 43.8466C102.491 44.9997 102.326 46.0274 102.005 46.932C101.684 47.8359 101.236 48.6364 100.669 49.3296C100.099 50.0237 99.4225 50.6144 98.6346 51.0987C97.8451 51.5837 96.9744 51.9576 96.0209 52.2186L103.341 62.638H97.7229L91.0395 53.0444ZM92.0112 39.482H85.0549V48.7602H92.053C93.7621 48.7602 95.1218 48.3383 96.1329 47.4975C97.1424 46.6544 97.6456 45.5234 97.6456 44.1014C97.6456 42.5745 97.1526 41.4222 96.1707 40.6461C95.1849 39.8693 93.8007 39.482 92.0112 39.482ZM120.815 53.0444H126.8L133.483 62.638H139.101L131.781 52.2186C132.735 51.9576 133.605 51.5837 134.395 51.0987C135.183 50.6144 135.86 50.0237 136.429 49.3296C136.997 48.6364 137.444 47.8359 137.765 46.932C138.087 46.0274 138.251 44.9997 138.251 43.8466C138.251 42.509 138.017 41.2968 137.552 40.2092C137.088 39.1224 136.423 38.2051 135.555 37.4582C134.692 36.7106 133.633 36.1348 132.382 35.7279C131.127 35.3225 129.725 35.1174 128.177 35.1174H116.089V62.638H120.815V53.0444ZM120.815 39.482H127.772C129.561 39.482 130.945 39.8693 131.931 40.6461C132.913 41.4222 133.406 42.5745 133.406 44.1014C133.406 45.5234 132.903 46.6544 131.893 47.4975C130.882 48.3383 129.522 48.7602 127.813 48.7602H120.815V39.482ZM152.119 35.1182H156.844V62.638H152.119V35.1182ZM217.745 39.6011H209.142V35.1182H231.148V39.6011H222.548V62.638H217.745V39.6011ZM241.994 35.1174V39.6003H250.598V62.638H255.399V39.6003H264V35.1174H241.994ZM56.177 109.814H61.2139L49.28 82.0998H44.8654L32.9316 109.814H37.8156L40.6047 103.172H53.4268L56.177 109.814ZM42.3484 98.8848L46.9944 87.8785L51.6831 98.8848H42.3484ZM129.201 109.814H134.239L122.304 82.0998H117.889L105.955 109.814H110.838L113.627 103.172H126.45L129.201 109.814ZM115.373 98.8848L120.018 87.8785L124.706 98.8848H115.373ZM141.208 82.2954H163.214V86.7775H154.614V109.814H149.811V86.7775H141.208V82.2954ZM176.269 109.814H180.995V82.2946H176.269V109.814ZM214.775 82.9436C216.504 83.6914 217.989 84.7065 219.231 85.9912C220.471 87.2744 221.439 88.7831 222.135 90.512C222.834 92.2423 223.181 94.076 223.181 96.0169C223.181 97.9547 222.834 99.7903 222.135 101.52C221.439 103.25 220.457 104.763 219.192 106.062C217.927 107.358 216.427 108.388 214.697 109.147C212.966 109.906 211.056 110.287 208.964 110.287C206.874 110.287 204.962 109.913 203.23 109.166C201.501 108.419 200.016 107.403 198.774 106.12C197.537 104.836 196.568 103.329 195.87 101.599C195.175 99.8682 194.825 98.0336 194.825 96.096C194.825 94.1542 195.175 92.3195 195.87 90.5909C196.568 88.8613 197.548 87.3468 198.813 86.0504C200.078 84.7512 201.577 83.7244 203.308 82.9624C205.039 82.2039 206.951 81.8238 209.042 81.8238C211.135 81.8238 213.044 82.1968 214.775 82.9436ZM215.627 102.994C216.427 102.115 217.053 101.081 217.507 99.8889C217.958 98.6947 218.186 97.4319 218.186 96.096C218.186 94.7583 217.958 93.4934 217.507 92.3014C217.053 91.1097 216.421 90.0671 215.61 89.1753C214.795 88.284 213.819 87.5772 212.683 87.051C211.547 86.5291 210.307 86.2663 208.964 86.2663C207.622 86.2663 206.388 86.522 205.264 87.0332C204.139 87.5439 203.178 88.2381 202.377 89.1176C201.577 89.9939 200.952 91.0293 200.498 92.2225C200.046 93.4145 199.823 94.6795 199.823 96.0169C199.823 97.3539 200.046 98.6165 200.498 99.8106C200.952 101.003 201.584 102.044 202.398 102.936C203.21 103.826 204.185 104.535 205.322 105.058C206.458 105.584 207.699 105.845 209.042 105.845C210.384 105.845 211.617 105.589 212.742 105.078C213.865 104.567 214.827 103.872 215.627 102.994ZM255.609 101.323L241.109 82.2946H236.702V109.814H241.428V90.236L256.354 109.814H260.335V82.2946H255.609V101.323ZM89.2311 129.695V157.267H108.253V152.894H93.9664V129.695H89.2311ZM136.492 151.318C137.715 150.032 138.328 148.115 138.328 145.568V129.695H143.063V145.332C143.063 147.378 142.782 149.178 142.229 150.728C141.673 152.278 140.888 153.57 139.88 154.607C138.872 155.645 137.648 156.42 136.214 156.933C134.776 157.444 133.167 157.699 131.38 157.699C129.621 157.699 128.029 157.444 126.606 156.933C125.185 156.42 123.967 155.649 122.957 154.627C121.949 153.604 121.171 152.335 120.628 150.827C120.086 149.316 119.816 147.565 119.816 145.568V129.695H124.55V145.372C124.55 147.945 125.159 149.901 126.383 151.239C127.608 152.579 129.296 153.249 131.456 153.249C133.59 153.249 135.27 152.606 136.492 151.318ZM178.488 145.313C178.01 144.788 177.447 144.337 176.787 143.955C176.133 143.576 175.408 143.242 174.61 142.955C175.096 142.69 175.58 142.374 176.053 142.007C176.529 141.639 176.938 141.211 177.286 140.725C177.632 140.238 177.912 139.665 178.133 139.008C178.351 138.351 178.46 137.6 178.46 136.757C178.46 134.575 177.657 132.851 176.056 131.59C174.456 130.327 172.288 129.695 169.549 129.695H157.383V157.266H169.938C171.437 157.266 172.806 157.102 174.046 156.774C175.285 156.447 176.343 155.962 177.223 155.32C178.102 154.677 178.778 153.884 179.257 152.94C179.734 151.998 179.971 150.908 179.971 149.676C179.971 148.733 179.846 147.902 179.586 147.179C179.331 146.459 178.963 145.836 178.488 145.313ZM162.117 133.988H168.969C170.514 133.988 171.693 134.298 172.506 134.919C173.318 135.538 173.725 136.418 173.725 137.552C173.725 138.845 173.262 139.804 172.329 140.423C171.401 141.043 170.166 141.355 168.618 141.355H162.117V133.988ZM173.848 152.009C172.915 152.653 171.64 152.972 170.015 152.972H162.117V145.41H169.664C171.549 145.41 172.95 145.739 173.865 146.395C174.778 147.053 175.237 147.97 175.237 149.152C175.237 150.413 174.774 151.364 173.848 152.009ZM207.417 142.497C208.518 142.942 209.431 143.487 210.16 144.131C210.885 144.774 211.438 145.522 211.812 146.375C212.187 147.228 212.377 148.234 212.377 149.388C212.377 150.702 212.138 151.87 211.666 152.893C211.19 153.919 210.528 154.786 209.684 155.495C208.836 156.202 207.817 156.741 206.63 157.109C205.443 157.476 204.137 157.659 202.715 157.659C200.616 157.659 198.614 157.3 196.698 156.577C194.783 155.856 193.01 154.745 191.383 153.249L194.253 149.783C195.573 150.939 196.905 151.826 198.251 152.441C199.594 153.058 201.121 153.367 202.829 153.367C204.305 153.367 205.474 153.052 206.343 152.422C207.208 151.791 207.642 150.939 207.642 149.862C207.642 149.363 207.558 148.914 207.389 148.522C207.221 148.129 206.91 147.767 206.454 147.439C206.002 147.112 205.38 146.802 204.588 146.515C203.797 146.225 202.768 145.922 201.495 145.608C200.042 145.267 198.751 144.884 197.622 144.464C196.496 144.045 195.548 143.52 194.783 142.889C194.018 142.26 193.435 141.499 193.031 140.607C192.628 139.712 192.429 138.623 192.429 137.337C192.429 136.129 192.66 135.032 193.122 134.047C193.585 133.064 194.218 132.214 195.028 131.507C195.836 130.798 196.806 130.254 197.944 129.873C199.079 129.492 200.319 129.302 201.667 129.302C203.656 129.302 205.449 129.596 207.04 130.189C208.632 130.778 210.125 131.639 211.522 132.768L208.963 136.43C207.72 135.511 206.49 134.81 205.275 134.323C204.06 133.837 202.829 133.594 201.587 133.594C200.189 133.594 199.104 133.915 198.326 134.561C197.553 135.204 197.164 135.983 197.164 136.903C197.164 137.454 197.254 137.927 197.437 138.321C197.616 138.714 197.948 139.084 198.428 139.425C198.907 139.764 199.568 140.079 200.414 140.369C201.255 140.659 202.325 140.958 203.622 141.276C205.05 141.642 206.315 142.051 207.417 142.497ZM217.202 130.748H220.907V138.838H222.693V130.748H226.397V129.104H217.202V130.748ZM233.919 134.428L237.202 129.104H239.013V138.838H237.228V133.616C237.228 133.328 237.281 132.534 237.326 131.921C237.013 132.479 236.602 133.207 236.456 133.437L234.214 137.079H233.624L231.38 133.437C231.235 133.204 230.824 132.478 230.512 131.921C230.557 132.534 230.61 133.328 230.61 133.616V138.838H228.825V129.104H230.636L233.919 134.428Z" clip-rule="evenodd" fill-rule="evenodd"></path>
</svg>