<svg style="width: 73.6px; height: 36.2644px;" aria-label="Marriott Executive Apartments" role="img" preserveAspectRatio="" fill="none" viewBox="0 0 230 113" height="113" width="230" xmlns="http://www.w3.org/2000/svg">
  <g clip-path="url(#clip0_7_292)">
    <path fill="#3F3113" d="M137.694 1.00781H115.643C118.48 3.01894 120.738 5.85094 122.107 9.1806C123.934 5.75346 126.976 3.5012 130.434 3.5012C136.021 3.5012 140.541 9.32425 140.541 16.512C140.541 23.6997 136.021 29.5279 130.434 29.5279C124.868 29.5279 120.343 23.6997 120.343 16.512C120.343 7.95442 113.765 1.00781 105.639 1.00781H91.1401C83.0135 1.00781 76.4209 7.95442 76.4209 16.512C76.4209 25.0798 83.0135 32.0162 91.1401 32.0162H98.3792V32.0213H113.191C110.338 30.0204 108.091 27.1782 106.726 23.8536C104.91 27.2756 101.842 29.5279 98.3792 29.5279C92.8126 29.5279 88.2927 23.6997 88.2927 16.512C88.2927 9.32425 92.8126 3.5012 98.3792 3.5012C103.951 3.5012 108.476 9.32938 108.476 16.512C108.476 25.0798 115.068 32.0213 123.195 32.0213H130.434V32.0162H137.694C145.82 32.0162 152.398 25.0798 152.398 16.512C152.398 7.95442 145.82 1.00781 137.694 1.00781ZM44.3786 102.321C43.5116 101.947 42.6651 101.757 41.7826 101.757C39.6124 101.757 38.1451 103.332 38.1451 106.23C38.1451 109.098 39.4585 110.73 42.1058 110.73C43.1884 110.73 44.1375 110.478 45.1584 109.95V112.372C43.9169 112.762 42.937 112.921 41.3363 112.921C37.3653 112.921 34.7334 110.566 34.7334 106.323C34.7334 102.054 37.5808 99.5763 41.3363 99.5763C42.8703 99.5763 44.0092 99.8636 45.2354 100.32L44.3786 102.321ZM1.1709 112.642V99.8626H9.80542V101.987H4.33638V105.101H8.87168V107.009H4.33638V110.549H9.89777V112.642H1.1709ZM19.7836 112.642C19.1064 112.642 18.7729 112.427 18.4035 111.806L16.4488 108.533L13.6271 112.642H10.8926L15.2227 106.46L11.6468 100.494C11.5185 100.304 11.2363 100.052 11.0208 99.8831V99.8626H14.0734C14.8122 99.8626 15.1201 100.14 15.4279 100.678L17.1671 103.792L19.7067 99.8626H22.2257L18.3009 105.722L22.2616 112.124C22.3529 112.28 22.5174 112.398 22.6862 112.52L22.749 112.566V112.642H19.7836ZM24.2808 99.8626V112.642H32.9974V110.549H27.4514V107.009H31.9764V105.101H27.4514V101.987H32.9204V99.8626H24.2808ZM55.5842 111.062V112.642H59.4166V112.586C58.8779 112.145 58.724 111.775 58.724 111.185V99.8626H55.5842V106.548C55.5842 108.815 54.9173 110.534 53.1062 110.534C52.352 110.534 51.8493 110.375 51.4542 109.877C51.0746 109.415 50.8796 108.677 50.8796 107.492V99.8626H47.6987V108.035C47.6987 109.964 48.2477 111.206 49.1814 111.986C49.9459 112.622 50.9822 112.889 52.1981 112.889C53.8347 112.889 55.2507 111.97 55.5842 111.062ZM71.5392 101.379C71.2724 101.949 70.8979 102.159 70.0975 102.159H67.8606V112.64H64.6028V102.159H60.9243C60.7345 102.179 60.5395 102.231 60.324 102.339L60.2573 102.308L61.1398 100.676C61.4732 100.055 61.8837 99.8605 62.5609 99.8605H72.3036L71.5392 101.379ZM76.9163 112.64H73.6226V99.8605H76.9163V112.64ZM86.3717 112.642H83.0113L78.9736 100.586C78.8967 100.355 78.5683 100.088 78.2964 99.8831V99.8626H81.3644C81.9287 99.8626 82.3084 100.022 82.5239 100.694L85.3507 109.472H85.3918L88.5829 99.8626H90.984L86.3717 112.642ZM92.5171 99.8626V112.642H101.244V110.549H95.6877V107.009H100.213V105.101H95.6877V101.987H101.157V99.8626H92.5171ZM111.911 102.835L110.239 107.365H113.574L111.911 102.835ZM117.062 112.644C116.231 112.644 115.462 112.444 115.169 111.649L114.328 109.381H109.51L108.335 112.644H105.97L110.624 100.357C110.48 100.182 110.316 100.039 110.136 99.9103V99.859H114.148L118.709 112.018C118.796 112.239 119.068 112.48 119.222 112.588V112.644H117.062ZM123.717 101.963H124.702C126.195 101.963 126.913 102.445 126.913 103.774C126.913 104.944 126.247 105.559 124.892 105.559H123.717V101.963ZM123.717 107.663H125.174C129.084 107.663 130.064 105.575 130.064 103.723C130.064 101.963 129.186 99.8595 125.159 99.8595H119.875V99.9108C120.408 100.357 120.562 100.727 120.562 101.311V112.645H123.717V107.663ZM135.497 102.835L133.824 107.365H137.159L135.497 102.835ZM140.643 112.644C139.817 112.644 139.047 112.444 138.755 111.649L137.923 109.381H133.106L131.921 112.644H129.556L134.209 100.357C134.081 100.182 133.896 100.039 133.722 99.9103V99.859H137.734L142.295 112.018C142.382 112.239 142.664 112.48 142.818 112.588V112.644H140.643ZM147.303 101.986H148.503C150.012 101.986 150.689 102.411 150.689 103.699C150.689 104.797 150.012 105.418 148.565 105.418H147.303V101.986ZM151.068 111.718C151.607 112.534 152.423 112.641 153.382 112.641H155.491V112.621C155.286 112.462 155.07 112.272 154.942 112.077L151.469 106.957C153.357 106.326 153.844 104.766 153.844 103.54C153.844 101.755 152.859 99.8615 149.216 99.8615H144.158V112.641H147.303V107.526H148.298L151.068 111.718ZM166.121 101.379C165.854 101.949 165.48 102.159 164.69 102.159H162.453V112.64H159.18V102.159H155.506C155.327 102.179 155.132 102.231 154.901 102.339L154.85 102.308L155.722 100.676C156.055 100.055 156.461 99.8605 157.138 99.8605H166.901L166.121 101.379ZM178.552 103.68V112.642H181.604V99.8626H177.833L175.166 107.492H175.13L172.498 99.8626H168.152V112.642H170.692V103.454H170.723L173.375 111.273H175.833L178.516 103.68H178.552ZM184.709 112.642V99.8626H193.349V101.987H187.88V105.101H192.4V107.009H187.88V110.549H193.436V112.642H184.709ZM203.003 111.242C203.593 112.078 204.208 112.642 205.291 112.642H206.748V99.8626H204.219V107.594H204.183L198.852 99.8626H195.338V99.9139C195.877 100.355 196.031 100.73 196.031 101.314V112.642H198.57V105.008H198.596L203.003 111.242ZM219.538 101.379C219.255 101.949 218.896 102.159 218.091 102.159H215.859V112.64H212.601V102.159H208.923C208.728 102.179 208.538 102.231 208.307 102.339L208.256 102.308L209.123 100.676C209.456 100.055 209.877 99.8605 210.559 99.8605H220.287L219.538 101.379ZM220.788 112.338C222.004 112.692 223.127 112.923 224.635 112.923C228.252 112.923 229.489 110.87 229.489 108.941C229.489 106.689 228.329 105.981 226.575 105.027C226.327 104.889 226.076 104.763 225.835 104.641C224.833 104.136 223.976 103.704 224.01 102.836C224.02 102.072 224.774 101.738 225.81 101.682C226.564 101.646 227.319 101.805 228.098 102.123L229.078 100.184V100.158C227.678 99.6656 226.575 99.5783 225.261 99.5783C222.989 99.5783 221.003 100.62 220.839 103.052C220.685 105.083 222.132 106.197 223.943 107.187L224.041 107.24C225.753 108.172 226.257 108.446 226.257 109.383C226.257 110.286 225.605 110.799 224.353 110.783C223.538 110.783 222.604 110.552 221.86 110.301L220.788 112.338ZM16.0304 76.1984C16.8461 76.3729 18.021 76.614 19.0573 76.614C23.4131 76.614 27.6919 71.5554 29.7133 67.451L32.6273 61.4638L25.0856 45.3132L34.1819 40.6599L46.6386 67.487L49.604 61.4382L42.8215 46.0315L51.4971 41.7065L70.2899 83.2117H59.5057L51.2252 64.855L48.2495 71.1398L53.539 83.2117H42.3085L33.9048 65.286C26.8607 81.1955 23.1053 86.8236 17.3951 86.8236C15.5071 86.8236 12.198 86.013 10.8281 84.715L16.0304 76.1984ZM81.7099 72.2501C80.535 73.1222 79.6423 73.3275 78.6829 73.3069C76.8924 73.2505 75.9227 71.4497 75.9227 69.0333C75.9227 67.566 76.3793 65.7601 77.0052 64.6211C78.1339 62.5997 79.8167 61.1991 81.479 61.1068C82.5153 61.0657 82.9514 61.5069 83.0899 62.846C83.1771 63.713 83.2079 64.4928 83.2079 66.4322C83.2079 70.3108 83.0797 71.2496 81.7099 72.2501ZM91.3192 74.3074V57.577C91.3192 55.1452 90.7445 53.1187 89.621 51.7386C88.5692 50.4611 86.9121 48.9887 82.4743 48.9887C79.1908 48.9887 76.564 49.5838 74.4298 50.5791C73.5319 50.9895 72.8804 51.8207 72.3981 53.0109C71.8338 54.3654 71.3874 56.2021 71.0642 58.2645C74.0963 55.4787 76.9693 54.0473 78.9343 53.7497C81.5046 53.3649 83.2541 53.8882 83.2541 55.2375C83.2541 56.2226 82.5153 56.8177 81.3661 57.3923C80.7579 57.6936 79.9023 58.0145 78.9221 58.3821C77.1986 59.0284 75.0901 59.819 73.2652 60.9015C70.6999 62.4202 68.4477 64.8674 68.6683 69.8952C68.8838 75.1077 72.5623 78.5349 75.8201 78.5554C79.1908 78.5554 81.2122 76.9342 83.4593 74.9795C83.6902 76.0569 84.2289 77.4164 85.0805 78.2116H92.8018C91.9553 77.0573 91.3192 75.7542 91.3192 74.3074ZM134.931 51.3584C134.09 50.2759 132.505 49.2909 130.309 49.2909C128.446 49.2909 126.913 50.2451 125.62 51.4097C125.471 50.7787 125.06 49.8809 124.624 49.5012H116.616C117.278 50.4555 117.647 51.1532 117.647 52.8309V73.2962C117.647 74.8661 118.263 76.9901 119.874 78.2111H127.59C126.21 76.9285 125.748 74.5275 125.763 71.8545V56.4837C127.677 54.9446 129.888 55.3807 131.525 56.6171L134.931 51.3584ZM146.088 55.333V71.8581C146.078 74.5311 146.535 76.927 147.915 78.2096H140.209C138.588 76.9885 137.988 74.8645 137.988 73.2946V52.8344C137.988 51.1568 137.603 50.4539 136.951 49.4997H144.811C145.806 50.9208 146.088 52.5677 146.088 55.333ZM114.81 51.3584C113.969 50.2759 112.399 49.2909 110.188 49.2909C108.336 49.2909 106.786 50.2451 105.499 51.4097C105.345 50.7787 104.939 49.8809 104.503 49.5012H96.5049C97.1667 50.4555 97.5258 51.1532 97.5258 52.8309V73.2962C97.5258 74.8661 98.1261 76.9901 99.7627 78.2111H107.469C106.089 76.9285 105.627 74.5275 105.637 71.8545V56.4837C107.556 54.9446 109.767 55.3807 111.414 56.6171L114.81 51.3584ZM165.175 72.583C164.549 73.7271 163.82 74.2504 162.835 74.2403C161.855 74.2248 160.783 73.1423 160.131 71.0439C159.403 68.6275 159.48 62.2196 159.593 60.5316C159.747 57.9869 159.926 56.1913 160.768 54.7086C161.178 53.9647 162.173 52.8565 163.589 53.3183C164.959 53.7492 166.298 55.8116 166.555 61.845C166.847 68.489 165.929 71.2132 165.175 72.583ZM173.188 55.827C172.014 53.8159 169.761 51.3328 166.488 49.5987C164.308 48.429 163.015 48.4649 158.249 50.712C156.91 51.343 153.944 53.0258 152.631 55.1139C152.169 55.8476 151.825 57.2892 151.661 59.0336C151.379 62.0297 151.44 65.7801 151.646 68.4992C152.082 74.8917 158.418 77.8263 160.757 78.5805C164.816 79.8939 169.52 75.5792 170.731 74.3736C173.019 72.0905 174.004 70.577 174.297 67.8887C174.44 66.5445 174.466 64.99 174.44 63.0404C174.399 60.5522 174.107 57.3867 173.188 55.827ZM187.916 71.8596V51.7535H190.896L191.917 49.0805H187.916V40.0253L179.666 43.0984V49.0805H176.126L175.125 51.7535H179.666V73.2962C179.666 74.8661 180.261 76.9901 181.887 78.2111H189.732C188.352 76.9336 187.905 74.5275 187.916 71.8596ZM205.431 51.7535V71.8596C205.421 74.5275 205.867 76.9336 207.258 78.2111H199.403C197.766 76.9901 197.166 74.8661 197.166 73.2962V51.7535H192.631L193.642 49.0805H197.166V43.0984L205.431 40.0253V49.0805H209.418L208.412 51.7535H205.431ZM213.224 74.7542C213.224 75.2878 212.829 75.3186 212.383 75.3186H211.757V74.2514H212.47C212.829 74.2514 213.224 74.3284 213.224 74.7542ZM211.234 77.2579H211.757V75.7649H212.357L213.276 77.2579H213.85L212.87 75.7341C213.378 75.6828 213.763 75.4058 213.763 74.7901C213.763 74.1129 213.353 73.8102 212.537 73.8102H211.234V77.2579ZM214.81 75.5289C214.81 76.9706 213.737 78.0223 212.393 78.0223C211.013 78.0223 209.941 76.9706 209.941 75.5289C209.941 74.1129 211.013 73.0407 212.393 73.0407C213.737 73.0407 214.81 74.1129 214.81 75.5289ZM212.393 72.5379C210.736 72.5379 209.356 73.8102 209.356 75.5289C209.356 77.2579 210.736 78.5302 212.393 78.5302C214.02 78.5302 215.41 77.2579 215.41 75.5289C215.41 73.8102 214.02 72.5379 212.393 72.5379Z" clip-rule="evenodd" fill-rule="evenodd"></path>
  </g>
  <defs>
    <clipPath id="clip0_7_292">
      <rect fill="white" height="113" width="230"></rect>
    </clipPath>
  </defs>
</svg>