<svg style="width: 76px; height: 23.4652px;" aria-label="MGM Collection" role="img" preserveAspectRatio="" fill="none" viewBox="0 0 300 92" height="92" width="300" xmlns="http://www.w3.org/2000/svg">
  <g clip-path="url(#clip0_1504_16959)">
    <path fill="#A87A2B" d="M300 0.815217V55.2174H288.234V22.4728L274.755 45.1902H268.152L254.755 22.3913V55.2174H242.989V0.815217H254.755L271.495 29.2391L288.234 0.815217H300ZM230.734 27.2011V53.587H230.706C226.549 54.8913 217.473 56.1141 212.337 56.1141C193.152 56.1141 181.549 43.6141 181.549 28.0978C181.549 11.4402 194.701 0 212.174 0C217.636 0 223.206 0.570652 227.935 1.71196L226.304 12.0109C221.739 11.1957 218.288 10.8696 213.723 10.8696C200.326 10.8696 193.804 17.0652 193.804 28.0978C193.804 37.9891 200.081 45.2446 211.277 45.2446C214.158 45.2446 216.929 45.0815 219.293 44.6739V27.2011H230.734ZM170.924 0.815217V55.2174H159.185V22.4728L145.706 45.1902H139.103L125.706 22.3913V55.2174H113.94V0.815217H125.706L142.418 29.2391L159.158 0.815217H170.924ZM46.1411 91.3315C59.9998 80.8967 68.94 64.538 68.9672 46.087C68.94 27.6359 59.9998 11.25 46.1683 0.815216H92.3367V91.3315H46.1411ZM5.67935 19.5652C3.72283 19.3478 1.875 18.913 0 18.4511V4.64673C3.47826 5.54347 6.79348 7.41847 8.96739 10.6793C10.5435 14.7826 9.51087 17.8533 5.67935 19.5652ZM9.4024 32.3641H7.66327C7.28284 31.413 10.3263 29.538 11.0871 30.8696L9.4024 32.3641ZM3.42414 31.413C4.94588 32.5272 7.06545 32.9076 9.37523 32.7174C10.5567 33.4444 11.848 32.6602 13.2254 31.8236C14.3191 31.1593 15.4672 30.462 16.6578 30.462C20.4893 29.8913 25.4621 29.3478 28.1524 32.7174L26.7937 30.0815C23.1524 29.8913 20.0817 28.587 17.0111 26.875C14.0854 25.5905 11.9092 27.3118 9.75038 29.0193C7.79874 30.563 5.86127 32.0955 3.39697 31.3859L3.42414 31.413ZM4.45654 37.962C4.45654 45.9783 5.67937 53.4511 9.83698 59.5924V54.3207C9.83698 47.6902 15.2174 42.9076 20.7881 40C15.2174 41.712 9.13046 40.5163 4.45654 37.962ZM26.4945 91.3315C27.1195 90.7609 27.7174 90.1087 28.288 89.4022C34.4251 81.5869 29.9123 75.661 25.2259 69.5071C21.9442 65.1977 18.5772 60.7764 18.7228 55.5163C19.2391 50.4076 22.0652 46.5489 25.6793 42.3913L25.3261 42.038C22.0924 45.0272 20.7608 47.1467 18.8587 50.3804C15.9756 56.1714 16.2797 62.9769 16.58 69.6992C16.9335 77.6134 17.2819 85.4123 12.4185 91.3043H26.4945V91.3315ZM0.0271739 91.3315H7.93478L9.8913 89.7283C18.6959 78.0404 11.735 69.2125 4.65283 60.2308C3.05749 58.2076 1.45599 56.1766 0.0271739 54.1033V91.3315ZM0 0.815216H21.9022C22.7989 1.7663 23.4783 2.93478 24.2391 4.53804C25.4076 7.03804 24.8641 11.9565 23.587 15.1359L13.6685 15.9783C14.0217 10.8696 10.5435 6.60326 6.19565 4.04891C4.34783 3.20652 2.20109 2.6087 0 2.28261V0.815216ZM26.2773 0.815216C28.0793 3.25035 28.332 6.3838 28.5606 9.21821L28.5606 9.2183L28.5606 9.21835L28.5606 9.2185L28.5606 9.21871L28.5606 9.21886L28.5606 9.21906L28.5606 9.21933L28.5607 9.21966L28.5607 9.22002L28.5607 9.22041C28.5872 9.54819 28.6133 9.87197 28.6414 10.1902C32.4729 7.28261 37.337 5.59783 42.3642 6.95652C41.8003 6.53913 41.2676 6.13554 40.7529 5.74561L40.7529 5.74558C38.1178 3.74918 35.9556 2.11103 32.5001 0.815216H26.2773ZM44.9726 49.0489L45.8422 47.0109V46.9837C45.9509 45.8696 45.7335 44.6196 45.2987 44.2663C43.5596 42.8533 38.4237 46.6033 36.6302 48.5054C36.6777 48.901 36.6399 49.4003 36.6008 49.918C36.5055 51.1785 36.4019 52.5485 37.4998 52.7989C37.982 52.4465 37.9959 51.6763 38.0079 51.0068C38.0135 50.6955 38.0187 50.4059 38.0704 50.1902C39.2661 47.7989 41.5487 46.9293 43.9944 46.413L44.9726 49.0489ZM34.5383 62.5129C34.4807 63.555 34.4219 64.619 35.4074 65.3533C36.411 64.8123 37.7902 64.5269 39.199 64.2354C42.6726 63.5167 46.326 62.7608 44.9726 58.0435C44.2106 57.8492 44.0237 58.3286 43.8066 58.8854C43.6288 59.3413 43.4308 59.8491 42.8802 60.0815C41.7949 59.89 40.6263 60.5276 39.5228 61.1296C37.8081 62.0651 36.2506 62.9149 35.4074 60.4348L34.5378 61.2772C34.5849 61.6697 34.5617 62.0895 34.5383 62.5129ZM48.2878 42.8533C54.5378 48.8315 55.2172 57.6902 54.1846 66.1957H54.2118C53.5052 79.6739 43.6683 86.6576 33.3694 91.3043H29.9183C33.5868 85.6522 35.9237 78.2609 32.4726 71.8207C38.2063 72.3098 43.2335 70.2717 46.5487 65.6793C46.9811 64.8145 46.308 64.1975 45.6788 63.6207C45.5567 63.5088 45.4363 63.3984 45.3259 63.288C44.6445 63.5308 43.959 63.7896 43.2688 64.0502C39.5554 65.4522 35.7048 66.906 31.6031 66.1957C30.7332 65.5199 29.7512 64.9031 28.758 64.2793L28.7579 64.2793C25.997 62.5453 23.1505 60.7575 22.3911 57.5C22.6195 56.4172 22.7021 55.2624 22.785 54.1024C23.0081 50.9831 23.234 47.8254 26.3041 45.9239C26.1431 46.1052 26.161 46.361 26.1811 46.6473L26.1811 46.6474C26.1881 46.7473 26.1954 46.851 26.1954 46.9565C27.2102 47.1241 28.2026 47.4543 29.188 47.7823C31.0789 48.4115 32.9439 49.0321 34.8911 48.4783C36.3795 46.9315 38.1264 45.9176 39.8543 44.9147L39.8543 44.9147C41.3441 44.05 42.8197 43.1936 44.1031 42.0109C44.8539 42.9736 45.9459 42.9131 47.0116 42.8541H47.0116H47.0117H47.0117H47.0118H47.0118H47.0118H47.0119H47.0119H47.012H47.012H47.0121H47.0121C47.4503 42.8298 47.8841 42.8058 48.2878 42.8533ZM61.6574 31.4946C58.8041 21.712 49.9454 8.64132 38.0161 9.32066C33.4509 9.56523 29.1031 12.8261 27.3911 15.4891C30.5161 17.2011 33.9944 19.7554 36.9563 22.4728C36.909 22.7723 36.9326 23.0992 36.9561 23.425C37.0136 24.2227 37.0707 25.0138 36.0867 25.3804C35.6009 25.0119 35.1332 24.4652 34.6628 23.9154C33.6073 22.6816 32.5385 21.4324 31.2226 22.1467C32.5408 24.8513 35.6647 25.541 38.5913 26.1871C39.164 26.3135 39.729 26.4383 40.2715 26.5761C40.6531 26.9492 40.8813 27.4043 41.0938 27.8284C41.5624 28.7632 41.9552 29.5469 43.7498 28.9674C44.9726 29.3207 45.4889 30.6793 45.8422 31.875C44.4368 34.3937 41.3887 34.142 38.5918 33.9109C37.2245 33.798 35.9172 33.69 34.8911 33.913C35.8547 34.2944 36.8664 34.5794 37.8811 34.8653L37.8812 34.8653L37.8813 34.8653L37.8814 34.8653L37.8814 34.8654L37.8815 34.8654L37.8815 34.8654L37.8816 34.8654L37.8816 34.8655L37.8817 34.8655C39.6141 35.3535 41.3552 35.844 42.8802 36.8207C44.6805 37.9408 45.5236 36.3076 46.2551 34.8907C46.5174 34.3827 46.7653 33.9025 47.0378 33.587C49.6022 34.2071 49.7268 36.0678 49.8539 37.9639C49.9328 39.1419 50.0127 40.3336 50.6791 41.25C59.5378 50.2717 57.7987 66.1141 53.2878 76.4946C65.4618 65.5978 64.4835 41.3043 61.6302 31.5217L61.6574 31.4946ZM120.87 88.0707C119.212 88.0707 118.152 87.4185 118.152 85V76.1413C118.152 73.7228 119.212 73.0707 120.87 73.0707C122.527 73.0707 123.587 73.7228 123.587 76.1413V76.7391H127.745V76.6848C127.745 71.3315 124.919 69.4022 120.87 69.4022C116.821 69.4022 113.995 71.3315 113.995 76.6848V84.4565C113.995 89.8098 116.821 91.7391 120.87 91.7391C124.919 91.7391 127.745 89.8098 127.745 84.4565V83.5598H123.587V85C123.587 87.4185 122.527 88.0707 120.87 88.0707ZM134.484 76.6848C134.484 71.3315 137.31 69.4022 141.359 69.4022C145.408 69.4022 148.234 71.3315 148.234 76.6848V84.4565C148.234 89.8098 145.408 91.7391 141.359 91.7391C137.31 91.7391 134.484 89.8098 134.484 84.4565V76.6848ZM138.641 85C138.641 87.4185 139.701 88.0707 141.359 88.0707C143.016 88.0707 144.076 87.4185 144.076 85V76.1413C144.076 73.7228 143.016 73.0707 141.359 73.0707C139.701 73.0707 138.641 73.7228 138.641 76.1413V85ZM156.087 69.7011V91.4402H166.929V87.7717H160.245V69.7011H156.087ZM173.967 91.4402V69.7011H178.125V87.7717H184.81V91.4402H173.967ZM191.821 69.7011V91.413H203.505V87.7446H195.978V82.038H201.495V78.3696H195.978V73.3696H203.207V69.7011H191.821ZM215.163 85C215.163 87.4185 216.223 88.0707 217.88 88.0707C219.538 88.0707 220.598 87.4185 220.598 85V83.5598H224.755V84.4565C224.755 89.8098 221.929 91.7391 217.88 91.7391C213.832 91.7391 211.005 89.8098 211.005 84.4565V76.6848C211.005 71.3315 213.832 69.4022 217.88 69.4022C221.929 69.4022 224.755 71.3315 224.755 76.6848V76.7391H220.598V76.1413C220.598 73.7228 219.538 73.0707 217.88 73.0707C216.223 73.0707 215.163 73.7228 215.163 76.1413V85ZM245.19 73.3696V69.7011H231.359V73.3696H236.196V91.4402H240.353V73.3696H245.19ZM252.419 91.4402V69.7011H256.576V91.4402H252.419ZM271.576 69.4022C267.527 69.4022 264.701 71.3315 264.701 76.6848V84.4565C264.701 89.8098 267.527 91.7391 271.576 91.7391C275.625 91.7391 278.451 89.8098 278.451 84.4565V76.6848C278.451 71.3315 275.625 69.4022 271.576 69.4022ZM271.576 88.0707C269.919 88.0707 268.859 87.4185 268.859 85V76.1413C268.859 73.7228 269.919 73.0707 271.576 73.0707C273.234 73.0707 274.294 73.7228 274.294 76.1413V85C274.294 87.4185 273.234 88.0707 271.576 88.0707ZM285.788 91.4402V69.7011H290.326L296.114 82.5815H296.169V69.7011H299.973V91.4402H296.005L289.647 77.4185H289.592V91.4402H285.788Z" clip-rule="evenodd" fill-rule="evenodd"></path>
  </g>
  <defs>
    <clipPath id="clip0_1504_16959">
      <rect fill="white" height="92" width="300"></rect>
    </clipPath>
  </defs>
</svg>