<svg style="width: 80px; height: 42.1307px;" aria-label="Outdoor Collection by Marriott Bonvoy" role="img" preserveAspectRatio="" fill="none" viewBox="0 0 300 157" height="157" width="300" xmlns="http://www.w3.org/2000/svg">
  <g clip-path="url(#clip0_12922_99853)">
    <path fill="#1C1C1C" d="M51.4746 149.131L54.0547 143.761H56.3447L50.1348 156.431H47.8643L50.2842 151.521L46.6748 143.761H49.0547L51.4746 149.131ZM138.876 139.581C142.566 139.582 145.556 142.571 145.556 146.261C145.556 149.951 142.566 152.941 138.876 152.941C135.186 152.941 132.195 149.951 132.195 146.261C132.195 142.571 135.186 139.581 138.876 139.581ZM198.617 139.581C202.307 139.581 205.297 142.571 205.297 146.261C205.297 149.951 202.307 152.941 198.617 152.941C194.927 152.941 191.938 149.951 191.938 146.261C191.938 142.571 194.927 139.581 198.617 139.581ZM38.0938 144.561C38.5838 144.051 39.6142 143.572 40.8242 143.572C43.1642 143.572 45.1641 145.402 45.1641 148.202C45.1639 151.001 43.1542 152.831 40.7344 152.831C39.3644 152.831 38.5039 152.322 37.9639 151.702V152.661H35.9844V139.841H38.0938V144.561ZM72.2041 147.151L76.2744 139.841H78.8447V152.681H76.6045V143.591L73.0244 150.171H71.3848L67.8047 143.591V152.681H65.5645V139.841H68.1348L72.2041 147.151ZM94.7646 152.681H92.375L91.2148 150.181H85.3652L84.2051 152.681H81.8145L87.7646 139.831H88.8145L94.7646 152.681ZM104.064 139.841C106.424 139.841 108.345 141.531 108.345 143.621C108.345 145.521 106.745 147.101 104.675 147.361V147.371L108.345 152.681H105.785L102.155 147.411H99.9346V152.681H97.6943V139.841H104.064ZM118.426 139.841C120.786 139.841 122.706 141.531 122.706 143.621C122.706 145.521 121.106 147.101 119.036 147.361V147.371L122.706 152.681H120.146L116.516 147.411H114.296V152.681H112.056V139.841H118.426ZM128.735 152.681H126.495V139.841H128.735V152.681ZM157.097 141.891H153.257V152.681H151.017V141.891H147.177V139.841H157.097V141.891ZM169.246 141.891H165.406V152.681H163.166V141.891H159.326V139.841H169.246V141.891ZM216.378 148.121V139.841H218.618V152.681H217.498L210.208 144.401V152.681H207.968V139.841H209.088L216.378 148.121ZM227.128 148.401L230.838 139.831H233.317L227.647 152.681H226.618L220.948 139.831H223.418L227.128 148.401ZM245.398 152.681H234.118V150.801H245.398V152.681ZM252.028 145.151L255.759 139.831H258.318L253.158 147.141V152.681H250.908V147.151L245.738 139.831H248.299L252.028 145.151ZM185.026 139.831C187.256 139.831 189.076 141.441 189.076 143.411C189.076 144.251 188.736 145.071 188.116 145.721L187.967 145.881L188.137 146.001C189.097 146.731 189.646 147.781 189.646 148.891C189.646 150.971 187.726 152.671 185.366 152.671H178.997V139.831H185.026ZM40.5039 145.572C39.0741 145.572 37.9541 146.611 37.9541 148.211C37.9542 149.811 39.0741 150.851 40.5039 150.851C41.9339 150.851 43.0546 149.811 43.0547 148.211C43.0547 146.621 41.9339 145.572 40.5039 145.572ZM181.257 150.801L185.377 150.811C186.557 150.811 187.517 149.961 187.517 148.901C187.516 147.841 186.557 146.992 185.377 146.992H181.257V150.801ZM138.876 141.782C136.406 141.782 134.396 143.791 134.396 146.261C134.396 148.731 136.406 150.742 138.876 150.742C141.346 150.741 143.355 148.731 143.355 146.261C143.355 143.791 141.346 141.782 138.876 141.782ZM198.617 141.782C196.147 141.782 194.138 143.791 194.138 146.261C194.138 148.731 196.147 150.741 198.617 150.742C201.087 150.742 203.098 148.731 203.098 146.261C203.098 143.791 201.087 141.782 198.617 141.782ZM239.758 139.581C242.228 139.581 244.238 141.591 244.238 144.061C244.238 146.531 242.228 148.541 239.758 148.541C237.288 148.541 235.278 146.531 235.278 144.061C235.278 141.591 237.288 139.582 239.758 139.581ZM86.2549 148.271H90.335L88.2949 143.861L86.2549 148.271ZM239.758 141.481C238.338 141.481 237.178 142.641 237.178 144.061C237.178 145.481 238.338 146.641 239.758 146.641C241.178 146.641 242.338 145.481 242.338 144.061C242.338 142.641 241.178 141.481 239.758 141.481ZM99.9346 145.532H104.055C105.235 145.532 106.194 144.681 106.194 143.621C106.194 142.561 105.235 141.711 104.055 141.711H99.9346V145.532ZM114.296 145.532H118.416C119.596 145.531 120.556 144.681 120.556 143.621C120.556 142.562 119.596 141.711 118.416 141.711H114.296V145.532ZM181.257 145.111H185.037C186.077 145.11 186.936 144.351 186.937 143.411C186.937 142.472 186.087 141.712 185.037 141.711H181.257V145.111ZM261.089 140.282H260.329V142.411H259.799V140.282H259.029V139.822H261.089V140.282ZM262.719 141.791L263.229 139.822H264.02V142.411H263.52V140.322L262.989 142.411H262.449L261.919 140.322V142.411H261.419V139.822H262.199L262.719 141.791ZM21.9141 66.2796C32.2841 66.2798 40.7344 72.55 40.7344 78.7601C40.7343 81.4001 39.024 83.18 36.0439 83.18C28.9138 83.18 29.1838 70.31 19.8037 70.3099C14.5237 70.3099 9.70329 75.4597 9.70312 83.7796C9.70312 96.8499 17.4339 105.5 25.4141 105.5C32.084 105.5 35.9135 100.68 37.8936 97.18C38.9536 95.8 41.2645 96.1905 41.0645 98.2406C40.3444 106.561 34.334 114.41 22.4541 114.411C9.97382 114.411 0.00292969 102.46 0.00292969 89.7201L0 89.0882C0.271316 75.8824 9.04813 66.2796 21.9141 66.2796ZM61.3535 81.3998C71.5235 81.3998 79.1143 88.6604 79.1143 98.0404C79.114 107.42 71.9836 114.41 62.3438 114.41C51.714 114.409 44.2541 106.88 44.2539 97.7103C44.2539 88.1405 52.1137 81.4 61.3535 81.3998ZM133.576 81.3998C142.216 81.3998 146.056 86.4197 146.057 90.7796C146.057 93.0196 144.936 94.3402 143.156 95.1302L128.506 101.8C130.216 105.43 133.257 107.54 137.227 107.54C140.726 107.54 143.496 105.76 144.746 103.71C145.536 102.72 147.056 103.05 146.996 104.44L146.928 104.805C146.301 108.647 141.821 114.41 133.576 114.41C124.396 114.41 117.606 107.81 117.606 97.64C117.606 88.07 124.936 81.3998 133.576 81.3998ZM242.629 81.3998C252.799 81.3999 260.389 88.6605 260.389 98.0404C260.388 107.42 253.258 114.41 243.618 114.41C232.989 114.409 225.529 106.88 225.528 97.7103C225.528 88.1403 233.389 81.3998 242.629 81.3998ZM166.087 81.3998C173.677 81.3398 179.757 85.4901 179.757 90.64C179.757 92.35 178.697 94.0697 175.667 93.9398C169.987 93.6098 170.386 84.2302 164.646 84.3002C160.887 84.3003 158.507 88.2005 158.507 93.0804C158.507 101.86 162.997 107.6 169.736 107.6C173.766 107.6 176.267 105.35 177.657 102.98C178.457 101.92 180.097 102.19 179.967 103.64C179.577 109.05 175.077 114.4 166.497 114.4C156.527 114.4 149.467 106.74 149.467 97.8304L149.452 97.3666C149.688 87.4779 157.306 81.4687 166.087 81.3998ZM194.316 73.9398C195.236 73.9398 195.767 74.5299 195.767 75.5199L195.837 82.0599H203.427C204.147 82.0599 204.747 82.6497 204.747 83.4496V84.5697C204.747 85.3597 204.147 85.89 203.427 85.89H195.837V103.119C195.837 105.759 197.287 107.34 199.207 107.34C201.847 107.34 203.167 105.889 203.697 104.369C204.497 103.25 206.077 103.51 206.077 104.76C206.077 109.52 202.507 114.4 195.907 114.4C189.897 114.4 185.937 110.5 185.937 102.98V85.89H182.837C182.047 85.89 181.517 85.3597 181.517 84.5697V83.4496C181.517 82.5897 181.977 82.0599 182.837 82.0599H184.487C188.187 82.0597 190.757 79.4196 191.477 75.5199C191.677 74.5299 192.277 73.9398 192.997 73.9398H194.316ZM272.199 81.6703C273.719 80.8803 274.449 81.7999 274.449 83.0599V86.7601C276.229 83.3901 279.73 81.4095 284.22 81.4095C290.23 81.4096 296.039 84.9803 296.829 95.4701L297.619 107.35C297.819 110.25 299.999 110.78 299.999 112.43V112.69C299.999 113.35 299.409 113.81 298.479 113.81H287.06C286.14 113.81 285.539 113.35 285.539 112.69V112.43C285.539 110.78 288.049 110.25 287.919 107.35L287.26 95.14C286.93 88.0802 285.01 85.1705 281.51 85.1703C278.01 85.1703 275.899 88.14 275.899 92.43V107.42C275.9 110.26 278.739 110.79 278.739 112.44V112.7C278.739 113.359 278.15 113.82 277.22 113.82H264.939C264.019 113.82 263.419 113.36 263.419 112.7V112.44C263.419 110.79 266.26 110.26 266.26 107.42V92.0404C266.26 89.0704 263.029 88.8098 263.029 87.1498V86.89C263.029 86.23 263.55 85.9003 264.35 85.5004L272.199 81.6703ZM91.3945 64.2494C93.1046 63.3894 94.1055 64.3198 94.1055 65.4398V107.431C94.1058 110.2 96.9448 110.731 96.9453 112.38V112.641C96.9451 113.301 96.2847 113.761 95.4248 113.761H83.2744C82.3547 113.761 81.755 113.301 81.7549 112.641V112.37C81.7551 110.721 84.3252 110.19 84.3252 107.42V74.9398C84.3252 71.9698 81.7549 71.3093 81.7549 69.9193V69.6595C81.755 68.9997 82.2853 68.6702 83.0752 68.3402L91.3945 64.2494ZM109.576 64.2494C111.286 63.3895 112.286 64.3198 112.286 65.4398V107.431C112.286 110.2 115.125 110.731 115.126 112.38V112.641C115.126 113.301 114.466 113.761 113.606 113.761H101.456C100.526 113.761 99.9357 113.301 99.9355 112.641V112.37C99.9358 110.721 102.506 110.19 102.506 107.42V74.9398C102.506 71.9698 99.9355 71.3093 99.9355 69.9193V69.6595C99.9357 68.9997 100.456 68.6701 101.256 68.3402L109.576 64.2494ZM217.538 81.68C219.188 80.89 220.249 81.8103 220.249 83.0004V107.361C220.249 110.201 223.019 110.731 223.019 112.381V112.641C223.018 113.301 222.429 113.761 221.499 113.761H209.349C208.489 113.761 207.899 113.301 207.898 112.641V112.37C207.899 110.721 210.408 110.191 210.408 107.351V92.43C210.408 89.5302 207.898 88.7999 207.898 87.35V87.1498C207.899 86.56 208.428 86.2298 209.288 85.7699L217.538 81.68ZM60.0342 84.3002C56.0742 84.3002 53.9639 87.6699 53.9639 93.9398C53.9639 100.67 57.5342 111.5 63.5342 111.5C67.104 111.5 69.2138 108 69.2139 101.93C69.2139 94.7301 65.644 84.3005 60.0342 84.3002ZM241.309 84.3002C237.349 84.3002 235.238 87.6699 235.238 93.9398C235.238 100.67 238.809 111.5 244.809 111.5C248.379 111.5 250.488 108 250.488 101.93C250.488 94.73 246.919 84.3002 241.309 84.3002ZM132.396 84.3197C128.836 84.3197 126.786 88.08 126.786 93.1V93.8519C126.831 95.6144 127.034 97.2649 127.437 98.7699L135.956 94.4798C137.146 93.8899 137.676 92.7601 137.676 91.3802C137.676 89.0003 135.956 84.3199 132.396 84.3197ZM215.368 65.8197C219.268 65.8197 221.769 68.2598 221.769 71.5599C221.769 74.86 219.258 77.3705 215.368 77.3705C211.478 77.3703 208.828 74.9299 208.828 71.5599C208.828 68.2599 211.468 65.8198 215.368 65.8197ZM103.524 17.9281C105.244 17.7281 106.034 17.9985 106.034 19.1185V43.2787C106.034 48.4984 109.204 46.0486 109.204 48.4984L109.198 48.6478C109.067 50.0525 106.909 50.4183 103.324 50.4183C99.6243 50.4183 97.6443 49.3582 97.4443 46.1283C95.6643 49.0283 92.434 50.6888 87.874 50.6888C81.0742 50.6887 75.5947 45.9982 75.5947 36.9584V25.7982C75.5945 22.8986 73.0148 22.2285 73.0146 20.7787V20.5785C73.0147 19.9185 73.5444 19.3289 74.4043 19.1888L82.7246 17.9388C84.4444 17.7389 85.4344 18.0085 85.4346 19.1283L85.2344 37.9388C85.2344 44.0786 87.0849 46.9183 90.7148 46.9183C93.8845 46.918 96.3944 43.8784 96.3945 39.1888V25.7884C96.3945 22.8888 93.7544 22.2186 93.7539 20.7689V20.5687C93.7539 19.9087 94.2843 19.3181 95.0742 19.1781L103.524 17.9281ZM166.757 0.44859C168.537 -0.141397 169.327 0.248063 169.327 1.76793V43.6888C169.327 46.4589 171.967 47.1293 171.967 48.7093V48.8988C171.967 49.6288 171.437 50.0189 170.646 50.0189H162.467C161.537 50.0189 160.947 49.4294 160.946 48.5697L160.816 47.1195C158.836 49.4294 155.596 50.6888 152.236 50.6888C144.176 50.6888 136.716 44.7487 136.716 34.1185C136.716 24.3487 143.846 17.6783 152.296 17.6781C155.526 17.6781 158.037 18.6082 160.017 20.2582V9.69859C160.017 6.65852 156.717 6.468 156.717 4.80796V4.60777C156.717 3.94794 157.247 3.3582 158.106 3.08824L166.757 0.44859ZM46.7344 2.48863C60.5347 2.48863 69.8447 13.2487 69.8447 26.849C69.8446 40.4492 59.8048 50.679 46.9346 50.6791C34.0644 50.6791 23.5646 40.1792 23.5645 26.7191C23.5645 12.5188 32.9342 2.48871 46.7344 2.48863ZM191.537 17.6683C201.707 17.6683 209.298 24.9289 209.298 34.3089C209.298 43.6887 202.167 50.6781 192.527 50.6781C181.898 50.678 174.438 43.1486 174.438 33.9789C174.438 24.409 182.297 17.6685 191.537 17.6683ZM229.518 17.6683C239.688 17.6683 247.278 24.9289 247.278 34.3089C247.278 43.6887 240.148 50.6781 230.508 50.6781C219.878 50.678 212.418 43.1487 212.418 33.9789C212.418 24.409 220.278 17.6685 229.518 17.6683ZM122.855 10.2084C123.785 10.2084 124.306 10.7984 124.306 11.7884L124.375 18.3285H131.966C132.696 18.3287 133.285 18.9184 133.285 19.7181V20.8382C133.285 21.6281 132.696 22.1584 131.966 22.1586H124.375V39.388C124.375 42.0279 125.825 43.6086 127.745 43.6087C130.385 43.6087 131.705 42.158 132.235 40.638C133.025 39.5182 134.615 39.7787 134.615 41.0287C134.615 45.7886 131.045 50.6683 124.445 50.6683C118.435 50.6682 114.476 46.7683 114.476 39.2484L114.466 22.1586H111.365C110.575 22.1584 110.046 21.6282 110.046 20.8382V19.7181C110.046 18.8583 110.505 18.3286 111.365 18.3285H113.016C116.716 18.3284 119.286 15.6883 120.016 11.7884C120.216 10.7986 120.805 10.2085 121.535 10.2084H122.855ZM259.259 17.9281C260.779 17.1981 261.369 17.9985 261.369 19.2484V24.1986C262.819 19.9787 265.929 17.6587 270.349 17.6586C274.239 17.6586 276.419 20.2984 276.419 23.6683L276.416 24.1937C276.288 26.7452 275.171 28.8988 272.209 28.8988C267.059 28.8987 269.369 23.2181 265.799 23.2181C263.229 23.2183 262.299 26.849 262.299 30.4789V43.6781C262.299 46.4479 265.598 46.9785 265.599 48.6283V48.8988C265.599 49.6285 265.009 50.0188 264.149 50.0189H251.939C251.01 50.0189 250.419 49.6286 250.419 48.8988V48.6283C250.419 46.9785 252.989 46.4479 252.989 43.6781V28.2289C252.989 25.3291 249.95 25.1286 249.949 23.4789V23.2181C249.949 22.5583 250.479 22.0282 251.339 21.6283L259.259 17.9281ZM152.816 20.5082C148.916 20.5082 146.277 24.0785 146.146 30.2084C145.886 37.4685 148.916 47.6392 154.396 47.8392C157.107 47.8392 160.007 45.4587 160.007 40.7787L160.017 29.1586C160.016 24.9285 156.716 20.5082 152.816 20.5082ZM190.218 20.5785C186.258 20.5785 184.148 23.9483 184.147 30.2181C184.147 36.9481 187.718 47.7787 193.718 47.7787C197.288 47.7785 199.397 44.2782 199.397 38.2084C199.397 31.0085 195.828 20.5787 190.218 20.5785ZM228.198 20.5785C224.238 20.5785 222.118 23.9483 222.118 30.2181C222.118 36.948 225.688 47.7782 231.688 47.7787C235.247 47.7787 237.368 44.2784 237.368 38.2084L237.367 37.5248C237.153 30.3672 233.633 20.5789 228.198 20.5785ZM43.1748 6.77867C37.1047 6.77867 33.2744 11.5286 33.2744 18.8587C33.2745 32.389 40.4747 46.389 49.7148 46.389C55.8549 46.3889 59.8145 41.3089 59.8145 34.4388C59.8144 21.4987 52.4848 6.77903 43.1748 6.77867Z"></path>
  </g>
  <defs>
    <clipPath id="clip0_12922_99853">
      <rect fill="white" height="157" width="300"></rect>
    </clipPath>
  </defs>
</svg>