<svg aria-label="oc" role="img" preserveAspectRatio="" fill="none" viewBox="0 0 300 55" height="55" width="300" xmlns="http://www.w3.org/2000/svg">
  <g clip-path="url(#clip0_12922_25308)">
    <path fill="#1C1C1C" d="M87.0146 49.8342L88.665 46.4045H90.125L86.1543 54.5041H84.7051L86.2441 51.3644H86.2549L83.9443 46.4045H85.4648L87.0146 49.8342ZM142.881 43.7345C145.241 43.7347 147.15 45.6451 147.15 48.0051C147.15 50.3647 145.241 52.2744 142.881 52.2746C140.521 52.2746 138.611 50.3648 138.61 48.0051C138.61 45.6451 140.521 43.7345 142.881 43.7345ZM181.068 43.7345C183.428 43.7345 185.339 45.6451 185.339 48.0051C185.339 50.3648 183.428 52.2746 181.068 52.2746C178.709 52.2745 176.799 50.3648 176.799 48.0051C176.799 45.6451 178.708 43.7346 181.068 43.7345ZM78.4648 46.924C78.7849 46.594 79.4352 46.2941 80.2051 46.2941C81.705 46.2941 82.9754 47.4643 82.9756 49.2541C82.9756 51.0439 81.6853 52.2138 80.1455 52.214C79.2655 52.214 78.715 51.8845 78.375 51.4845V52.0939H77.1152V43.9045H78.4648V46.924ZM100.264 48.5744L102.863 43.8947H104.504V52.1047H103.073V46.2941L100.794 50.5041H99.7432L97.4531 46.2941V52.1047H96.0234V43.8947H97.6631L100.264 48.5744ZM114.692 52.1047H113.162L112.423 50.5041H108.683L107.942 52.1047H106.412L110.213 43.8947H110.893L114.692 52.1047ZM120.622 43.8947C122.132 43.8947 123.362 44.9846 123.362 46.3146C123.362 47.5345 122.342 48.5343 121.022 48.7043H121.013L123.353 52.1047H121.723L119.402 48.7345H117.982V52.1047H116.553V43.8947H120.622ZM129.802 43.8947C131.312 43.8948 132.542 44.9847 132.542 46.3146C132.542 47.5346 131.521 48.5343 130.201 48.7043H130.191L132.531 52.1047H130.901L128.581 48.7345H127.161V52.1047H125.731V43.8947H129.802ZM136.401 52.1047H134.971V43.8947H136.401V52.1047ZM154.53 45.214H152.07V52.1047H150.64V45.214H148.19V43.8947H154.53V45.214ZM162.299 45.214H159.839V52.1047H158.409V45.214H155.949V43.8947H162.299V45.214ZM192.418 49.1847V43.8947H193.848V52.1047H193.138L188.478 46.8146V52.1047H187.048V43.8947H187.758L192.418 49.1847ZM199.297 49.3742L201.667 43.8947H203.247L199.627 52.1047H198.968L195.337 43.8947H196.917L199.297 49.3742ZM215.206 47.2941L217.596 43.8947H219.226L215.936 48.5646H215.926V52.1047H214.496V48.5646L211.186 43.8947H212.826L215.206 47.2941ZM210.977 52.1037H203.767V50.9045H210.977V52.1037ZM172.389 43.8849C173.818 43.8851 174.978 44.9143 174.979 46.174C174.979 46.714 174.768 47.2445 174.368 47.6545L174.269 47.7541L174.378 47.8342C174.998 48.2941 175.348 48.9642 175.349 49.674C175.349 51.014 174.118 52.0948 172.608 52.0949H168.538V43.8849H172.389ZM80.0049 47.5549C79.085 47.555 78.375 48.2244 78.375 49.2443C78.375 50.2642 79.085 50.9346 80.0049 50.9347C80.9249 50.9347 81.6348 50.2643 81.6348 49.2443C81.6347 48.2244 80.9249 47.5549 80.0049 47.5549ZM169.969 50.9045H172.608C173.368 50.9044 173.978 50.3546 173.979 49.6847C173.979 49.0148 173.358 48.4641 172.608 48.464H169.969V50.9045ZM142.881 45.1447C141.301 45.1447 140.021 46.4251 140.021 48.0051C140.021 49.5848 141.301 50.8644 142.881 50.8644C144.461 50.8643 145.74 49.5847 145.74 48.0051C145.74 46.4252 144.461 45.1449 142.881 45.1447ZM181.068 45.1447C179.488 45.1448 178.209 46.4251 178.209 48.0051C178.209 49.5848 179.489 50.8643 181.068 50.8644C182.648 50.8644 183.928 49.5848 183.929 48.0051C183.929 46.4251 182.648 45.1447 181.068 45.1447ZM207.366 43.7345C208.946 43.7345 210.227 45.0149 210.227 46.5949C210.226 48.1747 208.946 49.4543 207.366 49.4543C205.787 49.454 204.507 48.1746 204.507 46.5949C204.507 45.015 205.786 43.7348 207.366 43.7345ZM109.242 49.2843H111.862L110.553 46.464L109.242 49.2843ZM207.366 44.9445C206.456 44.9448 205.717 45.685 205.717 46.5949C205.717 47.5046 206.457 48.2441 207.366 48.2443C208.276 48.2443 209.016 47.5047 209.017 46.5949C209.017 45.6849 208.276 44.9445 207.366 44.9445ZM117.992 47.5343H120.633C121.393 47.5342 122.002 46.9844 122.002 46.3146C122.002 45.6447 121.393 45.0951 120.633 45.0949H117.992V47.5343ZM127.172 47.5343H129.812C130.571 47.5343 131.182 46.9846 131.182 46.3146C131.182 45.6446 130.572 45.0949 129.812 45.0949H127.172V47.5343ZM169.969 47.2648H172.389C173.058 47.2646 173.608 46.7845 173.608 46.1847C173.608 45.5849 173.059 45.0951 172.389 45.0949H169.969V47.2648ZM221.006 44.1847H220.516V45.5441H220.176V44.1847H219.687V43.8947H221.006V44.1847ZM222.036 45.1447L222.355 43.8849H222.866V45.5441H222.546V44.2043L222.206 45.5441H221.855L221.516 44.2043V45.5441H221.195V43.8849H221.706L222.036 45.1447ZM153.149 1.26677C158.619 1.26677 163.089 4.57688 163.089 7.85662C163.089 9.24652 162.189 10.1965 160.609 10.1965C156.85 10.1964 156.99 3.39673 152.04 3.39665C149.25 3.39665 146.71 6.11729 146.71 10.507C146.71 17.4063 150.79 21.9758 155.01 21.9758C158.53 21.9758 160.55 19.426 161.6 17.5861C162.16 16.8564 163.379 17.0662 163.27 18.1457C162.89 22.5354 159.709 26.6857 153.439 26.6857C146.85 26.6855 141.591 20.376 141.591 13.6467L141.594 12.9718C141.874 6.16586 146.466 1.267 153.149 1.26677ZM52.4268 5.30681C52.9166 5.30682 53.1962 5.61685 53.1963 6.14665L53.2363 9.59685H57.2461C57.626 9.59685 57.9461 9.90652 57.9463 10.3263V10.9162C57.9463 11.3362 57.6361 11.6164 57.2461 11.6164H53.2363V20.716C53.2363 22.1059 54.0067 22.9455 55.0166 22.9455C56.4064 22.9455 57.1067 22.1761 57.3867 21.3761C57.8067 20.7862 58.6367 20.9261 58.6367 21.5861C58.6366 24.0959 56.7563 26.676 53.2666 26.676C50.0969 26.6759 48.0068 24.6154 48.0068 20.6457L47.9971 11.6164H46.3574C45.9375 11.6164 45.6572 11.3362 45.6572 10.9162V10.3263C45.6573 9.87655 45.8976 9.59685 46.3574 9.59685H47.2275C49.1772 9.59663 50.5368 8.20636 50.9268 6.14665C51.0268 5.62693 51.3467 5.30694 51.7266 5.30681H52.4268ZM88.6846 9.24626C94.0541 9.24635 98.0635 13.0769 98.0635 18.0265C98.0632 22.976 94.3034 26.676 89.2139 26.676C83.6045 26.6757 79.665 22.7052 79.665 17.8556L79.667 17.3869C79.9151 12.5873 83.9575 9.24626 88.6846 9.24626ZM108.742 9.24626C114.112 9.24626 118.122 13.0769 118.122 18.0265C118.122 22.976 114.362 26.676 109.272 26.676C103.663 26.6759 99.7236 22.7053 99.7236 17.8556L99.7256 17.3869C99.9737 12.5875 104.015 9.24648 108.742 9.24626ZM173.988 9.24626C179.358 9.24626 183.368 13.0769 183.368 18.0265C183.368 22.9759 179.598 26.6759 174.519 26.676C168.909 26.676 164.969 22.7053 164.969 17.8556L164.971 17.3869C165.219 12.5873 169.261 9.24632 173.988 9.24626ZM212.105 9.24626C216.675 9.24626 218.695 11.8966 218.695 14.1965C218.695 15.3763 218.105 16.0763 217.155 16.4963L209.416 20.0158C210.326 21.9356 211.926 23.046 214.016 23.0461C215.866 23.0461 217.325 22.1055 217.995 21.0256C218.415 20.5057 219.215 20.6759 219.176 21.4054L219.159 21.6086C218.825 23.635 216.465 26.676 212.105 26.676C207.256 26.6758 203.666 23.1857 203.666 17.8263C203.666 12.7768 207.536 9.24648 212.105 9.24626ZM229.274 9.24626C233.284 9.21627 236.494 11.4064 236.494 14.1261C236.494 15.036 235.935 15.9362 234.335 15.8664C231.335 15.6964 231.544 10.7365 228.515 10.7765C226.525 10.7767 225.275 12.8365 225.275 15.4162C225.275 20.0559 227.645 23.0861 231.205 23.0861C233.335 23.086 234.655 21.9055 235.385 20.6457C235.805 20.0861 236.674 20.2265 236.604 20.9963C236.394 23.8559 234.024 26.6758 229.495 26.676C224.235 26.676 220.506 22.6356 220.506 17.926L220.507 17.4289C220.751 12.3548 224.722 9.27551 229.274 9.24626ZM244.194 5.30681C244.684 5.30681 244.965 5.61685 244.965 6.14665L245.005 9.59685H249.015C249.394 9.59709 249.714 9.90668 249.714 10.3263V10.9162C249.714 11.336 249.404 11.6162 249.015 11.6164H245.005V20.716C245.005 22.1058 245.774 22.9454 246.784 22.9455C248.174 22.9455 248.874 22.176 249.154 21.3761C249.574 20.7862 250.414 20.9261 250.414 21.5861C250.414 24.0958 248.534 26.6757 245.045 26.676C241.875 26.676 239.785 24.6154 239.785 20.6457L239.765 11.6164H238.125C237.705 11.6164 237.425 11.3362 237.425 10.9162V10.3263C237.425 9.87655 237.665 9.59685 238.125 9.59685H238.995C240.945 9.59673 242.304 8.20643 242.694 6.14665C242.794 5.627 243.114 5.30705 243.494 5.30681H244.194ZM269.692 9.24626C275.062 9.24638 279.071 13.0769 279.071 18.0265C279.071 22.976 275.311 26.676 270.222 26.676C264.612 26.6758 260.673 22.7052 260.673 17.8556L260.675 17.3869C260.923 12.5873 264.965 9.24626 269.692 9.24626ZM12.2393 1.22771C19.5286 1.22774 24.4383 6.90675 24.4385 14.0861C24.4385 21.2656 19.1384 26.6652 12.3389 26.6652C5.53949 26.665 4.33527e-05 21.1359 0 14.0265C0 6.52702 4.94973 1.22771 12.2393 1.22771ZM31.2383 9.38689C32.1481 9.27693 32.668 9.41685 32.668 10.0168L32.5576 19.9562C32.5577 23.1959 33.5382 24.6955 35.458 24.6955C37.1277 24.6954 38.4579 23.0959 38.458 20.6164V13.5363C38.4579 12.0067 37.0677 11.6566 37.0674 10.8869V10.7863C37.0675 10.4365 37.3478 10.1268 37.7676 10.0568L42.2275 9.39665C43.1373 9.28671 43.5468 9.4267 43.5469 10.0265V22.7853C43.5469 25.5349 45.2165 24.2459 45.2168 25.5353L45.2041 25.6691C45.0704 26.3511 43.945 26.5353 42.1172 26.5353C40.1675 26.5353 39.1176 25.9756 39.0176 24.2658C38.0776 25.7956 36.3678 26.6652 33.958 26.6652C30.3683 26.6652 27.4786 24.1858 27.4785 19.4162V13.5265C27.4785 11.9966 26.1182 11.6461 26.1182 10.8761V10.7765C26.1182 10.4266 26.3987 10.117 26.8486 10.047L31.2383 9.38689ZM75.6055 0.147631C76.5451 -0.162192 76.9647 0.0472484 76.9648 0.846849V22.9855C76.9648 24.4454 78.3652 24.796 78.3652 25.6359L78.3545 25.7355C78.3545 26.1154 78.0751 26.3253 77.6553 26.3254H73.335C72.8452 26.3253 72.5353 26.0156 72.5352 25.5558L72.4648 24.7853C71.4149 26.0052 69.7154 26.6652 67.9355 26.6652C63.6859 26.6652 59.7461 23.5257 59.7461 17.9162C59.7461 12.7565 63.5061 9.2365 67.9658 9.2365C69.6755 9.23654 70.9951 9.72699 72.0449 10.5968V5.01677C72.0448 3.41702 70.3057 3.30661 70.3057 2.43669V2.33708C70.3057 1.98717 70.5853 1.6773 71.0352 1.53728L75.6055 0.147631ZM285.331 9.39665C286.131 8.97677 286.512 9.4664 286.512 10.1261V12.0763C287.452 10.2966 289.301 9.25704 291.671 9.25701C294.841 9.25701 297.911 11.1364 298.331 16.676L298.751 22.9552C298.851 24.4851 300 24.766 300 25.6359L299.98 25.7756C299.98 26.1255 299.671 26.3654 299.181 26.3654H293.151C292.661 26.3654 292.351 26.1255 292.351 25.7756V25.6359C292.351 24.766 293.681 24.4851 293.611 22.9552L293.261 16.506C293.091 12.7766 292.081 11.2464 290.231 11.2463C288.382 11.2463 287.271 12.8165 287.271 15.0763V22.9855C287.271 24.4854 288.771 24.766 288.771 25.6359V25.7756C288.771 26.1254 288.461 26.3653 287.972 26.3654H281.491C281.002 26.3652 280.691 26.1254 280.691 25.7756V25.6359C280.691 24.766 282.191 24.4854 282.191 22.9855V14.8664C282.191 13.2965 280.481 13.1562 280.481 12.2863V12.1467C280.481 11.7967 280.762 11.6262 281.182 11.4162L285.331 9.39665ZM189.838 0.176927C190.747 -0.272502 191.267 0.20716 191.268 0.80681V22.9758C191.268 24.4357 192.768 24.7159 192.768 25.5959V25.7355C192.768 26.0855 192.417 26.3254 191.967 26.3254H185.548C185.058 26.3254 184.748 26.0855 184.748 25.7355V25.5959C184.748 24.7259 186.107 24.4457 186.107 22.9758V5.82732C186.107 4.25742 184.748 3.90688 184.748 3.17693V3.03728C184.748 2.6874 185.027 2.51702 185.447 2.33708L189.838 0.176927ZM199.438 0.176927C200.347 -0.27273 200.867 0.207101 200.867 0.80681V22.9758C200.867 24.4357 202.367 24.7159 202.367 25.5959V25.7355C202.367 26.0855 202.017 26.3253 201.567 26.3254H195.157C194.667 26.3252 194.357 26.0854 194.357 25.7355L194.348 25.5959C194.348 24.7259 195.708 24.4457 195.708 22.9758V5.82732C195.708 4.25742 194.348 3.90688 194.348 3.17693V3.03728C194.348 2.6873 194.628 2.51707 195.048 2.33708L199.438 0.176927ZM256.443 9.38689C257.313 8.96692 257.874 9.45712 257.874 10.0871V22.9455C257.874 24.4454 259.333 24.7259 259.333 25.5959V25.7355C259.333 26.0855 259.023 26.3254 258.533 26.3254H252.114C251.664 26.3254 251.344 26.0855 251.344 25.7355L251.354 25.5959C251.354 24.7259 252.684 24.4454 252.684 22.9455V15.0666C252.684 13.537 251.354 13.1466 251.354 12.3869V12.2765C251.354 11.9666 251.634 11.7861 252.084 11.5461L256.443 9.38689ZM124.433 9.36638C125.232 8.98686 125.552 9.39686 125.552 10.0666V12.6769C126.322 10.4471 127.962 9.22673 130.292 9.22673C132.352 9.22682 133.502 10.6268 133.502 12.3967L133.495 12.6877C133.428 14.0325 132.837 15.1662 131.271 15.1662C128.552 15.166 129.771 12.1662 127.892 12.1662C126.532 12.1665 126.042 14.0866 126.042 15.9963V22.966C126.042 24.4256 127.782 24.7057 127.782 25.5754V25.716C127.782 26.0958 127.472 26.3058 127.012 26.3058H120.562C120.073 26.3058 119.763 26.0958 119.763 25.716V25.5754C119.763 24.7057 121.122 24.4256 121.122 22.966V14.8068C121.122 13.2772 119.523 13.1666 119.522 12.297V12.1564C119.523 11.8065 119.803 11.5265 120.253 11.3166L124.433 9.36638ZM68.2451 10.7365C66.1855 10.7368 64.7956 12.6171 64.7256 15.8566C64.5857 19.6863 66.1862 25.0552 69.0859 25.1652C70.5157 25.165 72.0449 23.9153 72.0449 21.4357V15.3058C72.0447 13.0761 70.3049 10.7365 68.2451 10.7365ZM87.9844 10.7765C85.8945 10.7766 84.7744 12.5566 84.7744 15.8664C84.7745 19.4261 86.6545 25.1358 89.8242 25.1359C91.7041 25.1359 92.8242 23.2858 92.8242 20.0861L92.8291 19.7248C92.716 15.9471 90.8613 10.7765 87.9844 10.7765ZM108.032 10.7765C105.943 10.7768 104.823 12.5568 104.823 15.8664C104.823 19.4262 106.703 25.1359 109.873 25.1359C111.753 25.1356 112.872 23.2855 112.872 20.0861L112.877 19.7248C112.764 15.9471 110.909 10.7765 108.032 10.7765ZM173.278 10.7765C171.189 10.7766 170.068 12.5567 170.068 15.8664C170.068 19.4261 171.949 25.1357 175.118 25.1359C176.998 25.1359 178.118 23.2858 178.118 20.0861L178.123 19.7248C178.01 15.9471 176.155 10.7765 173.278 10.7765ZM268.992 10.7765C266.902 10.7765 265.782 12.5566 265.782 15.8664C265.782 19.4261 267.662 25.1359 270.832 25.1359C272.712 25.1359 273.832 23.2858 273.832 20.0861L273.836 19.7248C273.723 15.9471 271.869 10.7765 268.992 10.7765ZM10.3594 3.49724C7.14958 3.49724 5.12988 6.00737 5.12988 9.87712C5.13002 17.0265 8.92998 24.4162 13.8096 24.4162C17.049 24.4159 19.1385 21.736 19.1387 18.1066C19.1387 11.2771 15.269 3.49729 10.3594 3.49724ZM211.496 10.7765C209.616 10.7765 208.536 12.7664 208.536 15.4162L208.531 15.8176C208.554 16.7469 208.657 17.6199 208.876 18.4162L213.376 16.1467C214.006 15.8367 214.286 15.236 214.286 14.506C214.286 13.2561 213.376 10.7767 211.496 10.7765ZM255.294 1.02751C257.354 1.0276 258.674 2.31709 258.674 4.05681C258.674 5.79664 257.344 7.12703 255.294 7.12712C253.244 7.12712 251.844 5.83669 251.844 4.05681C251.844 2.31703 253.234 1.02751 255.294 1.02751Z"></path>
  </g>
  <defs>
    <clipPath id="clip0_12922_25308">
      <rect fill="white" height="55" width="300"></rect>
    </clipPath>
  </defs>
</svg>