<svg style="width: 80px; height: 23.4652px;" aria-label="Protea Hotels" role="img" preserveAspectRatio="" fill="none" viewBox="0 0 279 81" height="81" width="279" xmlns="http://www.w3.org/2000/svg">
  <g clip-path="url(#clip0_9515_50429)">
    <path fill="#16457A" d="M117.573 26.4589C117.872 27.4585 118.24 28.348 118.551 29.0175C116.792 27.6069 115.991 25.5959 115.977 25.561C114.94 23.1346 114.434 20.5475 114.55 18.2788C114.638 16.6182 115.528 13.9956 116.717 12.7356C117.435 11.9712 118.455 11.4568 119.254 11.4568C119.576 11.4568 119.836 11.5387 120.028 11.6998C120.195 11.8385 120.294 12.0654 120.328 12.3723C120.419 13.2172 119.965 14.5325 119.249 15.4983C117.752 17.5183 117.048 19.3751 116.966 21.5182C116.912 22.917 117.189 25.1792 117.573 26.4589ZM121.701 23.5737L121.743 23.8294L121.746 23.8507C121.909 24.8439 122.284 27.1212 123.033 28.8602C123.647 30.2889 124.112 31.2223 124.939 32.3689C125.193 32.7187 125.702 33.3886 126.11 33.9223C125.489 33.6719 124.656 33.2975 124.059 32.8864C121.852 31.3624 121.134 30.4732 120.223 28.7486C120.024 28.317 119.041 26.0154 119.177 23.0527C119.177 22.2358 119.51 20.9923 120.421 20.9162L120.483 20.9153C121.268 20.9153 121.514 22.4262 121.66 23.3281L121.701 23.5737ZM128.819 34.0388C128.811 34.0462 128.799 34.0545 128.774 34.0545C128.713 34.0545 128.527 34.0042 128.127 33.5409C126.728 31.9228 124.05 26.6686 124.139 22.815C124.239 18.5674 127.441 12.4533 128.483 12.4533C128.526 12.4533 128.564 12.4664 128.595 12.4922C128.859 12.7028 128.451 13.8695 127.976 15.2181L127.974 15.2255C127.26 17.2664 126.284 20.0575 126.284 22.8285C126.284 26.0198 127.429 29.3638 128.188 31.5786C128.581 32.7219 128.985 33.9031 128.819 34.0388ZM122.576 20.7577L122.573 20.7236C122.281 16.9014 122.379 14.3017 123.6 11.0194C124.332 9.05289 125.013 8.02063 126.253 6.21725C126.985 5.1525 128.335 4.02161 129.4 4.02161C129.727 4.02161 129.999 4.13033 130.23 4.35561C130.483 4.60107 130.602 4.90929 130.599 5.29708C130.59 6.46832 129.435 8.07443 128.618 8.84218C127.141 10.2275 126.402 11.0824 125.173 12.8149C123.726 14.8608 122.835 18.4372 122.609 21.0979C122.597 20.9835 122.586 20.8696 122.576 20.7577ZM120.414 6.83707C119.568 7.52859 117.774 9.17618 116.482 10.3979C116.334 10.5378 116.1 10.7742 115.858 11.0229C116.726 8.31203 118.743 5.25114 119.966 3.73357C121.054 2.39421 123.504 0.695084 124.706 0.695084C124.98 0.695084 125.037 0.792343 125.06 0.831017L125.06 0.831818C125.475 1.54465 124.246 3.51501 122.323 5.22198C121.632 5.83549 121.083 6.28668 120.564 6.71428C120.514 6.75539 120.464 6.79627 120.414 6.83707ZM147.157 22.973C147.291 25.9266 146.308 28.2228 146.118 28.6401C145.202 30.3778 144.482 31.2656 142.272 32.7922C141.677 33.2034 140.844 33.5768 140.223 33.8269C140.631 33.2945 141.14 32.6246 141.394 32.2735C142.222 31.1303 142.686 30.1957 143.301 28.7653C144.053 27.0182 144.429 24.7209 144.589 23.74L144.589 23.7396L144.63 23.4787L144.671 23.2366L144.672 23.2271C144.82 22.3215 145.066 20.8212 145.85 20.8212L145.913 20.8233C146.825 20.8982 147.157 22.1416 147.157 22.973ZM112.378 20.1076C112.592 21.6604 112.996 23.2654 113.307 24.3719C112.367 23.3224 111.753 22.2546 111.113 20.939C110.607 19.9013 110.031 17.4277 110.329 15.1765C110.648 12.8044 111.548 10.5509 112.235 9.74442C112.433 9.51241 112.944 8.9677 113.422 8.9677C113.533 8.9677 113.636 8.99909 113.737 9.05962C114.095 9.27481 114.224 9.63122 114.226 10.4236C114.229 11.0344 113.917 11.617 113.556 12.2909L113.545 12.3123C113.214 12.926 112.84 13.6235 112.624 14.4864C112.107 16.5665 112.054 17.7762 112.378 20.1076ZM150.351 25.4846C150.321 25.5601 149.523 27.5353 147.782 28.9291C148.093 28.2601 148.461 27.3691 148.763 26.3705C149.144 25.086 149.421 22.8228 149.368 21.4275C149.285 19.2854 148.581 17.4294 147.084 15.4085C146.368 14.4427 145.915 13.127 146.007 12.2816C146.038 11.9756 146.139 11.7484 146.305 11.6095C146.497 11.448 146.758 11.367 147.081 11.367C147.877 11.367 148.898 11.8801 149.618 12.6451C150.807 13.9067 151.697 16.5284 151.782 18.1873C151.899 20.4604 151.393 23.0458 150.352 25.4826L150.351 25.4846ZM137.56 33.9612C137.535 33.9612 137.522 33.9538 137.514 33.9468C137.35 33.8111 137.754 32.6277 138.145 31.4846C138.905 29.2697 140.049 25.9265 140.049 22.7353C140.049 19.96 139.071 17.1664 138.356 15.1239C137.883 13.7755 137.476 12.61 137.739 12.3989C137.77 12.3736 137.807 12.3613 137.851 12.3613C138.893 12.3613 142.095 18.4745 142.195 22.7222C142.282 26.5758 139.607 31.83 138.207 33.4481C137.806 33.9114 137.622 33.9612 137.56 33.9612ZM153.957 20.0178C154.279 17.6829 154.227 16.4746 153.709 14.3945C153.495 13.538 153.123 12.8444 152.795 12.233L152.789 12.2212C152.421 11.5387 152.105 10.9503 152.107 10.3328C152.108 9.54156 152.238 9.18514 152.597 8.9677C152.699 8.90718 152.799 8.87804 152.911 8.87804C153.391 8.87804 153.901 9.42051 154.098 9.65364C154.785 10.4581 155.684 12.7103 156.002 15.0845C156.304 17.338 155.727 19.8102 155.221 20.8479C154.58 22.1618 153.967 23.2296 153.026 24.2799C153.367 23.0763 153.748 21.5291 153.957 20.0178ZM132.091 34.8824C132.091 35.2458 132.062 35.4525 132.037 35.5628C131.246 34.5935 128.622 27.0618 128.622 22.3688C128.622 18.0502 131.301 11.4472 131.917 10.9818C131.965 10.9735 132.007 10.9682 132.065 10.966C132.091 11.1464 132.091 11.5264 132.091 11.867V34.8824ZM145.919 6.75413C145.385 6.31813 144.778 5.82162 144.01 5.13905C142.087 3.42982 140.859 1.46171 141.273 0.748878L141.273 0.748344C141.295 0.709862 141.352 0.613251 141.628 0.613251C142.83 0.613251 145.277 2.30904 146.365 3.64951C147.592 5.17044 149.61 8.23134 150.475 10.9402C150.191 10.6472 149.982 10.4382 149.851 10.3149C148.559 9.09436 146.766 7.44566 145.919 6.75413ZM134.339 10.8583C135.033 11.3518 137.712 17.954 137.712 22.2748C137.712 26.9606 135.096 34.477 134.294 35.4599C134.269 35.3456 134.242 35.1403 134.242 34.7874V11.7721C134.242 11.4301 134.242 11.0479 134.268 10.8684C134.309 10.8706 134.348 10.8706 134.339 10.8583ZM143.725 21.016C143.498 18.355 142.607 14.7789 141.159 12.7335C139.937 11.0041 139.196 10.149 137.716 8.75924C136.899 7.99261 135.742 6.38426 135.734 5.21527C135.732 4.82523 135.851 4.51813 136.103 4.27267C136.335 4.04851 136.605 3.9398 136.934 3.9398C137.996 3.9398 139.349 5.06956 140.08 6.13432C141.357 7.99261 142.003 8.97107 142.734 10.938C143.953 14.2185 144.052 16.82 143.761 20.6404C143.749 20.7643 143.738 20.8895 143.725 21.016ZM200.705 59.1303H193.03V56.8729H210.857V59.1303H203.212V79.8406H200.705V59.1303ZM145.654 32.5774C148.34 31.0901 151.155 28.5503 154.246 24.821C153.948 29.478 151.714 31.8308 149.331 33.6758C146.391 35.9517 144.038 36.298 141.315 36.6987L141.311 36.6994C141.23 36.7115 141.148 36.7235 141.067 36.7356C140.801 36.7751 140.533 36.8148 140.263 36.8587C136.867 37.3968 136.243 37.5903 135.496 38.3402C134.492 39.3494 134.393 41.5985 134.426 42.8493C134.426 42.8505 134.426 42.8602 134.427 42.8771C134.432 43.0341 134.46 43.8138 134.529 44.2358L134.163 44.2267C133.959 40.0946 134.276 37.9759 135.226 37.1546C135.668 36.7716 137.139 36.2714 138.442 35.8285L138.455 35.8241L138.93 35.664C140.888 34.995 143.213 33.9275 145.654 32.5774ZM145.202 67.0564H157.484V56.8729H159.991V79.8406H157.484V69.312H145.202V79.8406H142.695V56.8729H145.202V67.0564ZM229.912 79.8406H216.472V56.8729H229.912V59.1303H218.977V67.0564H228.816V69.312H218.977V77.5845H229.912V79.8406ZM166.544 68.373C166.544 61.4791 171.903 56.4972 178.108 56.4972C184.31 56.4972 189.45 61.4791 189.45 68.373C189.45 75.2655 184.092 80.217 177.887 80.217C171.683 80.217 166.544 75.2655 166.544 68.373ZM169.271 68.373C169.271 73.7922 172.906 77.9908 178.014 77.9908C183.089 77.9908 186.724 73.7922 186.724 68.373C186.724 62.9519 183.089 58.7537 178.014 58.7537C172.906 58.7537 169.271 62.9519 169.271 68.373ZM257.494 62.6381C257.494 64.2369 258.591 65.5205 261.411 66.8055C266.205 68.9674 267.552 70.5641 267.552 73.6355C267.552 77.3647 264.512 80.217 260.534 80.217C257.933 80.217 255.896 79.4005 253.891 78.0849L255.113 75.8915C256.869 77.1458 258.873 77.9295 260.658 77.9295C263.605 77.9295 264.983 75.9856 264.983 73.9178C264.983 71.9127 264.201 70.7231 260.439 69.0616C256.461 67.3069 254.987 65.5205 254.987 62.7637C254.987 59.4429 257.808 56.4972 262.007 56.4972C263.949 56.4972 265.797 57.1553 267.113 58.0642L265.985 60.1937C264.858 59.3798 263.352 58.784 261.849 58.784C258.967 58.784 257.494 60.5391 257.494 62.6381ZM236.778 56.8729H239.285V77.5845H250.22V79.8406H236.778V56.8729ZM107.311 79.8406L117.62 56.4661H118.027L128.335 79.8406H125.641L122.915 73.48H112.638L109.913 79.8406H107.311ZM117.776 61.5097L113.547 71.3806H122.006L117.776 61.5097ZM39.4277 68.373C39.4277 61.4791 44.7848 56.4972 50.9891 56.4972C57.1924 56.4972 62.3315 61.4791 62.3315 68.373C62.3315 75.2655 56.9726 80.217 50.7705 80.217C44.5654 80.217 39.4277 75.2655 39.4277 68.373ZM42.1527 68.373C42.1527 73.7922 45.7882 77.9908 50.8949 77.9908C55.9705 77.9908 59.6057 73.7922 59.6057 68.373C59.6057 62.9519 55.9705 58.7537 50.8949 58.7537C45.7882 58.7537 42.1527 62.9519 42.1527 68.373ZM127.403 35.7467L127.871 35.9047L127.875 35.9059C129.182 36.3495 130.663 36.8525 131.107 37.2375C132.056 38.0579 132.374 40.176 132.17 44.3098L131.804 44.3186C131.879 43.8502 131.907 42.9391 131.907 42.9277C131.94 41.6768 131.842 39.4309 130.838 38.4221C130.09 37.6734 129.467 37.4782 126.072 36.9414C125.799 36.8976 125.529 36.8577 125.262 36.8181C125.182 36.8063 125.102 36.7944 125.022 36.7825L125.012 36.781C122.294 36.3802 119.941 36.0333 117.003 33.7586C114.618 31.9144 112.385 29.5608 112.088 24.9043C115.176 28.6309 117.989 31.1707 120.678 32.6601C123.122 34.0108 125.447 35.0777 127.403 35.7467ZM73.5868 59.1303H65.9102V56.8729H83.7388V59.1303H76.0937V79.8406H73.5868V59.1303ZM24.9155 56.7157C30.8369 56.7157 33.751 59.6613 33.751 63.6096C33.751 66.8055 31.9651 69.2179 28.7376 70.2524L35.4129 79.8406H32.3723L26.2618 70.7853L26.258 70.7855C25.7584 70.816 25.2583 70.8466 24.7272 70.8466C23.9742 70.8466 22.8779 70.8159 22.1271 70.7853V79.8406H19.6202V57.0922C21.3123 56.8729 23.0049 56.7157 24.9155 56.7157ZM22.1271 68.559C22.8779 68.6532 24.0382 68.718 24.9155 68.718C29.207 68.718 31.0563 66.7421 31.0563 63.7663C31.0563 61.0715 29.0498 58.9723 25.2924 58.9723C24.2263 58.9723 22.941 59.0361 22.1271 59.2222V68.559ZM102.795 79.8406H89.3536V56.8729H102.795V59.1303H91.8598V67.0564H101.698V69.312H91.8598V77.5845H102.795V79.8406ZM0 57.0922C1.69259 56.8729 3.38473 56.7157 5.26382 56.7157C11.1857 56.7157 14.0998 60.0996 14.0998 64.0166C14.0998 68.6238 10.7487 71.8505 5.10753 71.8505C4.32471 71.8505 3.29061 71.7869 2.50736 71.7244V79.8406H0V57.0922ZM2.50736 69.4697C3.29061 69.5629 4.38688 69.6571 5.26382 69.6571C9.55745 69.6571 11.4055 67.1821 11.4055 64.2049C11.4055 61.5097 9.43049 58.9723 5.64034 58.9723C4.57514 58.9723 3.32125 59.0361 2.50736 59.2222V69.4697ZM278.621 76.0128C278.621 78.1353 276.936 79.8523 274.852 79.8523C272.767 79.8523 271.082 78.1353 271.082 76.0128C271.082 73.8884 272.767 72.16 274.852 72.16C276.936 72.16 278.621 73.8884 278.621 76.0128ZM271.762 76.0128C271.762 77.8004 273.144 79.2539 274.852 79.2539C276.558 79.2539 277.941 77.8004 277.941 76.0128C277.941 74.2133 276.558 72.7589 274.852 72.7589C273.144 72.7589 271.762 74.2133 271.762 76.0128ZM274.333 77.8617H273.703V74.1739C273.998 74.1323 274.302 74.1118 274.678 74.1118C275.736 74.1118 276.203 74.6293 276.203 75.2894C276.203 75.7689 275.938 76.1638 275.482 76.3674L276.456 77.8617H275.715L274.911 76.5197C274.842 76.5294 274.779 76.5294 274.71 76.5294C274.641 76.5294 274.576 76.5268 274.512 76.5244C274.451 76.522 274.392 76.5197 274.333 76.5197V77.8617ZM274.76 74.6796C274.608 74.6796 274.454 74.6906 274.333 74.7102V75.9821C274.454 75.9931 274.576 76.0032 274.699 76.0032C275.248 76.0032 275.532 75.7478 275.532 75.3114C275.532 74.9444 275.248 74.6796 274.76 74.6796Z" clip-rule="evenodd" fill-rule="evenodd"></path>
  </g>
  <defs>
    <clipPath id="clip0_9515_50429">
      <rect fill="white" height="81" width="279"></rect>
    </clipPath>
  </defs>
</svg>