<svg aria-label="pr" role="img" preserveAspectRatio="" fill="none" viewBox="0 0 280 124" height="124" width="280" xmlns="http://www.w3.org/2000/svg">
  <path fill="#16457A" d="M153.225 122.468C153.9 122.755 154.626 122.91 155.403 122.91C156.179 122.91 156.905 122.755 157.571 122.468C158.25 122.175 158.832 121.767 159.34 121.256C159.835 120.746 160.236 120.146 160.519 119.465C160.806 118.789 160.95 118.059 160.95 117.274C160.95 116.499 160.806 115.77 160.519 115.086C160.236 114.403 159.835 113.803 159.34 113.303C158.832 112.794 158.25 112.39 157.571 112.097C156.905 111.811 156.179 111.664 155.403 111.664C154.626 111.664 153.9 111.811 153.218 112.097C152.538 112.39 151.957 112.794 151.462 113.303C150.968 113.803 150.575 114.403 150.283 115.086C149.993 115.77 149.855 116.499 149.855 117.274C149.855 118.059 149.993 118.789 150.283 119.465C150.575 120.146 150.968 120.746 151.472 121.256C151.973 121.767 152.558 122.175 153.225 122.468ZM156.831 120.7C156.407 120.907 155.923 121 155.403 121C154.868 121 154.386 120.907 153.973 120.7C153.559 120.496 153.191 120.225 152.898 119.868C152.595 119.526 152.361 119.125 152.205 118.663C152.043 118.206 151.963 117.726 151.963 117.22C151.963 116.713 152.043 116.233 152.205 115.776C152.361 115.324 152.595 114.931 152.898 114.591C153.191 114.246 153.559 113.975 153.973 113.782C154.386 113.59 154.868 113.487 155.403 113.487C155.923 113.487 156.407 113.59 156.831 113.782C157.259 113.975 157.617 114.246 157.916 114.591C158.211 114.931 158.443 115.324 158.604 115.776C158.762 116.233 158.844 116.713 158.844 117.22C158.844 117.726 158.762 118.206 158.604 118.663C158.443 119.125 158.211 119.526 157.916 119.868C157.617 120.225 157.259 120.496 156.831 120.7ZM87.5445 111.949H89.4131L92.6147 116.986L95.7753 111.949H97.6505L98.1615 122.617H96.2035L95.8458 115.226L93.0407 119.581H92.092L89.2699 115.342L88.92 122.617H87.0283L87.5445 111.949ZM119.551 29.4077C119.24 28.7383 118.872 27.8487 118.573 26.8492C118.189 25.5694 117.912 23.3072 117.966 21.9084C118.048 19.7654 118.752 17.9085 120.249 15.8885C120.965 14.9227 121.419 13.6075 121.328 12.7625C121.294 12.4556 121.195 12.2288 121.028 12.09C120.836 11.9289 120.576 11.847 120.254 11.847C119.455 11.847 118.435 12.3615 117.717 13.1258C116.528 14.3858 115.638 17.0084 115.55 18.669C115.434 20.9377 115.94 23.5249 116.977 25.9512C116.991 25.9861 117.792 27.9971 119.551 29.4077ZM122.743 24.2197L122.701 23.9639L122.66 23.7183C122.514 22.8164 122.268 21.3056 121.483 21.3056L121.421 21.3065C120.51 21.3826 120.177 22.626 120.177 23.4429C120.041 26.4057 121.024 28.7072 121.223 29.1388C122.134 30.8634 122.852 31.7527 125.059 33.2766C125.656 33.6877 126.489 34.0621 127.11 34.3126C126.702 33.7789 126.193 33.1089 125.939 32.7591C125.112 31.6126 124.647 30.6792 124.033 29.2505C123.284 27.5114 122.909 25.2341 122.746 24.2409L122.743 24.2197ZM129.806 34.4382C129.812 34.4354 129.816 34.4321 129.819 34.429C129.985 34.2933 129.581 33.1121 129.188 31.9689C128.429 29.7541 127.284 26.41 127.284 23.2188C127.284 20.4477 128.26 17.6566 128.974 15.6158L128.976 15.6083C129.451 14.2598 129.859 13.093 129.595 12.8824C129.564 12.8566 129.526 12.8435 129.483 12.8435C128.441 12.8435 125.239 18.9576 125.139 23.2052C125.05 27.0589 127.728 32.3131 129.127 33.9312C129.527 34.3944 129.713 34.4447 129.774 34.4447C129.789 34.4447 129.799 34.4419 129.806 34.4382ZM123.573 21.1138L123.576 21.1479C123.586 21.2599 123.597 21.3737 123.609 21.4881C123.835 18.8275 124.726 15.251 126.173 13.2051C127.402 11.4727 128.141 10.6177 129.618 9.23241C130.435 8.46466 131.59 6.85855 131.599 5.68731C131.602 5.29951 131.483 4.99129 131.23 4.74583C130.999 4.52055 130.727 4.41184 130.4 4.41184C129.335 4.41184 127.985 5.54272 127.253 6.60748C126.013 8.41086 125.332 9.44312 124.6 11.4097C123.379 14.6919 123.281 17.2916 123.573 21.1138ZM117.482 10.7881C118.774 9.56641 120.568 7.91882 121.414 7.22729L121.564 7.10451L121.564 7.10432L121.564 7.10412L121.564 7.10403C122.084 6.67657 122.632 6.22549 123.323 5.61221C125.246 3.90524 126.475 1.93488 126.06 1.22205L126.06 1.22124C126.037 1.18257 125.98 1.08531 125.706 1.08531C124.504 1.08531 122.054 2.78444 120.966 4.1238C119.743 5.64137 117.726 8.70226 116.858 11.4131C117.1 11.1644 117.334 10.9281 117.482 10.7881ZM147.118 29.0303C147.308 28.6131 148.291 26.3168 148.157 23.3632C148.157 22.5318 147.825 21.2884 146.913 21.2135L146.85 21.2114C146.066 21.2114 145.82 22.7118 145.672 23.6174L145.671 23.6269L145.63 23.8689L145.589 24.1299L145.589 24.1302L145.589 24.1305C145.429 25.1115 145.053 27.4086 144.301 29.1555C143.686 30.5859 143.222 31.5205 142.394 32.6638C142.14 33.0148 141.631 33.6847 141.223 34.2171C141.844 33.967 142.677 33.5936 143.272 33.1825C145.482 31.6558 146.202 30.768 147.118 29.0303ZM114.307 24.7621C113.996 23.6557 113.592 22.0507 113.378 20.4978C113.054 18.1664 113.107 16.9567 113.624 14.8766C113.84 14.0137 114.214 13.3163 114.545 12.7025L114.556 12.6811C114.917 12.0072 115.229 11.4246 115.226 10.8139C115.224 10.0214 115.095 9.66504 114.737 9.44984C114.636 9.38932 114.533 9.35793 114.422 9.35793C113.944 9.35793 113.433 9.90264 113.235 10.1347C112.548 10.9412 111.648 13.1947 111.329 15.5667C111.031 17.818 111.607 20.2916 112.113 21.3292C112.753 22.6448 113.367 23.7126 114.307 24.7621ZM148.782 29.3193C150.523 27.9256 151.321 25.9504 151.351 25.8748L151.352 25.8728C152.393 23.436 152.899 20.8506 152.782 18.5775C152.697 16.9186 151.807 14.297 150.618 13.0353C149.898 12.2703 148.877 11.7572 148.081 11.7572C147.758 11.7572 147.497 11.8383 147.305 11.9998C147.139 12.1386 147.038 12.3658 147.007 12.6718C146.915 13.5172 147.368 14.8329 148.084 15.7987C149.581 17.8196 150.285 19.6756 150.368 21.8178C150.421 23.2131 150.144 25.4762 149.763 26.7607C149.461 27.7594 149.093 28.6503 148.782 29.3193ZM138.514 34.337C138.522 34.3441 138.535 34.3515 138.56 34.3515C138.622 34.3515 138.806 34.3016 139.207 33.8384C140.607 32.2203 143.282 26.9661 143.195 23.1124C143.095 18.8647 139.893 12.7515 138.851 12.7515C138.807 12.7515 138.77 12.7638 138.739 12.7892C138.476 13.0002 138.883 14.1657 139.356 15.5142C140.071 17.5566 141.049 20.3502 141.049 23.1255C141.049 26.3168 139.905 29.6599 139.145 31.8748C138.754 33.0179 138.35 34.2013 138.514 34.337ZM154.709 14.7847C155.227 16.8648 155.279 18.0732 154.957 20.408C154.748 21.9193 154.367 23.4666 154.026 24.6701C154.967 23.6198 155.58 22.552 156.221 21.2381C156.727 20.2005 157.304 17.7282 157.002 15.4747C156.684 13.1005 155.785 10.8484 155.098 10.0439C154.901 9.81074 154.391 9.26827 153.911 9.26827C153.799 9.26827 153.699 9.29741 153.597 9.35793C153.238 9.57537 153.108 9.93179 153.107 10.7231C153.105 11.3405 153.421 11.9289 153.789 12.6114L153.795 12.6232C154.123 13.2346 154.495 13.9283 154.709 14.7847ZM133.037 35.953C133.062 35.8427 133.091 35.636 133.091 35.2727V12.2572C133.091 11.9166 133.091 11.5367 133.065 11.3562C133.007 11.3585 132.965 11.3637 132.917 11.372C132.301 11.8374 129.622 18.4405 129.622 22.759C129.622 27.452 132.246 34.9837 133.037 35.953ZM145.01 5.52927C145.778 6.21185 146.385 6.70836 146.919 7.14436C147.766 7.83588 149.559 9.48459 150.851 10.7051C150.982 10.8284 151.191 11.0375 151.475 11.3304C150.61 8.62157 148.592 5.56067 147.365 4.03974C146.277 2.69926 143.83 1.00348 142.628 1.00348C142.352 1.00348 142.295 1.10009 142.273 1.13857L142.273 1.13911C141.859 1.85194 143.087 3.82005 145.01 5.52927ZM138.712 22.665C138.712 18.3442 136.033 11.742 135.339 11.2485C135.348 11.2608 135.309 11.2608 135.268 11.2586C135.242 11.4381 135.242 11.8203 135.242 12.1623V35.1776C135.242 35.5305 135.269 35.7359 135.294 35.8501C136.096 34.8673 138.712 27.3508 138.712 22.665ZM142.159 13.1237C143.607 15.1692 144.498 18.7452 144.725 21.4062C144.738 21.2871 144.748 21.1691 144.759 21.0523V21.0522V21.052L144.759 21.0484L144.761 21.0306C145.052 17.2103 144.953 14.6088 143.734 11.3282C143.003 9.3613 142.357 8.38284 141.08 6.52454C140.349 5.45979 138.996 4.33002 137.934 4.33002C137.605 4.33002 137.335 4.43874 137.103 4.6629C136.851 4.90836 136.732 5.21545 136.734 5.6055C136.742 6.77449 137.899 8.38284 138.716 9.14947C140.196 10.5393 140.937 11.3943 142.159 13.1237ZM194.03 59.5205H201.705V80.2308H204.212V59.5205H211.857V57.2631H194.03V59.5205ZM155.246 25.2112C152.155 28.9406 149.34 31.4803 146.654 32.9676C144.213 34.3177 141.888 35.3852 139.93 36.0542L139.455 36.2143L139.442 36.2187L139.442 36.2188C138.139 36.6616 136.668 37.1618 136.226 37.5449C135.276 38.3662 134.959 40.4848 135.163 44.6169L135.529 44.6261C135.46 44.207 135.433 43.4354 135.427 43.2708L135.427 43.2702V43.2696V43.2693V43.2691L135.427 43.2678V43.2674L135.426 43.2395C135.393 41.9887 135.492 39.7396 136.496 38.7304C137.243 37.9805 137.867 37.7871 141.263 37.249C141.533 37.2051 141.801 37.1653 142.067 37.1259L142.067 37.1258L142.311 37.0896L142.315 37.0889C145.038 36.6882 147.391 36.3419 150.331 34.066C152.714 32.221 154.948 29.8683 155.246 25.2112ZM158.484 67.4466H146.202V57.2631H143.695V80.2308H146.202V69.7022H158.484V80.2308H160.991V57.2631H158.484V67.4466ZM217.472 80.2308H230.912V77.9747H219.977V69.7022H229.816V67.4466H219.977V59.5205H230.912V57.2631H217.472V80.2308ZM179.108 56.8874C172.903 56.8874 167.544 61.8694 167.544 68.7632C167.544 75.6557 172.683 80.6073 178.887 80.6073C185.092 80.6073 190.45 75.6557 190.45 68.7632C190.45 61.8694 185.31 56.8874 179.108 56.8874ZM179.014 78.381C173.906 78.381 170.271 74.1824 170.271 68.7632C170.271 63.3421 173.906 59.1439 179.014 59.1439C184.089 59.1439 187.724 63.3421 187.724 68.7632C187.724 74.1824 184.089 78.381 179.014 78.381ZM262.411 67.1958C259.591 65.9108 258.494 64.6271 258.494 63.0283C258.494 60.9294 259.967 59.1742 262.849 59.1742C264.352 59.1742 265.858 59.77 266.985 60.5839L268.113 58.4544C266.797 57.5456 264.949 56.8874 263.007 56.8874C258.808 56.8874 255.987 59.8331 255.987 63.1539C255.987 65.9108 257.461 67.6971 261.439 69.4518C265.201 71.1133 265.983 72.3029 265.983 74.308C265.983 76.3758 264.605 78.3197 261.658 78.3197C259.873 78.3197 257.869 77.536 256.113 76.2818L254.891 78.4752C256.896 79.7908 258.933 80.6073 261.534 80.6073C265.512 80.6073 268.552 77.7549 268.552 74.0257C268.552 70.9544 267.205 69.3577 262.411 67.1958ZM240.285 57.2631H237.778V80.2308H251.22V77.9747H240.285V57.2631ZM118.62 56.8564L108.311 80.2308H110.913L113.638 73.8702H123.915L126.641 80.2308H129.335L119.027 56.8564H118.62ZM114.547 71.7709L118.776 61.9L123.006 71.7709H114.547ZM51.9891 56.8874C45.7848 56.8874 40.4277 61.8694 40.4277 68.7632C40.4277 75.6557 45.5654 80.6073 51.7705 80.6073C57.9726 80.6073 63.3315 75.6557 63.3315 68.7632C63.3315 61.8694 58.1924 56.8874 51.9891 56.8874ZM51.8949 78.381C46.7882 78.381 43.1527 74.1824 43.1527 68.7632C43.1527 63.3421 46.7882 59.1439 51.8949 59.1439C56.9705 59.1439 60.6057 63.3421 60.6057 68.7632C60.6057 74.1824 56.9705 78.381 51.8949 78.381ZM128.871 36.2949L128.403 36.1369C126.447 35.4679 124.122 34.401 121.678 33.0503C118.989 31.5609 116.176 29.0212 113.088 25.2945C113.385 29.951 115.618 32.3047 118.003 34.1488C120.941 36.4235 123.294 36.7704 126.012 37.1713L126.022 37.1727L126.262 37.2084L126.264 37.2086C126.531 37.2481 126.799 37.288 127.072 37.3317C130.467 37.8684 131.09 38.0637 131.838 38.8124C132.842 39.8211 132.94 42.0671 132.907 43.3179C132.907 43.3293 132.879 44.2404 132.804 44.7088L133.17 44.7C133.374 40.5662 133.056 38.4481 132.107 37.6277C131.663 37.2427 130.182 36.7399 128.875 36.2963L128.875 36.2962L128.875 36.2961L128.871 36.2949ZM66.9102 59.5205H74.5868V80.2308H77.0937V59.5205H84.7388V57.2631H66.9102V59.5205ZM34.751 63.9998C34.751 60.0516 31.8369 57.106 25.9155 57.106C24.0049 57.106 22.3123 57.2631 20.6202 57.4824V80.2308H23.1271V71.1755C23.8779 71.2061 24.9742 71.2368 25.7272 71.2368C26.2583 71.2368 26.7584 71.2063 27.258 71.1757L27.2618 71.1755L33.3723 80.2308H36.4129L29.7376 70.6427C32.9651 69.6082 34.751 67.1958 34.751 63.9998ZM25.9155 69.1082C25.0382 69.1082 23.8779 69.0434 23.1271 68.9493V59.6124C23.941 59.4264 25.2263 59.3625 26.2924 59.3625C30.0498 59.3625 32.0563 61.4617 32.0563 64.1565C32.0563 67.1323 30.207 69.1082 25.9155 69.1082ZM90.3536 80.2308H103.795V77.9747H92.8598V69.7022H102.698V67.4466H92.8598V59.5205H103.795V57.2631H90.3536V80.2308ZM6.26382 57.106C4.38473 57.106 2.69259 57.2631 1 57.4824V80.2308H3.50736V72.1146C4.29061 72.1772 5.32471 72.2407 6.10753 72.2407C11.7487 72.2407 15.0998 69.014 15.0998 64.4069C15.0998 60.4898 12.1857 57.106 6.26382 57.106ZM6.26382 70.0473C5.38688 70.0473 4.29061 69.9532 3.50736 69.8599V59.6124C4.32125 59.4264 5.57514 59.3625 6.64034 59.3625C10.4305 59.3625 12.4055 61.9 12.4055 64.5952C12.4055 67.5723 10.5575 70.0473 6.26382 70.0473ZM108.343 111.95H106.262L102.22 122.615H104.331L105.258 119.91H109.227L110.152 122.615H112.39L108.343 111.95ZM107.242 114.107L108.647 118.254H105.817L107.242 114.107ZM116.612 111.949H120.65C121.321 111.949 121.892 112.056 122.36 112.26C122.831 112.454 123.204 112.719 123.495 113.028C123.786 113.35 123.995 113.69 124.128 114.064C124.264 114.439 124.331 114.79 124.331 115.131C124.331 115.806 124.175 116.395 123.886 116.918C123.59 117.428 123.144 117.847 122.537 118.153L124.997 122.615H122.727L120.57 118.41H118.554V122.615H116.612V111.949ZM120.665 116.747C121.177 116.747 121.574 116.601 121.857 116.296C122.133 116 122.28 115.638 122.28 115.211C122.28 114.75 122.133 114.377 121.834 114.091C121.533 113.803 121.147 113.657 120.665 113.657H118.554V116.747H120.665ZM133.586 111.949H129.55V122.615H131.494V118.41H133.51L135.673 122.615H137.937L135.475 118.153C136.08 117.847 136.534 117.428 136.822 116.918C137.115 116.395 137.263 115.806 137.263 115.131C137.263 114.79 137.201 114.439 137.069 114.064C136.929 113.69 136.718 113.35 136.431 113.028C136.147 112.719 135.764 112.454 135.293 112.26C134.829 112.056 134.266 111.949 133.586 111.949ZM134.791 116.296C134.514 116.601 134.11 116.747 133.603 116.747H131.494V113.657H133.603C134.085 113.657 134.474 113.803 134.771 114.091C135.071 114.377 135.218 114.75 135.218 115.211C135.218 115.638 135.079 116 134.791 116.296ZM142.984 111.951H145V122.617H142.984V111.951ZM167.199 113.72H163.581V111.951H172.826V113.72H169.216V122.615H167.199V113.72ZM176.24 113.72H179.857V122.615H181.874V113.72H185.487V111.951H176.24V113.72ZM87.0295 97.312L87.0283 98.2783H185.486L185.487 97.312H87.0295ZM279.621 76.403C279.621 78.5255 277.936 80.2426 275.852 80.2426C273.767 80.2426 272.082 78.5255 272.082 76.403C272.082 74.2787 273.767 72.5503 275.852 72.5503C277.936 72.5503 279.621 74.2787 279.621 76.403ZM272.762 76.403C272.762 78.1906 274.144 79.6442 275.852 79.6442C277.558 79.6442 278.941 78.1906 278.941 76.403C278.941 74.6036 277.558 73.1491 275.852 73.1491C274.144 73.1491 272.762 74.6036 272.762 76.403ZM275.333 78.2519H274.703V74.5641C274.998 74.5225 275.302 74.502 275.678 74.502C276.736 74.502 277.203 75.0195 277.203 75.6797C277.203 76.1591 276.938 76.554 276.482 76.7576L277.456 78.2519H276.715L275.911 76.91C275.842 76.9196 275.779 76.9196 275.71 76.9196C275.641 76.9196 275.576 76.9171 275.512 76.9146C275.451 76.9123 275.392 76.91 275.333 76.91V78.2519ZM275.76 75.0698C275.608 75.0698 275.454 75.0808 275.333 75.1004V76.3723C275.454 76.3833 275.576 76.3934 275.699 76.3934C276.248 76.3934 276.532 76.1381 276.532 75.7016C276.532 75.3347 276.248 75.0698 275.76 75.0698Z" clip-rule="evenodd" fill-rule="evenodd"></path>
</svg>