<svg style="width: 76.8px; height: 40.5308px;" aria-label="Renaissance Hotels" role="img" preserveAspectRatio="" fill="none" viewBox="0 0 245 129" height="129" width="245" xmlns="http://www.w3.org/2000/svg">
  <g clip-path="url(#clip0_7_374)">
    <path fill="#2A2E36" d="M161.753 119.694C160.725 119.131 159.833 118.94 158.975 118.76C158.522 118.661 158.091 118.571 157.638 118.427C156.29 118.017 155.632 117.33 155.632 116.322C155.632 114.549 156.586 113.716 158.629 113.702C158.64 113.702 159.473 113.705 160.286 113.975C161.19 114.276 161.739 114.746 161.927 115.374L162.012 115.65L163.925 114.932L163.846 114.687C163.427 113.373 162.403 112.419 160.889 111.926C160.382 111.758 159.563 111.555 158.558 111.555C155.229 111.555 153.073 113.426 153.073 116.322C153.073 118.104 153.771 119.244 155.409 120.136C156.456 120.718 157.365 120.901 158.246 121.079C158.682 121.163 159.096 121.247 159.515 121.374C160.869 121.858 161.525 122.691 161.525 123.932C161.525 124.878 161.173 125.553 160.438 126.006C159.943 126.338 159.276 126.513 158.404 126.544C156.45 126.583 155.209 125.331 155.063 124.819L154.976 124.523L152.837 125.455L152.913 125.691C153.56 127.723 156.2 128.818 158.359 128.818C159.496 128.818 161.105 128.556 162.2 127.819C163.45 126.972 164.083 125.666 164.083 123.932C164.083 121.912 163.34 120.563 161.753 119.694ZM148.981 128.455H138.391V111.881H141.248V126.437L148.981 126.164V128.455ZM133.714 128.455H123.002V111.881H133.519V114.172L125.859 113.899V118.9L131.842 118.63V121.042L125.859 120.772V126.437L133.714 126.164V128.455ZM118.564 114.172L113.811 113.95V128.455H110.954V113.95L106.204 114.172V111.881H118.564V114.172ZM99.804 120.181C99.804 118.194 99.5929 116.767 99.1651 115.895C98.5235 114.566 97.2767 113.899 95.4221 113.899C93.6322 113.899 92.408 114.499 91.7522 115.698C91.2428 116.618 90.9867 118.112 90.9867 120.181C90.9867 122.232 91.2428 123.727 91.7522 124.664C92.4249 125.877 93.6491 126.485 95.4221 126.485C97.2598 126.485 98.5066 125.812 99.1651 124.464C99.5929 123.58 99.804 122.151 99.804 120.181ZM102.66 120.181C102.66 122.562 102.309 124.399 101.602 125.697C100.471 127.782 98.4081 128.824 95.4221 128.824C92.4333 128.824 90.3648 127.791 89.2165 125.722C88.4932 124.408 88.133 122.562 88.133 120.181C88.133 117.8 88.4932 115.954 89.2165 114.639C90.3648 112.588 92.4333 111.561 95.4221 111.561C98.4081 111.561 100.471 112.596 101.602 114.665C102.309 115.962 102.66 117.8 102.66 120.181ZM83.0898 128.455H80.2304V120.921H73.2369V128.455H70.3803V111.881H73.2369V118.63H80.2304V111.881H83.0898V128.455ZM150.256 52.4374C150.101 52.3446 149.572 52.5162 149.302 52.6147C143.249 54.6016 140.505 54.5257 137.673 53.248C132.304 50.8389 130.705 47.428 129.109 44.1549C127.584 41.0198 126.419 37.3837 122.121 33.8095C120.014 32.059 116.997 31.1472 115.68 30.4126C118.753 29.9708 120.996 28.9407 122.653 28.088C124.263 27.2296 125.158 26.5542 126.32 25.3272C127.486 24.1114 128.879 21.8571 129.318 20.1291C130.359 15.8289 129.92 14.0587 129.723 12.4263C128.988 9.38689 128.243 7.88968 126.982 6.3024C124.348 2.9787 119.544 1.70382 117.064 1.09593C112.632 0.164388 111.787 0.164388 107.293 0.0743296C103.187 0.00115744 102.503 -0.0579431 96.0469 0.0996584C94.2964 0.150316 91.2625 0.260074 89.6556 0.744136C89.042 0.972095 89.1321 1.98243 89.7259 2.22728C92.8639 3.54156 93.9783 0.817308 94.468 4.18323C95.2476 9.56138 95.0281 9.85125 95.1801 15.9921C95.3292 22.1357 95.2026 22.147 95.3461 28.2822C95.5009 34.4315 95.2786 34.4371 95.4362 40.5807C95.4559 41.6614 95.7851 49.9158 94.8029 52.2686C94.5919 52.7639 94.3921 53.1354 94.2035 53.4112V53.4224C93.9249 53.8474 93.5984 54.3371 92.2447 54.3849C92.1997 54.3878 92.0759 54.3962 92.059 54.4018L92.0674 54.3962C90.9389 54.444 90.4633 54.5313 90.4239 54.5482C89.8948 54.6804 89.4417 54.9365 89.3347 55.384C89.073 56.4112 89.2503 56.5576 90.483 56.6251C91.7044 56.6927 95.1435 56.6786 100.567 56.6702C104 56.6645 105.033 56.6364 106.617 56.6702C107.071 56.7011 107.639 56.7124 108.07 56.7124C108.63 56.7124 109.764 56.6842 110.681 56.6139C111.286 56.566 111.343 55.9694 111.354 55.5444C111.365 55.3418 111.343 55.1645 111.286 55.0491C111.224 54.7846 110.859 54.4891 109.145 54.2977C108.63 54.2302 108.534 54.2189 107.92 54.1401C106.812 53.9994 106.046 53.5435 105.832 53.4196C105.7 53.3324 105.126 52.8934 104.673 52.4796C103.015 50.9712 103.558 48.0246 103.42 42.5423C103.285 37.0572 103.094 37.4878 103.342 31.9605C103.446 29.5205 109.01 30.0636 109.792 30.0552C112.477 30.0045 114.875 31.9239 117.101 36.939C118.362 39.7815 119.873 44.0508 122.673 48.0274C124.84 51.0922 126.917 54.1879 131.383 55.9159C134.155 56.9854 139.444 57.1205 143.989 56.0341C147.979 54.8465 149.854 53.5378 150.239 53.2761C150.619 53.0116 150.462 52.5725 150.256 52.4374ZM111.092 28.6846C108.981 28.7156 108.174 28.6199 106.066 28.603C104.752 28.5974 103.854 28.0092 103.752 26.7118C103.46 23.1179 103.767 22.2061 103.62 16.0146C103.465 9.82874 103.764 9.47413 103.62 4.61944C103.575 3.39803 104.642 2.9787 105.863 2.88583C107.814 2.73667 107.636 2.75356 109.482 2.75637C111.087 2.762 113.237 2.92804 115.516 3.81455C116.923 4.35209 118.179 5.32865 119.074 6.39809C120.672 8.35685 122.009 10.9685 122.023 15.6825C122.029 17.948 122.006 18.5447 121.443 20.3909C120.897 22.1639 120.033 23.3262 119.11 24.4801C118.134 25.6874 116.907 26.391 115.578 27.2353C114.241 28.0317 113.104 28.634 111.092 28.6846ZM241.339 76.5561H240.562V78.0139H241.339C241.789 78.0139 242.118 77.7128 242.118 77.2963C242.118 76.8769 241.789 76.5561 241.339 76.5561ZM242.135 80.2006L241.187 78.5064H240.562V80.2006H239.988V76.0495H241.403C242.118 76.0495 242.706 76.5983 242.706 77.2963C242.706 77.8985 242.332 78.2756 241.806 78.4332L242.813 80.2006H242.135ZM241.215 74.9013C239.467 74.9013 238.037 76.3535 238.037 78.1321C238.037 79.9079 239.467 81.3658 241.215 81.3658C242.974 81.3658 244.401 79.9079 244.401 78.1321C244.401 76.3535 242.974 74.9013 241.215 74.9013ZM241.215 81.9202C239.132 81.9202 237.432 80.2288 237.432 78.1321C237.432 76.0439 239.132 74.3497 241.215 74.3497C243.311 74.3497 245 76.0439 245 78.1321C245 80.2288 243.311 81.9202 241.215 81.9202ZM205.814 96.7826C204.874 96.7826 201.485 96.3126 200.357 94.2637C199.507 92.7525 199.082 90.2055 199.082 86.6116C199.082 82.877 199.538 80.2822 200.427 78.8244C201.403 77.2709 203.019 76.4857 205.777 76.4857C207.637 76.4857 209.951 77.4764 211.175 78.4642L212.52 76.5871C212.23 76.3619 209.317 74.0429 205.571 74.0429C202.07 74.0429 199.56 75.0195 198.038 76.967C196.521 78.9314 195.766 82.1369 195.766 86.6116C195.766 90.8556 196.462 93.9795 197.855 95.9861C199.701 98.6372 202.434 99.2282 205.619 99.2282C209.202 99.2282 211.906 97.1766 212.565 96.6869L211.2 94.8351C209.889 95.7384 208.335 96.7826 205.814 96.7826ZM96.3114 98.6794H99.5648V74.5129H96.3114V98.6794ZM117.644 86.2627C115.395 85.03 113.619 85.0469 111.624 84.4221C109.463 83.7579 108.374 82.5787 108.374 80.9127C108.374 78.0702 109.995 76.6546 113.214 76.6321C113.377 76.6321 114.599 76.6574 115.82 77.0599C117.039 77.4736 118.128 78.1856 118.488 79.3901L120.557 78.6162C119.825 76.3394 117.973 75.284 116.442 74.7887C114.886 74.2737 113.543 74.2652 113.104 74.2652C108.779 74.2652 105.39 76.5195 105.39 80.9127C105.39 83.468 106.409 84.985 108.647 86.2148C110.884 87.4531 112.671 87.4193 114.666 88.0188C116.825 88.7899 117.903 90.1661 117.903 92.1868C117.903 93.715 117.312 94.8576 116.116 95.5921C115.446 96.0311 114.509 96.3998 112.879 96.4533C109.724 96.5321 107.802 94.4748 107.529 93.6108L105.137 94.6634C106.046 97.4974 109.845 99.0228 112.82 99.0228C114.644 99.0228 116.847 98.564 118.271 97.6043C120.025 96.4308 120.892 94.6268 120.892 92.1868C120.892 89.3809 119.884 87.4869 117.644 86.2627ZM137.873 86.2627C135.636 85.03 133.849 85.0469 131.859 84.4221C129.686 83.7579 128.606 82.5787 128.606 80.9127C128.606 78.0702 130.23 76.6546 133.443 76.6321C133.604 76.6321 134.828 76.6574 136.038 77.0599C137.277 77.4736 138.36 78.1856 138.723 79.3901L140.794 78.6162C140.06 76.3394 138.197 75.284 136.671 74.7887C135.112 74.2737 133.778 74.2652 133.348 74.2652C129.014 74.2652 125.622 76.5195 125.622 80.9127C125.622 83.468 126.63 84.985 128.879 86.2148C131.11 87.4531 132.903 87.4193 134.896 88.0188C137.065 88.7899 138.141 90.1661 138.141 92.1868C138.141 93.715 137.544 94.8576 136.353 95.5921C135.698 96.0311 134.735 96.3998 133.12 96.4533C129.962 96.5321 128.032 94.4748 127.781 93.6108L125.369 94.6634C126.275 97.4974 130.072 99.0228 133.049 99.0228C134.868 99.0228 137.074 98.564 138.506 97.6043C140.248 96.4308 141.118 94.6268 141.118 92.1868C141.118 89.3809 140.119 87.4869 137.873 86.2627ZM186.375 90.7796L186.459 94.6268H186.338L184.352 90.8556L173.722 74.5129H170.198V98.7244H173.443L173.477 82.4127L173.364 78.574H173.443L175.472 82.3564L186.057 98.7244H189.581V74.5129H186.338L186.375 90.7796ZM221.737 96.6672V87.0422L231.39 87.3659V84.8217L221.737 85.1482V76.5251L234.086 76.891V74.5129H218.489V98.6794H234.404V96.3126L221.737 96.6672ZM27.8842 87.0422L37.5401 87.3659V84.8217L27.8842 85.1482V76.5251L40.2306 76.891V74.5129H24.6365V98.6794H40.5514V96.3126L27.8842 96.6672V87.0422ZM79.4087 88.9137H77.8551L80.1573 81.4136L81.4096 77.724L82.5691 81.4136L85.0907 88.9137H79.4087ZM79.7407 74.5129L70.8813 98.7272L74.1712 98.7892L77.0446 91.2834H84.5814H85.6902L88.6762 98.7272H91.9577L82.9913 74.5129H79.7407ZM9.90357 85.469L3.25053 85.7899V76.5983L10.6578 76.891C11.8539 76.9304 12.7826 77.3328 13.4496 78.0871C14.111 78.8441 14.4346 79.7588 14.4346 80.8282C14.4346 82.0496 14.049 83.0965 13.2385 83.9577C12.4308 84.8893 11.3135 85.393 9.90357 85.469ZM14.6879 91.4635C14.201 89.8312 13.5903 88.3818 12.5293 87.4193C13.9477 87.0394 15.1326 86.3161 16.0585 85.2242C17.142 83.9465 17.6936 82.4915 17.6936 80.8282C17.6936 79.1481 17.1138 77.6874 15.9431 76.497C14.6316 75.1771 12.8586 74.5129 10.61 74.5129H0V98.6794H3.25053V87.8387H7.22434L8.64557 87.8218C9.59118 87.8556 10.2694 88.7027 10.8661 89.6145C11.6119 90.7796 11.8314 92.2121 12.549 94.2497C13.2104 96.155 14.8314 98.5753 17.7865 99.701L18.8024 97.3173C15.7911 95.8144 15.3296 93.6502 14.6879 91.4635ZM62.9646 90.7796L63.0575 94.6268H62.9365L60.9693 90.8556L50.3171 74.5129H46.7964V98.6794H50.0441L50.0835 82.4127L49.9653 78.574H50.0441L52.0789 82.3564L62.6607 98.6794H66.1926V74.5129H62.9365L62.9646 90.7796ZM153.023 88.9137H151.466L153.768 81.4136L155.021 77.7297L156.183 81.4136L158.696 88.9137H153.023ZM156.597 74.5129H153.346L144.487 98.7244H147.785L150.645 91.2834H158.187H159.299L162.285 98.7244H165.569L156.597 74.5129Z"></path>
  </g>
  <defs>
    <clipPath id="clip0_7_374">
      <rect fill="white" height="129" width="245"></rect>
    </clipPath>
  </defs>
</svg>