<svg style="width: 80px; height: 9.0661px;" aria-label="Residence Inn" role="img" preserveAspectRatio="" fill="none" viewBox="0 0 278 35" height="35" width="278" xmlns="http://www.w3.org/2000/svg">
  <g clip-path="url(#clip0_9515_50442)">
    <path fill="#8C8479" d="M268.246 10.4149V27.8863L253.825 12.0052L251.351 9.24268L251.372 9.29754L251.34 9.24268V27.8863L236.919 12.0052L234.445 9.24268V33.7111H237.134V16.2413L251.639 32.2166L254.029 34.8833V16.2134L254.039 16.2413L268.545 32.2166L270.934 34.8833V10.4149H268.246ZM226.567 33.7111H229.256V10.4149H226.567V33.7111Z" clip-rule="evenodd" fill-rule="evenodd"></path>
    <path fill="#442931" d="M200.64 17.711V19.7842H207.928V16.2938C207.928 14.1634 207.688 12.8474 207.207 11.8692C206.726 10.8893 205.834 10.5509 204.528 10.5509C203.069 10.5509 202.056 11.1304 201.49 12.2942C200.885 13.539 200.64 15.2027 200.64 17.711ZM200.64 20.8567V21.0097C200.64 24.0334 201.181 26.3315 202.262 27.9032C203.345 29.475 205.147 30.2608 207.671 30.2608C209.284 30.2608 210.684 29.9432 211.868 29.3073C213.053 28.6721 213.98 27.7866 214.65 26.6537L214.753 26.7047C214.306 29.0067 213.224 30.8373 211.508 32.1942C209.791 33.5511 207.568 34.2296 204.837 34.2296C202.399 34.2296 200.322 33.7095 198.606 32.671C196.889 31.6309 195.592 30.1967 194.717 28.3661C193.841 26.5371 193.404 24.4461 193.404 22.0916C193.404 19.7216 193.859 17.6121 194.768 15.766C195.678 13.9192 196.996 12.4711 198.722 11.4233C200.447 10.3755 202.494 9.85157 204.864 9.85157C206.992 9.85157 208.817 10.2681 210.336 11.1018C211.855 11.9348 213.006 13.0854 213.787 14.5544C214.568 16.0233 214.959 17.711 214.959 19.6181C214.959 20.0995 214.933 20.5113 214.882 20.8552H208.089V20.8567H200.64ZM125.349 17.711V19.7842H132.636V16.2938C132.636 14.1634 132.396 12.8474 131.916 11.8692C131.435 10.8893 130.542 10.5509 129.237 10.5509C127.777 10.5509 126.764 11.1304 126.198 12.2942C125.593 13.539 125.349 15.2027 125.349 17.711ZM138.495 14.5544C139.276 16.0233 139.667 17.711 139.667 19.6181C139.667 20.0995 139.642 20.5113 139.59 20.8552H132.798V20.8567H125.349V21.0097C125.349 24.0334 125.889 26.3315 126.97 27.9032C128.053 29.475 129.855 30.2608 132.379 30.2608C133.992 30.2608 135.392 29.9432 136.577 29.3073C137.761 28.6721 138.688 27.7866 139.358 26.6537L139.461 26.7047C139.015 29.0067 137.933 30.8373 136.216 32.1942C134.499 33.5511 132.276 34.2296 129.546 34.2296C127.108 34.2296 125.031 33.7095 123.314 32.671C121.597 31.6309 120.301 30.1967 119.425 28.3661C118.549 26.5371 118.112 24.4461 118.112 22.0916C118.112 19.7216 118.567 17.6121 119.477 15.766C120.386 13.9192 121.705 12.4711 123.43 11.4233C125.156 10.3755 127.203 9.85157 129.572 9.85157C131.7 9.85157 133.525 10.2681 135.045 11.1018C136.564 11.9348 137.714 13.0854 138.495 14.5544ZM36.2535 17.711V19.7842H43.541V16.2938C43.541 14.1634 43.3008 12.8474 42.8205 11.8692C42.3394 10.8893 41.4467 10.5509 40.1417 10.5509C38.6822 10.5509 37.6682 11.1304 37.103 12.2942C36.4983 13.539 36.2535 15.2027 36.2535 17.711ZM49.3998 14.5544C50.1805 16.0233 50.5721 17.711 50.5721 19.6181C50.5721 20.0995 50.5458 20.5113 50.4948 20.8552H43.7031V20.8567H36.2535V21.0097C36.2535 24.0334 36.7941 26.3315 37.8752 27.9032C38.9571 29.475 40.7602 30.2608 43.2838 30.2608C44.897 30.2608 46.297 29.9432 47.4816 29.3073C48.6662 28.6721 49.5937 27.7866 50.2624 26.6537L50.3659 26.7047C49.9195 29.0067 48.8376 30.8373 47.121 32.1942C45.4036 33.5511 43.1811 34.2296 40.4505 34.2296C38.0134 34.2296 35.9354 33.7095 34.2187 32.671C32.5021 31.6309 31.2055 30.1967 30.3306 28.3661C29.4549 26.5371 29.017 24.4461 29.017 22.0916C29.017 19.7216 29.4719 17.6121 30.3815 15.766C31.292 13.9192 32.6094 12.4711 34.3345 11.4233C36.0597 10.3755 38.1076 9.85157 40.4768 9.85157C42.605 9.85157 44.4298 10.2681 45.9495 11.1018C47.4685 11.9348 48.6191 13.0854 49.3998 14.5544ZM18.1055 11.1559C18.1055 8.85088 17.9125 7.08288 17.5248 5.8527C17.1387 4.62252 16.5109 4.15502 15.5394 3.62261C14.568 3.08943 13.1023 3.13116 11.2451 3.13116H9.67208V18.3477H14.9703C15.3294 18.2457 15.6622 18.1259 15.9394 17.9691C16.7302 17.5224 17.2885 16.7698 17.6159 15.7119C17.9418 14.6533 18.1055 13.1349 18.1055 11.1559ZM19.2144 17.6345L28.7058 34.2033H24.8632C23.4871 34.2033 22.4771 34.0998 21.8323 33.8934C21.1882 33.6871 20.5944 33.2575 20.0531 32.603C19.511 31.9493 18.6731 30.7361 17.5379 28.9642L11.5154 19.4195H9.67208V29.3768C9.67208 30.0136 9.72691 30.5382 9.83966 30.9509C9.95086 31.3643 10.157 31.7769 10.459 32.1903C10.7594 32.603 11.2188 33.1107 11.8382 33.7126V33.7644H0V33.7126C0.61855 33.1107 1.07879 32.603 1.37996 32.1903C1.68036 31.7769 1.88654 31.3643 1.99851 30.9509C2.11048 30.5382 2.16608 30.0136 2.16608 29.3768V6.45929C2.16608 5.82334 2.11048 5.29788 1.99851 4.88525C1.88654 4.47184 1.68036 4.05843 1.37996 3.64579C1.07879 3.23316 0.61855 2.71697 0 2.09725V2.04625H12.8961C17.0908 2.04625 20.3064 2.72161 22.5419 4.07234C24.7768 5.42307 25.8942 7.38811 25.8942 9.96902C25.8942 11.9132 25.2841 13.522 24.0632 14.7955C22.8423 16.0682 21.2261 17.0147 19.2144 17.6345ZM184.37 30.2608C182.756 30.2608 181.481 29.8876 180.545 29.1396C179.61 28.3932 178.949 27.2681 178.562 25.7636C178.176 24.2614 177.983 22.2894 177.983 19.8499C177.983 17.4962 178.12 15.62 178.395 14.2198C178.669 12.8188 179.107 11.9851 179.708 11.3499C180.309 10.7147 181.098 10.5277 182.078 10.5277C182.609 10.5277 183.211 10.6003 183.795 10.8175C184.451 11.0601 185.272 11.4465 185.98 11.8746C186.93 12.4502 188.3 13.5112 190.19 14.9029H190.241L190.138 10.7016C188.937 10.4442 187.566 10.1645 186.167 10.0007C184.767 9.83766 183.562 9.75575 182.549 9.75575C179.973 9.75575 177.863 10.3407 176.077 11.3715C174.291 12.4023 172.948 13.8419 172.047 15.688C171.146 17.5356 170.695 19.6691 170.695 22.0916C170.695 24.4291 171.098 26.5116 171.905 28.3414C172.712 30.1704 173.918 31.61 175.524 32.6578C177.128 33.7064 179.081 34.2296 181.382 34.2296C183.065 34.2296 184.563 33.929 185.876 33.327C187.19 32.7266 188.259 31.872 189.082 30.7639C189.906 29.655 190.438 28.3545 190.679 26.8593L190.627 26.782C189.374 29.1017 187.288 30.2608 184.37 30.2608ZM165.916 29.7192V16.99C165.916 14.7213 165.307 12.9657 164.088 11.7192C162.869 10.4744 161.117 9.85157 158.835 9.85157C157.22 9.85157 155.834 10.2032 154.675 10.9087C153.516 11.6126 152.602 12.5407 151.933 13.6912L151.804 10.3932H142.662V10.4442C143.28 11.0624 143.731 11.5647 144.013 11.9511C144.297 12.3382 144.494 12.7292 144.606 13.1241C144.718 13.5197 144.773 14.0173 144.773 14.6185V29.7192C144.773 30.5104 144.644 31.1595 144.387 31.6657C144.129 32.1726 143.589 32.8387 142.765 33.6632V33.7142H153.812V33.6632C153.057 32.8387 152.559 32.1726 152.319 31.6657C152.078 31.1595 151.958 30.5104 151.958 29.7192V14.7545C152.97 13.8095 154.132 12.9139 155.435 12.8281C156.607 12.7501 157.417 12.9657 157.933 13.6263C158.448 14.2886 158.706 15.1942 158.706 16.3456V29.7192C158.706 30.5274 158.59 31.1804 158.358 31.6788C158.126 32.1772 157.632 32.8387 156.877 33.6632V33.7142H167.925V33.6632C167.1 32.8387 166.56 32.1726 166.303 31.6657C166.045 31.1595 165.916 30.5104 165.916 29.7192ZM106.065 11.8568C105.172 11.3932 104.159 11.0006 103.027 11.0006C101.909 11.0006 100.959 11.125 100.316 11.7602C99.6715 12.3962 99.2699 13.2531 98.9703 14.8503C98.6691 16.4491 98.5193 18.7163 98.5193 21.6542C98.5193 24.1965 98.6522 26.2025 98.9186 27.6714C99.1842 29.1396 99.5657 30.1357 100.219 30.7562C100.862 31.3682 101.6 31.5613 102.664 31.5613C103.832 31.5613 105 30.6024 106.065 29.6056V11.8568ZM103.799 2.04316H113.276V33.7142H106.142L106.09 30.7245C105.455 31.7553 104.598 32.5976 103.515 33.2505C102.434 33.9027 101.129 34.2296 99.6012 34.2296C97.8506 34.2296 96.2961 33.7567 94.9401 32.8116C93.5833 31.8681 92.5323 30.5151 91.7848 28.7532C91.038 26.993 90.6651 24.9352 90.6651 22.5815C90.6651 20.074 91.1323 17.8532 92.0682 15.9206C93.0041 13.9872 94.2999 12.4927 95.9571 11.4364C97.6135 10.3801 99.4977 9.85157 101.61 9.85157C103.207 9.85157 104.692 10.2032 106.065 10.9087V6.55279C106.065 5.89984 106.009 5.36743 105.897 4.95557C105.786 4.54293 105.575 4.12643 105.266 3.70529C104.958 3.28416 104.469 2.74788 103.799 2.09493V2.04316ZM84.9259 29.7192V10.3932H75.6291V10.4442C76.2469 11.0624 76.6979 11.5647 76.9813 11.9511C77.2639 12.3382 77.4616 12.7292 77.5736 13.1241C77.6848 13.5197 77.7412 14.0173 77.7412 14.6185V29.7192C77.7412 30.5104 77.6122 31.1595 77.355 31.6657C77.0963 32.1726 76.5558 32.8387 75.7318 33.6632V33.7142H86.9345V33.6632C86.1097 32.8387 85.5692 32.1726 85.312 31.6657C85.0541 31.1595 84.9259 30.5104 84.9259 29.7192ZM81.2687 7.45457C82.4533 7.45457 83.4193 7.11534 84.166 6.43766C84.9136 5.7592 85.2865 4.89452 85.2865 3.8467C85.2865 2.79966 84.9136 1.93111 84.166 1.24416C83.4193 0.557202 82.4533 0.214111 81.2687 0.214111C80.0671 0.214111 79.0964 0.557202 78.3589 1.24416C77.6199 1.93111 77.2516 2.79966 77.2516 3.8467C77.2516 4.89452 77.6245 5.7592 78.3721 6.43766C79.1188 7.11534 80.0849 7.45457 81.2687 7.45457ZM70.907 23.6633C71.3788 24.5743 71.6151 25.6577 71.6151 26.9111C71.6151 28.3893 71.2584 29.6774 70.5464 30.777C69.8336 31.8758 68.7818 32.7266 67.3918 33.327C66.0011 33.929 64.3184 34.2296 62.3438 34.2296C61.228 34.2296 60.0426 34.1392 58.7901 33.9591C57.5367 33.7783 56.3521 33.5426 55.2363 33.2505L54.2834 28.5863H54.3351C56.1714 30.1156 57.3738 30.8636 58.3615 31.5938C59.3491 32.324 60.3607 32.8008 60.9785 33.0836C61.5971 33.3672 62.1979 33.5094 62.7817 33.5094C63.7601 33.5094 64.5462 33.4221 65.1385 32.8379C65.7308 32.2545 66.0265 31.6448 66.0265 30.5962C66.0265 29.7887 65.8335 29.084 65.4474 28.4828C65.0613 27.8816 64.4898 27.3098 63.7346 26.7689C62.9786 26.228 61.8372 25.5024 60.3098 24.5921C58.5236 23.4925 57.1421 22.3543 56.1637 21.1774C55.1845 20.0006 54.6957 18.5525 54.6957 16.8355C54.6957 14.6703 55.4633 12.9657 57 11.7192C58.5368 10.4744 60.7816 9.75575 63.7346 9.75575C64.73 9.75575 65.8937 9.81911 67.2243 9.94816C68.554 10.0772 69.7602 10.3407 70.8421 10.5478L71.1518 14.4385H71.1C69.3834 13.2191 68.2498 12.5376 67.3146 11.9534C66.3787 11.3692 65.459 10.9048 64.8937 10.7255C64.4945 10.5996 63.8288 10.5099 63.3485 10.5099C62.3701 10.5099 61.6017 10.6614 61.0434 11.2023C60.4851 11.744 60.2063 12.2741 60.2063 13.2013C60.2063 13.9578 60.3955 14.6185 60.7731 15.1857C61.1507 15.7529 61.6998 16.3023 62.421 16.8355C63.1423 17.3679 64.2412 18.0811 65.7177 18.9736C67.0567 19.7819 68.1378 20.5376 68.9625 21.2416C69.7865 21.9463 70.4344 22.7538 70.907 23.6633Z" clip-rule="evenodd" fill-rule="evenodd"></path>
    <path fill="#8C8479" d="M275.369 29.8213C273.973 29.8213 272.84 30.9549 272.84 32.3527C272.84 33.7506 273.973 34.8834 275.369 34.8834C276.767 34.8834 277.899 33.7506 277.899 32.3527C277.899 30.9549 276.767 29.8213 275.369 29.8213ZM275.369 30.1149C276.602 30.1149 277.605 31.1195 277.605 32.3527C277.605 33.586 276.602 34.5898 275.369 34.5898C274.137 34.5898 273.133 33.586 273.133 32.3527C273.133 31.1195 274.137 30.1149 275.369 30.1149Z" clip-rule="evenodd" fill-rule="evenodd"></path>
    <path fill="#8C8479" d="M275.541 31.362H274.932V32.2128H275.541C275.816 32.2128 276.003 32.0567 276.003 31.7894C276.003 31.5228 275.816 31.362 275.541 31.362ZM276.019 33.708L275.446 32.5636H274.932V33.708H274.521V30.9927H275.572C276.087 30.9927 276.415 31.3249 276.415 31.7855C276.415 32.1749 276.178 32.4222 275.873 32.5064L276.498 33.708H276.019Z" clip-rule="evenodd" fill-rule="evenodd"></path>
  </g>
  <defs>
    <clipPath id="clip0_9515_50442">
      <rect fill="white" height="35" width="278"></rect>
    </clipPath>
  </defs>
</svg>