<svg aria-label="ri" role="img" preserveAspectRatio="" fill="none" viewBox="0 0 278 51" height="51" width="278" xmlns="http://www.w3.org/2000/svg">
  <g clip-path="url(#clip0_7_403)">
    <path fill="#8C8479" d="M183.383 50.7188H184.819V47.4864L188.038 42.6082H186.405L184.113 46.2006L181.843 42.6082H180.163L183.383 47.5212V50.7188ZM172.762 49.4569V47.2322H175.02C176.143 47.2322 176.687 47.6371 176.687 48.321V48.3442C176.687 49.0736 176.097 49.4569 175.124 49.4569H172.762ZM172.762 46.026V43.8708H174.812C175.727 43.8708 176.236 44.2657 176.236 44.9024V44.9256C176.236 45.6667 175.622 46.026 174.707 46.026H172.762ZM171.361 50.7188H175.113C176.919 50.7188 178.112 49.9422 178.112 48.4941V48.4717C178.112 47.3705 177.453 46.8257 176.502 46.5012C177.104 46.189 177.66 45.6667 177.66 44.6938V44.6706C177.66 44.1258 177.475 43.6862 177.116 43.3268C176.653 42.8632 175.924 42.6082 174.997 42.6082H171.361V50.7188ZM266.621 50.779H268.165V43.9643H270.934V42.6036H263.853V43.9643H266.621V50.779ZM256.924 50.779H258.469V43.9643H261.236V42.6036H254.157V43.9643H256.924V50.779ZM247.888 49.5419C247.48 49.5419 247.115 49.4638 246.793 49.3093C246.47 49.1532 246.194 48.943 245.966 48.678C245.736 48.4114 245.562 48.1038 245.439 47.7515C245.315 47.3999 245.254 47.0328 245.254 46.6488C245.254 46.257 245.315 45.8861 245.439 45.5392C245.562 45.1922 245.736 44.8878 245.966 44.6258C246.194 44.3646 246.47 44.1583 246.793 44.0068C247.115 43.8554 247.48 43.7797 247.888 43.7797C248.288 43.7797 248.652 43.8554 248.979 44.0068C249.305 44.1583 249.583 44.3646 249.813 44.6258C250.041 44.8878 250.216 45.1922 250.339 45.5392C250.462 45.8861 250.522 46.257 250.522 46.6488C250.522 47.0328 250.462 47.3999 250.339 47.7515C250.216 48.1038 250.041 48.4114 249.813 48.678C249.583 48.943 249.305 49.1532 248.979 49.3093C248.652 49.4638 248.288 49.5419 247.888 49.5419ZM247.888 51C248.485 51 249.041 50.8888 249.555 50.6623C250.07 50.4383 250.519 50.1307 250.903 49.7374C251.287 49.3456 251.588 48.8882 251.809 48.3643C252.028 47.8427 252.139 47.2824 252.139 46.6859C252.139 46.0886 252.028 45.5291 251.809 45.006C251.588 44.4828 251.287 44.0277 250.903 43.639C250.519 43.2511 250.07 42.9451 249.555 42.7203C249.041 42.4954 248.485 42.3826 247.888 42.3826C247.292 42.3826 246.736 42.4954 246.216 42.7203C245.698 42.9451 245.249 43.2511 244.87 43.639C244.489 44.0277 244.189 44.4828 243.968 45.006C243.748 45.5291 243.638 46.0886 243.638 46.6859C243.638 47.2824 243.748 47.8427 243.968 48.3643C244.189 48.8882 244.492 49.3456 244.875 49.7374C245.259 50.1307 245.707 50.4383 246.222 50.6623C246.737 50.8888 247.292 51 247.888 51ZM238.373 50.779H239.917V42.6036H238.373V50.779ZM229.569 46.281V43.9149H231.188C231.555 43.9149 231.854 44.0254 232.083 44.2456C232.311 44.4666 232.426 44.7533 232.426 45.1041C232.426 45.431 232.317 45.7092 232.1 45.9379C231.885 46.1666 231.58 46.281 231.188 46.281H229.569ZM228.087 50.779H229.569V47.556H231.115L232.768 50.779H234.508L232.621 47.3605C233.087 47.1225 233.433 46.8057 233.657 46.41C233.881 46.0128 233.993 45.5577 233.993 45.0423C233.993 44.7819 233.943 44.5076 233.841 44.2217C233.738 43.935 233.577 43.6715 233.357 43.4312C233.137 43.1901 232.846 42.9907 232.487 42.8369C232.127 42.6816 231.691 42.6036 231.176 42.6036H228.087V50.779ZM219.658 46.281V43.9149H221.279C221.646 43.9149 221.944 44.0254 222.173 44.2456C222.401 44.4666 222.516 44.7533 222.516 45.1041C222.516 45.431 222.407 45.7092 222.191 45.9379C221.974 46.1666 221.669 46.281 221.279 46.281H219.658ZM218.177 50.779H219.658V47.556H221.206L222.859 50.779H224.598L222.712 47.3605C223.177 47.1225 223.522 46.8057 223.747 46.41C223.971 46.0128 224.083 45.5577 224.083 45.0423C224.083 44.7819 224.032 44.5076 223.93 44.2217C223.828 43.935 223.667 43.6715 223.446 43.4312C223.226 43.1901 222.936 42.9907 222.577 42.8369C222.218 42.6816 221.78 42.6036 221.267 42.6036H218.177V50.779ZM211.84 42.6036L214.939 50.779H213.224L212.514 48.7089H209.475L208.765 50.779H207.148L210.247 42.6036H211.84ZM209.904 47.4323H212.073L210.995 44.2588L209.904 47.4323ZM203.649 42.6036L204.042 50.779H202.536L202.266 45.1165L200.115 48.4508H199.393L197.229 45.2023L196.96 50.779H195.514L195.906 42.6036H197.339L199.797 46.4641L202.218 42.6036H203.649Z" clip-rule="evenodd" fill-rule="evenodd"></path>
    <path fill="#8C8479" d="M268.246 10.805V28.2764L253.825 12.3953L251.351 9.63281L251.372 9.68768L251.34 9.63281V28.2764L236.919 12.3953L234.445 9.63281V34.1012H237.134V16.6314L251.639 32.6068L254.029 35.2734V16.6036L254.039 16.6314L268.545 32.6068L270.934 35.2734V10.805H268.246ZM226.567 34.1012H229.256V10.805H226.567V34.1012Z" clip-rule="evenodd" fill-rule="evenodd"></path>
    <path fill="#442931" d="M200.64 18.1011V20.1743H207.928V16.6839C207.928 14.5535 207.688 13.2376 207.207 12.2593C206.726 11.2795 205.834 10.941 204.528 10.941C203.069 10.941 202.056 11.5206 201.49 12.6843C200.885 13.9292 200.64 15.5928 200.64 18.1011ZM200.64 21.2469V21.3999C200.64 24.4236 201.181 26.7217 202.262 28.2934C203.345 29.8651 205.147 30.651 207.671 30.651C209.284 30.651 210.684 30.3334 211.868 29.6974C213.053 29.0622 213.98 28.1767 214.65 27.0439L214.753 27.0949C214.306 29.3968 213.224 31.2274 211.508 32.5843C209.791 33.9412 207.568 34.6197 204.837 34.6197C202.399 34.6197 200.322 34.0997 198.606 33.0611C196.889 32.021 195.592 30.5868 194.717 28.7562C193.841 26.9272 193.404 24.8362 193.404 22.4817C193.404 20.1117 193.859 18.0022 194.768 16.1562C195.678 14.3093 196.996 12.8612 198.722 11.8134C200.447 10.7656 202.494 10.2417 204.864 10.2417C206.992 10.2417 208.817 10.6582 210.336 11.492C211.855 12.325 213.006 13.4756 213.787 14.9445C214.568 16.4135 214.959 18.1011 214.959 20.0082C214.959 20.4896 214.933 20.9015 214.882 21.2453H208.089V21.2469H200.64ZM125.349 18.1011V20.1743H132.636V16.6839C132.636 14.5535 132.396 13.2376 131.916 12.2593C131.435 11.2795 130.542 10.941 129.237 10.941C127.777 10.941 126.764 11.5206 126.198 12.6843C125.593 13.9292 125.349 15.5928 125.349 18.1011ZM138.495 14.9445C139.276 16.4135 139.667 18.1011 139.667 20.0082C139.667 20.4896 139.642 20.9015 139.59 21.2453H132.798V21.2469H125.349V21.3999C125.349 24.4236 125.889 26.7217 126.97 28.2934C128.053 29.8651 129.855 30.651 132.379 30.651C133.992 30.651 135.392 30.3334 136.577 29.6974C137.761 29.0622 138.688 28.1767 139.358 27.0439L139.461 27.0949C139.015 29.3968 137.933 31.2274 136.216 32.5843C134.499 33.9412 132.276 34.6197 129.546 34.6197C127.108 34.6197 125.031 34.0997 123.314 33.0611C121.597 32.021 120.301 30.5868 119.425 28.7562C118.549 26.9272 118.112 24.8362 118.112 22.4817C118.112 20.1117 118.567 18.0022 119.477 16.1562C120.386 14.3093 121.705 12.8612 123.43 11.8134C125.156 10.7656 127.203 10.2417 129.572 10.2417C131.7 10.2417 133.525 10.6582 135.045 11.492C136.564 12.325 137.714 13.4756 138.495 14.9445ZM36.2535 18.1011V20.1743H43.541V16.6839C43.541 14.5535 43.3008 13.2376 42.8205 12.2593C42.3394 11.2795 41.4467 10.941 40.1417 10.941C38.6822 10.941 37.6682 11.5206 37.103 12.6843C36.4983 13.9292 36.2535 15.5928 36.2535 18.1011ZM49.3998 14.9445C50.1805 16.4135 50.5721 18.1011 50.5721 20.0082C50.5721 20.4896 50.5458 20.9015 50.4948 21.2453H43.7031V21.2469H36.2535V21.3999C36.2535 24.4236 36.7941 26.7217 37.8752 28.2934C38.9571 29.8651 40.7602 30.651 43.2838 30.651C44.897 30.651 46.297 30.3334 47.4816 29.6974C48.6662 29.0622 49.5937 28.1767 50.2624 27.0439L50.3659 27.0949C49.9195 29.3968 48.8376 31.2274 47.121 32.5843C45.4036 33.9412 43.1811 34.6197 40.4505 34.6197C38.0134 34.6197 35.9354 34.0997 34.2187 33.0611C32.5021 32.021 31.2055 30.5868 30.3306 28.7562C29.4549 26.9272 29.017 24.8362 29.017 22.4817C29.017 20.1117 29.4719 18.0022 30.3815 16.1562C31.292 14.3093 32.6094 12.8612 34.3345 11.8134C36.0597 10.7656 38.1076 10.2417 40.4768 10.2417C42.605 10.2417 44.4298 10.6582 45.9495 11.492C47.4685 12.325 48.6191 13.4756 49.3998 14.9445ZM18.1055 11.5461C18.1055 9.24102 17.9125 7.47302 17.5248 6.24284C17.1387 5.01266 16.5109 4.54516 15.5394 4.01275C14.568 3.47957 13.1023 3.52129 11.2451 3.52129H9.67208V18.7378H14.9703C15.3294 18.6358 15.6622 18.5161 15.9394 18.3592C16.7302 17.9126 17.2885 17.1599 17.6159 16.1021C17.9418 15.0434 18.1055 13.525 18.1055 11.5461ZM19.2144 18.0246L28.7058 34.5934H24.8632C23.4871 34.5934 22.4771 34.4899 21.8323 34.2836C21.1882 34.0773 20.5944 33.6476 20.0531 32.9931C19.511 32.3394 18.6731 31.1262 17.5379 29.3543L11.5154 19.8096H9.67208V29.767C9.67208 30.4037 9.72691 30.9284 9.83966 31.341C9.95086 31.7544 10.157 32.1671 10.459 32.5805C10.7594 32.9931 11.2188 33.5008 11.8382 34.1027V34.1545H0V34.1027C0.61855 33.5008 1.07879 32.9931 1.37996 32.5805C1.68036 32.1671 1.88654 31.7544 1.99851 31.341C2.11048 30.9284 2.16608 30.4037 2.16608 29.767V6.84943C2.16608 6.21348 2.11048 5.68802 1.99851 5.27538C1.88654 4.86198 1.68036 4.44857 1.37996 4.03593C1.07879 3.62329 0.61855 3.10711 0 2.48738V2.43638H12.8961C17.0908 2.43638 20.3064 3.11175 22.5419 4.46248C24.7768 5.8132 25.8942 7.77825 25.8942 10.3592C25.8942 12.3033 25.2841 13.9122 24.0632 15.1856C22.8423 16.4583 21.2261 17.4049 19.2144 18.0246ZM184.37 30.651C182.756 30.651 181.481 30.2777 180.545 29.5297C179.61 28.7833 178.949 27.6582 178.562 26.1537C178.176 24.6515 177.983 22.6795 177.983 20.24C177.983 17.8863 178.12 16.0101 178.395 14.6099C178.669 13.209 179.107 12.3752 179.708 11.74C180.309 11.1048 181.098 10.9178 182.078 10.9178C182.609 10.9178 183.211 10.9905 183.795 11.2076C184.451 11.4502 185.272 11.8366 185.98 12.2647C186.93 12.8404 188.3 13.9013 190.19 15.293H190.241L190.138 11.0917C188.937 10.8344 187.566 10.5547 186.167 10.3908C184.767 10.2278 183.562 10.1459 182.549 10.1459C179.973 10.1459 177.863 10.7308 176.077 11.7617C174.291 12.7925 172.948 14.2321 172.047 16.0781C171.146 17.9257 170.695 20.0592 170.695 22.4817C170.695 24.8192 171.098 26.9017 171.905 28.7315C172.712 30.5606 173.918 32.0002 175.524 33.048C177.128 34.0966 179.081 34.6197 181.382 34.6197C183.065 34.6197 184.563 34.3191 185.876 33.7172C187.19 33.1167 188.259 32.2621 189.082 31.154C189.906 30.0452 190.438 28.7447 190.679 27.2494L190.627 27.1722C189.374 29.4919 187.288 30.651 184.37 30.651ZM165.916 30.1093V17.3802C165.916 15.1114 165.307 13.3558 164.088 12.1094C162.869 10.8645 161.117 10.2417 158.835 10.2417C157.22 10.2417 155.834 10.5933 154.675 11.2988C153.516 12.0027 152.602 12.9308 151.933 14.0814L151.804 10.7834H142.662V10.8344C143.28 11.4526 143.731 11.9548 144.013 12.3412C144.297 12.7283 144.494 13.1193 144.606 13.5142C144.718 13.9098 144.773 14.4075 144.773 15.0087V30.1093C144.773 30.9006 144.644 31.5497 144.387 32.0558C144.129 32.5627 143.589 33.2288 142.765 34.0533V34.1043H153.812V34.0533C153.057 33.2288 152.559 32.5627 152.319 32.0558C152.078 31.5497 151.958 30.9006 151.958 30.1093V15.1447C152.97 14.1996 154.132 13.304 155.435 13.2182C156.607 13.1402 157.417 13.3558 157.933 14.0165C158.448 14.6787 158.706 15.5843 158.706 16.7357V30.1093C158.706 30.9176 158.59 31.5705 158.358 32.0689C158.126 32.5673 157.632 33.2288 156.877 34.0533V34.1043H167.925V34.0533C167.1 33.2288 166.56 32.5627 166.303 32.0558C166.045 31.5497 165.916 30.9006 165.916 30.1093ZM106.065 12.2469C105.172 11.7833 104.159 11.3907 103.027 11.3907C101.909 11.3907 100.959 11.5152 100.316 12.1503C99.6715 12.7863 99.2699 13.6432 98.9703 15.2405C98.6691 16.8392 98.5193 19.1064 98.5193 22.0443C98.5193 24.5866 98.6522 26.5926 98.9186 28.0616C99.1842 29.5297 99.5657 30.5258 100.219 31.1463C100.862 31.7583 101.6 31.9515 102.664 31.9515C103.832 31.9515 105 30.9925 106.065 29.9957V12.2469ZM103.799 2.43329H113.276V34.1043H106.142L106.09 31.1146C105.455 32.1454 104.598 32.9877 103.515 33.6407C102.434 34.2928 101.129 34.6197 99.6012 34.6197C97.8506 34.6197 96.2961 34.1468 94.9401 33.2018C93.5833 32.2583 92.5323 30.9052 91.7848 29.1434C91.038 27.3831 90.6651 25.3253 90.6651 22.9716C90.6651 20.4641 91.1323 18.2433 92.0682 16.3107C93.0041 14.3773 94.2999 12.8829 95.9571 11.8266C97.6135 10.7702 99.4977 10.2417 101.61 10.2417C103.207 10.2417 104.692 10.5933 106.065 11.2988V6.94293C106.065 6.28998 106.009 5.75757 105.897 5.3457C105.786 4.93307 105.575 4.51657 105.266 4.09543C104.958 3.67429 104.469 3.13802 103.799 2.48507V2.43329ZM84.9259 30.1093V10.7834H75.6291V10.8344C76.2469 11.4526 76.6979 11.9548 76.9813 12.3412C77.2639 12.7283 77.4616 13.1193 77.5736 13.5142C77.6848 13.9098 77.7412 14.4075 77.7412 15.0087V30.1093C77.7412 30.9006 77.6122 31.5497 77.355 32.0558C77.0963 32.5627 76.5558 33.2288 75.7318 34.0533V34.1043H86.9345V34.0533C86.1097 33.2288 85.5692 32.5627 85.312 32.0558C85.0541 31.5497 84.9259 30.9006 84.9259 30.1093ZM81.2687 7.8447C82.4533 7.8447 83.4193 7.50548 84.166 6.82779C84.9136 6.14934 85.2865 5.28466 85.2865 4.23684C85.2865 3.18979 84.9136 2.32125 84.166 1.63429C83.4193 0.947339 82.4533 0.604248 81.2687 0.604248C80.0671 0.604248 79.0964 0.947339 78.3589 1.63429C77.6199 2.32125 77.2516 3.18979 77.2516 4.23684C77.2516 5.28466 77.6245 6.14934 78.3721 6.82779C79.1188 7.50548 80.0849 7.8447 81.2687 7.8447ZM70.907 24.0534C71.3788 24.9645 71.6151 26.0478 71.6151 27.3012C71.6151 28.7794 71.2584 30.0676 70.5464 31.1672C69.8336 32.266 68.7818 33.1167 67.3918 33.7172C66.0011 34.3191 64.3184 34.6197 62.3438 34.6197C61.228 34.6197 60.0426 34.5293 58.7901 34.3493C57.5367 34.1684 56.3521 33.9328 55.2363 33.6407L54.2834 28.9765H54.3351C56.1714 30.5057 57.3738 31.2537 58.3615 31.9839C59.3491 32.7142 60.3607 33.1909 60.9785 33.4738C61.5971 33.7573 62.1979 33.8995 62.7817 33.8995C63.7601 33.8995 64.5462 33.8122 65.1385 33.228C65.7308 32.6446 66.0265 32.0349 66.0265 30.9863C66.0265 30.1788 65.8335 29.4741 65.4474 28.8729C65.0613 28.2717 64.4898 27.6999 63.7346 27.159C62.9786 26.6181 61.8372 25.8925 60.3098 24.9822C58.5236 23.8827 57.1421 22.7444 56.1637 21.5676C55.1845 20.3907 54.6957 18.9426 54.6957 17.2256C54.6957 15.0604 55.4633 13.3558 57 12.1094C58.5368 10.8645 60.7816 10.1459 63.7346 10.1459C64.73 10.1459 65.8937 10.2092 67.2243 10.3383C68.554 10.4673 69.7602 10.7308 70.8421 10.9379L71.1518 14.8286H71.1C69.3834 13.6092 68.2498 12.9277 67.3146 12.3435C66.3787 11.7593 65.459 11.2949 64.8937 11.1157C64.4945 10.9897 63.8288 10.9001 63.3485 10.9001C62.3701 10.9001 61.6017 11.0515 61.0434 11.5924C60.4851 12.1341 60.2063 12.6642 60.2063 13.5915C60.2063 14.348 60.3955 15.0087 60.7731 15.5758C61.1507 16.143 61.6998 16.6924 62.421 17.2256C63.1423 17.758 64.2412 18.4712 65.7177 19.3637C67.0567 20.172 68.1378 20.9277 68.9625 21.6317C69.7865 22.3364 70.4344 23.1439 70.907 24.0534Z" clip-rule="evenodd" fill-rule="evenodd"></path>
    <path fill="#8C8479" d="M275.369 30.2114C273.973 30.2114 272.84 31.345 272.84 32.7429C272.84 34.1407 273.973 35.2736 275.369 35.2736C276.767 35.2736 277.899 34.1407 277.899 32.7429C277.899 31.345 276.767 30.2114 275.369 30.2114ZM275.369 30.5051C276.602 30.5051 277.605 31.5096 277.605 32.7429C277.605 33.9762 276.602 34.9799 275.369 34.9799C274.137 34.9799 273.133 33.9762 273.133 32.7429C273.133 31.5096 274.137 30.5051 275.369 30.5051Z" clip-rule="evenodd" fill-rule="evenodd"></path>
    <path fill="#8C8479" d="M275.541 31.7522H274.932V32.6029H275.541C275.816 32.6029 276.003 32.4469 276.003 32.1795C276.003 31.9129 275.816 31.7522 275.541 31.7522ZM276.019 34.0982L275.446 32.9538H274.932V34.0982H274.521V31.3828H275.572C276.087 31.3828 276.415 31.7151 276.415 32.1756C276.415 32.5651 276.178 32.8124 275.873 32.8966L276.498 34.0982H276.019Z" clip-rule="evenodd" fill-rule="evenodd"></path>
  </g>
  <defs>
    <clipPath id="clip0_7_403">
      <rect fill="white" height="51" width="278"></rect>
    </clipPath>
  </defs>
</svg>