<svg aria-label="rz" role="img" preserveAspectRatio="" fill="none" viewBox="0 0 260 104" height="104" width="260" xmlns="http://www.w3.org/2000/svg">
  <path fill="#000203" d="M130.307 42.8458C130.611 43.8665 132.041 45.4985 133.572 46.1116V46.3154C132.653 46.622 131.531 47.0295 131.531 47.9474C131.531 48.6633 132.142 48.8671 132.552 48.8671C133.163 48.8671 133.369 48.7643 134.083 47.9474H134.286C134.797 48.6633 135.307 49.2747 135.614 49.4784V49.684C134.898 50.2953 134.694 50.6019 134.286 51.1122H134.083C133.673 50.4991 133.266 50.2953 132.858 50.2953C132.142 50.2953 131.531 50.8057 131.531 51.7236C131.531 53.4601 133.266 53.9705 135.001 53.9705C137.348 53.9705 138.165 53.1536 138.165 51.8263C138.165 51.316 137.96 50.4991 137.145 49.684V49.4784C138.063 49.2747 139.184 48.3568 139.491 47.9474H139.695C139.9 48.4578 140.715 49.4784 141.532 50.0916V50.2953C140.411 50.8057 139.9 51.7236 139.9 52.5405C139.9 54.1742 141.532 54.8884 143.063 54.8884C144.491 54.8884 145.002 53.9705 145.002 52.9498C145.002 52.3367 144.697 51.9291 144.187 51.9291C143.983 51.9291 143.574 52.0301 143.37 52.4395H143.166C143.063 51.9291 142.859 51.1122 142.757 50.4991C142.962 50.2953 143.983 49.684 144.288 49.4784L144.491 49.5812C144.594 50.0916 144.798 50.7047 145.512 50.7047C146.636 50.7047 146.839 48.9681 145.921 48.0502L146.022 47.8464C148.167 47.8464 149.595 46.5192 150.004 45.9079L150.309 46.0089L146.228 55.5015C146.228 55.5015 147.146 55.909 146.942 56.6232C146.533 58.0514 145.308 60.5021 145.308 62.7472C145.308 63.6651 145.411 63.7679 145.411 64.1754C145.411 64.5848 145.105 64.7885 144.697 64.7885H115.711C115.303 64.7885 114.996 64.5848 114.996 64.1754C114.996 63.7679 115.099 63.6651 115.099 62.7472C115.099 60.5021 113.875 58.0514 113.465 56.6232C113.262 55.909 114.181 55.5015 114.181 55.5015L110.099 46.0089L110.403 45.9079C110.813 46.5192 112.241 47.8464 114.385 47.8464L114.486 48.0502C113.568 48.9681 113.772 50.7047 114.895 50.7047C115.61 50.7047 115.813 50.0916 115.916 49.5812L116.12 49.4784C116.426 49.684 117.447 50.2953 117.651 50.4991C117.548 51.1122 117.344 51.9291 117.242 52.4395H117.038C116.834 52.0301 116.426 51.9291 116.221 51.9291C115.711 51.9291 115.406 52.3367 115.406 52.9498C115.406 53.9705 115.916 54.8884 117.344 54.8884C118.875 54.8884 120.507 54.1742 120.507 52.5405C120.507 51.7236 119.997 50.8057 118.875 50.2953V50.0916C119.692 49.4784 120.507 48.4578 120.713 47.9474H120.917C121.223 48.3568 122.345 49.2747 123.265 49.4784V49.684C122.448 50.4991 122.244 51.316 122.244 51.8263C122.244 53.1536 123.059 53.9705 125.407 53.9705C127.142 53.9705 128.877 53.4601 128.877 51.7236C128.877 50.8057 128.265 50.2953 127.551 50.2953C127.041 50.2953 126.734 50.4991 126.325 51.1122H126.121C125.714 50.6019 125.51 50.2953 124.794 49.684V49.4784C125.1 49.2747 125.611 48.6633 126.121 47.9474H126.325C127.041 48.7643 127.245 48.8671 127.856 48.8671C128.265 48.8671 128.877 48.6633 128.877 47.9474C128.877 47.0295 127.755 46.622 126.835 46.3154V46.1116C128.366 45.4985 129.796 43.8665 130.101 42.8458H130.307ZM130.204 56.4194C129.961 56.4194 129.719 56.4205 129.477 56.4228L128.751 56.4328C122.347 56.5489 116.264 57.3776 115.837 57.4367L115.813 57.44L116.937 62.3379C116.937 62.3379 121.878 62.4336 129.376 62.4403H131.032C138.531 62.4336 143.473 62.3379 143.473 62.3379L144.594 57.44L144.57 57.4367C144.16 57.3798 138.512 56.6103 132.38 56.4489L131.657 56.4328C131.174 56.4241 130.688 56.4194 130.204 56.4194ZM131.939 57.7466C132.245 57.7466 132.449 57.9504 132.449 58.2569V60.7058C132.449 61.0124 132.245 61.2162 131.939 61.2162H128.469C128.162 61.2162 127.959 61.0124 127.959 60.7058V58.2569C127.959 57.9504 128.162 57.7466 128.469 57.7466H131.939ZM136.328 57.8476C137.145 57.8476 138.676 57.9504 139.9 58.0514C140.104 58.0514 140.308 58.1542 140.308 58.4607V60.7058C140.308 61.0124 140.104 61.1134 139.9 61.1134H136.328C136.021 61.1134 135.817 60.9096 135.817 60.6031V58.3579C135.817 58.0514 136.021 57.8476 136.328 57.8476ZM124.08 57.8476C124.386 57.8476 124.59 58.0514 124.59 58.3579V60.6031C124.59 60.9096 124.386 61.1134 124.08 61.1134H120.507C120.304 61.1134 120.1 61.0124 120.1 60.7058V58.4607C120.1 58.1542 120.304 58.0514 120.507 58.0514C121.734 57.9504 123.265 57.8476 124.08 57.8476ZM130.204 58.3579C130 58.3579 129.183 59.1748 129.183 59.4814C129.183 59.5824 130 60.5021 130.204 60.5021C130.307 60.5021 131.122 59.5824 131.122 59.4814C131.122 59.1748 130.307 58.3579 130.204 58.3579ZM118.468 58.8683C118.569 58.8683 119.182 59.4814 119.182 59.6852C119.182 59.7879 118.569 60.5021 118.468 60.5021C118.365 60.5021 117.752 59.7879 117.752 59.6852C117.752 59.4814 118.365 58.8683 118.468 58.8683ZM141.942 58.8683C142.043 58.8683 142.656 59.4814 142.656 59.6852C142.656 59.7879 142.043 60.5021 141.942 60.5021C141.839 60.5021 141.226 59.7879 141.226 59.6852C141.226 59.4814 141.839 58.8683 141.942 58.8683ZM138.165 58.3579C137.96 58.3579 137.145 59.1748 137.145 59.4814C137.145 59.5824 137.96 60.5021 138.165 60.5021C138.266 60.5021 139.083 59.5824 139.083 59.4814C139.083 59.1748 138.266 58.3579 138.165 58.3579ZM122.345 58.3579C122.141 58.3579 121.324 59.1748 121.324 59.4814C121.324 59.5824 122.141 60.5021 122.345 60.5021C122.448 60.5021 123.265 59.5824 123.265 59.4814C123.265 59.1748 122.448 58.3579 122.345 58.3579ZM134.184 58.6645C134.286 58.6645 134.898 59.2776 134.898 59.4814C134.898 59.5824 134.286 60.2983 134.184 60.2983C134.083 60.2983 133.47 59.5824 133.47 59.4814C133.47 59.2776 134.083 58.6645 134.184 58.6645ZM126.224 58.6645C126.325 58.6645 126.938 59.2776 126.938 59.4814C126.938 59.5824 126.325 60.2983 126.224 60.2983C126.121 60.2983 125.51 59.5824 125.51 59.4814C125.51 59.2776 126.121 58.6645 126.224 58.6645ZM137.449 1C138.165 1.40933 139.594 2.73479 140.205 3.96102C145.512 4.87891 146.125 6.40992 146.125 9.16539C146.125 11.9209 148.167 13.1453 148.983 13.5546C148.167 14.2688 146.942 13.6556 146.942 13.6556C146.942 13.6556 149.698 15.4932 150.208 18.5552C149.391 18.0449 148.473 17.6356 147.553 17.4318C147.553 17.4318 149.084 19.2693 149.084 22.1276C149.084 23.6586 148.574 25.5972 147.043 27.6385C147.043 27.6385 147.452 28.0461 147.452 29.0667C147.452 32.6391 144.084 34.2729 144.084 37.4359C144.084 39.8848 146.125 40.8045 147.656 40.8045C148.37 40.8045 149.595 40.6007 150.615 39.7838C150.615 39.7838 150.922 40.4979 150.922 41.5186C150.922 44.4778 148.983 46.4182 145.207 46.4182C143.267 46.4182 140.614 45.7023 138.88 43.8665C138.798 43.8665 138.673 43.8696 138.512 43.8711L138.185 43.8711C136.49 43.8544 132.518 43.5345 130.204 40.1914C130.204 40.1914 128.366 44.0703 122.549 44.1713C120.507 45.8051 118.468 46.622 115.61 46.622C112.344 46.622 109.078 44.2741 109.078 40.7017C109.078 39.8848 109.179 38.9669 109.383 38.3538C111.017 40.3952 113.161 41.3148 114.69 41.3148C117.038 41.3148 117.855 39.4773 117.855 36.518C117.855 35.9277 117.833 35.3375 117.812 34.7486L117.794 34.2443L117.778 33.7269C117.702 30.7982 117.918 27.9263 121.018 25.2906L121.631 24.7803C121.631 24.7803 120.61 25.0868 120.1 25.0868C119.488 25.0868 118.262 23.5558 117.957 22.2286C117.752 21.5145 118.262 21.2079 118.976 20.6976C118.773 20.5966 118.365 20.8004 117.855 20.8004C116.426 20.8004 115.711 19.9835 114.793 19.9835C114.079 19.9835 113.772 20.0862 113.465 20.0862C113.262 20.0862 113.058 19.8825 113.058 19.4731C113.058 18.2487 114.181 17.8411 114.895 17.8411C116.12 17.8411 117.141 18.759 117.957 18.3514C117.855 18.0449 117.344 17.228 117.141 17.0242C117.141 17.0242 116.731 17.1252 116.527 17.1252C115.813 17.1252 115.303 16.6167 114.793 13.5546C114.181 12.635 113.875 11.9209 113.875 11.5133C113.875 10.6964 114.486 10.2888 115.406 9.7785L120.507 7.12404C121.223 5.38925 121.835 4.57236 122.855 4.36858C124.794 3.96102 127.551 3.85824 127.551 3.85824C127.551 3.85824 128.366 2.63379 129.591 2.63379C130 2.63379 130.714 2.94034 131.632 2.94034C131.836 2.94034 132.143 2.92892 132.46 2.9137L132.778 2.89748C133.304 2.86929 133.776 2.83757 133.776 2.83757C134.389 2.32723 136.225 1.61311 137.449 1ZM137.552 2.12345C133.559 2.80511 133.377 4.60243 133.369 5.03104L133.369 5.08269C133.369 6.00236 134.184 6.71648 135.511 7.63438C135.817 7.83816 135.614 8.04194 135.408 8.04194C134.898 8.04194 132.142 4.87891 128.469 4.87891C125.917 4.87891 123.265 5.18547 122.754 5.38925C121.835 5.79681 121.734 6.6137 121.734 6.6137C122.345 6.30715 123.059 6.10337 123.569 6.10337C123.979 6.10337 124.999 6.30715 124.999 6.71648H124.489C123.775 6.71648 123.569 6.92026 123.569 7.12404C123.569 7.4306 123.775 7.63438 123.979 7.73715C124.284 7.83816 124.489 7.63438 124.794 7.63438C124.794 7.63438 124.897 7.73715 124.897 7.83816C124.897 8.04194 124.59 8.34849 123.979 8.75783C124.386 8.65505 124.999 8.55227 125.203 8.55227C125.203 8.62936 125.031 8.82106 124.901 8.95471L124.794 9.06261C124.693 9.16539 124.08 9.16539 123.569 9.36917C122.958 9.57295 122.345 9.67572 122.038 9.57295L122.244 9.26816L122.652 9.16539C121.734 9.26816 121.427 9.06261 121.223 7.94093C117.344 9.7785 115.303 10.9002 115.303 10.9002C114.486 11.3095 115.2 12.1246 115.2 12.1246L116.527 11.5133C116.527 11.5133 116.834 11.6143 116.834 11.9209C116.834 12.4312 115.916 12.9415 115.916 13.7584C115.916 14.065 116.324 15.697 116.63 15.697C116.834 15.697 117.038 15.4932 117.344 15.2894C117.855 14.9829 118.569 14.6763 120.406 14.4725C121.324 13.6556 121.734 13.5546 121.937 13.5546C122.345 13.5546 122.652 13.7584 123.059 14.166L126.224 17.1252C127.166 18.0674 126.281 18.1399 126.14 18.1454L126.121 18.1459C124.183 18.1459 123.468 18.5552 121.631 20.3928C120.507 21.5145 119.079 21.0041 119.079 21.821C119.079 22.5351 120.1 24.1689 120.814 24.1689C121.631 24.1689 123.979 22.9427 124.794 21.6172C125.917 19.6769 128.776 19.0656 130 19.0656C130.714 19.0656 131.531 19.1666 132.041 19.1666C132.959 19.1666 133.572 18.6562 134.083 17.228C133.47 17.6356 132.142 17.7383 131.939 17.7383C131.183 17.7383 131.187 17.6001 131.213 17.5514L131.223 17.5366C132.653 16.8204 132.858 16.5139 132.858 16.5139C133.163 16.0035 132.653 14.7791 133.163 13.9622C133.572 14.166 133.98 14.8801 133.98 15.2894C134.286 14.7791 134.389 14.3698 134.389 13.9622C134.389 12.9415 133.673 12.3284 133.673 12.3284C135.307 12.3284 135.715 13.8594 135.715 15.2894C135.715 19.3721 131.838 20.1872 127.551 22.2286C121.835 24.883 119.386 26.9244 119.386 35.1908L119.385 35.6465C119.375 37.8008 119.139 42.5393 114.69 42.5393C112.955 42.5393 111.833 41.9262 111.017 41.4158C111.833 44.4778 114.69 44.8872 116.12 44.8872C117.651 44.8872 118.976 44.5806 120.203 43.56C120.203 43.56 118.468 43.3562 118.161 42.8458C122.244 42.3355 121.427 36.2115 121.427 32.3325C121.427 27.0254 122.958 25.6999 131.531 22.0248C134.184 20.9031 137.859 18.8618 137.859 15.596C137.859 14.3698 137.348 12.3284 133.776 10.4926C133.776 10.4926 133.47 10.2888 133.266 10.0833L132.041 8.85883C135.408 8.14471 139.797 11.003 139.797 14.7791C139.797 18.1459 137.552 20.6976 131.939 23.2493C126.938 25.4944 123.059 27.1282 123.059 32.3325C123.059 33.456 123.162 34.8842 123.569 36.7218C123.672 33.2522 124.183 27.9451 130 26.4141C127.245 32.7419 130 42.0289 138.369 42.0289C133.572 39.2735 132.755 34.987 132.348 31.5157C131.838 32.4353 131.428 34.2729 131.632 35.1908C131.632 35.1908 131.621 35.1711 131.602 35.1331L131.551 35.0332C131.31 34.539 130.611 32.931 130.611 30.9043C130.611 28.4554 131.021 25.3934 135.204 23.352C134.083 24.5765 133.163 25.9037 133.163 27.8423C133.163 28.6592 133.266 29.5771 133.572 30.4968C133.877 26.6178 138.063 23.352 140.001 18.759C140.411 19.2693 140.614 20.8004 140.001 21.922C140.001 21.922 142.246 20.1872 142.246 16.3101C142.246 14.7791 141.839 12.3284 139.491 9.98228C140.411 10.4926 144.187 12.9415 144.187 17.1252C144.187 19.6769 142.349 23.352 137.449 27.0254C140.818 26.3113 146.228 24.0662 146.228 17.7383C146.228 15.0856 143.983 9.26816 137.859 8.45127C138.063 7.73715 140.001 7.5316 140.001 5.79681C140.001 4.77614 139.39 3.65446 137.552 2.12345ZM124.794 11.5133C125.304 13.4519 127.551 13.6556 128.061 15.9008L127.959 16.0035C126.835 14.3698 125.1 14.2688 124.489 13.4519C124.183 13.0443 124.386 12.4312 124.693 11.5133H124.794ZM118.976 10.4926C118.976 11.003 118.365 11.6143 117.957 12.0236C117.752 12.0236 117.344 11.8181 117.344 11.5133C117.344 10.7992 118.468 10.5936 118.976 10.4926ZM136.838 3.14412C136.939 3.14412 136.939 3.24513 136.939 3.24513C136.939 3.45068 136.634 3.75546 136.634 4.47135C136.634 5.18547 137.348 5.59303 137.756 5.59303C138.266 5.59303 138.573 5.28647 138.573 4.87891C138.573 4.67513 138.573 4.2658 138.777 4.2658C139.184 4.67513 139.184 5.38925 139.184 5.38925C139.184 6.71648 137.348 7.5316 137.348 7.5316L137.042 7.32782C135.408 6.40992 135.103 5.69581 135.103 4.98169C135.103 4.47135 135.204 3.75546 136.838 3.14412ZM256.043 97.4625L247.51 87.6793H241.794V88.4465C243.529 88.4465 243.784 88.6751 243.784 90.153V98.3166C243.784 101.247 243.187 101.531 241.735 101.531V102.298H247.027V101.531C245.348 101.531 244.808 101.161 244.808 99.4259V89.7844L256.213 102.697H257.067V90.4666C257.067 88.6468 258.034 88.4465 259 88.4465V87.6793H253.711V88.4465C255.047 88.4465 256.043 88.7035 256.043 90.4383V97.4625ZM232.36 102.015C229.629 102.015 228.378 99.5676 228.378 94.9888C228.378 90.4099 229.629 87.9646 232.36 87.9646C235.09 87.9646 236.341 90.4099 236.341 94.9888C236.341 99.5676 235.09 102.015 232.36 102.015ZM232.36 87.2823C228.435 87.2823 224.396 89.8411 224.396 94.9888C224.396 100.136 228.435 102.697 232.36 102.697C236.285 102.697 240.323 100.136 240.323 94.9888C240.323 89.8411 236.285 87.2823 232.36 87.2823ZM208.925 87.2823C209.125 87.3958 209.352 87.4808 209.609 87.5659C209.864 87.6509 210.121 87.6793 210.376 87.6793H220.046C220.558 87.6793 221.099 87.5092 221.497 87.2823H222.095L222.975 91.5759L222.408 91.7744C221.184 89.4991 219.05 88.3615 217.799 88.3615C217.287 88.3615 217.032 88.5901 217.032 89.1305V100.365C217.032 101.416 217.374 101.531 218.88 101.531V102.298H211.542V101.531C213.05 101.531 213.39 101.416 213.39 100.365V89.1305C213.39 88.5901 213.135 88.3615 212.623 88.3615C211.372 88.3615 209.239 89.4991 208.016 91.7744L207.447 91.5759L208.33 87.2823H208.925ZM201.261 87.6793V88.4465C199.753 88.4465 199.411 88.5617 199.411 89.6143V100.507C199.411 101.247 199.725 101.531 201.346 101.531C204.844 101.531 206.152 100.991 208.172 98.0313H208.854L207.745 102.298H193.923V101.531C195.429 101.531 195.771 101.416 195.771 100.365V89.6143C195.771 88.5617 195.429 88.4465 193.923 88.4465V87.6793H201.261ZM182.694 94.5635H181.415V88.4465H182.24C185.255 88.4465 185.995 90.2115 185.995 91.5192C185.995 93.7661 184.429 94.5635 182.694 94.5635ZM190.175 100.051L187.758 96.2983C187.161 95.3591 186.619 95.0171 185.852 94.9888V94.9321C188.212 94.7903 189.635 93.5659 189.635 91.746C189.635 89.8978 187.985 87.6793 183.263 87.6793H175.927V88.4465C177.433 88.4465 177.775 88.5617 177.775 89.6143V100.365C177.775 101.416 177.433 101.531 175.927 101.531V102.298H183.263V101.531C181.757 101.531 181.415 101.416 181.415 100.365V95.2457C182.951 95.2457 183.491 95.4442 183.89 96.1831L187.303 102.298H192.337V101.531C191.483 101.531 191.056 101.446 190.175 100.051ZM160.863 97.6911L163.764 91.5475L166.78 97.6911H160.863ZM171.869 99.938L165.699 88.0496C165.442 87.5942 165.328 87.4525 165.215 87.4525C165.017 87.4525 164.533 88.6184 162.74 89.8128C162.996 89.9262 163.195 90.2115 163.195 90.4666C163.195 90.6367 163.167 90.7803 162.968 91.179L159.27 98.8854C158.333 100.877 157.764 101.531 156.369 101.531V102.298H161.659V101.531C160.237 101.531 159.669 101.132 159.669 100.563C159.669 100.223 159.839 99.6527 160.521 98.5452H167.177C168.087 99.938 168.258 100.677 168.258 100.905C168.258 101.387 167.802 101.531 166.268 101.531V102.298H174.203V101.531C172.923 101.531 172.553 101.247 171.869 99.938ZM153.699 97.264C152.419 99.9096 150.484 101.928 148.067 101.928C145.849 101.928 143.373 100.223 143.373 94.9888C143.373 90.1813 145.365 88.0496 148.209 88.0496C150.883 88.0496 152.533 89.8411 153.699 92.0313H154.296V87.4525H153.784C153.555 87.821 153.071 88.0496 152.675 88.0496C151.82 88.0496 150.001 87.2823 147.839 87.2823C142.634 87.2823 139.392 90.7236 139.392 95.2457C139.392 99.3125 142.719 102.697 147.442 102.697C150.114 102.697 152.021 101.701 152.675 101.701C153.187 101.701 153.527 102.043 153.784 102.697H154.296V97.264H153.699ZM108.608 102.298H121.349L122.885 97.8895H122.288C120.155 100.734 118.847 101.616 116.742 101.616H113.159L122.402 88.078V87.6793H109.859L108.493 91.7744H109.005C110.683 89.5576 112.447 88.4465 114.41 88.4465H117.766L108.608 101.786V102.298ZM97.28 100.365C97.28 101.416 96.938 101.531 95.4318 101.531V102.298H102.77V101.531C101.262 101.531 100.92 101.416 100.92 100.365V89.1305C100.92 88.5901 101.177 88.3615 101.689 88.3615C102.94 88.3615 105.073 89.4991 106.296 91.7744L106.865 91.5759L105.982 87.2823H105.385C104.986 87.5092 104.446 87.6793 103.936 87.6793H94.264C94.0089 87.6793 93.7537 87.6509 93.4967 87.5659C93.2416 87.4808 93.013 87.3958 92.8145 87.2823H92.2174L91.3349 91.5759L91.9037 91.7744C93.1264 89.4991 95.2599 88.3615 96.5109 88.3615C97.023 88.3615 97.28 88.5901 97.28 89.1305V100.365ZM84.0183 100.365C84.0183 101.416 83.6781 101.531 82.1701 101.531V102.298H89.508V101.531C88 101.531 87.6598 101.416 87.6598 100.365V89.6143C87.6598 88.5617 88 88.4465 89.508 88.4465V87.6793H82.1701V88.4465C83.6781 88.4465 84.0183 88.5617 84.0183 89.6143V100.365ZM70.6043 94.5635H69.3249V88.4465H70.1488C73.1648 88.4465 73.9037 90.2115 73.9037 91.5192C73.9037 93.7661 72.339 94.5635 70.6043 94.5635ZM78.0839 100.051L75.6669 96.2983C75.0697 95.3591 74.5292 95.0171 73.762 94.9888V94.9321C76.1223 94.7903 77.5434 93.5659 77.5434 91.746C77.5434 89.8978 75.8955 87.6793 71.1731 87.6793H63.8352V88.4465C65.3432 88.4465 65.6834 88.5617 65.6834 89.6143V100.365C65.6834 101.416 65.3432 101.531 63.8352 101.531V102.298H71.1731V101.531C69.6651 101.531 69.3249 101.416 69.3249 100.365V95.2457C70.8612 95.2457 71.3999 95.4442 71.7986 96.1831L75.2115 102.298H80.2457V101.531C79.3934 101.531 78.9663 101.446 78.0839 100.051ZM40.5794 100.365C40.5794 101.416 40.2392 101.531 38.7312 101.531V102.298H52.241L53.3786 98.0313H52.6964C51.0467 100.764 49.3969 101.531 46.4395 101.531C44.4761 101.531 44.2209 101.247 44.2209 100.649V95.1022H45.1884C47.834 95.1022 49.0266 95.8128 49.4536 97.8895H50.0508V91.3774H49.4536C48.8565 93.5393 47.8907 94.3349 45.1884 94.3349H44.2209V89.3857C44.2209 88.5617 44.4761 88.4465 45.557 88.4465C48.8565 88.4465 50.4211 89.3574 52.4962 91.6893H53.0951L51.6438 87.6793H38.7312V88.4465C40.2392 88.4465 40.5794 88.5617 40.5794 89.6143V100.365ZM30.9167 100.365C30.9167 101.416 30.5747 101.531 29.0667 101.531V102.298H36.4064V101.531C34.8984 101.531 34.5564 101.416 34.5564 100.365V89.6143C34.5564 88.5617 34.8984 88.4465 36.4064 88.4465V87.6793H29.0667V88.4465C30.5747 88.4465 30.9167 88.5617 30.9167 89.6143V94.078H23.4637V89.6143C23.4637 88.5617 23.8057 88.4465 25.3136 88.4465V87.6793H17.9758V88.4465C19.482 88.4465 19.824 88.5617 19.824 89.6143V100.365C19.824 101.416 19.482 101.531 17.9758 101.531V102.298H25.3136V101.531C23.8057 101.531 23.4637 101.416 23.4637 100.365V95.1022H30.9167V100.365ZM6.94507 100.365C6.94507 101.416 6.60307 101.531 5.0951 101.531V102.298H12.433V101.531C10.9268 101.531 10.5848 101.416 10.5848 100.365V89.1305C10.5848 88.5901 10.8399 88.3615 11.352 88.3615C12.6048 88.3615 14.7383 89.4991 15.961 91.7744L16.5281 91.5759L15.6474 87.2823H15.0502C14.6515 87.5092 14.111 87.6793 13.5989 87.6793H3.92912C3.67395 87.6793 3.41701 87.6509 3.16184 87.5659C2.9049 87.4808 2.67809 87.3958 2.47962 87.2823H1.88246L1 91.5759L1.56881 91.7744C2.79149 89.4991 4.92498 88.3615 6.17602 88.3615C6.68813 88.3615 6.94507 88.5901 6.94507 89.1305V100.365ZM127.578 96.0396H132.467L134.52 93.0821H129.631L127.578 96.0396Z"></path>
</svg>