<svg aria-label="se" role="img" preserveAspectRatio="" fill="none" viewBox="0 0 280 152" height="152" width="280" xmlns="http://www.w3.org/2000/svg">
  <g clip-path="url(#clip0_12927_28259)">
    <path fill="#1C1C1C" d="M57.9229 150.974V126.541H66.2883C68.0173 126.541 69.4666 126.822 70.6362 127.382C71.8059 127.943 72.6831 128.708 73.2806 129.664C73.8782 130.632 74.1706 131.703 74.1706 132.901C74.1706 133.755 74.018 134.494 73.7129 135.131C73.4078 135.769 73.0391 136.291 72.5941 136.699C72.1491 137.107 71.7169 137.426 71.2973 137.655C70.8778 137.872 70.5345 137.986 70.293 137.986C70.738 138.037 71.2465 138.165 71.8313 138.394C72.4161 138.624 72.9755 138.955 73.5095 139.426C74.0434 139.898 74.4884 140.497 74.8444 141.236C75.2004 141.988 75.3783 142.893 75.3783 143.976C75.3783 145.71 74.9842 147.099 74.196 148.119C73.4078 149.151 72.3144 149.877 70.9414 150.324C69.5683 150.77 68.0173 150.986 66.2883 150.986H57.9229V150.974ZM62.3471 136.278H66.0721C67.0002 136.278 67.8393 136.062 68.6148 135.616C69.3776 135.17 69.7717 134.405 69.7717 133.309C69.7717 132.557 69.581 131.971 69.1996 131.576C68.8182 131.168 68.3478 130.887 67.7884 130.709C67.2291 130.53 66.657 130.454 66.0721 130.454H62.3471V136.278ZM62.3471 147.048H66.2628C66.6951 147.048 67.1782 147.023 67.7122 146.959C68.2334 146.895 68.7292 146.755 69.2123 146.538C69.6827 146.322 70.0769 145.977 70.382 145.519C70.6871 145.06 70.8397 144.435 70.8397 143.645C70.8397 142.664 70.5854 141.925 70.0896 141.427C69.5937 140.93 68.9835 140.586 68.2843 140.408C67.585 140.229 66.9112 140.127 66.2756 140.127H62.3598V147.048H62.3471Z"></path>
    <path fill="#1C1C1C" d="M83.5393 150.974V140.242L75.0977 126.541H80.1449L85.993 136.291L91.8412 126.541H96.6596L88.2179 140.242V150.974H83.5393Z"></path>
    <path fill="#1C1C1C" d="M106.005 150.974L107.175 126.541H111.446L118.21 138.076L124.859 126.541H129.131L130.3 150.974H125.8L124.999 134.048L119.151 144.015H117.002L111.116 134.303L110.315 150.974H106.005Z"></path>
    <path fill="#1C1C1C" d="M132.538 150.974L141.781 126.541H146.536L155.778 150.974H150.667L148.544 144.779H139.48L137.356 150.974H132.538ZM140.764 140.969H147.235L144.018 131.486L140.764 140.969Z"></path>
    <path fill="#1C1C1C" d="M158.739 150.974V126.541H166.812C168.351 126.541 169.647 126.771 170.715 127.242C171.783 127.714 172.648 128.3 173.309 129.039C173.97 129.778 174.44 130.556 174.745 131.397C175.051 132.238 175.203 133.054 175.203 133.831C175.203 135.374 174.86 136.737 174.186 137.923C173.5 139.108 172.482 140.051 171.122 140.765L176.754 150.986H171.567L166.634 141.351H163.164V150.986H158.739V150.974ZM163.151 137.527H166.838C168.007 137.527 168.91 137.183 169.558 136.508C170.207 135.82 170.525 134.991 170.525 134.01C170.525 132.965 170.181 132.111 169.508 131.448C168.821 130.785 167.931 130.454 166.838 130.454H163.151V137.527Z"></path>
    <path fill="#1C1C1C" d="M180.264 150.974V126.541H188.337C189.875 126.541 191.172 126.771 192.24 127.242C193.308 127.714 194.172 128.3 194.833 129.039C195.494 129.778 195.965 130.556 196.27 131.397C196.575 132.238 196.728 133.054 196.728 133.831C196.728 135.374 196.384 136.737 195.71 137.923C195.024 139.108 194.007 140.051 192.647 140.765L198.279 150.986H193.092L188.159 141.351H184.688V150.986H180.264V150.974ZM184.675 137.527H188.362C189.532 137.527 190.434 137.183 191.083 136.508C191.731 135.82 192.049 134.991 192.049 134.01C192.049 132.965 191.706 132.111 191.032 131.448C190.345 130.785 189.455 130.454 188.362 130.454H184.675V137.527Z"></path>
    <path fill="#1C1C1C" d="M202.041 150.974V126.541H206.643V150.974H202.041Z"></path>
    <path fill="#1C1C1C" d="M222.967 151.623C221.187 151.623 219.535 151.292 217.996 150.617C216.458 149.941 215.11 149.023 213.953 147.838C212.797 146.653 211.894 145.289 211.246 143.734C210.597 142.179 210.279 140.51 210.279 138.738C210.279 136.967 210.597 135.284 211.246 133.742C211.894 132.187 212.797 130.823 213.953 129.638C215.11 128.453 216.458 127.535 217.996 126.873C219.535 126.21 221.187 125.878 222.967 125.878C224.747 125.878 226.4 126.21 227.938 126.873C229.477 127.535 230.824 128.453 231.981 129.638C233.138 130.823 234.041 132.187 234.689 133.742C235.337 135.297 235.655 136.967 235.655 138.738C235.655 140.51 235.337 142.192 234.689 143.734C234.041 145.289 233.138 146.653 231.981 147.838C230.824 149.023 229.477 149.954 227.938 150.617C226.4 151.279 224.747 151.623 222.967 151.623ZM222.967 147.265C224.569 147.265 225.968 146.857 227.137 146.054C228.307 145.251 229.21 144.193 229.858 142.88C230.506 141.58 230.824 140.153 230.824 138.611C230.824 137.069 230.506 135.616 229.871 134.328C229.235 133.028 228.332 131.996 227.15 131.219C225.968 130.441 224.569 130.046 222.967 130.046C221.365 130.046 219.967 130.441 218.785 131.219C217.602 131.996 216.7 133.041 216.064 134.328C215.428 135.628 215.11 137.056 215.11 138.611C215.11 140.166 215.428 141.568 216.064 142.88C216.7 144.193 217.602 145.238 218.785 146.054C219.967 146.857 221.365 147.265 222.967 147.265Z"></path>
    <path fill="#1C1C1C" d="M243.983 150.974V130.607H235.72V126.541H256.837V130.607H248.573V150.974H243.971H243.983Z"></path>
    <path fill="#1C1C1C" d="M267.147 150.974V130.607H258.884V126.541H280.001V130.607H271.737V150.974H267.135H267.147Z"></path>
    <path fill="#53BB9F" d="M166.533 17.9154H154.417V0.314453H166.533V17.9154Z"></path>
    <path fill="#1C1C1C" d="M125.748 101.956H113.632V29.1055H124.171L124.413 39.4672C127.439 31.629 133.071 27.6653 141.169 27.6653C142.987 27.6653 144.92 27.78 146.661 28.5702L146.941 28.6976V40.5888L146.305 40.3593C144.971 39.875 143.559 39.6711 141.462 39.6711C130.897 39.6711 125.761 46.8338 125.761 61.5798V101.956H125.748ZM0 82.1121C0 95.4434 8.89938 103.396 23.8122 103.396L23.7868 103.409C38.0639 103.409 46.5946 95.6346 46.5946 81.9847C46.5946 68.3347 37.3774 63.9377 27.0922 60.2926C18.1293 57.1828 12.6753 54.8122 12.6753 47.9682C12.6753 41.6211 16.2223 37.976 23.2147 37.976C30.207 37.976 33.9066 41.4299 33.9066 47.9682V50.0201H45.3105V48.1083C45.3105 35.5035 37.2248 27.678 23.2147 27.678C9.2045 27.678 0.839084 35.3633 0.839084 48.2485C0.839084 62.2808 10.5521 66.8053 20.494 70.221C29.1137 73.1524 34.7711 75.5739 34.7711 82.2523C34.7711 91.1101 28.4907 92.9709 23.2274 92.9709C15.6756 92.9709 11.6836 89.2621 11.6836 82.2523V79.1935H0V82.1121ZM54.3746 78.0974C54.3746 94.4111 62.9943 103.396 78.619 103.396V103.409C93.8242 103.409 102.711 94.5003 103.003 78.9641V77.9063H91.3197V79.3847C91.3197 88.1788 86.7937 92.8307 78.7716 92.8307C70.7494 92.8307 66.5032 88.0896 66.5032 79.1043V67.8122H103.003V52.8368C103.003 36.6123 94.2565 27.678 78.619 27.678C62.9815 27.678 54.3746 36.6123 54.3746 52.8368V78.0974ZM91.1798 57.9475H66.5032V51.677C66.5032 42.7554 70.5333 38.2309 78.7716 38.2309C87.0098 38.2309 91.1798 42.7554 91.1798 51.677V57.9475ZM154.417 101.956H166.533V29.1057H154.417V101.956ZM201.672 103.396C186.048 103.396 177.428 94.4111 177.428 78.0974V52.8368C177.428 36.6123 186.035 27.678 201.672 27.678C217.31 27.678 226.057 36.6123 226.057 52.8368V67.8122H189.556V79.1043C189.556 88.0896 193.79 92.8307 201.825 92.8307C209.86 92.8307 214.373 88.1788 214.373 79.3847V77.9063H226.069V78.9641C225.777 94.5003 216.89 103.409 201.685 103.409L201.672 103.396ZM189.556 57.9475H214.22V51.677C214.22 42.7554 210.05 38.2309 201.812 38.2309C193.574 38.2309 189.544 42.7554 189.544 51.677V57.9475H189.556ZM233.393 82.1121C233.393 95.4434 242.292 103.396 257.205 103.396L257.18 103.409C271.457 103.409 279.988 95.6346 279.988 81.9847C279.988 68.3347 270.77 63.9377 260.485 60.2926C251.522 57.1828 246.068 54.8122 246.068 47.9682C246.068 41.6211 249.615 37.976 256.608 37.976C263.6 37.976 267.3 41.4299 267.3 47.9682V50.0201H278.704V48.1083C278.704 35.5035 270.618 27.678 256.608 27.678C242.598 27.678 234.232 35.3633 234.232 48.2485C234.232 62.2808 243.945 66.8053 253.887 70.221C262.507 73.1524 268.164 75.5739 268.164 82.2523C268.164 91.1101 261.884 92.9709 256.62 92.9709C249.069 92.9709 245.077 89.2621 245.077 82.2523V79.1935H233.393V82.1121Z" clip-rule="evenodd" fill-rule="evenodd"></path>
    <path fill="#53BB9F" d="M12.1159 147.545H0V129.944H12.1159V147.545ZM45.8067 147.545H33.6908V129.944H45.8067V147.545ZM16.8454 147.545H28.9613V129.944H16.8454V147.545Z" clip-rule="evenodd" fill-rule="evenodd"></path>
  </g>
  <defs>
    <clipPath id="clip0_12927_28259">
      <rect fill="white" height="152" width="280"></rect>
    </clipPath>
  </defs>
</svg>