<svg style="width: 80px; height: 37.331px;" aria-label="Sheraton" role="img" preserveAspectRatio="" fill="none" viewBox="0 0 237 110" height="110" width="237" xmlns="http://www.w3.org/2000/svg">
  <g clip-path="url(#clip0_7_410)">
    <path fill="#6F625D" d="M127.445 98.2095L132.659 87.0223L137.913 98.2095H127.445ZM132.703 80.8984L119.367 108.848H122.405L126.296 100.637H139.053L142.754 108.518L142.911 108.848H146.081L132.703 80.8984ZM105.637 97.3789L112.877 108.848H109.565L102.804 97.9801L102.691 97.8675H97.853L98.6572 95.4457H102.333C105.919 95.4457 108.623 92.9397 108.623 89.6155C108.623 86.4044 106.012 83.9836 102.55 83.9836H95.4777V108.848H92.5683V81.5618H102.681C107.644 81.5618 111.532 85.0996 111.532 89.6155C111.532 93.0714 109.322 96.0828 105.9 97.286L105.637 97.3789ZM67.9363 106.426H81.9894V108.848H65.0265V81.5618H81.6847V83.9836H67.9363L67.9387 95.4515H80.1553V97.8757H67.9363V106.426ZM49.9714 81.5618H52.8813V108.848H49.9714V97.8757H32.6502V108.848H29.7404V81.5618H32.6502L32.6703 95.4515H49.9647L49.9714 81.5618ZM19.4666 102.028C19.4666 106.509 15.8215 109.405 10.1804 109.405C5.37856 109.405 1.68077 107.109 0 103.097L2.47733 102.049C3.85298 105.188 6.66273 106.983 10.2235 106.983C14.1302 106.983 16.5567 105.1 16.5567 102.067C16.5567 98.7014 14.0846 97.5121 9.71484 95.7001C5.11032 93.7928 1.85129 92.1177 1.85129 87.9046C1.85129 83.9299 5.35413 81.0445 10.1804 81.0445C13.6799 81.0445 16.3493 82.468 18.1177 85.2754L15.7146 86.5256C14.4535 84.44 12.675 83.4667 10.1368 83.4667C7.12208 83.4667 4.76114 85.3813 4.76114 87.8251C4.76114 90.835 7.71123 92.0224 11.1279 93.3986C16.7775 95.6589 19.4666 97.5265 19.4666 102.028ZM149.479 81.5618H168.922V83.9836H160.655V108.848H157.745V83.9836H149.479V81.5618ZM189.427 106.983C182.666 106.983 177.569 101.928 177.569 95.2249C177.569 88.5215 182.666 83.4667 189.427 83.4667C196.165 83.4667 201.245 88.5215 201.245 95.2249C201.245 101.928 196.165 106.983 189.427 106.983ZM189.427 81.0445C181.139 81.0445 174.889 87.1411 174.889 95.2249C174.889 103.309 181.139 109.405 189.427 109.405C197.716 109.405 203.966 103.309 203.966 95.2249C203.966 87.1411 197.716 81.0445 189.427 81.0445ZM237 81.5618V109.48L215.725 87.5209V108.848H212.815V80.9291L234.09 102.89V81.5618H237ZM107.718 64.0193L107.762 64.0313C110.293 64.7359 112.979 64.6502 115.461 63.7856L116.397 63.4599L117.272 63.7645C119.82 64.6521 122.582 64.79 125.186 64.085L125.23 64.073L116.397 60.9964L107.718 64.0193ZM116.574 56.8019C114.694 56.8019 112.866 56.5826 111.108 56.1812L99.2646 60.3057L99.2909 60.322C100.884 61.3092 102.837 61.5248 104.608 60.9083L116.397 56.8019L128.293 60.9452C130.097 61.5731 132.101 61.3988 133.73 60.4011L133.756 60.3848L121.827 56.23C120.135 56.6008 118.378 56.8019 116.574 56.8019ZM94.1485 42.1138L86.1705 44.8924C86.1733 44.9 86.1762 44.9072 86.1791 44.9144C86.6777 46.1176 88.051 46.7006 89.2805 46.2723L95.1884 44.2146C94.8095 43.534 94.4627 42.8327 94.1485 42.1138ZM102.669 52.4623L93.4132 55.6859C93.4195 55.6921 93.4257 55.6984 93.4319 55.7046C94.5614 56.823 96.2508 57.1612 97.7514 56.6381L105.256 54.0243C104.36 53.5558 103.495 53.0347 102.669 52.4623ZM92.3944 36.067L84.3374 38.8729C84.3388 38.8806 84.3407 38.8883 84.3422 38.8959C84.5869 40.1054 85.8668 40.8037 87.0322 40.398L92.8624 38.3671C92.6718 37.6132 92.5137 36.8463 92.3944 36.067ZM140.257 38.4806L146.086 40.5106C147.252 40.9168 148.533 40.2208 148.783 39.0114L148.788 38.9879L140.732 36.1825C140.609 36.9613 140.452 37.7282 140.257 38.4806ZM146.932 32.2672C146.932 32.2672 149.408 30.3489 149.341 29.5485L145.071 31.0357L141.535 32.2672L145.071 33.4987L149.353 34.9903C149.417 34.1894 146.932 32.2672 146.932 32.2672ZM133.917 49.5879L140.283 51.8051C141.619 52.2702 143.121 51.8037 143.908 50.6297L143.921 50.6091L135.598 47.7103C135.069 48.3646 134.51 48.9925 133.917 49.5879ZM127.749 54.0976L135.289 56.7239C136.793 57.2479 138.487 56.9121 139.623 55.7951L139.641 55.7769L130.362 52.5447C129.527 53.1152 128.653 53.6325 127.749 54.0976ZM137.9 44.3176L143.814 46.3772C145.045 46.8059 146.421 46.2249 146.924 45.0217L146.933 45.0002L138.951 42.2201C138.633 42.9381 138.283 43.6374 137.9 44.3176ZM97.4731 47.614L89.1603 50.509L89.1737 50.5296C89.9554 51.7045 91.4551 52.173 92.7882 51.7089L99.1419 49.4959C98.5537 48.8982 97.9976 48.2692 97.4731 47.614ZM140.708 28.3611L148.758 25.5571C148.756 25.5494 148.755 25.5417 148.753 25.5341C148.498 24.3246 147.216 23.6306 146.049 24.0372L140.219 26.0677C140.418 26.8182 140.581 27.5837 140.708 28.3611ZM124.993 0.5443C124.611 0.443712 124.227 0.349351 123.84 0.262176C121.753 -0.208191 119.571 -0.0304862 117.55 0.673626L116.397 1.07502L115.401 0.728231C113.219 -0.0319232 110.863 -0.132511 108.62 0.425511C108.398 0.480594 108.176 0.538073 107.956 0.597946L116.397 3.53845L124.993 0.5443ZM130.222 12.0391L139.531 8.79679C139.524 8.79056 139.518 8.78433 139.512 8.77859C138.367 7.6635 136.67 7.33012 135.161 7.85558L127.579 10.4962C128.493 10.958 129.378 11.4705 130.222 12.0391ZM135.508 16.8558L143.843 13.9531C143.838 13.9464 143.834 13.9392 143.829 13.9325C143.035 12.759 141.528 12.2958 140.19 12.7619L133.808 14.9848C134.406 15.5783 134.974 16.2029 135.508 16.8558ZM138.894 22.3349L146.881 19.5529C146.877 19.5458 146.875 19.5386 146.872 19.5314C146.363 18.3287 144.984 17.75 143.752 18.1797L137.83 20.2422C138.217 20.9205 138.572 21.6183 138.894 22.3349ZM116.574 7.87952C118.288 7.87952 119.96 8.05771 121.574 8.393L133.605 4.20281C133.596 4.19754 133.587 4.19227 133.578 4.18653C131.935 3.19263 129.921 3.02258 128.108 3.65437L116.397 7.73295L104.82 3.70035C103.022 3.07479 101.039 3.28794 99.4154 4.28184L111.36 8.44186C113.041 8.07735 114.784 7.87952 116.574 7.87952ZM92.8964 26.1797L87.0676 24.1493C85.9013 23.7431 84.6195 24.4386 84.3695 25.6486L84.3651 25.6715L92.4189 28.477C92.5429 27.6986 92.701 26.9318 92.8964 26.1797ZM95.2583 20.3442L89.3438 18.2846C88.1118 17.8554 86.7357 18.4359 86.2318 19.6392L86.2227 19.6607L94.2055 22.4412C94.524 21.7232 94.8751 21.0239 95.2583 20.3442ZM105.426 10.5695L97.8793 7.94131C96.3739 7.41682 94.6806 7.75259 93.5426 8.86911L93.5239 8.88779L102.807 12.1214C103.644 11.5505 104.52 11.0346 105.426 10.5695ZM91.2592 32.2672L87.7229 31.0357L83.7961 29.6677C83.7314 30.4691 85.7782 32.2672 85.7782 32.2672C85.7782 32.2672 83.7223 34.0687 83.7837 34.871L87.7229 33.4987L91.2592 32.2672ZM99.2468 15.0754L92.8792 12.8576C91.5433 12.3926 90.0407 12.8586 89.2523 14.0326L89.2389 14.0532L97.5637 16.9525C98.0934 16.2987 98.6538 15.6712 99.2468 15.0754ZM106.76 25.2907C106.76 20.9861 111.145 19.7565 115.262 19.5961C122.988 19.2751 127.748 24.8094 127.748 24.8094H127.854V21.7616C127.854 21.7616 121.706 18.9547 115.262 18.9547C111.573 18.981 104.622 20.4784 104.622 26.8681C104.622 39.9679 126.571 30.21 126.571 39.0324C126.571 43.8175 119.941 44.4862 118.016 44.513C109.22 44.513 105.558 38.8183 105.558 38.8183H105.263L105.504 42.8021C105.504 42.8021 112.963 45.1544 117.615 45.1544C127.213 45.1544 129.378 38.8183 129.378 37.0537C129.378 23.6866 106.76 33.2573 106.76 25.2907Z"></path>
  </g>
  <defs>
    <clipPath id="clip0_7_410">
      <rect fill="white" height="110" width="237"></rect>
    </clipPath>
  </defs>
</svg>