<svg style="width: 76px; height: 29.3315px;" aria-label="Springhill Suites" role="img" preserveAspectRatio="" fill="none" viewBox="0 0 285 110" height="110" width="285" xmlns="http://www.w3.org/2000/svg">
  <g clip-path="url(#clip0_7_412)">
    <path fill="#2F4256" d="M278.052 59.9914C274.774 59.9914 272.105 57.334 272.105 54.042C272.105 50.7509 274.774 48.0927 278.052 48.0927C281.342 48.0927 284 50.7509 284 54.042C284 57.334 281.342 59.9914 278.052 59.9914ZM278.052 48.6891C275.106 48.6891 272.71 51.0989 272.71 54.042C272.71 56.9976 275.106 59.3923 278.052 59.3923C281.007 59.3923 283.404 56.9976 283.404 54.042C283.404 51.0989 281.007 48.6891 278.052 48.6891ZM279.921 56.9257C279.718 56.9257 279.542 56.9009 279.406 56.734L277.701 54.4281H277.145V56.9257H276.461V51.3687H278.397C279.793 51.3687 280.016 52.4071 280.016 52.8349C280.016 53.5902 279.423 54.2621 278.46 54.3784L280.219 56.6816C280.301 56.7935 280.366 56.86 280.468 56.9257H279.921ZM278.027 51.8959H277.145V53.892H277.917C278.682 53.892 279.326 53.6151 279.326 52.8349C279.326 51.8959 278.422 51.8959 278.027 51.8959ZM9.93804 34.4002C5.30088 34.4002 2.13579 32.8683 0 31.4881L2.24316 27.4683C3.91843 28.6328 6.56886 29.9668 9.73484 29.9668C12.482 29.9668 15.6906 28.7393 15.6906 25.6834C15.6906 20.5373 7.59106 19.5202 3.51381 14.983C2.13579 13.4546 1.22717 11.5685 1.22717 8.96795C1.22717 4.07925 4.98765 0 11.7668 0C15.3365 0 17.9834 0.910641 19.7101 1.83282L19.6622 6.82537C17.3756 5.45408 14.7748 4.48397 12.0268 4.48397C9.11549 4.48397 6.71971 5.70438 6.71971 8.35553C6.71971 14.983 21.404 14.7762 21.404 25.0746C21.404 30.7284 16.4066 34.4002 9.93804 34.4002ZM36.3732 21.9648H34.3883V33.8892H29.0386V0.308251H37.0325C44.2225 0.308251 48.8552 4.07951 48.8552 10.951C48.8552 16.0031 45.4399 21.9648 36.3732 21.9648ZM36.5303 4.94489H34.3883V17.6344H36.7273C41.3174 17.6344 43.3529 15.0241 43.3529 11.1108C43.3529 7.49308 41.0601 4.94489 36.5303 4.94489ZM74.023 33.8889C68.778 25.2254 66.1773 20.6411 64.8499 20.2772H61.7345V33.8889H56.3963V0.307896H64.7531C73.157 0.307896 76.3629 4.53803 76.3629 9.68058C76.3629 14.2684 73.3549 17.224 70.0452 18.5518V18.5979C71.4187 19.3133 74.992 25.2786 80.237 33.8889H74.023ZM64.8002 4.94276H61.7345V16.1039H64.9075C68.3672 16.1039 70.9174 13.4563 70.9174 10.2362C70.9174 7.33652 69.1321 4.94276 64.8002 4.94276ZM86.5539 0.305322H91.9027V16.2415V33.8872H86.5539V15.7276V0.305322ZM152.042 34.4002C141.792 34.4002 135.227 27.2172 135.227 17.5312C135.227 7.39252 142.511 0 153.456 0C157.745 0 161.01 0.963007 163.196 1.88607L163.147 7.02507C160.699 5.76118 157.496 4.53723 153.824 4.53723C145.111 4.53723 140.974 10.0446 140.974 17.0226C140.974 24.5598 145.72 29.863 153.419 29.863C155.909 29.863 157.848 29.4015 159.075 28.7393V17.1735H164.423V31.4446C161.722 32.8683 157.293 34.4002 152.042 34.4002ZM195.749 33.8889V19.1598H178.788V33.8889H173.439V0.307896H178.788V14.4725H195.749V0.307896H201.107V33.8889H195.749ZM210.629 0.305322H213.413H215.976V17.8179V33.8872H213.493H210.629V18.3034V0.305322ZM225.5 33.8889V0.307896H230.795V29.3011H242.321L243.073 33.8889H225.5ZM249.435 33.8889V0.307896H254.733V29.3011H266.259L267.015 33.8889H249.435ZM115.156 0.287127C119.746 0.287127 123.005 1.46049 125.088 3.50632C127.592 5.90363 128.354 9.5249 128.354 13.0423V34.0536H123.05V13.2873C123.05 10.9406 122.387 8.64976 120.91 7.07433C119.64 5.69683 117.7 4.88116 115.053 4.88116L106.896 4.85897L106.903 34.0536H101.554V0.287127H115.156ZM138.121 108.586H140.234V103.834L144.969 96.6602H142.567L139.195 101.943L135.857 96.6602H133.386L138.121 103.884V108.586ZM122.501 106.73V103.459H125.821C127.473 103.459 128.273 104.055 128.273 105.059V105.094C128.273 106.167 127.406 106.73 125.974 106.73H122.501ZM122.501 101.687V98.5179H125.515C126.861 98.5179 127.609 99.0975 127.609 100.034V100.068C127.609 101.158 126.706 101.687 125.36 101.687H122.501ZM120.438 108.586H125.958C128.614 108.586 130.368 107.445 130.368 105.315V105.281C130.368 103.663 129.398 102.862 128.001 102.386C128.887 101.925 129.705 101.158 129.705 99.7285V99.693C129.705 98.8924 129.431 98.2454 128.903 97.7173C128.223 97.0356 127.15 96.6602 125.787 96.6602H120.438V108.586ZM260.558 108.676H262.829V98.6545H266.902V96.6549H256.487V98.6545H260.558V108.676ZM246.294 108.676H248.566V98.6545H252.638V96.6549H242.224V98.6545H246.294V108.676ZM233.003 106.857C232.403 106.857 231.865 106.741 231.391 106.514C230.917 106.284 230.511 105.976 230.175 105.585C229.838 105.194 229.58 104.741 229.401 104.224C229.22 103.707 229.129 103.167 229.129 102.602C229.129 102.025 229.22 101.481 229.401 100.97C229.58 100.46 229.838 100.013 230.175 99.6273C230.511 99.243 230.917 98.9403 231.391 98.7176C231.865 98.4957 232.403 98.3838 233.003 98.3838C233.592 98.3838 234.127 98.4957 234.607 98.7176C235.087 98.9403 235.495 99.243 235.834 99.6273C236.169 100.013 236.428 100.46 236.608 100.97C236.788 101.481 236.878 102.025 236.878 102.602C236.878 103.167 236.788 103.707 236.608 104.224C236.428 104.741 236.169 105.194 235.834 105.585C235.495 105.976 235.087 106.284 234.607 106.514C234.127 106.741 233.592 106.857 233.003 106.857ZM233.003 109C233.881 109 234.698 108.836 235.454 108.503C236.213 108.174 236.872 107.72 237.438 107.143C238.002 106.567 238.446 105.894 238.771 105.125C239.093 104.357 239.257 103.533 239.257 102.656C239.257 101.778 239.093 100.956 238.771 100.186C238.446 99.4179 238.002 98.7477 237.438 98.1762C236.872 97.6063 236.213 97.1555 235.454 96.8244C234.698 96.4942 233.881 96.3291 233.003 96.3291C232.127 96.3291 231.309 96.4942 230.544 96.8244C229.781 97.1555 229.121 97.6063 228.564 98.1762C228.004 98.7477 227.562 99.4179 227.238 100.186C226.913 100.956 226.751 101.778 226.751 102.656C226.751 103.533 226.913 104.357 227.238 105.125C227.562 105.894 228.007 106.567 228.572 107.143C229.137 107.72 229.795 108.174 230.554 108.503C231.31 108.836 232.127 109 233.003 109ZM219.008 108.676H221.278V96.6549H219.008V108.676ZM206.057 102.061V98.5827H208.44C208.978 98.5827 209.419 98.7451 209.756 99.069C210.089 99.393 210.26 99.8137 210.26 100.33C210.26 100.81 210.101 101.22 209.781 101.556C209.464 101.892 209.016 102.061 208.44 102.061H206.057ZM203.877 108.676H206.057V103.935H208.331L210.764 108.676H213.323L210.546 103.648C211.233 103.298 211.74 102.833 212.071 102.25C212.401 101.668 212.565 100.997 212.565 100.24C212.565 99.8563 212.491 99.4534 212.341 99.0327C212.19 98.6119 211.953 98.2241 211.629 97.8699C211.306 97.5158 210.877 97.2238 210.348 96.9966C209.821 96.7694 209.178 96.6549 208.422 96.6549H203.877V108.676ZM191.479 102.061V98.5827H193.863C194.403 98.5827 194.841 98.7451 195.179 99.069C195.514 99.393 195.683 99.8137 195.683 100.33C195.683 100.81 195.522 101.22 195.205 101.556C194.886 101.892 194.439 102.061 193.863 102.061H191.479ZM189.3 108.676H191.479V103.935H193.755L196.187 108.676H198.746L195.97 103.648C196.656 103.298 197.163 102.833 197.493 102.25C197.824 101.668 197.989 100.997 197.989 100.24C197.989 99.8563 197.913 99.4534 197.763 99.0327C197.613 98.6119 197.376 98.2241 197.051 97.8699C196.728 97.5158 196.299 97.2238 195.773 96.9966C195.245 96.7694 194.6 96.6549 193.846 96.6549H189.3V108.676ZM179.979 96.6549L184.539 108.675H182.015L180.97 105.63H176.501L175.457 108.675H173.078L177.636 96.6549H179.979ZM177.131 103.755H180.322L178.736 99.0877L177.131 103.755ZM167.933 96.6549L168.509 108.675H166.294L165.898 100.349L162.733 105.251H161.671L158.488 100.475L158.092 108.675H155.965L156.542 96.6549H158.651L162.265 102.331L165.826 96.6549H167.933ZM129.074 82.5793C124.448 82.5793 121.289 81.0473 119.155 79.6743L121.396 75.6536C123.073 76.8252 125.715 78.1521 128.871 78.1521C131.616 78.1521 134.828 76.9219 134.828 73.8714C134.828 68.7297 126.735 67.7188 122.669 63.1904C121.289 61.6594 120.379 59.7742 120.379 57.1816C120.379 52.2991 124.14 48.2234 130.909 48.2234C134.468 48.2234 137.109 49.1394 138.844 50.0616L138.793 55.0417C136.5 53.6642 133.909 52.7012 131.158 52.7012C128.255 52.7012 125.869 53.9216 125.869 56.5692C125.869 63.1904 140.521 62.9774 140.521 73.2634C140.521 78.9074 135.533 82.5793 129.074 82.5793ZM255.439 82.5793C250.815 82.5793 247.663 81.0473 245.526 79.6743L247.763 75.6536C249.454 76.8252 252.092 78.1521 255.245 78.1521C257.993 78.1521 261.193 76.9219 261.193 73.8714C261.193 68.7297 253.112 67.7188 249.043 63.1904C247.663 61.6594 246.756 59.7742 246.756 57.1816C246.756 52.2991 250.508 48.2234 257.284 48.2234C260.841 48.2234 263.488 49.1394 265.218 50.0616L265.164 55.0417C262.871 53.6642 260.286 52.7012 257.538 52.7012C254.636 52.7012 252.246 53.9216 252.246 56.5692C252.246 63.1904 266.902 62.9774 266.902 73.2634C266.902 78.9074 261.908 82.5793 255.439 82.5793ZM180.432 48.3595H182.718H185.774V62.9386V81.8961H182.718H180.432V62.7762V48.3595ZM159.078 81.898C154.498 81.898 151.238 80.721 149.155 78.6814C146.668 76.2939 145.902 72.6753 145.902 69.1605V48.1785H151.194V68.9129C151.194 71.2507 151.856 73.5353 153.331 75.117C154.595 76.4909 156.534 77.3101 159.169 77.3101L167.322 77.3261L167.319 48.1785H172.655V81.898H159.078ZM216.121 52.9429H206.914V81.8988H201.515V52.9429H191.803V48.3586H217.592L216.121 52.9429ZM222 81.898V48.3605H239.906L238.278 52.9421H227.333V62.4523H238.225V67.0375H227.333V77.3137H239.95V81.898H222Z" clip-rule="evenodd" fill-rule="evenodd"></path>
  </g>
  <defs>
    <clipPath id="clip0_7_412">
      <rect fill="white" height="110" width="285"></rect>
    </clipPath>
  </defs>
</svg>