<svg aria-label="xr" role="img" preserveAspectRatio="" fill="none" viewBox="0 0 196 133" height="133" width="196" xmlns="http://www.w3.org/2000/svg">
  <g clip-path="url(#clip0_7_414)">
    <path fill="#1C1C1C" d="M83.6832 5.88712C74.1658 5.88712 71.744 2.91165 71.1397 0.366211C68.6788 6.76021 74.8527 11.7772 80.3397 11.7772L83.6875 11.7859H104.218C112.657 11.7859 117.383 16.7726 117.383 23.9528C117.383 31.1286 113.209 36.3194 104.622 36.3194C98.5745 36.3194 84.2179 36.3411 84.2179 36.3411C84.2179 36.3411 84.1962 22.4411 84.1919 22.4107C83.0397 21.416 79.4571 20.973 78.3962 21.4855L78.4353 42.1183C78.4353 42.1183 78.4353 42.5049 78.4223 43.4258C78.3006 50.2455 78.0875 54.1462 77.2701 57.3432C77.9092 58.0816 81.5614 58.8505 82.9397 58.5812C83.5092 57.4431 84.1614 48.2039 84.1005 46.3318C84.0832 45.5021 84.2571 42.1922 84.2571 42.1922L96.1875 42.2139C100.201 42.2139 103.001 43.9557 104.535 45.1372C107.84 47.6827 110.988 53.8769 112.988 59.9234C118.422 76.321 124.644 79.5701 129.805 79.353C132.166 79.2574 133.774 78.5798 135.17 77.546C137.318 75.9518 138.288 73.7973 138.37 70.6959C138.37 70.6959 138.296 65.1923 133.414 64.9361C131.753 64.8405 130.461 65.3791 129.622 66.7126C128.927 67.8203 128.744 69.0409 129.305 70.4005C129.879 71.8383 131.792 72.8808 133.461 72.0207C132.957 72.9068 131.84 73.7973 130.079 73.7626C129.301 73.7321 128.335 73.6453 127.657 73.3151C126.183 72.6028 124.644 70.7697 123.596 69.1451C122.157 66.8815 120.882 63.7187 119.518 60.3359C119.152 59.428 118.78 58.5042 118.396 57.5777C115.583 50.7754 112.709 44.3163 109.427 42.4094C111.422 41.9055 112.474 41.432 113.948 40.7197C122.509 36.6191 123.144 28.0229 123.144 23.9528C123.144 20.7254 121.427 5.90449 104.24 5.92621C103.561 5.92777 102.059 5.92315 99.9283 5.91659L99.9279 5.91659H99.9278H99.9276C96.138 5.90491 90.3595 5.88712 83.6832 5.88712ZM90.4283 16.7347C84.4413 12.3866 74.1544 11.987 68.6544 18.6851C65.1239 23.0028 63.75 32.6416 73.9804 38.0626C74.5221 38.3512 75.0997 38.6068 75.6759 38.8618L75.6761 38.8619L75.6787 38.863L75.8642 38.9452L76.0283 39.0182V32.4852C71.8761 29.9397 71.4978 26.1042 73.1891 22.6683C76.4761 15.9833 87.5022 18.5635 91.0109 24.6143C91.0717 24.6143 99.7152 15.9572 99.7152 15.9572L92.337 18.1638C92.1022 17.964 90.6891 16.9128 90.4283 16.7347ZM84.3957 66.6445C88.0914 66.3187 92.0913 64.5508 94.987 60.3113C97.4435 56.7364 97.7783 51.6238 96.8392 47.8056C96.6174 46.85 95.9305 45.4687 95.2696 44.474H87.7566C88.6131 45.1559 89.3392 45.8813 89.8609 46.6545C92.4348 50.5074 91.2913 56.302 88.8783 58.3653C85.3783 61.3277 80.8131 61.597 76.6827 59.8031C72.2783 57.8962 68.3783 54.2822 67.3044 50.4162H65.2305V52.8183C65.2783 54.4429 65.3218 58.3218 64.9131 62.9653C66.0261 63.3041 67.4783 63.8818 69.1435 64.8462C69.4087 63.0218 69.5348 61.8099 69.5131 60.9802C72.6914 63.8254 78.0131 67.1961 84.3957 66.6445ZM68.7128 117.117H73.1781C77.7433 117.117 79.3955 116.852 79.3955 113.034C79.3955 109.246 77.7433 108.964 73.1781 108.964H68.7128V117.117ZM78.1041 118.737L82.1302 121.061L84.9563 125.944L88.0476 128.606H80.5128L74.5042 118.776H68.7128V125.952L71.4955 128.606H60.4346L63.2172 125.944V109.698L60.4346 107.287H75.5476C81.6041 107.287 86.0042 108.886 86.0042 113.186C86.0042 117.677 82.7607 118.568 78.1041 118.737ZM102.03 118.776V126.977H111.504L116.539 122.82V128.606H93.1955L96.3215 125.952V110.002L93.1955 107.287H116.539V113.086L111.504 108.951H102.03V117.117H108.3L111.004 114.724V121.183L108.3 118.776H102.03ZM154.856 107.287H166.187L163.378 109.676V126.23L166.187 128.606H154.856L157.635 126.23V109.676L154.856 107.287ZM183.23 107.774C180.422 107.774 177.274 108.464 177.274 110.832C177.274 112.654 180.272 113.564 183.752 114.621C188.566 116.083 194.304 117.825 194.304 122.651C194.304 127.586 189.413 129.575 183.222 129.575C180.422 129.575 178.282 128.815 175.756 127.486L172.891 129.049V121.448H175.709C176.374 124.923 179 128.124 183.352 128.124C186.726 128.124 190.122 127.321 190.122 124.636C190.122 122.048 186.271 120.845 182.203 119.574C177.648 118.152 172.822 116.644 172.822 113.012C172.822 107.652 178.504 106.297 183.191 106.297C185.974 106.297 188.965 107.252 190.395 108.286L193.182 106.87L193.148 113.451H190.613C189.895 110.124 186.9 107.774 183.23 107.774ZM141.291 120.249L138.543 118.073H149.752L147.03 120.249V128.628L143.904 126.856C141.3 128.385 138.452 129.18 136.126 129.18C127.839 129.18 122.061 125.952 122.061 117.829C122.061 110.237 127.9 106.675 136.269 106.675C140.641 106.675 142.959 107.961 144.044 108.563L144.046 108.564C144.099 108.593 144.149 108.621 144.195 108.647L147.03 107.287V114.315H144.661C143.013 110.632 141.026 108.147 136.23 108.147C130.691 108.147 128.604 112.682 128.604 117.929C128.604 121.687 129.408 127.577 136.222 127.577C138.356 127.577 141.291 125.978 141.291 123.998V120.249ZM38.9476 131.777L35.2694 128.606L38.9476 125.492L42.6172 128.606L38.9476 131.777ZM32.2824 108.951L27.2172 113.086V107.287H50.665V113.086L45.6042 108.951H41.7694V120.51L44.5911 122.894H33.2955L36.1042 120.51V108.951H32.2824ZM11.2128 107.774C8.4172 107.774 5.26937 108.464 5.26937 110.832C5.26937 112.654 8.26795 113.564 11.749 114.621C16.5649 116.083 22.3042 117.825 22.3042 122.651C22.3042 127.586 17.4215 129.575 11.1955 129.575C8.42154 129.575 6.26937 128.815 3.73024 127.486L0.843283 129.049V121.448H3.69546C4.32154 124.923 6.99111 128.124 11.3476 128.124C14.7346 128.124 18.1172 127.321 18.1172 124.636C18.1172 122.048 14.2624 120.845 10.1902 119.574C5.63126 118.152 0.799805 116.644 0.799805 113.012C0.799805 107.652 6.48241 106.297 11.165 106.297C13.952 106.297 16.965 107.252 18.3781 108.286L21.1824 106.87L21.1607 113.451H18.5911C17.9128 110.124 14.8955 107.774 11.2128 107.774ZM72.7024 78.386C69.3328 72.6219 62.7719 67.6613 58.0154 69.3945C56.385 69.9809 55.5676 71.4795 55.5893 72.952C55.6067 74.9415 56.9763 76.8614 59.8546 76.6268C60.4546 76.5747 61.3806 76.2663 61.9154 75.8319C62.9154 75.0023 63.3806 73.773 63.598 72.9477C64.5589 73.4298 65.8633 74.3464 66.8763 75.4062C65.0111 79.6718 58.9719 80.9923 55.1719 78.6945C53.0372 77.4174 51.5154 74.9632 51.9633 71.3405C52.2937 68.6343 53.9546 66.8664 55.8763 65.6849C58.2067 64.2471 61.0154 64.0343 64.4415 64.9074C68.2502 65.8761 71.5633 68.3259 72.7285 70.033C73.4024 69.2077 74.2067 67.8742 74.7893 66.81C76.0241 67.4528 78.1067 68.3259 80.3415 68.5909C79.2502 71.2232 75.1024 76.8657 72.7024 78.386ZM108.865 26.556V29.5184H104.917L104.934 34.1923H99.0823V29.5184H94.1953L104.917 18.8154V26.556H108.865ZM127.689 48.1961L122.859 53.0133L118.028 48.1961L122.859 43.3702L127.689 48.1961ZM99.1035 45.0834V76.5538L111.443 64.539L108.838 62.0544L104.895 65.8552V48.6974C104.417 47.6853 100.83 45.1268 99.1035 45.0834Z" clip-rule="evenodd" fill-rule="evenodd"></path>
  </g>
  <defs>
    <clipPath id="clip0_7_414">
      <rect fill="white" height="133" width="196"></rect>
    </clipPath>
  </defs>
</svg>