<svg style="width: 74.4px; height: 23.4652px;" aria-label="StudioRes" role="img" preserveAspectRatio="" fill="none" viewBox="0 0 300 95" height="95" width="300" xmlns="http://www.w3.org/2000/svg">
  <path fill="#12212D" d="M187.614 81.8447C188.455 81.8447 189.235 81.9963 189.961 82.3164C190.596 82.5965 191.157 82.9586 191.649 83.4141L191.865 83.6143C192.405 84.1655 192.83 84.8061 193.14 85.5439C193.441 86.2908 193.601 87.0733 193.601 87.918C193.601 88.7626 193.45 89.554 193.14 90.292C192.83 91.0299 192.405 91.6793 191.865 92.2305C191.325 92.7817 190.696 93.217 189.97 93.5371C189.244 93.8483 188.464 94.0088 187.623 94.0088C186.782 94.0088 186.003 93.8572 185.276 93.5371C184.55 93.217 183.921 92.7817 183.381 92.2305C182.841 91.6793 182.416 91.0299 182.106 90.292C181.796 89.554 181.637 88.7626 181.637 87.918C181.637 87.0733 181.797 86.2819 182.106 85.5439C182.416 84.8061 182.841 84.1655 183.372 83.6143C183.903 83.063 184.533 82.6365 185.268 82.3164C185.994 82.0052 186.773 81.8447 187.614 81.8447ZM187.623 83.8193C187.047 83.8193 186.534 83.9263 186.082 84.1396C185.631 84.353 185.241 84.6374 184.922 85.0107C184.594 85.3841 184.355 85.8109 184.178 86.2998C184.01 86.7887 183.921 87.3221 183.921 87.8643C183.921 88.4066 184.009 88.923 184.178 89.4209C184.355 89.9187 184.603 90.3542 184.922 90.7275C185.241 91.101 185.63 91.3949 186.082 91.6172C186.534 91.8395 187.065 91.9463 187.623 91.9463C188.181 91.9463 188.695 91.8395 189.155 91.6172C189.607 91.3949 189.997 91.101 190.324 90.7275C190.652 90.3542 190.899 89.9186 191.067 89.4209C191.236 88.923 191.324 88.4155 191.324 87.8643C191.324 87.3131 191.236 86.7887 191.067 86.2998C190.89 85.8109 190.643 85.3841 190.324 85.0107C190.006 84.6463 189.616 84.353 189.155 84.1396C188.695 83.9263 188.199 83.8193 187.623 83.8193Z" clip-rule="evenodd" fill-rule="evenodd"></path>
  <path fill="#12212D" d="M150.164 82.165C150.881 82.165 151.501 82.2719 152.006 82.4941C152.511 82.7075 152.918 82.9923 153.228 83.3301C153.537 83.668 153.768 84.0413 153.91 84.4414C154.052 84.8415 154.122 85.2331 154.122 85.5977C154.122 86.2357 154.007 86.8057 153.765 87.3135L153.645 87.5361C153.335 88.0962 152.847 88.5401 152.191 88.8779L154.849 93.7061H152.404L150.075 89.1543H147.896V93.7061H145.815V82.165H150.164ZM147.906 87.3486H150.182C150.731 87.3486 151.165 87.1803 151.466 86.8604C151.776 86.5403 151.926 86.1488 151.926 85.6865C151.926 85.1888 151.758 84.7887 151.439 84.4775C151.121 84.1663 150.695 84.0059 150.182 84.0059H147.906V87.3486Z" clip-rule="evenodd" fill-rule="evenodd"></path>
  <path fill="#12212D" d="M164.111 82.165C164.837 82.165 165.448 82.2719 165.953 82.4941C166.458 82.7075 166.866 82.9922 167.176 83.3301C167.486 83.6679 167.716 84.0414 167.857 84.4414C167.999 84.8415 168.07 85.2331 168.07 85.5977C168.07 86.2357 167.954 86.8056 167.712 87.3135L167.601 87.5361C167.282 88.096 166.795 88.5401 166.14 88.8779L168.796 93.7061H166.352L164.022 89.1543H161.854V93.7061H159.764V82.165H164.111ZM161.854 87.3486H164.129C164.678 87.3486 165.112 87.1803 165.413 86.8604C165.723 86.5403 165.874 86.1488 165.874 85.6865C165.874 85.1887 165.705 84.7887 165.387 84.4775C165.068 84.1663 164.643 84.0059 164.129 84.0059H161.854V87.3486Z" clip-rule="evenodd" fill-rule="evenodd"></path>
  <path fill="#12212D" d="M119.967 87.5977L123.367 82.1475H125.386L125.936 93.6885H123.818L123.438 85.6953L120.409 90.4072H119.399L116.354 85.8193L115.973 93.6885H113.936L114.494 82.1475H116.504L119.967 87.5977Z"></path>
  <path fill="#12212D" d="M141.273 93.6885H138.864L137.863 90.7637H133.586L132.586 93.6885H130.31L134.667 82.1475H136.916L141.273 93.6885ZM134.18 88.9668H137.234L135.721 84.4863H135.712L134.18 88.9668Z" clip-rule="evenodd" fill-rule="evenodd"></path>
  <path fill="#12212D" d="M176.403 93.6885H174.233V82.1475H176.403V93.6885Z"></path>
  <path fill="#12212D" d="M206.396 82.1475V84.0684H202.5V93.6885H200.331V84.0684H196.435V82.1475H206.396Z"></path>
  <path fill="#12212D" d="M220.043 84.0684H216.146V93.6885H213.969V84.0684H210.081V82.1475H220.043V84.0684Z"></path>
  <path fill="#12212D" d="M85.0752 82.1562C86.3857 82.1562 87.4131 82.5121 88.0596 83.1699C88.5642 83.6766 88.8212 84.299 88.8213 85.0635V85.0996C88.8212 86.4775 88.0424 87.2068 87.1924 87.6514C88.5294 88.1137 89.459 88.8787 89.459 90.4346V90.4697C89.459 92.5146 87.7767 93.6083 85.2354 93.6084H79.957V82.1562H85.0752ZM81.9404 91.8213H85.2617C86.6252 91.8212 87.4578 91.288 87.458 90.2568H87.4668V90.2207C87.4667 89.2517 86.6961 88.6827 85.1201 88.6826H81.9404V91.8213ZM81.9316 86.9932H84.668C85.9608 86.9932 86.8202 86.4866 86.8203 85.4375V85.4014C86.8201 84.4947 86.1022 83.9434 84.8184 83.9434H81.9316V86.9932Z" clip-rule="evenodd" fill-rule="evenodd"></path>
  <path fill="#12212D" d="M97.8984 87.2246L101.122 82.1562H103.424L98.8906 89.0381V93.6084H96.8711V89.0918L92.3457 82.1562H94.71L97.8984 87.2246Z"></path>
  <path fill="#12212D" d="M202.633 16.7959C203.713 16.7959 204.918 16.8408 206.264 16.9297C207.61 17.0186 208.849 17.2765 209.982 17.6943C210.965 18.0589 211.789 18.5477 212.444 19.1611C213.1 19.7835 213.632 20.4593 214.039 21.1973C214.446 21.9351 214.738 22.7175 214.915 23.5264C215.092 24.3353 215.19 25.109 215.19 25.8291C215.19 27.2428 214.915 28.5861 214.357 29.8486C213.808 31.1111 213.012 32.107 211.958 32.8271C211.117 33.4317 210.302 33.8766 209.496 34.1611C208.69 34.4456 207.955 34.6672 207.3 34.8184C208.318 35.3874 209.177 35.9927 209.877 36.624C210.576 37.2553 211.32 38.1269 212.091 39.2471C212.454 39.7626 212.817 40.3404 213.188 40.9893C213.56 41.6383 213.906 42.2968 214.216 42.9814C214.535 43.6571 214.791 44.3151 214.995 44.9463C215.199 45.5775 215.313 46.1198 215.313 46.5732C215.313 47.5335 214.942 48.3249 214.198 48.9473C213.454 49.5608 212.551 49.8721 211.515 49.8721C210.824 49.872 210.231 49.7563 209.727 49.5342C209.222 49.3119 208.752 48.9737 208.318 48.5381C207.884 48.1024 207.459 47.5688 207.043 46.9375C206.627 46.3063 206.175 45.5682 205.697 44.7236L203.323 40.7051H203.314L203.306 40.6963C202.65 39.5849 202.066 38.6952 201.562 38.0283C201.057 37.3615 200.56 36.8727 200.082 36.5615C199.604 36.2415 199.108 36.046 198.604 35.9482C198.099 35.8593 197.515 35.8145 196.859 35.8145H195.787V42.8213C195.787 44.3238 195.743 45.4974 195.654 46.3242C195.566 47.1511 195.247 47.8356 194.707 48.3779C194.379 48.7068 193.963 49.0096 193.477 49.2852C192.981 49.5519 192.387 49.6943 191.696 49.6943C190.492 49.6943 189.473 49.2763 188.632 48.4316C188.092 47.8893 187.773 47.1865 187.685 46.333C187.596 45.4706 187.552 44.3059 187.552 42.8301V23.7666C187.552 22.8331 187.552 22.0682 187.578 21.4814C187.596 20.8949 187.64 20.3972 187.711 19.9883C187.791 19.5793 187.906 19.2318 188.074 18.9473C188.242 18.6628 188.472 18.3513 188.773 18.0225C189.039 17.7202 189.323 17.4892 189.624 17.3203C189.925 17.1514 190.279 17.0361 190.704 16.9561C191.12 16.8849 191.634 16.8312 192.228 16.8223C192.821 16.8045 193.556 16.7959 194.424 16.7959H202.633ZM195.787 30.2129H200.286C201.039 30.2129 201.81 30.1949 202.598 30.1416C203.394 30.0971 204.111 29.9548 204.758 29.7148C205.404 29.4748 205.927 29.0927 206.334 28.5771C206.741 28.0615 206.945 27.3501 206.945 26.4434C206.945 25.5365 206.751 24.8336 206.361 24.3535C205.972 23.8734 205.466 23.5183 204.855 23.2871C204.244 23.0648 203.554 22.9224 202.783 22.8779C202.022 22.8335 201.26 22.8066 200.517 22.8066H195.787V30.2129Z" clip-rule="evenodd" fill-rule="evenodd"></path>
  <path fill="#12212D" d="M35.9541 16.2627C36.7953 16.2627 37.6719 16.3246 38.584 16.4668C39.4961 16.6002 40.3996 16.84 41.2852 17.1689C42.1707 17.4979 43.0029 17.9696 43.7822 18.5742C44.5615 19.1788 45.2254 19.9434 45.7656 20.877C46.0667 21.3927 46.3149 21.9442 46.5098 22.5488C46.7045 23.1532 46.8017 23.7042 46.8018 24.2197C46.8018 24.6999 46.6247 25.1802 46.2793 25.6426C45.9339 26.1137 45.4556 26.3447 44.8623 26.3447C44.1718 26.3446 43.6934 26.1137 43.4189 25.6426C43.1445 25.1714 42.9232 24.6914 42.7461 24.1758C42.507 23.5089 42.25 22.9219 41.9844 22.415C41.7187 21.8994 41.2317 21.3926 40.541 20.877C39.9743 20.4591 39.2747 20.1295 38.4424 19.9072C37.6189 19.685 36.7422 19.5693 35.8125 19.5693C34.7587 19.5693 33.8197 19.7125 32.9961 19.9971C32.1727 20.2816 31.4643 20.6637 30.8799 21.126C30.2955 21.5972 29.8528 22.1395 29.5518 22.7529C29.2507 23.3664 29.0996 24.0159 29.0996 24.6738C29.0997 25.6339 29.3209 26.4344 29.7725 27.0479C30.2241 27.6613 30.7917 28.1769 31.4824 28.5859C32.173 28.9948 32.9431 29.3147 33.793 29.5547C34.6519 29.7947 35.4668 30.0087 36.2461 30.1865C37.5655 30.5155 38.6903 30.8175 39.6201 31.0664C40.5499 31.3243 41.3474 31.5821 42.0293 31.8311C42.7022 32.0889 43.2777 32.3554 43.7559 32.6221C44.2341 32.8977 44.6854 33.183 45.1016 33.4854C45.5797 33.8498 46.005 34.2939 46.3857 34.8184C46.7665 35.343 47.0675 35.8948 47.3066 36.4639C47.5457 37.0328 47.7227 37.6194 47.8467 38.2061C47.9707 38.7929 48.0244 39.3265 48.0244 39.8066C48.0244 41.158 47.7674 42.4383 47.2627 43.6475H47.2715L47.2891 43.6299C46.7755 44.839 46.0317 45.8881 45.04 46.7949C44.0482 47.693 42.808 48.4139 41.3291 48.9385C39.8415 49.463 38.1237 49.7295 36.1758 49.7295C35.3965 49.7295 34.5988 49.6846 33.793 49.5957C32.9874 49.5068 32.1728 49.3386 31.3672 49.0986C30.5614 48.8586 29.7731 48.529 29.0293 48.1289C28.2766 47.7199 27.6031 47.2045 27.001 46.5732C26.0977 45.6396 25.3984 44.5811 24.8848 43.3896C24.3712 42.1983 24.123 41.1223 24.123 40.1621C24.1231 39.6821 24.3001 39.2553 24.6631 38.873C25.0262 38.4907 25.4696 38.3037 26.0098 38.3037C26.6117 38.3038 27.0362 38.5178 27.293 38.9355C27.5498 39.3534 27.8691 40.0913 28.2676 41.1494C28.3916 41.5139 28.586 41.9941 28.8516 42.5986C29.1172 43.2032 29.5426 43.7903 30.1094 44.3594C30.6761 44.9283 31.4288 45.4261 32.3584 45.8262C33.2882 46.2352 34.4756 46.4395 35.9102 46.4395C36.9018 46.4394 37.8758 46.3154 38.832 46.0576C39.7884 45.7998 40.6477 45.4171 41.4004 44.9014C42.153 44.3857 42.7553 43.7546 43.2246 43.0078C43.6939 42.2521 43.9238 41.3805 43.9238 40.3848C43.9238 39.3267 43.694 38.4638 43.2246 37.7881C42.7553 37.1125 42.1885 36.5614 41.5156 36.1436C40.8426 35.7257 40.1334 35.4058 39.3984 35.1924C38.6636 34.979 38.0081 34.8188 37.4414 34.6943C35.9451 34.3654 34.7055 34.081 33.7314 33.832C32.7574 33.5831 31.9251 33.3601 31.2344 33.1289C30.5437 32.9066 29.9499 32.667 29.4629 32.4092C28.967 32.1513 28.4802 31.8307 28.002 31.4395C27.7363 31.2261 27.4177 30.9416 27.0547 30.5771C26.6917 30.2127 26.3635 29.7686 26.0625 29.2441C25.7614 28.7195 25.5045 28.1142 25.3008 27.4385C25.0883 26.7628 24.9824 25.9894 24.9824 25.1182C24.9824 23.6422 25.2827 22.3438 25.876 21.2324C26.4782 20.121 27.2756 19.196 28.2852 18.458C29.2858 17.7201 30.4549 17.1692 31.792 16.8047C33.1292 16.449 34.5195 16.2627 35.9541 16.2627Z"></path>
  <path fill="#12212D" d="M144.408 16.2539C144.674 16.254 144.957 16.3065 145.24 16.4131C145.524 16.5198 145.772 16.6976 145.984 16.9287C146.285 17.2043 146.454 17.5603 146.507 18.0137C146.551 18.4671 146.577 19.0725 146.577 19.8193V46.1201C146.577 46.9023 146.551 47.5156 146.507 47.9512C146.463 48.3869 146.285 48.7429 145.984 49.0186C145.834 49.1697 145.621 49.3205 145.355 49.4717C145.081 49.6228 144.771 49.6943 144.408 49.6943C144.134 49.6943 143.859 49.6409 143.575 49.5342C143.292 49.4275 143.044 49.267 142.831 49.0625C142.53 48.7603 142.362 48.3956 142.309 47.9512C142.264 47.5156 142.247 46.9111 142.247 46.1201V19.8281C142.247 19.0457 142.264 18.4318 142.309 17.9961C142.353 17.5604 142.53 17.2043 142.831 16.9287C142.982 16.7776 143.186 16.6267 143.442 16.4756C143.699 16.3244 144.019 16.2539 144.408 16.2539Z"></path>
  <path fill="#12212D" d="M71.3672 16.7783C72.0312 16.7783 72.5538 16.8052 72.9434 16.8496C73.3328 16.8941 73.6516 17.0538 73.8906 17.3203C74.0412 17.4715 74.1739 17.6499 74.2979 17.8633C74.4218 18.0766 74.4746 18.299 74.4746 18.5391C74.4746 18.7523 74.4128 18.9654 74.2979 19.1875C74.1739 19.4098 74.0411 19.6057 73.8906 19.7568C73.6516 19.9968 73.3329 20.1391 72.9434 20.1836C72.5538 20.228 72.0312 20.2549 71.3672 20.2549H64.0342V46.1025L64.0605 46.1201C64.0605 46.8402 64.0345 47.4447 63.9902 47.9248C63.946 48.4048 63.7687 48.787 63.4678 49.0537C63.3173 49.2048 63.1133 49.3471 62.8389 49.4805C62.5644 49.6138 62.2546 49.6855 61.8916 49.6855C61.2894 49.6855 60.7844 49.4716 60.3594 49.0537C60.0318 48.787 59.8461 48.4135 59.793 47.9424C59.7487 47.4712 59.7217 46.8668 59.7217 46.1113V20.2637H52.4336C51.7783 20.2637 51.2471 20.2457 50.8574 20.1924C50.4678 20.1479 50.1492 20.0056 49.9102 19.7656C49.7596 19.6145 49.6259 19.437 49.502 19.2236C49.378 19.0103 49.3164 18.7878 49.3164 18.5479C49.3164 18.3345 49.3693 18.1208 49.4756 17.8896C49.5819 17.6674 49.7059 17.4804 49.8564 17.3203C50.0955 17.0537 50.4238 16.8941 50.8311 16.8496C51.2384 16.8052 51.7697 16.7783 52.4248 16.7783H71.3672Z"></path>
  <path fill="#12212D" d="M262.267 16.2715C264.817 16.2715 266.881 16.6093 268.457 17.2939C270.033 17.9785 271.247 18.7519 272.097 19.6143C272.956 20.4855 273.531 21.366 273.832 22.2373C274.133 23.1086 274.284 23.7312 274.284 24.0869C274.284 25.1983 273.983 26.088 273.381 26.7549C272.779 27.4216 271.999 27.7499 271.043 27.75C270.591 27.75 270.175 27.6793 269.803 27.5459C269.431 27.4126 269.104 27.2434 268.838 27.0479C268.572 26.8523 268.342 26.6565 268.165 26.4609C267.988 26.2653 267.845 26.1049 267.757 25.9805C267.341 25.4116 266.995 24.9408 266.721 24.5586C266.446 24.1852 266.199 23.8643 265.96 23.6064C265.721 23.3486 265.481 23.1445 265.242 22.9756C265.003 22.8067 264.719 22.6551 264.383 22.5039C263.905 22.2641 263.427 22.1216 262.967 22.0771C262.506 22.0327 262.09 22.0068 261.727 22.0068C260.407 22.0068 259.291 22.2464 258.379 22.7266C257.467 23.2067 257.007 23.8825 257.007 24.7627C257.007 25.3051 257.184 25.7586 257.529 26.1143C257.875 26.4788 258.353 26.7985 258.955 27.083C259.557 27.3675 260.274 27.6254 261.106 27.8477C261.93 28.0699 262.842 28.2925 263.843 28.5059C264.383 28.6214 265.03 28.7905 265.782 29.0039C266.535 29.2173 267.314 29.4663 268.138 29.7686C268.952 30.0709 269.741 30.4001 270.512 30.7646C271.282 31.1291 271.955 31.5024 272.521 31.8936C273.611 32.676 274.443 33.7434 275.027 35.0771C275.621 36.4197 275.913 37.7534 275.913 39.0781C275.913 40.5273 275.639 41.8877 275.107 43.168H275.099L275.072 43.1592C274.532 44.4395 273.699 45.5688 272.574 46.5469C271.45 47.5248 270.042 48.2984 268.342 48.8496C266.65 49.4098 264.658 49.6855 262.382 49.6855C259.681 49.6855 257.467 49.3208 255.749 48.6006C254.022 47.8804 252.659 47 251.658 45.9775C250.658 44.955 249.957 43.8973 249.567 42.8125C249.178 41.7278 248.983 40.8381 248.983 40.1445C248.983 39.8424 249.045 39.4781 249.16 39.0605C249.284 38.6427 249.479 38.2512 249.745 37.8867C250.011 37.5222 250.374 37.2197 250.825 36.9619C251.277 36.7041 251.818 36.5791 252.446 36.5791C253.075 36.5791 253.659 36.6949 254.11 36.917C254.562 37.1393 254.926 37.4335 255.209 37.7803C255.492 38.1269 255.731 38.5003 255.926 38.9092C256.121 39.3182 256.307 39.6826 256.493 40.0205C256.732 40.4739 256.998 40.9189 257.281 41.3545C257.565 41.7899 257.928 42.1807 258.361 42.5273C258.795 42.874 259.326 43.1499 259.964 43.3633C260.593 43.5767 261.363 43.6836 262.258 43.6836C262.975 43.6836 263.666 43.6121 264.33 43.4609C264.994 43.3098 265.57 43.0788 266.065 42.7588C266.561 42.4388 266.951 42.0567 267.234 41.6123C267.518 41.1588 267.66 40.6339 267.66 40.0293C267.66 39.3091 267.474 38.6952 267.093 38.1973C266.721 37.6995 266.207 37.2822 265.561 36.9355C264.914 36.5889 264.144 36.2947 263.25 36.0547C262.347 35.8146 261.372 35.5568 260.327 35.29C259.397 35.0766 258.299 34.774 257.042 34.3828C255.785 33.9916 254.588 33.4321 253.464 32.7119C252.339 31.9917 251.383 31.0485 250.586 29.8838C249.789 28.728 249.399 27.2432 249.399 25.4385C249.399 23.9359 249.719 22.602 250.356 21.4639C250.994 20.317 251.879 19.3653 253.021 18.5918C254.164 17.8272 255.527 17.2496 257.104 16.8584C258.68 16.4672 260.407 16.2715 262.267 16.2715Z"></path>
  <path fill="#12212D" d="M167.415 16.2627C170.443 16.2627 172.692 16.7781 174.641 17.8184C176.58 18.8586 178.139 20.1922 179.308 21.8193C180.477 23.4465 181.309 25.2429 181.822 27.2168C182.327 29.1906 182.584 31.1114 182.584 32.9785C182.584 34.9967 182.31 37.0063 181.778 39.0156L181.77 38.9971C181.229 40.9976 180.353 42.7943 179.148 44.377C177.935 45.9596 176.377 47.2397 174.464 48.2178C172.551 49.1958 170.23 49.6846 167.512 49.6846C165.413 49.6845 163.589 49.4181 162.013 48.8936C160.436 48.369 159.091 47.6663 157.948 46.7949C156.815 45.9236 155.867 44.9105 155.123 43.7725C154.379 42.6344 153.777 41.434 153.325 40.207C152.874 38.9712 152.564 37.7351 152.387 36.4814C152.201 35.2279 152.112 34.0631 152.112 32.9785C152.112 31.2358 152.342 29.377 152.812 27.4209C153.272 25.4648 154.087 23.6509 155.256 21.9971C156.425 20.3433 157.983 18.9744 159.94 17.8896C161.898 16.8049 164.386 16.2627 167.415 16.2627ZM167.326 19.7295C165.759 19.7295 164.342 20.0408 163.075 20.6543C161.809 21.2678 160.711 22.0509 159.772 22.9756C159.082 23.6424 158.524 24.4156 158.099 25.3047C157.674 26.1938 157.337 27.1188 157.08 28.0791C156.823 29.0393 156.646 29.9999 156.558 30.9512C156.469 31.9024 156.425 32.7561 156.425 33.5029C156.425 35.4945 156.709 37.2642 157.284 38.8379C157.86 40.4025 158.639 41.7269 159.631 42.8115C160.623 43.8963 161.783 44.7325 163.111 45.3193C164.44 45.9061 165.839 46.1992 167.317 46.1992C167.946 46.1992 168.654 46.1286 169.442 45.9775C170.222 45.8264 171.019 45.5679 171.834 45.1855C172.649 44.8121 173.437 44.2964 174.207 43.6475C174.977 42.9985 175.66 42.1898 176.262 41.2119C176.864 40.2339 177.351 39.0684 177.705 37.708C178.068 36.3566 178.245 34.7737 178.245 32.96C178.245 31.1462 178.068 29.5722 177.705 28.2119L177.714 28.2207C177.351 26.8694 176.873 25.6957 176.271 24.7178C175.668 23.7397 174.986 22.9214 174.216 22.2812C173.445 21.6323 172.657 21.1255 171.843 20.7432C171.028 20.3608 170.23 20.1033 169.451 19.9521C168.672 19.801 167.964 19.7295 167.326 19.7295Z" clip-rule="evenodd" fill-rule="evenodd"></path>
  <path fill="#12212D" d="M101.405 16.2539C102.034 16.254 102.556 16.4754 102.981 16.9287C103.282 17.2309 103.451 17.6046 103.504 18.0312C103.548 18.4669 103.574 19.0809 103.574 19.8633V36.668C103.574 38.3218 103.397 39.9314 103.034 41.4785C102.671 43.0256 102.033 44.4127 101.121 45.6396C100.209 46.8666 98.9515 47.8353 97.3398 48.5732C95.737 49.3112 93.6827 49.6758 91.2031 49.6758C89.0424 49.6758 87.1471 49.4535 85.5088 49C83.8795 48.5465 82.5071 47.8086 81.418 46.7861C80.3288 45.7637 79.4876 44.4213 78.9209 42.7676C78.3542 41.105 78.0616 39.0956 78.0615 36.7129V19.8633C78.0615 19.0809 78.0885 18.4758 78.1328 18.0312C78.1772 17.5958 78.3445 17.222 78.6455 16.9287C78.796 16.7776 79.0088 16.6267 79.2744 16.4756C79.5401 16.3244 79.8596 16.2539 80.2227 16.2539C80.8512 16.254 81.3739 16.4754 81.7988 16.9287C82.0998 17.2309 82.2681 17.6046 82.3213 18.0312C82.3656 18.4669 82.3916 19.0809 82.3916 19.8633V37.0322H82.3652C82.3652 37.7257 82.4095 38.5886 82.498 39.6289C82.5866 40.6692 82.8965 41.6743 83.4189 42.6523C83.9414 43.6303 84.7833 44.4657 85.9434 45.1592C87.0945 45.8526 88.7412 46.1992 90.8662 46.1992C92.7524 46.1992 94.2583 45.8974 95.3652 45.3018C96.4721 44.6972 97.3131 43.9412 97.8887 43.0166C98.4554 42.1008 98.8278 41.105 98.9961 40.0381C99.1643 38.9711 99.2441 37.9841 99.2441 37.0771V19.8633C99.2441 19.0809 99.2702 18.4758 99.3145 18.0312C99.3588 17.5957 99.5271 17.222 99.8281 16.9287C99.9786 16.7776 100.191 16.6267 100.457 16.4756C100.723 16.3244 101.042 16.2539 101.405 16.2539Z"></path>
  <path fill="#12212D" d="M240.801 16.7871C241.907 16.7871 242.775 16.8138 243.386 16.876C243.997 16.9382 244.519 17.1788 244.936 17.5967C245.175 17.8367 245.397 18.1472 245.609 18.5205C245.822 18.8939 245.928 19.3477 245.928 19.8545C245.928 20.6991 245.609 21.4638 244.98 22.1572C244.564 22.5751 244.023 22.8157 243.386 22.8779C242.739 22.9401 241.881 22.9668 240.801 22.9668H228.287V29.1104H228.296V29.1279H239.729C240.809 29.1279 241.651 29.1555 242.253 29.2178C242.855 29.2801 243.36 29.5197 243.785 29.9375C243.998 30.1508 244.201 30.4443 244.413 30.8174C244.626 31.1908 244.732 31.6446 244.732 32.1514C244.732 32.9959 244.414 33.734 243.785 34.3652C243.369 34.783 242.846 35.0236 242.235 35.0859C241.624 35.1482 240.782 35.1748 239.737 35.1748H228.305V42.7236H241.172C242.314 42.7236 243.2 42.7588 243.847 42.8389C244.493 42.91 245.024 43.1681 245.44 43.5859C245.68 43.826 245.91 44.1459 246.141 44.5371C246.362 44.9283 246.477 45.4 246.477 45.9424C246.476 46.849 246.149 47.6313 245.485 48.2891C245.069 48.707 244.528 48.965 243.864 49.0361C243.2 49.1073 242.305 49.1514 241.163 49.1514H226.985C226.056 49.1514 225.303 49.1517 224.71 49.125C224.125 49.1072 223.629 49.0633 223.222 48.9922C222.814 48.921 222.469 48.7958 222.186 48.627C221.902 48.458 221.592 48.227 221.265 47.9248C220.964 47.6581 220.734 47.3647 220.565 47.0625C220.397 46.7602 220.282 46.3956 220.211 45.96C220.131 45.5244 220.087 44.9998 220.078 44.4043C220.06 43.7997 220.052 43.0608 220.052 42.1895V23.7578C220.052 22.8243 220.052 22.0683 220.078 21.4727C220.096 20.8861 220.14 20.3884 220.211 19.9795C220.282 19.5705 220.406 19.223 220.565 18.9385C220.734 18.654 220.964 18.3425 221.265 18.0137C221.566 17.7114 221.867 17.4804 222.168 17.3115C222.469 17.1426 222.833 17.0273 223.249 16.9473C223.665 16.8762 224.178 16.8224 224.78 16.8135C225.382 16.7957 226.118 16.7871 226.985 16.7871H240.801Z"></path>
  <path fill="#12212D" d="M121.587 16.7959C122.455 16.7959 123.376 16.8225 124.341 16.8848C125.315 16.947 126.298 17.1072 127.299 17.3828C128.299 17.6584 129.291 18.0851 130.283 18.6719C131.275 19.2587 132.196 20.0768 133.063 21.1348C134.41 22.7619 135.331 24.6024 135.845 26.6475C136.349 28.6924 136.605 30.7909 136.605 32.9248C136.605 33.9828 136.535 35.1388 136.385 36.4014C136.234 37.6639 135.959 38.9271 135.552 40.1719C135.144 41.4254 134.578 42.6254 133.852 43.79C133.117 44.9459 132.151 45.9512 130.965 46.7959C130.186 47.3381 129.389 47.7649 128.565 48.085C127.742 48.405 126.918 48.6446 126.104 48.8047C125.28 48.9736 124.491 49.072 123.729 49.0986C122.968 49.1253 122.268 49.1426 121.648 49.1426H113.776C112.909 49.1426 112.226 49.0987 111.739 49.0098C111.244 48.9209 110.881 48.725 110.642 48.4229C110.403 48.1206 110.261 47.7025 110.217 47.1602C110.173 46.6178 110.146 45.8972 110.146 44.9902V20.415C110.146 19.5972 110.181 18.9568 110.261 18.4678C110.332 17.9876 110.5 17.6229 110.757 17.3828C111.014 17.1428 111.376 16.9823 111.854 16.9111C112.333 16.84 112.979 16.7959 113.785 16.7959H121.587ZM114.44 45.666H121.082C122.1 45.666 123.021 45.6221 123.845 45.5332C124.668 45.4443 125.422 45.2752 126.095 45.0352C126.768 44.7951 127.396 44.4655 127.98 44.0654C128.565 43.6565 129.123 43.1236 129.663 42.4658C130.327 41.6834 130.824 40.8024 131.169 39.8154C131.514 38.8376 131.771 37.8864 131.931 36.9707C132.099 36.0549 132.187 35.2366 132.223 34.5342C132.249 33.8231 132.267 33.3697 132.267 33.1562C132.267 30.9867 132.001 29.0747 131.479 27.4209C130.956 25.7672 130.345 24.487 129.654 23.5801C129.176 22.9488 128.671 22.4239 128.148 21.9971C127.626 21.5793 127.015 21.2324 126.324 20.9746C125.634 20.7168 124.845 20.5393 123.96 20.4326C123.074 20.3259 122.029 20.2725 120.834 20.2725H114.44V45.666Z" clip-rule="evenodd" fill-rule="evenodd"></path>
  <path fill="#12212D" d="M267.075 0C285.256 0.000103153 300 14.8046 300 33.0586C300 51.3124 285.255 66.1161 267.075 66.1162H32.9248C14.7445 66.1161 0.000176636 51.3124 0 33.0586C0 14.8046 14.7444 0.000102697 32.9248 0H267.075ZM32.9248 4.5166C17.2505 4.5167 4.49902 17.3209 4.49902 33.0586C4.4992 48.7962 17.2506 61.5995 32.9248 61.5996H267.075C282.749 61.5995 295.501 48.7962 295.501 33.0586C295.501 17.3209 282.749 4.51671 267.075 4.5166H32.9248Z" clip-rule="evenodd" fill-rule="evenodd"></path>
</svg>