<svg style="width: 80px; height: 18.1322px;" aria-label="Townplace Suites" role="img" preserveAspectRatio="" fill="none" viewBox="0 0 278 63" height="63" width="278" xmlns="http://www.w3.org/2000/svg">
  <g clip-path="url(#clip0_9515_50449)">
    <path fill="#D42228" d="M37.9616 22.3836C32.9855 22.3836 29.2334 18.5842 29.2334 13.5467C29.2334 8.57114 33.0674 4.67256 37.9616 4.67256C42.8552 4.67256 46.6917 8.57114 46.6917 13.5467C46.6917 18.5842 42.9396 22.3836 37.9616 22.3836ZM37.9616 0.0634766C30.2786 0.0634766 24.2604 5.9853 24.2604 13.5467C24.2604 21.0861 30.2786 26.9927 37.9616 26.9927C45.6663 26.9927 51.7027 21.0861 51.7027 13.5467C51.7027 5.9853 45.6663 0.0634766 37.9616 0.0634766ZM0 5.1102V0.501112H18.8803V5.1102H11.9651V26.482H6.91758V5.1102H0ZM87.7426 49.0215L87.7425 49.0215L87.604 48.9669L87.6005 48.9655C85.2945 48.0599 84.1395 47.6064 84.1395 46.0543C84.1395 44.8407 85.2932 43.9615 86.8783 43.9615C88.5575 43.9615 89.7615 44.5608 90.5467 45.7892L90.6605 45.9626L93.7464 43.8473L93.6423 43.6865C92.1364 41.3358 89.7762 40.0953 86.8163 40.0953C82.8268 40.0953 79.9309 42.6262 79.9309 46.1162C79.9309 50.131 82.9203 51.5846 86.2517 52.8329C88.897 53.8285 90.5172 54.5293 90.5172 56.3299C90.5172 56.7661 90.3505 58.9457 87.0643 58.9457C84.7234 58.9457 82.8664 57.8191 81.8261 55.7729L81.7295 55.5797L78.485 57.6132L78.5567 57.7718C79.9909 60.9766 83.0819 62.8118 87.0343 62.8118C91.8889 62.8118 94.7868 60.355 94.7868 56.2358C94.7868 52.5828 92.5379 50.9483 88.9071 49.4894C88.4948 49.3184 88.1056 49.1648 87.743 49.0217L87.7426 49.0215ZM115.851 53.5749C115.851 57.0477 114.238 58.8854 111.192 58.8854C108.123 58.8854 106.501 57.0477 106.501 53.5749V40.4658H102.231V53.9765C102.231 59.4077 105.664 62.7809 111.192 62.7809C116.7 62.7809 120.123 59.4077 120.123 53.9765V40.4658H115.851V53.5749ZM132.219 62.4423H127.947V51.8266V40.4663H132.219V62.4423ZM139.431 44.365H145.281V62.4429H149.551V44.365H155.401V40.4642H139.431V44.365ZM176.85 53.0005H167.594V58.5433H177.684V62.442H163.324V40.4658H177.469V44.3664H167.594V49.1021H176.85V53.0005ZM192.095 49.0151L192.094 49.0147L191.973 48.9669L191.968 48.9651C189.663 48.0598 188.508 47.6062 188.508 46.0543C188.508 44.8407 189.662 43.9615 191.247 43.9615C192.926 43.9615 194.13 44.5608 194.918 45.7892L195.029 45.9626L198.115 43.8473L198.011 43.6865C196.505 41.3358 194.145 40.0953 191.188 40.0953C187.195 40.0953 184.3 42.6262 184.3 46.1162C184.3 50.131 187.29 51.5846 190.62 52.8329C193.265 53.8285 194.885 54.5293 194.885 56.3299C194.885 56.7661 194.719 58.9457 191.433 58.9457C189.095 58.9457 187.235 57.8191 186.197 55.7729L186.098 55.5797L182.853 57.6132L182.925 57.7718C184.359 60.9766 187.45 62.8118 191.403 62.8118C196.258 62.8118 199.155 60.355 199.155 56.2358C199.155 52.5828 196.906 50.9483 193.275 49.4894C192.857 49.3158 192.462 49.1601 192.095 49.0151ZM78.4591 17.0529L83.4818 0.501112H88.4055L88.3161 0.808081L80.6485 26.482H76.6757L76.6239 26.3133L71.472 9.90783L66.2312 26.482H62.2955L62.2442 26.3133L54.541 0.501112H59.4993L59.5516 0.669336L64.4854 17.0504L69.5773 0.501112H73.3692L73.419 0.666794L78.4591 17.0529ZM113.539 0.501112V17.7467L100.462 0.592594L100.389 0.501112H96.0105V26.482H100.912V8.90459L114.282 26.3905L114.353 26.482H118.437V0.501112H113.539ZM128.042 26.482V0.501112H144.765V5.1102H133.093V10.7129H144.033V15.3194H133.093V21.8704H145.021V26.482H128.042ZM159.173 5.11116H163.876C165.741 5.11116 167.626 6.46354 167.626 9.0443C167.626 11.9051 165.382 12.9454 163.876 12.9454H159.173V5.11116ZM164.097 0.502073H154.123V26.4804H159.173V17.5514H164.097C168.206 17.5514 172.638 14.2998 172.638 9.0443C172.638 3.69728 168.295 0.502073 164.097 0.502073ZM180.071 26.482V0.501112H185.121V21.8704H195.256V26.482H180.071ZM212.964 7.62438L216.854 17.152H209.073L212.964 7.62438ZM210.866 0.501112L200.02 26.482H205.365L207.45 21.3947H218.477L220.562 26.482H225.906L215.061 0.501112H210.866ZM242.458 22.312C245.185 22.312 247.629 21.2102 249.341 19.2114L249.497 19.0304L252.925 22.0102L252.776 22.1911C250.225 25.1977 246.463 26.9216 242.458 26.9216C234.605 26.9216 228.683 21.1553 228.683 13.5101C228.683 5.97062 234.733 0.06353 242.458 0.06353C246.434 0.06353 250.084 1.71577 252.734 4.71734L252.896 4.89826L249.422 7.87798L249.269 7.70214C247.538 5.74801 245.118 4.67312 242.458 4.67312C237.46 4.67312 233.693 8.4726 233.693 13.5101C233.693 18.5278 237.46 22.312 242.458 22.312ZM260.665 0.501577V26.4825H277.64V21.8704H265.715V15.3199H276.655V10.7133H265.715V5.11066H277.387V0.501577H260.665ZM206.758 41.7084H207.456C207.777 41.7084 208.479 41.7084 208.479 42.4524C208.479 43.0689 207.971 43.2818 207.374 43.2818H206.758V41.7084ZM208.549 45.5177C208.65 45.6418 208.797 45.6652 208.948 45.6652H209.378C209.303 45.6239 209.258 45.5675 209.202 45.4986C209.195 45.4897 209.188 45.4806 209.18 45.4713L207.793 43.6655C208.556 43.5725 209.021 43.0455 209.021 42.4524C209.021 42.115 208.854 41.3094 207.754 41.3094H206.243V45.6652H206.758V43.7042H207.2L208.549 45.5177ZM203.29 43.4018C203.29 41.0883 205.165 39.2013 207.479 39.2013C209.793 39.2013 211.68 41.0883 211.68 43.4018C211.68 45.7272 209.793 47.6064 207.479 47.6064C205.165 47.6064 203.29 45.7272 203.29 43.4018ZM202.806 43.4018C202.806 45.9751 204.91 48.0755 207.479 48.0755C210.056 48.0755 212.145 45.9751 212.145 43.4018C212.145 40.8175 210.056 38.7322 207.479 38.7322C204.91 38.7322 202.806 40.8175 202.806 43.4018Z" clip-rule="evenodd" fill-rule="evenodd"></path>
  </g>
  <defs>
    <clipPath id="clip0_9515_50449">
      <rect fill="white" height="63" width="278"></rect>
    </clipPath>
  </defs>
</svg>