<svg aria-label="ts" role="img" preserveAspectRatio="" fill="none" viewBox="0 0 278 95" height="95" width="278" xmlns="http://www.w3.org/2000/svg">
  <g clip-path="url(#clip0_7_456)">
    <path fill="#D42228" d="M29.2334 13.4793C29.2334 18.5168 32.9855 22.3163 37.9616 22.3163C42.9396 22.3163 46.6917 18.5168 46.6917 13.4793C46.6917 8.50379 42.8552 4.60521 37.9616 4.60521C33.0674 4.60521 29.2334 8.50379 29.2334 13.4793ZM24.2604 13.4793C24.2604 5.91795 30.2786 -0.00387573 37.9616 -0.00387573C45.6663 -0.00387573 51.7027 5.91795 51.7027 13.4793C51.7027 21.0188 45.6663 26.9254 37.9616 26.9254C30.2786 26.9254 24.2604 21.0188 24.2604 13.4793ZM0 0.43376V5.04284H6.91758V26.4147H11.9651V5.04284H18.8803V0.43376H0ZM87.7426 48.9542L87.7425 48.9542L87.604 48.8995L87.6005 48.8981C85.2945 47.9926 84.1395 47.539 84.1395 45.9869C84.1395 44.7733 85.2932 43.8941 86.8783 43.8941C88.5575 43.8941 89.7615 44.4935 90.5467 45.7219L90.6605 45.8952L93.7464 43.78L93.6423 43.6191C92.1364 41.2685 89.7762 40.0279 86.8163 40.0279C82.8268 40.0279 79.9309 42.5589 79.9309 46.0489C79.9309 50.0636 82.9203 51.5173 86.2517 52.7656C88.897 53.7612 90.5172 54.462 90.5172 56.2626C90.5172 56.6988 90.3505 58.8784 87.0643 58.8784C84.7234 58.8784 82.8664 57.7517 81.8261 55.7055L81.7295 55.5124L78.485 57.5459L78.5567 57.7045C79.9909 60.9093 83.0819 62.7444 87.0343 62.7444C91.8889 62.7444 94.7868 60.2877 94.7868 56.1685C94.7868 52.5154 92.5379 50.881 88.9071 49.422C88.4948 49.2511 88.1056 49.0975 87.743 48.9544L87.7426 48.9542ZM93.0537 94.0856H94.7944V90.1703L98.695 84.2627H96.7165L93.9375 88.6126L91.188 84.2627H89.1526L93.0537 90.2126V94.0856ZM80.1835 92.5559V89.8618H82.9187C84.2803 89.8618 84.9399 90.3527 84.9399 91.1806V91.2091C84.9399 92.0924 84.2249 92.5559 83.0453 92.5559H80.1835ZM80.1835 88.4022V85.792H82.6667C83.7756 85.792 84.3931 86.2693 84.3931 87.0407V87.0691C84.3931 87.9672 83.6491 88.4022 82.5401 88.4022H80.1835ZM78.485 94.0856H83.0316C85.221 94.0856 86.6659 93.145 86.6659 91.391V91.363C86.6659 90.0301 85.8664 89.3704 84.7158 88.9775C85.4451 88.599 86.1185 87.9672 86.1185 86.7886V86.7602C86.1185 86.1005 85.8944 85.5673 85.4588 85.1323C84.8983 84.5713 84.014 84.2627 82.8913 84.2627H78.485V94.0856ZM193.929 94.1582H195.8V85.9048H199.155V84.2572H190.574V85.9048H193.929V94.1582ZM182.177 94.1582H184.048V85.9048H187.402V84.2572H178.823V85.9048H182.177V94.1582ZM171.226 92.6602C170.732 92.6602 170.288 92.5651 169.898 92.3781C169.507 92.1895 169.173 91.9344 168.896 91.6125C168.618 91.2909 168.407 90.9179 168.258 90.4915C168.109 90.066 168.035 89.6209 168.035 89.1558C168.035 88.6807 168.109 88.2328 168.258 87.8122C168.407 87.3919 168.618 87.0235 168.896 86.7058C169.173 86.3892 169.507 86.1396 169.898 85.9562C170.288 85.7738 170.732 85.6812 171.226 85.6812C171.711 85.6812 172.152 85.7738 172.548 85.9562C172.943 86.1396 173.28 86.3892 173.558 86.7058C173.834 87.0235 174.048 87.3919 174.196 87.8122C174.345 88.2328 174.418 88.6807 174.418 89.1558C174.418 89.6209 174.345 90.066 174.196 90.4915C174.048 90.9179 173.834 91.2909 173.558 91.6125C173.28 91.9344 172.943 92.1895 172.548 92.3781C172.152 92.5651 171.711 92.6602 171.226 92.6602ZM171.226 94.4256C171.949 94.4256 172.622 94.2905 173.246 94.0165C173.87 93.7451 174.414 93.3721 174.88 92.8964C175.345 92.4217 175.711 91.8679 175.978 91.2336C176.244 90.6019 176.379 89.9227 176.379 89.2001C176.379 88.4774 176.244 87.8005 175.978 87.1662C175.711 86.5329 175.345 85.9816 174.88 85.5109C174.414 85.0408 173.87 84.6703 173.246 84.3974C172.622 84.1254 171.949 83.9892 171.226 83.9892C170.504 83.9892 169.83 84.1254 169.2 84.3974C168.571 84.6703 168.027 85.0408 167.569 85.5109C167.108 85.9816 166.744 86.5329 166.476 87.1662C166.208 87.8005 166.075 88.4774 166.075 89.2001C166.075 89.9227 166.208 90.6019 166.476 91.2336C166.744 91.8679 167.11 92.4217 167.576 92.8964C168.041 93.3721 168.583 93.7451 169.208 94.0165C169.831 94.2905 170.504 94.4256 171.226 94.4256ZM159.696 94.1588H161.566V84.2572H159.696V94.1588ZM149.026 88.7107V85.8448H150.989C151.433 85.8448 151.795 85.979 152.073 86.2462C152.348 86.512 152.489 86.8597 152.489 87.2845C152.489 87.681 152.357 88.0175 152.094 88.2944C151.832 88.5714 151.463 88.7107 150.989 88.7107H149.026ZM147.23 94.1582H149.026V90.2536H150.899L152.904 94.1582H155.012L152.724 90.0174C153.289 89.7291 153.707 89.346 153.98 88.8661C154.252 88.3865 154.387 87.834 154.387 87.2104C154.387 86.8942 154.327 86.5629 154.203 86.2163C154.079 85.8696 153.883 85.55 153.616 85.2584C153.349 84.9671 152.997 84.7261 152.562 84.5397C152.126 84.3517 151.597 84.2572 150.974 84.2572H147.23V94.1582ZM137.015 88.7107V85.8448H138.979C139.424 85.8448 139.785 85.979 140.062 86.2462C140.339 86.512 140.478 86.8597 140.478 87.2845C140.478 87.681 140.346 88.0175 140.085 88.2944C139.821 88.5714 139.453 88.7107 138.979 88.7107H137.015ZM135.219 94.1582H137.015V90.2536H138.89L140.894 94.1582H143.002L140.715 90.0174C141.28 89.7291 141.697 89.346 141.97 88.8661C142.242 88.3865 142.378 87.834 142.378 87.2104C142.378 86.8942 142.315 86.5629 142.192 86.2163C142.068 85.8696 141.873 85.55 141.606 85.2584C141.339 84.9671 140.986 84.7261 140.552 84.5397C140.117 84.3517 139.587 84.2572 138.965 84.2572H135.219V94.1582ZM127.54 84.2572L131.297 94.1582H129.217L128.357 91.6503H124.675L123.814 94.1582H121.854L125.61 84.2572H127.54ZM125.193 90.1057H127.823L126.516 86.2611L125.193 90.1057ZM117.615 84.2572L118.09 94.1582H116.265L115.939 87.3004L113.331 91.3382H112.456L109.833 87.404L109.507 94.1582H107.756L108.23 84.2572H109.967L112.946 88.9329L115.879 84.2572H117.615ZM111.192 58.8181C114.238 58.8181 115.851 56.9803 115.851 53.5075V40.3984H120.123V53.9091C120.123 59.3404 116.7 62.7135 111.192 62.7135C105.664 62.7135 102.231 59.3404 102.231 53.9091V40.3984H106.501V53.5075C106.501 56.9803 108.123 58.8181 111.192 58.8181ZM127.947 62.375H132.219V40.3989H127.947V51.7593V62.375ZM145.281 44.2977H139.431V40.3969H155.401V44.2977H149.551V62.3755H145.281V44.2977ZM167.594 52.9331H176.85V49.0347H167.594V44.2991H177.469V40.3984H163.324V62.3746H177.684V58.476H167.594V52.9331ZM192.094 48.9473L192.095 48.9477C192.462 49.0927 192.857 49.2484 193.275 49.422C196.906 50.881 199.155 52.5154 199.155 56.1685C199.155 60.2877 196.258 62.7444 191.403 62.7444C187.45 62.7444 184.359 60.9093 182.925 57.7045L182.853 57.5459L186.098 55.5124L186.197 55.7055C187.235 57.7517 189.095 58.8784 191.433 58.8784C194.719 58.8784 194.885 56.6988 194.885 56.2626C194.885 54.462 193.265 53.7612 190.62 52.7656C187.29 51.5173 184.3 50.0636 184.3 46.0489C184.3 42.5589 187.195 40.0279 191.188 40.0279C194.145 40.0279 196.505 41.2685 198.011 43.6191L198.115 43.78L195.029 45.8952L194.918 45.7219C194.13 44.4935 192.926 43.8941 191.247 43.8941C189.662 43.8941 188.508 44.7733 188.508 45.9869C188.508 47.5388 189.663 47.9925 191.968 48.8978L191.973 48.8995L192.094 48.9473ZM83.4818 0.43376L78.4591 16.9856L73.419 0.599442L73.3692 0.43376H69.5773L64.4854 16.983L59.5516 0.601984L59.4993 0.43376H54.541L62.2442 26.2459L62.2955 26.4147H66.2312L71.472 9.84048L76.6239 26.2459L76.6757 26.4147H80.6485L88.3161 0.740728L88.4055 0.43376H83.4818ZM113.539 17.6793V0.43376H118.437V26.4147H114.353L114.282 26.3232L100.912 8.83724V26.4147H96.0105V0.43376H100.389L100.462 0.525242L113.539 17.6793ZM128.042 0.43376V26.4147H145.021V21.803H133.093V15.252H144.033V10.6455H133.093V5.04284H144.765V0.43376H128.042ZM163.876 5.0438H159.173V12.8781H163.876C165.382 12.8781 167.626 11.8377 167.626 8.97695C167.626 6.39619 165.741 5.0438 163.876 5.0438ZM154.123 0.434721H164.097C168.295 0.434721 172.638 3.62993 172.638 8.97695C172.638 14.2325 168.206 17.4841 164.097 17.4841H159.173V26.4131H154.123V0.434721ZM180.071 0.43376V26.4147H195.256V21.803H185.121V0.43376H180.071ZM216.854 17.0847L212.964 7.55702L209.073 17.0847H216.854ZM200.02 26.4147L210.866 0.43376H215.061L225.906 26.4147H220.562L218.477 21.3273H207.45L205.365 26.4147H200.02ZM249.341 19.144C247.629 21.1429 245.185 22.2447 242.458 22.2447C237.46 22.2447 233.693 18.4605 233.693 13.4428C233.693 8.40525 237.46 4.60577 242.458 4.60577C245.118 4.60577 247.538 5.68066 249.269 7.63478L249.422 7.81063L252.896 4.83091L252.734 4.64999C250.084 1.64842 246.434 -0.00382233 242.458 -0.00382233C234.733 -0.00382233 228.683 5.90326 228.683 13.4428C228.683 21.088 234.605 26.8543 242.458 26.8543C246.463 26.8543 250.225 25.1304 252.776 22.1237L252.925 21.9428L249.497 18.9631L249.341 19.144ZM260.665 26.4151V0.434225H277.387V5.04331H265.715V10.646H276.655V15.2525H265.715V21.803H277.64V26.4151H260.665ZM199.155 74.2613H78.485V72.7366H199.155V74.2613ZM206.758 41.641H207.456C207.777 41.641 208.479 41.641 208.479 42.3851C208.479 43.0015 207.971 43.2145 207.374 43.2145H206.758V41.641ZM208.549 45.4504C208.65 45.5744 208.797 45.5978 208.948 45.5978H209.378C209.303 45.5565 209.258 45.5001 209.202 45.4312C209.195 45.4223 209.188 45.4132 209.18 45.4039L207.793 43.5982C208.556 43.5052 209.021 42.9782 209.021 42.3851C209.021 42.0476 208.854 41.2421 207.754 41.2421H206.243V45.5978H206.758V43.6368H207.2L208.549 45.4504ZM203.29 43.3344C203.29 41.021 205.165 39.134 207.479 39.134C209.793 39.134 211.68 41.021 211.68 43.3344C211.68 45.6598 209.793 47.539 207.479 47.539C205.165 47.539 203.29 45.6598 203.29 43.3344ZM202.806 43.3344C202.806 45.9078 204.91 48.0081 207.479 48.0081C210.056 48.0081 212.145 45.9078 212.145 43.3344C212.145 40.7501 210.056 38.6649 207.479 38.6649C204.91 38.6649 202.806 40.7501 202.806 43.3344Z" clip-rule="evenodd" fill-rule="evenodd"></path>
  </g>
  <defs>
    <clipPath id="clip0_7_456">
      <rect fill="white" height="95" width="278"></rect>
    </clipPath>
  </defs>
</svg>