<svg style="width: 80px; height: 17.0656px;" aria-label="Tribute Portfolio" role="img" preserveAspectRatio="" fill="none" viewBox="0 0 263 55" height="55" width="263" xmlns="http://www.w3.org/2000/svg">
  <g clip-path="url(#clip0_7_477)">
    <path fill="#231F20" d="M167.103 12.7528C167.103 13.9128 166.927 14.9848 166.579 15.9608C166.227 16.9368 165.707 17.7888 165.015 18.5048C164.323 19.2248 163.459 19.7888 162.427 20.1928C161.395 20.5968 160.203 20.8008 158.859 20.8008C157.495 20.8008 156.295 20.5968 155.263 20.1928C154.231 19.7888 153.367 19.2248 152.679 18.5048C151.987 17.7888 151.463 16.9368 151.111 15.9608C150.763 14.9848 150.587 13.9128 150.587 12.7528V0.716797H154.903V12.5848C154.903 13.1928 154.999 13.7568 155.195 14.2728C155.387 14.7888 155.659 15.2368 156.011 15.6168C156.359 15.9928 156.779 16.2888 157.271 16.5008C157.759 16.7088 158.287 16.8208 158.859 16.8208C159.431 16.8208 159.955 16.7088 160.435 16.5008C160.915 16.2888 161.331 15.9928 161.683 15.6168C162.031 15.2368 162.303 14.7888 162.499 14.2728C162.691 13.7568 162.787 13.1928 162.787 12.5848V0.716797H167.103V12.7528ZM97.8643 20.3012H102.18V0.717163H97.8643V20.3012ZM35.7588 4.53396H41.3468V20.302H45.6628V4.53396H51.2508V0.717957H35.7588V4.53396ZM73.5769 8.82318H71.0289V4.37118H73.8529C74.2369 4.37118 74.6329 4.39918 75.0409 4.45118C75.4449 4.50718 75.8049 4.61118 76.1209 4.76718C76.4329 4.92718 76.6929 5.15518 76.8929 5.44718C77.0969 5.74318 77.1969 6.13918 77.1969 6.63918C77.1969 7.17118 77.0849 7.58718 76.8529 7.88318C76.6209 8.17918 76.3329 8.39518 75.9809 8.53518C75.6289 8.67118 75.2409 8.75118 74.8049 8.77918C74.3729 8.80718 73.9609 8.82318 73.5769 8.82318ZM74.2929 0.719177H66.7129V20.3032H71.0289V12.4752H73.1609L77.2529 20.3032H82.4289L77.4449 12.0312C78.8329 11.7712 79.8809 11.1592 80.6009 10.1952C81.3209 9.22718 81.6809 8.05118 81.6809 6.66718C81.6809 5.52318 81.4809 4.57118 81.0849 3.80318C80.6889 3.03918 80.1529 2.42718 79.4809 1.97518C78.8089 1.52718 78.0249 1.20318 77.1289 1.00718C76.2329 0.815177 75.2889 0.719177 74.2929 0.719177ZM127.573 16.6512H123.701V12.1992H126.965C127.313 12.1992 127.693 12.2272 128.101 12.2792C128.505 12.3352 128.881 12.4352 129.233 12.5832C129.581 12.7352 129.873 12.9472 130.105 13.2352C130.333 13.5232 130.449 13.8952 130.449 14.3552C130.449 14.7792 130.361 15.1392 130.189 15.4312C130.013 15.7312 129.785 15.9672 129.509 16.1552C129.233 16.3392 128.925 16.4672 128.581 16.5432C128.241 16.6152 127.905 16.6512 127.573 16.6512ZM126.825 8.54718H123.701V4.37118H126.633C126.965 4.37118 127.305 4.39918 127.657 4.46718C128.005 4.53118 128.321 4.63518 128.597 4.78318C128.873 4.93118 129.101 5.13918 129.273 5.40318C129.449 5.67518 129.537 6.01118 129.537 6.41518C129.537 6.80318 129.457 7.13518 129.301 7.41118C129.145 7.69118 128.937 7.90718 128.681 8.07518C128.421 8.23918 128.129 8.36318 127.809 8.43518C127.485 8.51118 127.157 8.54718 126.825 8.54718ZM126.689 0.719177H119.385V20.3032H127.405C128.273 20.3032 129.145 20.2112 130.021 20.0272C130.897 19.8432 131.685 19.5392 132.385 19.1112C133.089 18.6912 133.657 18.1312 134.101 17.4392C134.545 16.7472 134.765 15.8872 134.765 14.8552C134.765 14.2272 134.665 13.6352 134.461 13.0832C134.257 12.5312 133.965 12.0472 133.589 11.6312C133.209 11.2192 132.761 10.8752 132.233 10.6072C131.709 10.3392 131.121 10.1592 130.477 10.0672V10.0112C131.493 9.69918 132.309 9.17918 132.925 8.44718C133.541 7.72318 133.853 6.80318 133.853 5.69918C133.853 4.62718 133.641 3.76718 133.217 3.12318C132.793 2.47918 132.237 1.97518 131.557 1.61518C130.873 1.25518 130.105 1.01918 129.245 0.899177C128.389 0.775177 127.533 0.719177 126.689 0.719177ZM182.566 4.53396H188.154V20.302H192.47V4.53396H198.058V0.717957H182.566V4.53396ZM213.688 0.71759H226.995V4.70159H218.004V8.35359H226.495V12.3336H218.004V16.3176H227.492V20.3016H213.688V0.71759ZM7.55723 42.7332H4.68123V38.0892H6.89323C7.29723 38.0892 7.72523 38.1132 8.16523 38.1532C8.60923 38.2012 9.00923 38.3092 9.36923 38.4772C9.72923 38.6412 10.0252 38.8772 10.2572 39.1772C10.4852 39.4852 10.6012 39.8852 10.6012 40.3812C10.6012 40.8452 10.5132 41.2252 10.3372 41.5292C10.1652 41.8332 9.92923 42.0772 9.64523 42.2492C9.36123 42.4252 9.03723 42.5492 8.67723 42.6252C8.31723 42.6972 7.94523 42.7332 7.55723 42.7332ZM7.64123 34.4372H0.365234V54.0212H4.68123V46.3852H7.83323C8.86523 46.3852 9.82523 46.2892 10.7132 46.0972C11.5972 45.9012 12.3612 45.5772 13.0092 45.1132C13.6532 44.6492 14.1612 44.0332 14.5292 43.2612C14.8972 42.4852 15.0812 41.5252 15.0812 40.3812C15.0812 39.2212 14.8852 38.2572 14.4892 37.4892C14.0932 36.7292 13.5572 36.1212 12.8812 35.6652C12.2092 35.2132 11.4212 34.8972 10.5172 34.7132C9.61323 34.5292 8.65323 34.4372 7.64123 34.4372ZM34.5016 44.2292C34.5016 45.1492 34.6456 45.9932 34.9296 46.7612C35.2136 47.5252 35.6256 48.1892 36.1616 48.7532C36.6936 49.3132 37.3336 49.7532 38.0856 50.0652C38.8336 50.3772 39.6656 50.5332 40.5856 50.5332C41.5096 50.5332 42.3416 50.3772 43.0896 50.0652C43.8376 49.7532 44.4776 49.3132 45.0136 48.7532C45.5496 48.1892 45.9576 47.5252 46.2456 46.7612C46.5296 45.9932 46.6736 45.1492 46.6736 44.2292C46.6736 43.3252 46.5296 42.4852 46.2456 41.7092C45.9576 40.9372 45.5496 40.2692 45.0136 39.7052C44.4776 39.1452 43.8376 38.7052 43.0896 38.3932C42.3416 38.0772 41.5096 37.9212 40.5856 37.9212C39.6656 37.9212 38.8336 38.0772 38.0856 38.3932C37.3336 38.7052 36.6936 39.1452 36.1616 39.7052C35.6256 40.2692 35.2136 40.9372 34.9296 41.7092C34.6456 42.4852 34.5016 43.3252 34.5016 44.2292ZM30.0176 44.2292C30.0176 42.6612 30.2816 41.2412 30.8096 39.9692C31.3336 38.6932 32.0656 37.6132 33.0056 36.7172C33.9456 35.8212 35.0656 35.1372 36.3536 34.6572C37.6456 34.1772 39.0576 33.9372 40.5856 33.9372C42.1176 33.9372 43.5296 34.1772 44.8216 34.6572C46.1096 35.1372 47.2256 35.8212 48.1696 36.7172C49.1056 37.6132 49.8416 38.6932 50.3656 39.9692C50.8936 41.2412 51.1536 42.6612 51.1536 44.2292C51.1536 45.7972 50.8936 47.2172 50.3656 48.4852C49.8416 49.7612 49.1056 50.8452 48.1696 51.7412C47.2256 52.6372 46.1096 53.3172 44.8216 53.8012C43.5296 54.2812 42.1176 54.5172 40.5856 54.5172C39.0576 54.5172 37.6456 54.2812 36.3536 53.8012C35.0656 53.3172 33.9456 52.6372 33.0056 51.7412C32.0656 50.8452 31.3336 49.7612 30.8096 48.4852C30.2816 47.2172 30.0176 45.7972 30.0176 44.2292ZM74.2252 42.542H71.6812V38.09H74.5012C74.8892 38.09 75.2852 38.118 75.6932 38.17C76.0972 38.226 76.4572 38.33 76.7692 38.486C77.0852 38.646 77.3452 38.87 77.5452 39.166C77.7492 39.458 77.8492 39.858 77.8492 40.354C77.8492 40.89 77.7332 41.306 77.5052 41.602C77.2732 41.898 76.9812 42.114 76.6332 42.25C76.2812 42.39 75.8892 42.47 75.4572 42.498C75.0212 42.526 74.6132 42.542 74.2252 42.542ZM74.9452 34.438H67.3652V54.022H71.6812V46.194H73.8092L77.9052 54.022H83.0772L78.0972 45.75C79.4812 45.49 80.5332 44.878 81.2532 43.91C81.9732 42.946 82.3332 41.77 82.3332 40.382C82.3332 39.242 82.1332 38.286 81.7372 37.522C81.3412 36.758 80.8052 36.146 80.1332 35.694C79.4572 35.242 78.6772 34.922 77.7812 34.726C76.8852 34.534 75.9412 34.438 74.9452 34.438ZM101.86 38.2528H96.2725V34.4368H111.764V38.2528H106.176V54.0208H101.86V38.2528ZM140.534 34.4364H127.394V54.0204H131.71V46.3844H139.87V42.4004H131.71V38.4204H140.534V34.4364ZM160.339 44.2292C160.339 45.1492 160.483 45.9932 160.767 46.7612C161.055 47.5252 161.463 48.1892 161.999 48.7532C162.535 49.3132 163.175 49.7532 163.923 50.0652C164.671 50.3772 165.503 50.5332 166.427 50.5332C167.347 50.5332 168.183 50.3772 168.927 50.0652C169.675 49.7532 170.319 49.3132 170.851 48.7532C171.387 48.1892 171.795 47.5252 172.083 46.7612C172.367 45.9932 172.511 45.1492 172.511 44.2292C172.511 43.3252 172.367 42.4852 172.083 41.7092C171.795 40.9372 171.387 40.2692 170.851 39.7052C170.319 39.1452 169.675 38.7052 168.927 38.3932C168.183 38.0772 167.347 37.9212 166.427 37.9212C165.503 37.9212 164.671 38.0772 163.923 38.3932C163.175 38.7052 162.535 39.1452 161.999 39.7052C161.463 40.2692 161.055 40.9372 160.767 41.7092C160.483 42.4852 160.339 43.3252 160.339 44.2292ZM155.859 44.2292C155.859 42.6612 156.119 41.2412 156.647 39.9692C157.171 38.6932 157.907 37.6132 158.847 36.7172C159.787 35.8212 160.903 35.1372 162.191 34.6572C163.483 34.1772 164.895 33.9372 166.427 33.9372C167.955 33.9372 169.367 34.1772 170.659 34.6572C171.947 35.1372 173.067 35.8212 174.007 36.7172C174.947 37.6132 175.679 38.6932 176.203 39.9692C176.731 41.2412 176.995 42.6612 176.995 44.2292C176.995 45.7972 176.731 47.2172 176.203 48.4852C175.679 49.7612 174.947 50.8452 174.007 51.7412C173.067 52.6372 171.947 53.3172 170.659 53.8012C169.367 54.2812 167.955 54.5172 166.427 54.5172C164.895 54.5172 163.483 54.2812 162.191 53.8012C160.903 53.3172 159.787 52.6372 158.847 51.7412C157.907 50.8452 157.171 49.7612 156.647 48.4852C156.119 47.2172 155.859 45.7972 155.859 44.2292ZM197.685 34.4364H193.369V54.0204H205.681V50.0364H197.685V34.4364ZM221.28 54.0212H225.596V34.4372H221.28V54.0212ZM246.66 46.7612C246.376 45.9932 246.232 45.1492 246.232 44.2292C246.232 43.3252 246.376 42.4852 246.66 41.7092C246.948 40.9372 247.356 40.2692 247.892 39.7052C248.428 39.1452 249.068 38.7052 249.816 38.3932C250.564 38.0772 251.396 37.9212 252.316 37.9212C253.24 37.9212 254.076 38.0772 254.82 38.3932C255.568 38.7052 256.212 39.1452 256.744 39.7052C257.28 40.2692 257.688 40.9372 257.976 41.7092C258.26 42.4852 258.404 43.3252 258.404 44.2292C258.404 45.1492 258.26 45.9932 257.976 46.7612C257.688 47.5252 257.28 48.1892 256.744 48.7532C256.212 49.3132 255.568 49.7532 254.82 50.0652C254.076 50.3772 253.24 50.5332 252.316 50.5332C251.396 50.5332 250.564 50.3772 249.816 50.0652C249.068 49.7532 248.428 49.3132 247.892 48.7532C247.356 48.1892 246.948 47.5252 246.66 46.7612ZM242.54 39.9692C242.012 41.2412 241.752 42.6612 241.752 44.2292C241.752 45.7972 242.012 47.2172 242.54 48.4852C243.064 49.7612 243.8 50.8452 244.74 51.7412C245.68 52.6372 246.796 53.3172 248.084 53.8012C249.376 54.2812 250.788 54.5172 252.316 54.5172C253.848 54.5172 255.26 54.2812 256.552 53.8012C257.84 53.3172 258.96 52.6372 259.9 51.7412C260.84 50.8452 261.572 49.7612 262.096 48.4852C262.624 47.2172 262.888 45.7972 262.888 44.2292C262.888 42.6612 262.624 41.2412 262.096 39.9692C261.572 38.6932 260.84 37.6132 259.9 36.7172C258.96 35.8212 257.84 35.1372 256.552 34.6572C255.26 34.1772 253.848 33.9372 252.316 33.9372C250.788 33.9372 249.376 34.1772 248.084 34.6572C246.796 35.1372 245.68 35.8212 244.74 36.7172C243.8 37.6132 243.064 38.6932 242.54 39.9692Z" clip-rule="evenodd" fill-rule="evenodd"></path>
  </g>
  <defs>
    <clipPath id="clip0_7_477">
      <rect fill="white" height="55" width="263"></rect>
    </clipPath>
  </defs>
</svg>