<svg aria-label="wh" role="img" preserveAspectRatio="" fill="none" viewBox="0 0 300 42" height="42" width="300" xmlns="http://www.w3.org/2000/svg">
  <path fill="black" d="M28.3943 0L17.1117 24.1178L7.64696 1.49781H0L16.9899 40.9503L28.4248 16.1193L39.6769 41.0318L57.0526 1.49781L49.4361 1.508L39.7784 24.1178L28.3943 0ZM90.5142 1.52832H97.4909V16.9343H113.465V1.52832H120.442V40.6344H113.465V23.4147H97.4909V40.6344H90.5142V1.52832ZM149.954 0.804932C138.478 0.804932 129.795 9.77138 129.795 21.0814C129.795 32.3812 138.478 41.3579 149.954 41.3579C161.429 41.3579 170.163 32.3812 170.163 21.0814C170.163 9.78158 161.429 0.804932 149.954 0.804932ZM149.954 7.48903C157.397 7.48903 162.983 13.358 162.983 21.0814C162.983 28.815 157.397 34.6738 149.954 34.6738C142.51 34.6738 136.975 28.815 136.975 21.0814C136.975 13.3478 142.51 7.48903 149.954 7.48903ZM184.177 8.00864H175.129V1.52832H200.202V8.00864H191.154V40.6344H184.177V8.00864ZM231.806 1.52832H210.297V40.6242H231.806V34.1439H217.283V23.2516H231.552V16.7713H217.283V8.00864H231.806V1.52832ZM244.713 1.52832H251.69V34.1439H264.201V40.6242H244.713V1.52832ZM272.806 31.1359L272.792 31.1381L272.803 31.1177C272.804 31.1238 272.805 31.1298 272.806 31.1359ZM272.806 31.1359C273.748 36.9347 278.862 41.3374 285.832 41.3374C293.58 41.3374 299.013 35.9474 299.013 29.2021C299.013 24.2298 296.008 19.502 290.168 17.5865L284.634 15.7728C282.044 14.9475 281.221 13.3376 281.221 11.7277C281.221 9.29249 283.131 7.47878 285.872 7.47878C287.995 7.47878 289.599 8.56902 290.321 10.128L296.779 7.275C295.022 3.38273 291.042 0.794678 285.872 0.794678C278.896 0.794678 274.031 5.56322 274.031 11.7379C274.031 16.4147 276.662 20.6126 282.196 22.4263L287.731 24.24C290.727 25.2283 291.813 27.1949 291.813 29.2225C291.813 32.2793 289.335 34.6635 285.822 34.6635C282.613 34.6635 280.338 32.697 279.769 30.0478L272.806 31.1359Z" clip-rule="evenodd" fill-rule="evenodd"></path>
</svg>