<svg style="width: 36px; height: 38.9309px;" aria-label="W Hotels" role="img" preserveAspectRatio="" fill="none" viewBox="0 0 185 200" height="200" width="185" xmlns="http://www.w3.org/2000/svg">
  <path fill="black" d="M64.3579 182.155C64.3579 175.355 59.4285 170.198 52.8566 170.198C46.2846 170.198 41.4014 175.355 41.4014 182.155C41.4014 188.955 46.2846 194.113 52.8566 194.113C59.4285 194.113 64.3579 188.955 64.3579 182.155ZM35.0581 182.155C35.0581 172.207 42.7256 164.311 52.8566 164.311C62.9884 164.311 70.7013 172.207 70.7013 182.155C70.7013 192.104 62.9884 200 52.8566 200C42.7256 200 35.0581 192.104 35.0581 182.155ZM0.375 164.95H6.53633V178.504H20.6386V164.95H26.7996V199.361H20.6386V184.21H6.53633V199.361H0.375V164.95ZM75.0739 170.655H83.0607V199.361H89.2226V170.655H97.2094V164.95H75.0739V170.655ZM106.123 164.95H125.109V170.655H112.284V178.368H124.881V184.072H112.284V193.656H125.109V199.361H106.123V164.95ZM142.67 164.95H136.51V199.361H153.715V193.656H142.67V164.95ZM161.296 191.009L167.457 190.051C167.959 192.378 169.967 194.113 172.797 194.113C175.9 194.113 178.091 192.013 178.091 189.32C178.091 187.541 177.133 185.806 174.486 184.94L169.602 183.342C164.719 181.745 162.391 178.048 162.391 173.94C162.391 168.509 166.681 164.311 172.843 164.311C177.406 164.311 180.921 166.593 182.472 170.016L176.768 172.526C176.129 171.157 174.714 170.198 172.843 170.198C170.423 170.198 168.735 171.796 168.735 173.94C168.735 175.355 169.465 176.77 171.747 177.5L176.631 179.098C181.788 180.786 184.435 184.94 184.435 189.32C184.435 195.254 179.642 200 172.797 200C166.636 200 162.117 196.12 161.296 191.009ZM55.0053 76.7476L91.0268 -1.52588e-05L127.364 76.7476L158.205 4.8019L182.541 4.7565L127.052 130.569L91.1406 51.2827L54.6319 130.32L0.375 4.7565H24.7833L55.0053 76.7476Z" clip-rule="evenodd" fill-rule="evenodd"></path>
</svg>